<?xml version="1.0" encoding="UTF-8"?>
<svg id="Layer_2" data-name="Layer 2" xmlns="http://www.w3.org/2000/svg" viewBox="0 0 248.17 149.06">
  <defs>
    <style>
      .cls-1 {
        fill: #171717;
        stroke-width: 0px;
      }

      .cls-2 {
        opacity: .98;
      }
    </style>
  </defs>
  <g id="chapter_4_production" data-name="chapter 4 production">
    <g class="cls-2">
      <path class="cls-1" d="M130.16,147.92c0,.21,0,.42-.21.42h-3.76c-.63,0-.63-.84-1.04-.84-1.04,0-2.3-.42-3.13.63-.21.21-.83,0-1.25.21-1.25.84-2.3-1.67-3.13-.63-1.46,1.04-2.72.42-3.97.63h-7.31c-.63,0-1.04,0-1.67-.42-.84-.84-2.09-.84-2.93-.21-.83.63-1.46.42-2.3.63s-1.25-.42-1.67-.84c-.21-.21-.84-.21-.84,0-.63,1.04-1.67.84-2.51.84h-7.52c-.63,0-1.67.42-1.67-.42s.84-.42,1.46-.42c.63-.21,1.04-1.04,1.88-.83.63,0,1.04-.21,1.46,0,1.25.21,2.09-.42,2.3-1.25.21-1.04,1.25-1.88,1.04-2.92-.21-.84,0-1.88,0-2.72,0-.42-.42-1.04-.84-1.67-.42-1.04-.84-2.3-1.67-2.92-.84-.84-.84-2.09-1.46-2.72-1.04-.63-1.04-1.88-1.88-2.72-.84-.63-1.46-1.25-1.88-1.88-1.46-1.88-2.92-3.55-4.6-5.22-.42-.63,0-1.25-.84-1.67-1.04-.63-1.04-1.88-1.67-2.72-.83-.63-1.67-1.25-2.51-2.3-.42-.63-.42-1.46-.84-1.88-.83-.42-1.67-1.25-1.67-1.88-.21-.84-1.25-1.25-1.04-2.09-.84-1.25-1.88-1.88-2.51-3.13-.42-.83-1.46-1.46-1.88-2.51-.63-.84-2.09-1.04-2.09-2.3-.21-1.25-1.67-1.46-1.67-2.72,0-.21-.21-.42-.42-.63l-2.09-2.09c.21-.83-.63-1.25-1.04-1.88-.63-.84-1.46-1.46-2.09-2.09-.83-.84-1.67-1.25-1.88-2.72,0-.83-1.46-1.04-1.67-2.09,0-.21-.42-.63-.63-1.04-.63-1.04-2.09-1.46-2.51-2.92-.63-1.46-1.88-2.09-2.72-2.92-.84-1.04-1.04-2.51-2.3-3.13-.63-.63-1.04-.63-1.67,0-1.88,1.67-3.76,3.76-5.64,5.43-.21.42-.63.63-.63,1.04,0,1.25-1.67,1.46-1.88,2.92-.21.21-.21.63-.42.63-1.25.84-1.25,2.51-2.51,3.55-1.46,1.25-2.51,2.51-3.76,3.76-1.46,1.04-1.67,2.72-2.93,3.76-.42.21-.42.84-.42,1.04,0,1.67.21,3.34,0,5.01-.21,1.67.84,3.55-.84,5.01.42,1.25-.63,2.72.63,3.97.42.21.21.84.21,1.46v11.49c0,1.04.42,1.88-.63,2.51v3.76c1.04.63.63,1.67.63,2.51.21.42,0,.83,0,1.25v1.67c0,.21.21.42.21.42,1.25.42.21,2.09,1.25,2.72,0,.21,0,.84.21,1.04.42.63,1.04,1.04,1.46,1.46.63.63,1.04,1.04,1.67,1.67,1.25-.84,2.3,1.04,3.76.63.21,0,.21.21.42.42-.21.21-.21.42-.21.63-.42.21-.84.63-1.04.63h-10.24c-1.46-1.46-3.13-.84-4.81-.84-.84,0-1.46,1.04-2.51.84-1.04-.21-2.3,0-3.13,0H3.55c0-.42,0-.84.21-.84,1.46.63,2.51-1.04,3.76-.83,2.09.42,3.13-.84,3.97-2.09-.21-1.04.42-1.25,1.04-1.67q1.46-1.25,1.46-3.55c.21-.84,1.04-1.04.84-2.09-.21-1.04,0-1.88,0-2.92v-36.77c0-1.25-.42-2.3.84-3.34v-.84c-1.25-.63-.84-1.88-.84-2.92V17.34c0-1.46-.21-2.92,0-4.39.21-2.3-1.04-3.97-2.09-5.85-.84-1.04-2.09-1.88-2.92-2.92-.21-.21-.84-.42-1.04-.21-1.67.42-2.72-1.25-4.39-1.04-1.04.42-2.72,0-4.18,0-.21,0-.21-.21-.21-.42.42,0,.63-.21.84-.21h11.28c.84,0,1.67.42,2.3-.63h3.55c.63,1.25,1.88.63,2.92.63,3.55,0,7.1.21,10.86,0,.84,0,2.3.63,3.34-.84h3.13c.21,0,.42.42.42.63l-.21.21c-1.46-.63-2.3.83-3.34.83-.21,0-.42.42-.63.63-.63.63-1.67-.21-2.3.42-1.25,1.67-2.72,2.72-3.97,4.18,0,1.25-1.25,1.67-1.04,2.92.21,1.04,0,2.09,0,2.92-1.25.84-1.04,1.67,0,2.72.21.21,0,.42,0,.63v8.78c0,.83-.21,1.25-.63,1.67-.42,1.04-.42,2.09.21,3.34.63,1.04.84,1.04,0,2.3-.42.84-.21,1.46-.42,1.88,1.25,1.04.84,2.3.84,3.34,0,1.67.21,3.55,0,5.01-.21,1.88.84,3.55-.84,5.22v3.55c.21.83,1.25,1.46,1.04,2.51-.21,1.04-.21,1.88-.21,2.92v8.36c0,.83.42,1.46-.63,2.09v3.55c1.25.84.63,2.09.63,2.92.21,3.55.21,7.31,0,10.86,0,1.04.63,2.51-.63,3.34-.21,1.46-.21,2.92-.21,4.18,0,.21.63.63.84.84.42.42.63.42,1.04,0,.63-1.25,1.25-2.51,2.51-3.34,1.04-1.04,1.88-2.09,2.93-2.92s1.04-2.51,2.3-3.13c.42-1.67,1.67-2.51,2.72-3.55,1.04-1.25,2.09-2.51,3.55-3.34,1.25-1.46,1.88-3.13,3.13-4.6.42-.21.42-.63.63-1.04,1.04-1.04,2.3-2.3,3.55-3.55.21-1.46,1.46-2.3,2.51-3.34.84-.84,1.04-2.09,1.88-2.92,1.04-.63,2.3-1.67,2.72-2.51.84-2.09,2.51-3.13,3.97-4.6,1.04-1.04,1.25-2.51,2.51-3.55,1.04-.84,2.09-1.88,2.3-3.13,1.46-1.46,2.72-2.72,3.97-4.18.63-.42,1.67-.84,1.67-1.88,0-.84,1.04-1.04,1.25-1.67.42-.84.84-1.46,1.04-2.09.21-1.04.84-1.67,1.46-1.88,1.67-.63,2.51-1.88,3.76-3.13-.21-.83.42-1.25.84-1.67.63-.63,1.46-1.04,2.09-1.88.42-.83.63-1.88,1.25-2.3.84-.63,1.46-1.25,1.67-2.3,0-.21.21-.21.21-.42,1.25-1.04,2.72-2.3,3.55-3.97.83-1.46,2.09-2.3,3.13-3.55.21-.42.83-.42.83-.84.21-1.46,1.67-1.88,1.88-3.13.21-.63.63-.83,1.04-1.46.42-.21.63-.42.63-1.04,0-1.04-.21-2.09.84-2.92.42-1.88-.21-3.13-2.51-4.39-.63-.42-1.46-1.04-2.51-1.04-.83.21-1.88.21-2.51,0h-.63c.21-.21.42-.63.63-.63,1.25,0,2.72.21,4.18,0,.84,0,2.09.63,2.92-.63h3.55c.63,1.04,1.25.63,2.09.63h12.54c1.04,0,2.51.63,3.34-.84h2.3c.21,0,.42.21.42.21,0,.21-.21.63-.42.63-1.25-.63-2.09,1.04-3.34.63-1.46-.21-2.09,1.04-3.34,1.04-.42,0-.63.21-1.04.42-1.04.42-2.09,1.46-3.76,1.25-.42.83-1.25.63-1.88,1.04-.84,1.25-2.51,1.25-3.34,2.72-2.72,1.04-4.39,3.76-6.27,5.43-.63,1.88-2.3,2.72-3.55,3.97-.42.84-1.46,1.46-1.67,2.09-.42,1.25-1.46,1.88-2.09,2.72-.42.84-1.46,1.04-1.88,1.88-.63,1.88-2.09,2.72-3.34,3.97-.63.83-1.04,1.67-1.46,2.3-.42,1.25-1.04,2.3-1.88,3.13-1.04.63-1.88,1.67-2.72,2.51-.83.84-1.67,1.67-2.72,2.51-.63.84-.63,2.51-1.88,2.93-.42,1.46-1.46,2.3-2.3,3.13-1.46,1.46-3.13,2.72-3.97,4.18-1.04,1.67-2.51,3.13-3.55,4.18-.63,2.3-2.51,3.13-3.55,4.39-1.04,1.04-1.04,2.09-2.09,2.92-1.04.63-1.67,1.88-2.72,2.51-.42.42-.42,2.09,0,2.3,1.88,1.46,2.51,3.97,4.39,5.22.42,1.88,2.92,4.6,4.18,5.85.42.84,1.67,1.04,1.88,2.3,0,1.25,1.88,1.46,1.67,2.72,0,.21.21.42.42.63.83,1.04,1.88,2.09,2.92,2.93,0,1.46,1.25,1.88,1.88,2.92.63.83,2.09,1.25,2.3,2.51.21,1.04,1.46,1.25,1.46,2.09,0,1.46,1.67,1.46,1.67,2.72.21.42.63.83.63,1.25.84.84,2.09,1.25,1.88,2.51.83.63,1.46,1.46,2.09,2.09,0,.21.21.21.21.42-.21,1.25,1.67,1.46,1.88,2.92,0,.42.42.63.63,1.04,1.04,1.04,2.3,2.3,3.55,3.55,0,1.67,1.46,2.09,2.51,3.34.63.63.63,1.25,1.25,1.88.42.63,1.04.84,1.04,1.67,0,.42.42.84.63.84.83,1.04,2.09,2.09,2.51,3.13.63,1.04,1.67,1.88,2.51,2.92.21.21,0,.84.21,1.04.63.42.63.84.84,1.67.21.63.84,1.04,1.46,1.46,1.04.42.84,1.88,1.88,2.51.63.84,1.67,1.46,1.67,2.51,0,0,2.09,2.51,2.3,2.51.83.42.63,1.46,1.25,1.88,1.04,1.04,1.67,2.51,3.34,2.51,1.25,1.25,2.3,2.3,3.13,3.34h.84c1.04.84,2.09,1.04,3.13,1.67.84.63,1.88,1.25,2.92,1.04.63.83,1.67.42,2.72.63.42.21,1.25.63,2.09.83h2.3c.21,0,.42.42.42.42ZM25.28,142.07c-.21-.63-.84-.21-1.25-.21.21-.42.42-.84.42-1.04.21-.42.42-.83.42-1.04-.21-.42-.63-.42-1.04-.42-.63,0-1.25,0-1.88.42-.21.21-.84.21-1.25.21-.21-.42.42-1.04-.42-1.25-.42-.21-1.46-.21-1.88,0-1.04.63-1.04,1.67-1.67,2.72,1.25,1.04,0,1.25-.42,1.67,0,.21-.21.21-.42.21-.21.42-.42.63,0,.63.21.21.63.21.84.21s.63-.21.63-.42c.42-.42.63-.21.63.21.21.42,0,.84,0,1.25.21.84.42.63,1.04.21,1.25-.63,2.3-.63,2.93,0,1.25.84,2.3.42,3.13.42.63,0,.21-.63,0-.84s-.21-.42,0-.63c.63,0,1.04,0,1.25.21.42.42.63.42.84,0,.21-.21.21-.63,0-.84-.63-.63-1.25-1.04-1.88-1.67ZM17.34,15.46c0,.63.42,1.04.84.83.42,0,.63-.42.84-.63,0-.84-.42-1.25-1.04-1.04-.42,0-.63.42-.63.84ZM17.34,56.83c.21,0,.21.42.42.63l.63-.63c.21-.21.42-.42.63-.63,0-.84-.21-1.04-1.04-1.04-.21-.21-.42.21-.63.63v1.04ZM17.76,82.32c0,.21-.21.42-.42.63,0,.21.21.42.21.83.42-.21.42-.42.63-.83-.21-.21-.21-.42-.42-.63ZM17.34,94.43c0,.42,0,.63.21.84q.21.42.42,0c1.04-.84,1.04-1.04,0-2.09q-.21-.21-.42.21c-.21.21-.21.63-.21,1.04ZM18.8,104.88q-.21-.21-.42-.21c-.42.42-.63,1.04-1.04,1.67,0,.21.42.63.42.63.84.21,1.04-.21,1.46-.42.63-.42,1.46-.21,2.09-.42.21-.21.21-.84.21-1.25-.21-.21-.42-.42-.63,0-.63.84-1.46.84-2.09,0ZM17.34,115.74c.21.21.42.21.63.42q1.25,0,2.51-1.04c.21-.21.21-.42-.21-.63-.84-.21-1.88-.21-2.3.63l-.63.63ZM17.76,118.25c-.21.63-.42,1.04-.42,1.46,0,.21.42.42.42.63.21-.21.21-.42.21-.63,0-.42,0-.84-.21-1.46ZM18.18,125.77s.21.21.42.21c0-.21.21-.42.42-.63,0-.84-.21-1.67-1.04-2.3-.21-.21-.21-.42-.42,0,0,.21-.21.21-.21.42.42.84.63,1.46.84,2.3ZM17.76,131.2c-.21,0-.21.21-.42.21.21.21.42.21.63.42q0-.21-.21-.63ZM17.97,25.28c-.42.21-.63.63-.21.84l.84-.84c.21.63.21,1.04.42,1.46.21.21.84.42,1.25.42.42-.21.21-.63,0-1.04-.21,0-.42-.42-.21-.42.42-.84,1.04-1.25,1.46-1.88,0,0,0-.42-.21-.63s-.63-.42-.84-.21c-.84.63-1.67,1.46-2.3,1.88-.21.21-.21.42-.21.42ZM17.97,86.5c.21.63.21,1.67,1.04,2.09.42.42.84.42.84,0-.42-1.04,1.04-1.25.84-2.3,0-.63-.84-.84-1.25-.84h-1.46c-.42.21-.42.42,0,1.04ZM17.97,21.73h1.04c-.21-.21-.42-.21-.63-.42l-.42.42ZM17.97,25.7v-.42c.21.21,0,.42,0,.42ZM18.39,79.81c.21-.21.42-.21.63-.42h-1.04l.42.42ZM18.18,11.49c.21.42.42.84,1.67,1.04q.21-.21.42-.21c.42-.21.63-.21.42-.63-.42-.42-1.04-.84-1.67-1.25-.21,0-.63,0-.63.21-.21.21-.42.63-.21.84ZM20.68,136.84c.42,0,.84,0,1.04-.21.21,0,.42-.63.42-.83.21-.63.21-1.25,0-1.67-.21-.63-.63-.83-.84-1.25,0-.21-.63,0-.63.21,0,1.25-.84,1.88-2.09,2.09-.42.21-.63.42-.21.63.42.42.63,1.04,1.46,1.04,0,.21.21.63.21.63.63,0,.63-.21.63-.63ZM18.8,19.43c0-.21-.21-.42-.21-.63-.21,0-.42.21-.42.21,0,.21.21.42.63.42ZM20.06,108.85c-.21-.21-.63-.21-1.04-.21-.21.21-.63.42-.84.42.21.42.42.63.84,1.04.21.21.42.21.63.42.21,0,.63,0,.63-.21.21-.21.42-.42.42-.63.21-.63-.21-.84-.63-.84ZM19.85,140.4c.21-.21.63-.21.84-.42v1.46q0,1.04-1.25.42h-.84c-.21-.42-.21-.84-.21-.84.63,0,1.25-.21,1.46-.63ZM19.85,35.31c-.21,0-.21-.42-.42-.84-.21.42-.42.84-.42,1.04,0,0,.21.42.42.63,0-.21.21-.42.42-.84ZM19.43,90.46l-.42.42c.21.21.21.42.42.63v-1.04ZM20.27,119.5c-.42.21-.84.63-1.04,1.04-.21.21,0,.63.21.63s.42,0,1.88-1.67c-.42,0-.63-.21-1.04,0ZM22.35,17.13c-.21-.21-.21-.42-.21-.42-.21-.42-.42-.42-.63,0s-.63.63-1.25.63c-.21,0-.42.42-.42,1.04.21.42.42.42.63,0,.42-.42.84-.42,1.25-.63.21,0,.42-.42.63-.63ZM21.52,31.34c0-.42-.21-.63-.21-.84-.21.21-.42.21-.63.42-.21,0-.42.21-.63.42,0,.21-.21.21-.21.42.21,0,.42.21.63.21.63,0,1.04-.21,1.04-.63ZM23.4,100.49c.21-.21.42-.21.84-.63.21-.21.42-.42.42-.63,0,0,0-.21-.42.21.21-.21.21-.42.21-.42-.21,0-.42.21-.42.42-.21,0-.21.21,0,.21h-2.51c0-.63-.63-.84-1.04-.84-.21.21-.42.21-.63.42.21.21.21.42.42.42.21.21.42.21.84.21.21,0,.42,0,.42-.21v1.04c0,.21.21.42.63.63v.42c.21,0,.42.21.63.42,0,0,.21-.21-.42-.84.21.21.42.21.63.42,0-.21-.21-.21-.42-.42h-.42c0-.84.63-.84,1.25-.84ZM20.68,136.84h-.84c0-.42,0-.83.63-.83,0,0,.21.42.21.83ZM20.27,95.69c-.21.21-.63.42,0,.63,0,0,.21,0,.42-.63,0-.21-.21-.21-.42,0ZM20.27,48.47c-.21.21-.21.42-.21.63-.21,0,0,.21.21.42v-1.04ZM20.68,38.86h-.63c0,.21.21.21.42.42,0,0,.21-.21.21-.42ZM21.52,119.5c-.21.42-.84.83-1.46,1.67h.84c.42-.21.63-.42.63-.84v-.83ZM21.1,52.65c-.21.21-.42.42-.42.63-.21.84.84,1.25,1.04,1.88.21-.21.42-.42.42-.63.21-1.04-.63-1.25-1.04-1.88ZM20.68,12.75h.84c-.21-.21-.21-.42-.42-.42-.21-.21-.42-.21-.42,0v.42ZM22.15,42.62c0-.42-.21-.63-.84-.63-.21,0-.42.21-.63.42.42.21.63.42.84.63,0,.21.21.21.42.21,0-.21.21-.42.21-.63ZM20.89,83.78c.21,0,.63,0,.63-.21v-1.67h-.84c0,.63,0,1.04.21,1.88ZM20.68,95.27v.42c.21-.21.42-.63.42-.84l-.42.42ZM22.56,129.32c1.04.21,1.46-.42,1.88-.84.21,0,.21-.21.21-.21,0-.21-.21-.42-.42-.42-.63-.21-1.04,0-1.67-.21-.42,0-.84-.63-.84-.63-.63.63-1.04,1.04-1.04,1.88,0,1.04,0,1.25.84.63.42-.21.84-.21,1.04-.21ZM20.89,6.89c.21.42.84.42,1.25,0-.21-.42-.63-.42-.63-.42-.21,0-.63.21-.63.42ZM20.89,95.69c.42-.21.42-.42.63-.63,0,0-.21-.21-.63.63ZM21.52,99.66q-.21,0-.42.21c.21-.21.42-.21.42-.21ZM21.52,51.4s.21.21.42.21c0-.21,0-.42-.21-.42s-.21.21-.21.21ZM22.15,114.28h.63c.21,0,.21-.21.42-.63-.21-.63-.42-.83-1.25-.83l-.42.42q0,.21.21.42c0,.21.21.42.42.63ZM21.52,119.3c0-.21.21-.42.42-.63-.21.21-.42.21-.42.63ZM21.52,119.5c.42-.21.42-.42.63-.63l-.63.63ZM21.73,48.47c.21,0,.21-.21.42-.21-.21-.21-.21-.42-.42-.63v.84ZM22.15,19.85c.21.42.42.63.84.84l.42.42c.42-.21.84-.42,1.25-.84,0-.21-.21-.42-.21-.63-.42-.21-.63-.63-1.04-.84-.21,0-.63,0-1.04.21-.21.21-.21.63-.21.83ZM22.15,77.09c.21,0,.42.21.63.21q.21-.21.42-.21c-.21-.21-.42-.42-.63-.42s-.21.21-.42.42ZM22.15,101.33h.21-.21ZM24.65,142.9c0,.21-.42.42-.63.42-.84-.21-1.67-.63-1.88-1.67,0-.21.21-.21.21-.42q.21-.42.63,0c.21.21.63.21,1.04.63.21.21.42.63.63,1.04ZM22.56,36.77s.21,0,.42-.63c0-.21-.21-.21-.21,0-.42.21-.63.42-.21.63ZM22.35,74.38c0,.21.21.42.21.42h.42c-.21-.21-.21-.42-.63-.42ZM24.86,123.26c-.42-.63-.84-1.25-1.25-1.25s-.84.63-1.25,1.04c.42.42.84,1.04,1.25,1.25.42,0,.84-.63,1.25-1.04ZM22.98,29.25q-.63,1.04.63,1.04h.42q.84,0,.42-.83c-.21-.42-.42-.84-.63-1.46h-.63v.42c-.21.21-.21.63-.21.84ZM23.19,10.03c.21.42.42.42.84,0,.21,0,.42-.21.63-.42,0-.42-.21-.63-.63-.83-.21.21-.63.42-.84.63-.21.21-.21.63,0,.63ZM23.61,35.31c-.21,0-.42.21-.42.42-.21,0-.21.21,0,.42,0-.21.21-.63.42-.84ZM24.86,22.98c0-.63-.21-.83-.63-.83s-1.04.21-1.04.42c-.21.21,0,.83.21,1.04.21.42.63.63.84.84.21,0,.42,0,.63-.21v-1.25ZM24.65,13.37c-.21-.42-1.25-.42-1.46,0,0,.21.42.42.63.42.42,0,.63,0,.84-.42ZM23.19,25.7c0,.21.21.42.21.42.21,0,.42-.21.63-.42-.21,0-.21-.21-.42-.21s-.42.21-.42.21ZM23.61,89.63c-.21.21-.42.21-.42.42.21.21.21.42.42.63,0-.21.21-.42.21-.42,0-.21-.21-.42-.21-.63ZM23.82,35.52s0-.21-.42.63c.21-.21.42-.42.42-.63ZM24.65,84.2h-.42c-.42.21-.42,1.04,0,1.25h.21c.63,0,.63-1.04.21-1.25ZM24.03,99.66l.21-.21s0,.21-.21.21ZM24.03,104.04c0,.21.21.42.21.42.21,0,.42-.21.63-.42h-.84ZM24.23,5.01c-.21.21.21.42.42.63.42,0,.42-.21.63-.21.21-.21,0-.21,0-.42-.21-.42-1.04-.42-1.04,0ZM40.32,148.13s-.21.21-.42.21h-2.3c-.21,0-.21-.42-.42-.63,0,0,.21-.21.42-.21h2.3c.21,0,.21.42.42.63ZM40.11,2.92c-.21,0-.42,0-.63-.21.21,0,.42-.42.63-.42.42.21.84.42,1.04.42-.21.21-.42.21-.63.21,0,0-.21.21-.42,0ZM58.29,80.23c-.21-.63-1.04-.63-1.04,0,0,0,.21.42.21.63.42-.21.63-.42.83-.63ZM64.35,92.55c-.21-.42-1.25-.42-1.46,0v.21c.21.42,1.04.42,1.46,0v-.21ZM66.02,89.21c-.21,0-.42-.21-.63-.21q0,.42.21.63l.42-.42ZM70.2,98.4v-1.46c-.21-.42-.42-.63-.84-.83-.21,0-.42-.84-.84-.21-.21.42-1.04.42-.42,1.04.42.63.21,1.88,1.25,2.51.42,0,.63,0,.84-.21v-.84ZM67.9,91.09c0,.21.21.21.21.42v-.84s-.21.21-.21.42ZM68.53,93.6c.42,0,.42-.21.63-.21q-.21-.21-.42-.42c0,.21-.21.42-.21.63ZM71.66,99.66v-.21c0-.42-.21-.63-.63-.21,0,0,.42.42.63.42ZM74.17,98.61c.21-.21-.21-.42-.42-.63h-.63c-.42.42-.42.84-.63,1.04,0,.42-.21.63-.84.84,0,.42.21,1.04-.42,1.46-.21.21-.21.42,0,.63.21.21.42.63.42,1.04h-.21c-.21.21-.63.42,0,.63,0,0,.21-.21.21-.63.84.21,1.04-.42,1.25-.84.42-.21.42-.84.42-1.04.21-.63,0-1.04.42-1.46.42-.21.42-.63.42-1.04ZM71.66,103v.21-.21ZM75.84,105.3c.21-.42.42-.63.84-.84,1.04-.21.84-.21.42-.84-.42-.63-1.67-.42-2.09-1.25-.21-.21-.42-.21-.63.21,0,.42,0,.83-.21,1.46.21.63.21,1.25.42,1.88,0,.21.63.42.83.42.21-.21.21-.63.42-1.04ZM78.35,108.43q0-.21-.42-.63c-1.46.21-2.51,1.67-2.09,2.92.21.21.42.42.84.42.21,0,.42-.21.63-.21q0-.21-.21-.42c0-.21-.21-.63-.21-.63.42-.63,1.04-1.04,1.46-1.46ZM79.18,112.61c-.21-.21-.21-.42-.21-.63-.21.21-.42.42-.42.63-.21.42-.21.83,0,1.25,0,.42.21.42.42.63,0-.21,0-.63.21-.63v-1.25ZM82.52,107.8h-2.51c0-.42,0-.84.21-1.46l.63-.63s-.21,0-.42.21v-.42c0,.21-.21.21-.42.42v.42h-.84c-.21,0-.21.21-.63.21.21.21.21.42.42.42,0,.21.21.42,1.04,1.04,0,0,0,.21.21.63s.63.63.63,1.04v2.3c0,.63.21,1.04.83.84.21,0,.84-.21.84-.42,0-.84-.21-1.67.63-2.3,0,0,.21-.42-.84-1.04.21.21.42.21.84.42.21-1.25,0-1.67-.63-1.67ZM80.02,106.34l.42-.42-.42.42ZM80.02,107.8c1.04.63,1.88.84,2.3,1.25-1.04-.42-1.88-.84-2.3-1.25ZM81.69,114.91c-.21-.21-.21-.42-.42-.42-1.04,0-1.25.21-1.25,1.25,0,.21.42.42.42.42.42-.42.84-.84,1.25-1.25ZM83.99,119.71c-.42,0-.42.21-.63.42,0,0,.21,0,.42.21,0-.21.21-.42.21-.63ZM86.29,114.7c-.21-.21-.21-.42-.21-.42-.63-.63-.84-.42-1.25,0-.21.21-.42.42-.63.63-.42.42,0,1.25.63,1.25,0,0,.21,0,1.46-1.46ZM85.66,116.16c.21,0,.42-.21.84-.42.21-.21,0-.42-.21-.84-.21.21-.21.63-.63,1.25ZM87.33,122.43c0-.21-.42-.42-.42-.42-.42.63-1.04.84-1.04,1.67,0,1.04.21,1.46.42,1.46.84.21,1.04-.21,1.25-1.04v-.42c0-.42,0-.83-.21-1.25ZM86.49,114.28c.21,0,.42-.21.63-.42-.21.21-.42.21-.63.42ZM86.7,114.49c.42-.21.63-.21.63-.42l-.63.42ZM89.84,117.42l-.42-.21c-.42.63-1.04.63-1.67.63-.21,0-.21.21-.21.42.42.21.83.21,1.25.42,1.04,0,1.04-.42,1.04-1.25ZM89.63,127.03s-.21.21-.42.21c0,.21.21.21.21.42q.21-.21.21-.63ZM92.76,130.37c.63-.21,1.04-.42,1.04-.42,0-.83-.63-.42-.84-.63-.42-.21-.42-.84-.42-.84q-.42-.84-1.04-.21-.83.63,0,1.25c.42.42.84.63,1.25.83ZM91.93,126.82c.21,0,.21-.21.42-.21-.21-.21-.21-.42-.42-.63v.83ZM93.6,132.67c-.21,0-.21.63-.42,1.04.21.42.21.84.21,1.25,0,.21.42.21.63.21s.63,0,.63-.21c.42-.63-.42-2.51-1.04-2.3ZM95.69,129.53c.21.21.63.42,1.25.63.42-.21.42-.42.42-.83-.42-1.04-1.46-1.46-2.09-2.3,0,.21-.42.21-.42.42,0,.84-.21,1.67.83,2.09ZM95.69,132.25q.21,0,.42.21c.21,0,.42-.21.42-.21l-.21-.21c-.21,0-.42.21-.63.21ZM100.49,138.31c0-.63.21-1.25-.21-1.46s-.84,0-1.25,0c0-.83-.63-1.04-1.25-1.46-.42-.42-.42-.84,0-1.25.21,0,.21-.42.42-.63h.42c.63-1.04.42-1.88.21-2.92,0-.21-.42-.42-.63-.42h-1.04c.21.63,0,1.46.63,1.88.63.21.21.84.42,1.46-.42,0-.83-.21-1.25,0-.42.21-.21.84-.42,1.46,0,.63.42.84.63,1.25.21.42-.21.42-.42.63-.21,0-.42-.21-.42,0-.21,0-.42.42-.42.42.42.42.63.84,1.04,1.25,0,0,.42-.63.84-.84,0-.21.21,0,.42,0,0,.84,1.25,1.25.84,1.88.21.21.63.21.63.21.42-.42.84-.63.84-1.04.21,0,0-.21,0-.42ZM97.36,143.74c-.21-.21-.42-.21-.42-.21-.21.42-.42.84-.21,1.04.21.42.42.84.84,1.25,0,0,.42-.21.63-.42.21-.84-.42-1.25-.83-1.67ZM99.45,143.32c.42-.21.63-.63.42-1.25-.21,0-.21-.21-.42-.21-.21.21-.63.42-.84.84-.42.21-.42.42,0,.63h.84ZM100.49,144.58c-.21-.63-1.04-.63-1.25,0v.21c.21.42,1.04.42,1.25,0v-.21ZM99.87,6.06v1.46c0,.21.42.21.63.42,0-1.04,0-1.88-.21-2.92-.21,0-.42,0-.42.21v.84ZM101.95,137.68c.63-1.04,1.88-1.46,2.09-2.51v-.42l-1.25-1.25c-.42.63-1.04,1.04-1.25,1.46-.21.42,0,.84,0,1.46v.83c0,.21.21.21.42.42ZM103.21,140.4c-.21,0-.42-.21-.63-.21,0,.42.21.42.21.63l.42-.42ZM103.42,143.11c.42,0,.42-.21.42-.21-.21,0-.42,0-.42.21ZM104.46,144.58c-.21-.63-1.04-.63-1.04,0l.63.63c0-.21.21-.42.42-.63ZM107.18,139.14c-.21-.42-.63-.84-.84-1.25s-.42-.42-.63,0c-.21.63-.21,1.46-.84,1.67l.42.42c1.04,0,1.46-.63,1.88-.84ZM108.64,142.9q-.21-.21-.63,0c-.63.83-1.04,1.67-.42,2.72,0,.21.21.21.63.42.83,0,.63-1.04.83-1.46.42-.84.21-1.46-.42-1.67ZM109.68,141.23l-.42-.42v1.04c.21-.21.21-.42.42-.63Z"/>
      <path class="cls-1" d="M247.78,105.72c.21,1.46-.42,2.92-.42,4.6,0,3.34-.42,6.69-.83,9.82-.21,1.46-.63,2.93-.84,4.39,0,1.67.21,2.92,0,4.6-.21,2.09,0,3.76-.21,5.85-.21,1.46-.84,3.13-1.04,4.81,0,2.92-1.04,6.06,0,8.57-1.25,0-2.51.21-3.55.21-.84,0-1.88.42-2.72.42-1.46,0-3.13-.63-4.81-.42h-3.55c-1.04,0-1.46.42-2.51.21-.83-.21-1.67-.84-2.3-.84-2.09,0-3.76.63-5.64.63-2.72.21-4.39.42-7.1,0-1.04-.21-1.67.21-2.92.42-.84,0-1.67-.21-2.92-.42-2.09-.21-4.6.42-6.69.21-1.88,0-3.76-.42-5.85,0-2.51.21-3.97-.21-6.27-.21-1.67-.21-3.13.21-4.8,0-.84-.21-1.88-.42-2.93-.42-.83,0-1.46.63-2.51.84-.83.21-1.46-.42-2.51-.42-.84-.21-1.67.21-2.3.42-.42,0-1.04-.42-1.46-.42-.21.21-.42.42-.84.42-.83,0-1.46-.21-2.3-.21-1.67-.21-3.34.21-5.22.21-2.3-.21-4.39-.63-6.69,0-1.88.42-3.55-.63-5.43-.42-1.67.21-3.13.42-4.8.42-1.04,0-1.88-.42-2.92-.21-1.46.21-2.51.21-3.97-.21-1.25,0-3.34,0-3.97-.63-.42-.84,0-2.72,0-3.55,0-1.67.21-3.55.42-5.01.21-1.88-.63-3.34-.42-4.81.42-1.46,1.25-2.51,1.46-4.18.21-2.09.83-4.18,1.67-6.27,1.04-2.51,2.51-4.18,3.34-6.48,1.04-3.13,2.72-6.27,5.22-8.36,2.51-2.3,4.39-5.22,6.69-7.52,2.3-2.72,5.22-5.43,8.57-7.1,1.04-.84,2.3-1.04,3.55-1.88,1.04-1.25,2.09-1.67,3.55-2.51.84-.63,1.67-1.46,2.92-2.09,1.46-1.04,3.34-1.88,4.8-2.72,5.43-3.55,11.91-5.01,17.34-8.57,1.04-1.04,1.46-1.46,3.13-1.88,1.46-.21,2.72-.63,4.18-1.46,1.04-.83,2.51-1.25,3.55-1.88,1.46-.63,2.51-2.09,3.76-2.92,6.69-3.13,11.49-7.31,16.5-12.54,3.76-3.97,5.22-8.36,6.48-13.58.63-1.88,1.46-3.76,1.46-5.64.42-7.52-2.09-14.42-6.48-20.27-1.88-2.92-4.18-5.01-7.31-6.69-1.67-.83-3.55-1.88-5.22-2.92-1.88-.83-3.55-1.04-5.64-1.67-1.04-.63-2.72-1.25-3.76-1.67-1.67-.42-3.55-.42-5.43-.84-3.34-.42-7.31-.42-10.86,0-3.76.21-9.4.84-12.95,2.09-8.15,2.92-16.3,10.24-20.47,17.76-1.67,3.13-4.6,5.43-5.85,8.98-1.46,3.34-1.88,7.1-3.97,10.24-1.67,2.51-2.3,4.8-3.55,7.52-.63,1.25-.84,2.72-2.09,2.51-1.46,0-.84,0-1.04-.63.21-.63.42-1.04.42-1.67-.21-.21-.21-.42-.42-.63.21-1.25,1.67-9.4,1.88-10.03.63-2.72,2.09-6.06,2.09-8.98,0-1.67,0-2.92.42-4.6.42-1.25.42-2.92.83-4.39.21-2.09,1.46-2.3,2.92-3.76,1.25-1.25,2.3-2.72,3.76-3.97,1.88-2.3,4.81-4.18,7.52-5.64.21,0,1.04.21.63.21.84-.42,1.25-1.04,2.09-1.46,1.25-.63,2.72-.42,3.97-1.25.84-.42,1.25-1.04,1.88-1.25,1.04-.42,1.67-.21,2.51-.42,1.67-.42,3.13-1.04,4.39-1.46,2.93-.84,6.27-1.46,9.19-1.67.42,0,.83.42,1.04.42.63,0,1.25-.42,1.88-.63,1.67-.42,2.72,0,4.6.21,1.46.21,3.34-.42,4.81-.42,1.88,0,3.34.42,5.22.42,3.13,0,5.85,1.04,8.98,1.46,1.88.21,3.13,1.04,5.01,1.46,1.67.63,3.34.63,5.01,1.25,8.36,3.34,20.06,11.49,22.77,20.68.63,1.88,1.04,3.34,1.67,4.8.63,1.88.21,3.97.63,5.85,1.04,7.1-1.04,13.16-3.55,19.64-1.25,2.72-2.51,5.64-4.6,7.73-2.72,2.51-5.85,4.39-8.36,6.89-4.8,4.6-10.66,5.43-15.67,8.98-5.64,3.76-12.74,5.22-18.59,7.94-2.72,1.46-5.64,2.3-8.36,3.55-2.92,1.25-6.27,2.3-8.98,3.76-3.34,1.67-6.27,3.34-9.4,5.22-1.25.42-2.51,1.46-3.97,2.51-1.25.84-2.93,1.25-4.39,2.09-.84.84-1.46,1.88-2.51,2.72-1.25,1.04-2.3,2.51-3.76,3.76-2.51,2.09-5.43,3.76-7.31,7.1-.84,1.46-1.04,3.34-1.88,4.81-1.04,1.46-1.88,2.72-2.51,4.18-.63,1.25-1.67,2.51-1.88,3.97,0,.63.21,1.25.21,1.67-.21.84-1.25,2.3-1.04,3.13.21,2.09,5.64,1.04,7.52.84,1.46,0,2.72.83,4.18.63.83,0,.83-.42,1.46-.63.84-.21,2.72-.21,3.76,0,.63,0,1.46.42,2.09.42.42,0,.84-.42,1.04-.42,1.67-.21,3.55.21,5.22.42,1.67.21,2.51,0,4.18-.42,1.67-.21,2.92.42,4.6.42,3.34-.21,6.89-.42,10.45-.42,1.46,0,2.72.42,4.39.42s3.13-.42,4.81-.21c2.09.21,3.34-.21,5.43-.21,1.46,0,2.93.42,4.39.42,3.34-.21,6.69-.42,10.03-.42,1.46,0,2.92.63,4.6.63,1.67-.21,3.55-.63,5.01-.83,3.13-.42,7.1-1.04,9.4-3.34,2.51-1.88,4.6-3.13,6.48-5.64.63-1.04,1.67-1.88,2.3-2.92.63-1.46.63-2.92,1.46-4.18,1.46-2.51,3.13-5.43,3.97-8.57.42-1.04.42-2.3.84-3.55.21-.63.63-1.04.84-1.46.21-1.04-.21-2.51,0-3.55.21-.63.63-3.55,1.46-3.34,1.04.21.42,1.67.42,2.09-.42,1.67-.42,2.3-.21,3.97ZM137.88,142.9c.42,0,.84-.21,1.04-.42-1.04-1.04-1.25-.42-1.04.42ZM138.09,140.81q.21.21.21-.21c0-.21-.21-.21-.21.21ZM142.48,142.9c-.63,0-1.04,0-1.04-.42-1.25,1.46-.84-1.04-.84-1.46h.42c0-.21-.21-.21-.42-.42v.42c-1.46,0-.84.63-1.04,1.88-.21,2.72-.21.83-1.46.21,0,.63.21,1.25.42,1.67.21-.42.42-.63.63,0,.42-.42,1.25-.63,1.67,0,.42-.42.63-.42,1.04-.84,0,0,.42-.63.63-1.04ZM138.3,145.41c0-.21,0-.42.21-.63-.42-.63-.42.21-.21.63ZM140.39,140.19q0,.21.21.21s0-.21-.21-.21ZM141.02,141.02c.42.21.63.21.21,0h-.21ZM141.44,141.44l-.42-.42c0,.21.21.21.42.42ZM142.69,141.65c-.21,0-.42-.21-.42-.21-.42.42-.21.63,0,.84.21-.21.21-.42.42-.63ZM143.52,144.37s-.21-.21-.21-.42c-.42.42-.42.63-.21,1.04.21-.21.21-.42.42-.63ZM143.32,140.19c0,.21-.21.42-.21.42-.21.63,1.04.63,1.25.21.63-1.04-.42-1.67-1.25-1.25-.21.21.21.63.21.63ZM143.11,141.65l.21.21c.21,0,0-.42-.21-.21ZM143.94,142.07c-.21-.21-.42-.21-.42,0h.42ZM143.52,142.07s0,.21.21.21c0-.21-.21-.21-.21-.21ZM143.94,143.53c-.21,0-.42.21-.42.21.21,0,.42,0,.42-.21ZM144.57,144.58c-.63-.42-.84.21-.63.84.21-.21.42-.42.63-.84ZM143.94,143.95l.21-.21c-.21-.21-.21,0-.21.21ZM144.78,142.49c-.21,0-.21.21.21.21q.21-.21-.21-.21ZM144.78,144.37s0-.21.21-.42c-.21.21-.21.42-.21.42ZM144.99,144.16l-.21.21s.21,0,.21-.21ZM145.82,30.29c0-.21.21-.21.21-.21,0-.42-.42-.21-.21.21ZM149.79,24.03c-.42.63-.63.63-.84.21q-.42.21-.84.21c.42.42.63.21.63,1.25-1.25-.63-3.97.63-2.3,2.3,0,.42-.21,1.46-.42,2.09.42-.42.63-.63.83-1.04-.42-.42-.42-.84.21-1.04h.42c.42-.42.84-1.67,1.25-2.3.63-.84,1.25-.63,1.04-1.67ZM146.24,24.65c0,.21.21.21.21,0q-.21-.21-.21,0ZM150.84,23.4q-.63-.21-1.04-.21c-.42-.63-.84-1.67-.84-1.67-.42-.21-1.46.42-1.25,1.25-.21-.42-.84-1.88-1.04-1.88-.21.21-.21.63-.21.84,0,.63.42.84.84.84.21.21.42.63.42.63l.42.42c.42-.42,1.04-.42,1.46-.42,0,.42.21.42.42.42,0,0-.21-.21-.21-.42.21.21.63.21,1.04.21ZM146.45,143.74c.21.42.63.42,1.04.21-.42.42-.63.63-1.04.84,1.88,1.25,2.51-3.34,0-1.04ZM147.29,22.56c-.21-.21-.42-.42-.63-.84.21.21.42.63.63.84ZM147.29,141.02h.21c1.46,0-.21-1.67-.42-1.25-.21.21.21,1.25.21,1.25ZM148.54,142.49c.42.21.63.42.84.42-.21-.21-.21-.42-.42-.63.42,0-.42-.21-.42-.42-.21,0-.63,0-1.04.21.42.21.42.42,1.04.42ZM147.91,24.44c.42,0,.21-.21-.21-.21l.21.21ZM148.33,139.77c0,.21.21.42.21,0,0-.21-.21-.42-.21,0ZM148.75,20.89c.42-.42.42-.84.21-1.25-.63.63-.84.63-.21,1.25ZM148.54,141.86c.21.21.42.21.42.42-.21,0-.42-.21-.42-.42ZM148.96,140.19c.84.63,1.25.42,2.09.63-.21-1.46-1.25-1.25-2.09-.63ZM151.05,19.43c-.21-.63-1.25-.21-1.25-1.25-1.25,1.25,1.25,1.88,1.25,1.25ZM150,143.32l-.21-.21c0,.21.21.21.21.21ZM150.21,21.73c.42,0,.42-.21.21-.42q-.42.21-.21.42ZM150.21,17.55s.21.21.42.21c-.21-.21-.21-.42-.42-.21ZM150.84,144.58c-.42.21-.42.42,0,.84v-.84ZM150.63,17.76q.21.21.42.21c-.21-.21-.42-.21-.42-.21ZM150.63,17.97l.21.21-.21-.21ZM152.51,20.68c-.42-.42-1.67-.42-1.46.42.21.63,1.46-.21,1.46-.42ZM151.05,144.37l.21.21c0-.42,0-.63-.21-.21ZM151.25,17.55c.21.21.42.21.42-.21q-.21,0-.42.21ZM153.55,141.23c-.21,0-.21-.21-.42-.21,0-.21,0-.42-.21-.42-.42.63-1.04.42-1.67,1.04.84,0,1.46-.42,1.67.21.21-.42.42-.63.63-.63ZM151.67,22.15c0-.42-.21-.42-.21-.21q0,.42.21.21ZM151.88,143.53q-.21.21,0,.42c.21,0,.21-.21,0-.42ZM153.13,18.8c-.63,0-.83,0-1.25.21-.21,0,0,.63.21.42.42,0,.42-.42,1.04-.63ZM152.3,17.76c.21.21.42.21.42.21.21-.21.42-.42.42-.42-.21-.21-1.25,0-.83.21ZM152.51,143.11q0-.21.21-.21c-.21-.21-.42,0-.21.21ZM152.72,15.25c0,.21.21.21.21.42.21,0,.42-.21.63-.21-.21-.42-.42-.42-.83-.21ZM152.72,142.7c.21,0,.21-.21.21-.42-.21.21-.21.42-.21.42ZM153.13,142.49c-.21,0-.21.21-.42.21q.21,0,.42-.21ZM153.13,17.76c0,.42,0,.63.21.84,1.46-1.04,1.04-1.25-.21-.84ZM157.1,142.7c0-.63-.21-1.04-.83-1.04-1.04,0-.63,1.04-.63,1.04,0,0,.42-.63.63-.21.63.63-4.18.42-1.88-.21-.21-.42-.42-.63-.63-.84v1.04c0,.21-.21.63,0,.83.42.84,1.04.63,1.88.63-.21-.83.42-1.04,1.04-1.46q0,.21.42.21ZM154.39,15.67c-.21,0-.21.21,0,.42q.21-.21,0-.42ZM155.22,15.25c-.42,0-.42.21-.21.21q.42,0,.21-.21ZM155.02,141.23c.21,0,.21-.21.42-.42-.21-.21-.21-.42-.21-.83-.42.42-.42.83-.21,1.25ZM155.43,13.79c.21,0,.21-.21.42-.42-.21.21-.42.21-.42.42ZM155.85,13.37s.21-.21.21-.42c-.21.21-.21.42-.21.42ZM156.48,13.79c.21.42.42.42.63.42,0-.42-.21-.42-.63-.42ZM158.78,12.12c-.21-.21-1.67-.42-1.67.21l.42.21c-.21.21-.84-.21-.63.42.21-.21,1.04-.42,1.25-.42s.42,0,.63-.42ZM157.94,143.95c-.21-.21-.42-.42-.42-.83q-.21.21-.42.42c0,.21.21.63.21.84.21-.21.42-.42.63-.42ZM157.31,141.23c.84.21,1.04-.42,1.88-.63,1.04-.21,1.04.42,1.46,0-1.25-1.04-2.51-.83-3.34.63ZM158.36,143.11v-.63c-.42,0-.21.42,0,.63ZM158.57,143.53c0-.21.21-.42.21-.42h-.42c0,.21.21.21.21.42ZM159.19,142.9h-.21c0,.21.21.21.21,0ZM159.4,141.65l.21.21c.21,0,0-.42-.21-.21ZM160.66,144.37c-.84-.42-.63-.63-1.25.21.42.42.63,0,1.25-.21ZM160.66,142.7c0-.21-.21-.21-.21-.21,0,0,.21,0,.21.21ZM162.12,139.98c.63.63.84.83-.21,1.46.42-.21-2.3-.42-.63.63.63.42,3.34-1.04.84-2.09ZM161.07,10.03c0-.21-.21-.21-.21,0s.21.21.21,0ZM160.87,140.4q0-.21.21-.42c-.21.21-.21.42-.21.42ZM160.87,140.4s.21,0,.21-.21c0,0-.21,0-.21.21ZM162.33,144.16c.21-.21.21-.42.42-.42-.42-.21-.84-.21-1.04.21.21,0,.42,0,.63.21ZM161.91,139.77c.21,0,.21.21.21.21.42,0,.21-.42-.21-.21ZM162.12,98.61c.21,0,.42,0,.63-.21-.42,0-.63.21-.63.21ZM163.37,144.99c-.21-.42-.63-.42-1.04-.21.42.63.63.63,1.04.21ZM162.75,142.28c-.42.42-.42.63,0,.84v-.84ZM162.96,98.19c0-.21.21-.21.21-.42q-.21.21-.21.42ZM163.37,139.77c.21,0,.21.21.21.42.21-.21.42-.21.63-.42-.21-.21-.42-.42-.84,0ZM163.58,144.78s.21-.21.21-.42q-.42.42-.21.42ZM163.79,141.02c.42.21.63.42.84.63.84-1.25.21-1.46-.84-.63ZM164.21,144.58s-.21.21-.42.21c.21,0,.42,0,.42-.21ZM167.76,142.9c-.21,0-.63,0-.84.21,0-.21,0-.42-.21-.63-.21.21-.42.42-.21.63-1.04.83-.83,0-.83-.21-.63.42-2.3.42-.63.83.42,0,3.55.42,2.72-.83ZM165.46,139.98h.42c0-.42-.21-.63-.42-.42v.42ZM165.46,142.7h.21s0-.21-.21,0ZM165.67,142.9c.21,0,.21-.21.21-.42q0,.21-.21.42ZM166.51,143.11c0-.21.21-.21.42,0-.21.21-.42.21-.42.42-.21-.21-.21-.42,0-.42ZM167.13,95.69q.21-.21,0-.42c-.21,0-.21.21,0,.42ZM167.34,142.07q.21.21.42,0c0-.21-.21-.21-.42,0ZM168.6,141.02c.21-.84,0-1.25-.63-.42.21.21.42.21.63.42ZM172.77,140.19c-.63,0-1.25-.42-1.88-.42.21.42.21.83-.42.83.63.42,0,.84-.42,1.25-.83.63-.83,1.04-1.46,1.04.42,0,.21-.42-.21-.42.42.42.63,1.04,1.04,1.04-.21-.42-.21-.63-.42-.63,2.3-.21,2.09-1.46,3.76-2.72ZM168.6,141.02c.21,0,.21.21.21.63,0-.42-.42-.21-.21.21.42-.63.42-.21,1.46,0,0-1.04-.83-1.04-1.46-.84ZM169.43,144.16q-.21-.21-.21.21c0,.21.21.21.21-.21ZM170.48,145.62c-.63-.63-.63-.84-1.25,0,.42.42.83.42,1.25,0ZM170.48,94.02c.42.42.84.42.84-.21-.42-.21-.63-.21-.84.21ZM171.94,141.02h-1.04c0-.84.84-.63,1.04,0ZM172.98,142.9c.83-.63.21-.63-.63-.21.21.21.42.21.63.21ZM174.65,142.9h-.21c-.42,0-.42.42-.42.83,0,.21-.21.42-.42.63-.63,0-.63-.84-.21-1.04,0,0-.21-.21-.42-.21,0,.63-.84,2.51.63,1.88.21,0,.42-.42.63-1.04,0,.63.42,1.04.63.84.63-.21,0-1.88-.21-1.88ZM172.77,91.51c.21,0,.21-.21.42-.42-.21.21-.42.21-.42.42ZM173.19,91.09s.21-.21.21-.42c-.21.21-.21.42-.21.42ZM173.4,91.09v-.21.21ZM173.61,91.72c0,.42.21.42.42.21q-.21-.42-.42-.21ZM174.24,143.11v.83-.83ZM174.65,91.3c0,.42.42.21.63,0,0-.21-.21-.21-.63,0ZM174.65,139.98q.21-.21.21-.42c0-.21-.21,0-.21.42ZM175.28,90.67h.21c-1.04-1.46-.63-.63-.21,0ZM175.28,139.35h-.21c0,.21.21,0,.21,0ZM175.07,139.35h.21-.21ZM175.28,141.65c0-.42-.21-.21-.21,0,.21.42.21.21.21,0ZM175.91,91.09c-.21-.21-.42-.21-.63-.42,0,.21.21.42.21.63,0-.21.21-.21.42-.21ZM176.12,141.02c.83-1.04.21-1.04-.63-.84.63.84.63,1.46,1.04,2.09.83-1.25-.21-.84-.42-1.25ZM175.91,143.32q-.21-.21-.42,0c0,.21.21.21.42,0ZM176.33,139.35q0,.21.21,0c0-.21-.21-.21-.21,0ZM176.54,143.32c0-.21-.21-.21-.21,0s.21.21.21,0ZM177.37,90.25c0-.63-.21-.83-.63-1.04-.83.42,0,1.04.63,1.04ZM179.46,143.74c0-.42-.84-.21-1.04.42.21-1.25,0-1.25-1.25-1.25.21.21.63.42.84.63.42,0,.63,1.46.84,1.88,0-.42.63-1.25.63-1.67ZM177.58,88.38c.42.42.84.63,1.25,1.46.21-.21.42-.42.63-.63-1.67,0-.21-.63-1.67-.63.42,0,.21-.42-.21-.21ZM185.52,142.9c-.63.63-1.04,0-1.46-.42-.42-.84-.21-1.04,0-1.67-.21.21-.42.21-.63.21.42,0,.21-.42,0-.42.63,1.04.21.84-.83.84.21.21.42.21.63,1.04.21.42,1.25,1.25,0,1.46.21,0-.84-.83-1.04-.83-.42-.21-1.25-.21-1.67-.63-.63.21-.63,0-.63-.42,0-.21,0-.42.42-.42,0-.42-.21-.63-.42-.84-.21.21-.21.42-.42.63-.42,0-.63-.42-.84-.21-.21,0-.63.42-.63.63,0-.42-.21-.42-.42-.21.63.63,1.25.21,1.67.42.63.42.63.84,1.25,1.88.21-.63.42-1.04,1.04-.83,0,1.04.63.83,1.46.83-.63,1.04-.21,1.46.42,1.67h1.04c-.42,0-.63-.21-.84-.21-.21-.63-1.04-1.46.63-1.46,0,.84.21,1.04.63,1.88.21-.21.42-.63.21-.84h.84c.42-.42.63-.63.83-1.25.42-1.88-.83,0-1.25-.83ZM177.79,144.37c.21-.21.21-.42.21-.63-.42-.42-.42.21-.21.63ZM178.62,87.75c0,.42.21.42.21.21q0-.42-.21-.21ZM178.62,139.77c.21.21.63,0,.84-.21-.21,0-.63,0-.84.21ZM179.88,139.56c-.42.21-.63.63-.63.42.21,0,.42-.21.63-.42ZM179.46,141.44q.21.21.42.42c-.42.21-.63,0-.42-.42ZM179.67,88.38q.21,0,0-.21c-.21,0-.42.21,0,.21ZM179.88,89q-.21,0-.42.21s.21,0,.42-.21ZM179.67,89s-.21,0-.21.21l.21-.21ZM179.88,87.33c0,.21.21.21.21,0s-.21-.21-.21,0ZM180.09,144.99c.21-.21,0-.42-.21-.42q0,.21.21.42ZM180.71,145.2c-.21-.21-.42-.21-.42-.21,0,.21.21.21.42.21ZM180.5,145.41c0-.21-.21-.21-.21-.42q0,.21.21.42ZM180.71,86.29c0,.42.21.42.42.21q-.21-.42-.42-.21ZM181.55,139.77c.21.21.42.21.42,0s-.21-.21-.42,0ZM181.76,87.54c0,.21.21.21.21-.21q-.21-.21-.21.21ZM182.38,88.38c.21,0,.21-.21-.21-.21q-.21.21.21.21ZM182.18,141.02c.21.21.21.42.42.42.83-.63,0-.42-.42-.42ZM182.59,87.33c0,.42.21.42.42.21q-.21-.42-.42-.21ZM183.64,88.58c.21-.21.21-.42-.21-.42q0,.21.21.42ZM183.43,145.41s.21,0,.42.21c-.21,0-.42,0-.42-.21ZM183.64,143.11c.21-.21.42-.21.63-.21q-.21.21-.63.21ZM184.26,140.81c0-.21.21-.21.21-.42q-.21.21-.21.42ZM184.26,140.81q.21,0,.42-.21-.21.21-.42.21ZM185.52,143.11c0,.63,0,1.88-.84,1.88-.21-.84-.42-.84-.42-1.88.42-.21.63,0,.63.42.21-.42.42-.63.63-.42ZM184.68,141.65c.21,0,.42.21.63.21.63-.42,0-.42-.63-.21ZM184.89,139.98q.21-.21,0-.42c-.21,0-.21.21,0,.42ZM185.31,140.81c.21,0,.21-.21.21-.21,0-.21-.21,0-.21.21ZM185.73,140.4c.21-.42.42-.83.63-1.04-.63.83-.84,1.04-.63,1.04ZM185.73,85.45c.21,0,.42-.21.63-.21-.42-.21-.63.21-.63.21ZM186.15,142.07q-.42-.21-.42,0h.42ZM185.94,140.19c.21-.21.63-.42.63-.42-.21,0-.42.21-.63.42ZM186.15,141.02q-.21.21.21.21c.21,0,.21-.21-.21-.21ZM186.56,143.95c-.63,0-.42-.42-.42-.83.63,0,.42.63.42.83ZM186.56,84.82c.21,0,.21-.21.21-.21l-.21.21ZM186.77,85.03c0-.21.21-.21.21-.21,0,0-.21,0-.21.21ZM186.98,83.99c.42,0,.42-.21.21-.21s-.21,0-.21.21ZM190.74,143.53c0,.21-.21.42-.21.63v-1.25c-.83.42-1.88,1.04-2.3,1.04,0-.21-.21-.42-.42-.21.21.42.84,1.25.84,1.25-.42,0-.42.21-.21.42.42-.42.84-1.88,1.25-1.88.83.21.83,1.25,1.04,1.88.42-.84.63-.84,0-1.88ZM188.23,83.36q.21.21.42,0c0-.21-.21-.21-.42,0ZM188.65,85.24c.84.63.84.42,1.46,0-.42-.42-.83-.21-1.46,0ZM188.86,139.98q.21-.21,0-.42c-.21,0-.21.21,0,.42ZM189.07,83.15s1.67,1.04,1.67,1.46c.42-.42.63-.63,1.04-.42-.21-.42.42-.63.84-.84-.42-.63.42-1.25-.63-1.46-.63,0-1.25.84-1.46,1.25-.21-.63-1.46-.83-1.46,0ZM189.28,142.28c.42-.21.63-.21.83-.21,0-.21-.21-.42-.21-.63,0,.21-.21.42-.21.63,0-.42-.42-.21-.42.21ZM190.53,83.15v.42c-.63.21-.63,0,0-.42ZM197.22,139.77c-1.88-.84-1.25,0-2.3,1.25-.63-.42-3.97-2.51-4.39-.84.63,0,.84,0,.84.84.21.42.63.63,1.04.84-.21-.84-.42-1.25.63-1.46,1.04,0,.83,1.25,1.25,1.25s.63-.63.63-.63c.63,0,1.25.84,1.25.84-.21,0-.42.21-.21.42.83-.63.63-2.3,1.25-2.51ZM191.37,141.02c-.21-.21-.42,0-.42.42l.42-.42ZM191.37,83.57c-.21-.42,0-.63.21-.83.21.21.21.63.21.83h-.42ZM192.2,84.41q-.21-.21-.42-.21.21,0,.42.21ZM192.62,143.32c-.21-.42-.21-.21-.21,0,0,.42.21.21.21,0ZM193.25,82.32l.42.42c.21-.21.42-.21.42-.42-.21-.21-.63-.21-.84,0ZM194.08,145.62c0-.21-.42,0-.21.21l.21-.21ZM194.29,145.41v-.42c0,.21-.21.42,0,.42ZM194.29,80.85c-.21.63,0,1.04.21,1.25.21-.21.42-.21.84-.21l.21.21c0-.21-.21-.21-.42-.42-.42-.42,0-1.04-.42-1.46-.21-.21-.42.42-.42.63ZM194.92,81.9h-.63q.63-.63.63,0ZM194.92,79.39c.21,0,.21.21.42.21,0-.21-.21-.42-.42-.21ZM196.8,144.78c0,.21-1.04-1.46-1.04-1.67-.42.63-.21.83-.84,1.04l.42.42c.21.21,1.25,1.67,1.46.21ZM195.76,140.4c-.21.21-.21.42-.42.63-.21-.63,0-.63.42-.63ZM195.34,79.6q.21.21.42.21-.21-.21-.42-.21ZM195.34,79.81c.21,0,.21.21.21.21,0,0,0-.21-.21-.21ZM196.17,81.06c-.42.21-.42.42-.42.63.21-.21.21-.42.42-.63ZM195.76,144.58h.42q-.42.63-.42,0ZM196.17,139.98c.21.21.21.42-.21.42-.21,0-.21-.21.21-.42ZM195.96,81.69c0,.21.21.21.63.42.42-.42-.42-.21-.63-.42ZM197.22,80.64l.42.42c0-.21,0-.42-.42-.42ZM199.1,140.61c-.63.84-2.3.42-1.67,1.67.42-.42.63-.21,1.04,0,.63-.21,1.04-1.25.63-1.67ZM198.26,145.2c-.42-.84-1.25-.63-.84.42.42-.21.63-.42.84-.42ZM197.84,81.06v.21-.21ZM198.05,78.14s.21.21.42.21c-.21-.21-.21-.42-.42-.21ZM198.68,78.56s-.21,0-.21-.21c0,.21.21.21.21.21ZM198.47,78.35h.42-.42ZM198.89,79.81c-.21-.21-.21-.42-.42,0,0,.21.21.42.42,0ZM198.68,142.7s0-.21-.21-.21c0,0,0,.21.21.21ZM199.1,145.83c.21-.21.21-.42.21-.63-.42-.63-.42.21-.21.63ZM200.77,144.16q-.21,0-.42.21c-.63.21-.83.21-.83.84.42-.63.83-.42.83-.84q.21,0,.42-.21ZM200.35,141.44c0-.21.42-.21,1.04,0-.21,0-.21.21,0,.42v-.42c-.21-.21-.42-.42-.63-.42.63-.63.84-.63.63-1.46-.21.63-.84-.21-1.46.42-.21.42,0,1.04.42,1.46ZM200.77,79.6v.63-.63c.42,0,.63.42.63.83.21-1.04-.21-2.09,0-3.13.21,0,.42,0,.63-.21h-.63c-.63,0-.63,1.46-.63,2.51-1.25.83-.21,1.25,0,0ZM202.44,144.37c-.42-.63-.63-.21-1.25.21.84.63,1.04.84,1.25-.21ZM201.4,77.09v.21q-.21,0,0-.21ZM201.4,143.53q-.21.21,0,.42v-.42ZM203.07,144.37c.21.21.42.21.42.42q-.42-.84-.42-.63c-.21-.21-.63-.42-.84-.63.42,0,.21-.42-.21-.21.21.42.42.42.42.63.21,0,.42.21.63.42,0,.21,0,.84.21,1.04,0-.42,0-.63-.21-1.04ZM206.41,139.77c-.63-.42-1.25-.63-1.88-.63,0,0-1.67.21-1.67.42-1.25.83-.42,1.04,1.04.83v.63h-.42c.84.84.42,1.46.84,1.88.21.42.63-.21.63-.84-.42,0-1.25-.42-.21-.84q-.84-.63-.84-1.67c.63.21,1.25,0,1.25.42-.21,0-.42.21-.21.42.42-.42,1.04-.21,1.46-.63ZM202.86,78.14h.42s-.21-.21-.42,0ZM204.53,78.56c0-.21-.42-.21-1.04-.21-.21,0,1.25.21,1.04.21ZM203.69,79.39q0-.42-.21-.21c0,.42.21.42.21.21ZM203.69,142.28c-.21.21-.21.42,0,.63.21-.21.21-.42,0-.63ZM204.11,144.16c-.42,0-.21.21,0,.21q.21-.21,0-.21ZM203.9,76.26c.21,0,.21.21.42.21,0-.21-.21-.42-.42-.21ZM204.95,78.14h-1.04,1.04ZM204.11,144.99c-.21,0-.21.21,0,.42q.21-.21,0-.42ZM204.32,76.67h.42q-.21-.21-.42,0ZM204.95,143.95c.21,0,0-.42-.21-.21.21,0,.21.21.21.21ZM205.37,141.23c-.21.21-.21.42-.21.63,0-.42.21-.63.21-.63ZM205.16,142.28q.21,0,.42-.21-.21,0-.42.21ZM205.58,144.58c-.21,0-.21.21-.42.63,0,0,.21.21.42.21.42-.21.21-.63,0-.84ZM205.58,77.09l.42.42c0-.21-.21-.42-.42-.42ZM205.99,77.51c.21,0,.21.21.42.21q-.21-.21-.42-.21ZM206.2,77.93q0-.21-.21-.21.21,0,.21.21ZM206.83,143.32c0-.21-.21-.42-.21,0,0,.21,0,.42.21,0ZM208.08,144.16c0-.63,1.67-1.25,1.88-1.67-1.04-.21-1.46.21-2.09-.21s-.21-1.25-.63-1.67c-1.25,1.04.21,2.3.84,3.55ZM207.87,144.16q-.21-.21-.84,0c0,.21.42,0,.84,0ZM207.46,76.26c.21,0,.21.21.42.21.42.42.63,1.46,1.04.63,0,0-.21-1.67-.42-1.88,0-.21-.84.84-1.04,1.04ZM208.08,144.78c-.84.21-.84.63,0,1.04.42-.21.42-.63,0-1.04ZM207.87,76.47v-.42c.21.21.42.21.42.42h-.42ZM208.29,76.47h.42c-.21.21-.21.42-.42.42v-.42ZM208.5,144.37c0-.42-.21-.21,0-.21v.21ZM208.71,141.86l.63-.63c-.21,0-.42,0-.42-.21-.42.21-.42.42-.21.84ZM209.34,74.79c.42-.21.21-.21,0-.42-.42.21-.21.21,0,.42ZM209.13,140.61l.42.42c.21-.21.21-.42.42-.63-.21,0-.63.21-.84.21ZM209.96,144.16c-.42.21-.63.63-.84,1.04.21.21.42.21.42.42.42-.63.63-1.04.42-1.46ZM209.75,141.02c.42.21.83.42.63,0,0-.42-.42-.21-.63,0ZM209.96,143.32c.42.21.63.21,1.04,0-.21-.42-.63-.42-1.04,0ZM210.17,73.33c.21,0,.21-.21.21-.42,0,0-.21.21-.21.42ZM210.59,144.37c.42,0,.42-.21.21-.21q-.42,0-.21.21ZM211.01,145.62c0-.21-.21-.42-.21-.63-.42.21-.42.63-.21.84.21,0,.42-.21.42-.21ZM210.59,72.92c.42.21.42.63.42,1.04,0-.21-.42,0-.42.42q.21-.21.42-.21v-.21c1.04-1.04,0-1.67-.42-1.04ZM219.36,141.86c.63-.42.21-1.04,0-2.09h.21c0-.21-.21-.21-.42-.21v-.42c-.63.21-.63.42-.21.63-.84.42-1.88,1.46-1.88,2.09-.42-.21-1.25,0-1.25,0q0-.42-.21-.21c.21.42-.21,1.46-.21,2.3-.84-.63-1.88-1.46-2.09-2.3.21.42.63-1.25.63-1.04v-.83s-.21-.21-.42,0l.21.21c-.21,0-.42-.21-.63-.21,0-.21-.21-.21-.42-.21.21.42,0,.63-.21.63-.21.21-.63.42-1.04.63-.42.42,1.88.42-.42.63.42.21.42.63.42.84.63,0,.42-.42.42-.84.84.42.21.84,1.25.42-.21,1.04-.84.84-1.04,1.46-.63,1.46.63,0,.63,0,2.09.21.63.63.42,1.88.63,0,.83,0,1.25.21,0-.63,1.04-1.25,1.25-1.46.21-.42.21-1.04.42-1.25.83-.63.42.63,1.46.42-.42-.63-.42-1.88.63-2.09.63,0,1.04.84,1.25.84ZM211.42,142.49c0-.21-.42,0-.21.21l.21-.21ZM211.42,139.77c.63.21.84-.21.63-.63l-.63.63ZM211.63,144.58q-.21.21,0,.21c.42,0,.42-.21,0-.21ZM212.05,71.24c.21.21.21.42.63.42,0-.42-.42-.42-.63-.42ZM214.35,74.38c-.42-1.67-1.04-1.25-2.09-.84.21.21.63.42.84.84,0,0,.21.21.21.42.21-.42.42-.63,1.04-.42ZM213.1,73.96c.21,0,.42.21.42.42-.42.21-.63,0-.42-.42-.42,0-.63,0-.42-.63.21.21.21.42.42.63ZM212.68,72.29s.63.42.63,0c-.21-.21-.42-.21-.63-.21v.21ZM212.89,71.87h.83c-.21-.42-.63-.42-.83,0ZM213.3,141.44v.21-.21ZM214.14,71.87c.42-.63.63-.63-.21-1.04-.42.42,0,.63.21,1.04ZM214.35,70.41c.21-.21.21-.42,0-.63-.21.21-.21.42,0,.63ZM214.98,145.62c-.21-.21-.42-.21-.42,0h.42ZM214.98,71.24c.21,0,.42.21.42.21.21-.21,1.04-.42,1.25-.42-1.67-1.04-.63,0-1.67.21ZM215.81,71.87c0-.21-.21-.21-.21-.21,0,0,.21,0,.21.21ZM217.07,72.71q-.83,0-1.25.21c0-.21,0-.42-.21-.21q.21.42.21.83c0-.21-.21,0-.21.21.42-.42,1.04-.42,1.46-1.04ZM215.6,141.02c.42-.42,1.46-.84.84-1.46-.42.42-.63.83-.84,1.46ZM217.07,68.32c0-.21,0-.42.21-.63-.83-.21-.63.21-.21.63ZM216.86,69.78l.21-.21c0-.21-.21,0-.21.21ZM217.69,68.32c-.42.84-.63,1.04-.42,1.04.21-.42.42-.84.42-1.04ZM217.27,144.58q0,.21.21.42c.21-.21,0-.42-.21-.42ZM217.48,69.15c.21-.21.42-.42.63-.42-.21,0-.42.21-.63.42ZM218.11,145.2c-.21-.21-.42-.21-.42-.21,0,.21.21.21.42.21ZM217.9,145.41c0-.21-.21-.21-.21-.42q0,.21.21.42ZM218.11,71.24c.42,0,.63-.42.84-.84-.63-.21-1.67.63-.84.84ZM219.36,71.66s-.21-.21-.42-.21c-.42,0-.63.21-.84.21.42.42.84.42,1.25,0ZM218.53,142.28q-.21-.42-.42-.21c0,.42.21.42.42.21ZM218.53,68.11c.42.42.84.42,1.25.21q-.42-.84-1.25-.21ZM218.95,139.77l.21-.21c0,.21-.21.21-.21.21ZM219.36,142.49c0-.21-.21-.21-.42,0,.21.21.42.21.42,0ZM219.36,69.15c0-.21-.21-.42-.21,0,0,.21,0,.42.21,0ZM223.54,143.95c-.21-.42-.42-.63-.63-.83,0-.42-.42-1.04-.84-1.67-.21.42-.63.63-.84.63.42.21.63.42.84.84-.84,0-1.25.21-2.09.63-.21.63-.42.84-.83,1.25.21.42,1.88,1.46,2.51,1.04.42-.21.42-.63.63-1.04.84-.84,0-.84,1.25-.84ZM219.36,143.32c.21,0,.42.21.63.21.42-.42-.21-.42-.63-.21ZM220.2,71.03c-.21-.21-.42-.42-.63-.63-.21.63.21.84.63.63ZM220.2,67.48h.42c.21-.42.84-1.88,1.04-2.51-.63.21-1.88.21-2.09,1.04-.21.83,1.46,1.04.63,1.46ZM220.2,140.19c.21.21.63.21,1.04,0l-.42.42c.63-.21.63-.42.84-.42.21-.21.63-.42.84-.42.42-.21.42-.42.42-.42h.42c0-.21-.21-.42-.21-.42-.21.42-1.46.42-1.46.63,0-.21-.21-.21-.42-.21.21.42.42.42.21.63-.42,0-1.04.21-1.25.21ZM221.45,143.95c0,.42.21.63.21.84-.42.63-.63.42-1.46-.21l1.25-.63ZM221.04,69.15c-.63-.42-1.04-.21-.21.63.42-.21.21-.63.21-.63ZM220.62,67.48q.21.42.63.42c-.21-.21-.21-.42-.63-.42ZM221.87,67.69c-.42,0-.63-.21-1.04-.21.42.21.63.21,1.04.21ZM221.66,68.53c-.21,0-.21.21-.21.42h.63l.42.42c.21-.21.21-.42.42-.63-.42.21-.63.42-1.25-.21ZM222.08,143.11c.21.21.42.63.42.83-.84,0-1.25-.83-.42-.83ZM222.08,70.41c-.21-.21-.42-.21-.42.21q.21.21.42-.21ZM222.08,141.44c0-.21,0-.42-.42-.42,0,.21.21.21.42.42ZM221.87,64.77c0,.21,0,0,.21-.21,0,.21-.21.21-.21.21ZM222.92,68.74v-.84c-.42.21-.42.42,0,.84ZM222.71,66.02c.63.42,1.04,1.25,1.88,1.46,0-.21,0-.84-.21-1.25-.21-.63-.42-1.25-.84-1.25l-.83,1.04ZM223.12,68.32c0-.21-.21.21-.21.42,0,0,0,.21.21.21,0-.21.42-.63,0-.63ZM223.12,140.4c.42,0,.21-.42-.21-.21.21.42.42.84.83,1.25,0-.42.84-.84-.63-1.04ZM223.33,139.35h.21-.21ZM224.17,141.65q-.21-.21-.42-.21.21.21.42.21ZM224.59,64.98c-.21,0-.21.21-.21.42h.42c-.21-.21-.21-.42-.21-.42ZM224.59,145.2c-.21-.42-.21-.21-.21,0,0,.42.21.21.21,0ZM224.8,65.39q.21.21.42.21c-.21-.21-.42-.21-.42-.21ZM225,65.81s-.21-.21-.21-.42q0,.21.21.42ZM224.8,138.93c.21.21.42.21.63.42h.84-.84v-.63q-.42.21-.63.21ZM224.8,140.19c0,.42.21.42.42,0q-.21-.21-.42,0ZM225.21,141.02c-.42,0-.42,1.25-.42,1.67.63,0,1.04-1.46.42-1.67ZM225.21,138.73c0-.21.21-.21.21-.21,0,0,0,.21-.21.21ZM225.63,67.48c.42-.63.63-.63,0-1.25-.63.63-.42.63,0,1.25ZM226.68,144.78c-.21-.21-.21-.42-.42-.63-.63,1.04-.63,1.67.42.63ZM226.05,62.05q.42.21.83,0c-.21-.21-.42-.42-.83,0ZM226.88,64.77c-.21.21-.42.21-.63.21.21.42.42.42.63.42v-.63c.21.21.21,0,.42-.21,0,.21-.21.21-.42.21ZM226.26,138.52s0,.21.21.21c0,0,0-.42-.21-.21ZM230.23,142.7c0-.42-.21-.42-.63-.42.63-.84.63-1.04,1.04-.84l-.42-.42v.42c-.21-.21-.42-.42-.63-.42.21-.21.42-.21.63,0-.21-.21-.21-.42,0-.63.84-.21,1.25.21,1.67.63-.21-.42-.63-.84-.63-1.46-1.04.42-1.04.63-1.67,1.04,0,.21-.21.42-1.25.42,0-.21,0-.42.21-.63,0-.21,0-.42-.21-.21l-.42.42c.84.84.21,1.88-.84.63-.42-.63-.63-1.04-.83-1.04.21.42,1.25,1.04.21,1.46.21,0,.42.21.63.63.84-1.25,0,.84,1.25.84-.42.83-.63.83.21,1.25.21-.42.21-.84.21-1.25.21,0,.63.21.84.21-.42-.42.63-.63.63-.63ZM226.88,139.56s.21-.21.42-.21c-.42,0-.63-.42-.83-.63.21.42.42.63.42.84ZM227.3,65.6c-.21-.21-.42-.21-.42-.21q.21.21.42.21ZM227.3,144.16c-.21-.21-.42-.21-.42.21q.21.21.42-.21ZM227.51,145.41c.63-.42-.21-.42-.63-.21.21,0,.42.21.63.21ZM227.51,59.54c.21-.21.21-.42.21-.63-.42-.42-.42.21-.21.63ZM228.14,58.29q-.21.21-.21.42.21,0,.42.21c-.21-.21-.21-.42-.21-.63ZM227.93,60.59c.63,0,1.04-.21,1.25-.21-.63-.42-.84,0-1.25.21ZM228.14,145.62q-.21-.21-.21,0h.21ZM228.77,143.11c-1.67,0,.42-2.3.42-.84-.63,0-.42.63-.42.84ZM228.35,58.92h.42c-.21-.21-.42-.21-.42,0ZM228.56,59.13l-.21-.21s0,.21.21.21ZM229.6,63.09c.21,0,.42,0,.42-.21,0,0-.21,0-.42-.21-.42.21-.42.42-.21.42q-.42.21-.84.21c.42,0,.21-.42-.21-.42.42.63-.21,1.04.42,1.25.84.42.84-.42.84-1.04ZM228.35,139.35c0,.21.21.21.42,0q-.21-.21-.42,0ZM228.56,12.95c-.21.21-.21.42,0,.42s.21-.21,0-.42ZM228.77,138.52c.42-.42.63-.21-.21-1.04-.21.84-.21,1.04.21,1.04ZM228.97,144.99c-.21,0-.21.21,0,.42q.21-.21,0-.42ZM228.97,57.66l.21-.21c-.21-.21-.42,0-.21.21ZM229.39,56.41c0,.42-.21.42-.21.84.21-.42.21-.63.21-.84ZM229.6,56.83l-.42.42c.42,0,.42-.21.42-.42ZM229.18,138.73h.63c-.21,0-.21-.21-.42-.42q-.21.21-.21.42ZM229.39,139.14c.21,0,0-.21-.21-.21.21,0,.21.21.21.21ZM229.18,142.28h.42c.21.63,0,.63-.42,0ZM229.39,59.96c.21-.21.21-.63,0-1.25-.21.42-.21.84,0,1.25ZM229.6,139.56c-.63.21-.21.63,0,.83v-.83ZM229.39,61.42c.83,1.25.63.63,1.46.21-.21,0-.42-.21-.42-.21q0,.63-.21,0h.21c0-.21-.21-.42-.21-.42,0,.42-.42.63-.83.42ZM229.6,62.89s0,.21-.21.21l.21-.21ZM229.81,143.11l-.21.21q.42,0,.21-.21ZM230.02,143.53q-.21-.21-.42-.21s.21.21.42.21ZM229.81,144.99s0,.21-.21.42q.21.21.21.42c.42-.21.42-.63,0-.84ZM230.23,15.67c.21-.21,0-.42,0-.42v.42ZM231.48,144.78c-.42-.42-.84-.42-1.04,0,.63.84.84.84,1.04,0ZM230.65,55.16c.21-.21.21-.42.42-.63-.84-.42-.63.21-.42.63ZM231.27,142.28c0-.21-.42-.63-.63-.84-.21,0,0,.42.63.84ZM232.53,17.34c-.42-.21-.63-.21-.84-.21-.21-.42-.63-.84-1.04-1.04.42.42,0,.83.63,1.04q.21.21.63.21l-.21-.21c.21,0,.42.21.84.21ZM231.48,141.65c-.42,0-.84-.21-.84-.21.21,0,.42.21.84.21ZM231.27,139.14c0-.21,0-.42.21-.63q-.21,0-.42-.21c-.21.42-.21.63.21.84ZM232.53,58.08s.21-.21.21-.42c-.21.21-.42.21-.63.21.21-.42-.63-1.67-.84-1.25-.84.63,1.04,1.25,1.25,1.46ZM231.69,17.13s-.21,0-.42-.21c.21,0,.42,0,.42.21ZM231.9,55.78c0,.42.21.42.21.21q0-.42-.21-.21ZM231.9,139.77c0,.21.21.21.42,0q-.21-.21-.42,0ZM231.9,141.02c0,.21,0,1.88.21,2.09.84-.63.42-1.25-.21-2.09ZM232.11,17.76q-.21.21,0,.42c.21,0,.21-.21,0-.42ZM232.11,141.02c.21.42.42.63.63,1.04,0-.84-.42-1.25-.63-1.04ZM232.32,53.9c0,.42.21.42.42.21q-.21-.42-.42-.21ZM233.15,143.74c-.42-.63-.84.21-.63.84.21-.42.42-.63.63-.84ZM232.74,57.66q.21-.21.21-.42c0,.21-.21.42-.21.42ZM233.78,59.54c-.42-.42-.63-.42-1.04-.21.21.21.42.21.63.42,0-.21.21-.21.42-.21ZM233.36,59.75l-.63.63c.42,0,.83.21,1.04.42,0,0-.42-.84-.42-1.04ZM232.94,136.22c0,.42.63.42.83,1.04.21-.21.63,0,.84.63.84-1.67-3.34-3.13-.21-3.13,0,.21.21.21.21.42.84-1.25.63-1.25-.21-1.25,0-.42-.21-.63-.42-.42.63.84-.21,1.04-1.25,1.46,1.04.84-.21.84.21,1.25ZM232.74,138.52c.21,0,.21.21.42.21s0-.42-.42-.21ZM232.94,50.14q.21-.21.42-.42c-.21.21-.42.21-.42.42ZM233.15,57.45c0,.21-.21.21-.21.21,0,0,.21,0,.21-.21ZM233.78,137.26c-.42-.42-.21-.42-.83-.21,0,.21.42.21.83.21ZM233.36,49.72q0-.21.21-.21-.21,0-.21.21ZM233.99,60.38c-.21-.63-.21-.83-.63-.63.21.21.42.42.63.63ZM233.36,138.93s.21,0,.21.21c0-.21-.21-.42-.21-.21ZM235.66,144.37c-.42-.63-.42-.84-.42-1.04-.21-.21-1.67-.63-.42-1.04-1.04-1.04-.63-1.67-.42-2.72.63,0,.63.83.63,1.25.42-.63.42-1.25.63-1.67.21,0,.42,0,.63-.21h-.42c-.84,0-1.25.42-1.46.42-.63.42-.21.83-1.04,1.25.42.42,1.04.84,1.04,1.67l-.42.42c.63.63.42.83-.21,1.04,0,.21,1.04.42,1.88.63ZM233.57,139.14l-.21-.21s0,.21.21.21ZM233.78,54.11q.21-.21,0-.21c-.21,0-.21.21,0,.21ZM234.41,22.77c0,.42.84.42,1.25.83,0-.21-.21-.42-.42-.63,1.88-.21-1.04-2.09-.84-.21ZM236.29,52.23c-.42-.21-.42-.84-.63-1.04-.63.84-.21.63-1.25,1.04.84.63.84.21,1.04,1.04.42-.21.63-.63.84-1.04ZM234.62,60.17c.84-.63.63-.83,0-1.46-.21.42-.21,1.04,0,1.46ZM235.24,45.55c-.42.21-.42.42-.21.63q.21-.21.21-.63ZM235.03,55.57c.42,0,.42-.21.21-.42q-.42.21-.21.42ZM235.03,57.45q0,.21.21.42c.21-.21,0-.42-.21-.42ZM235.66,27.37v-.42c.42-.63.21-.63,1.04-1.04-1.46-.84-1.88.63-1.04,1.46ZM235.66,138.93v.21c-.21,0-.42,0,0-.21ZM235.45,27.58q0,.42.21.42s0-.21-.21-.42ZM235.45,45.55c.21-.42.21-.63.21-.84-.21.42-.21.63-.21.84ZM235.87,58.29c-.21-.63-.42-.63-.42-.42l.42.42ZM235.45,58.08c0,.21.21.42.21.63,0-.21,0-.42-.21-.63ZM235.66,50.14s0-.21.21-.42c-.21,0-.42.21-.21.42ZM236.08,46.17c0-.21.42-.63,0-.84s-.21.42-.42.42c0,.21.21.21.42.42ZM236.08,39.07c-.42,0-.21,1.04,0,1.25.42.42.42.21,1.25.21,0-.21.21-.21.63-.21-.21-.63-1.25-1.25-1.88-1.25ZM236.08,23.19q-.21.21-.21.42c.21,0,.42.21.42.42,0-.42-.21-.63-.21-.84ZM236.08,24.44c.21-.21,0-.42-.21-.84,0,.42,0,.63.21.84ZM236.29,36.56q-.21-.21-.42.21.21.21.42-.21ZM237.33,50.35c.63-.42,0-1.04.63-.83,0,0,.21,0,.21.21,0,0,0-.21-.21-.21,0-.21,0-.42-.21-.42,0,.21-1.46.42-1.67,0-.21.21-.21.42-.21.63q.63.63.63,1.25c-.21.84.83-.84.83-.63ZM236.71,139.77c0-.21-.21-.21-.42-.21s-.21,0-.42.21c.42.21.63.21.84,0ZM236.91,134.96c-.42-.21-.63-.42-.83-.63-.42.63.21,1.04.83.63ZM236.5,135.59c-.63.42-.63.21,0,1.25.21-.42.42-.83.63-1.04-.21,0-.42-.21-.63-.21ZM236.71,26.74c-.63.21-.63.42.42.84.21-.42.21-.63-.42-.84ZM237.75,45.96c.21-.63.42-2.09.21-2.51v-.21s0,.21-.42.21c-.21.21-.83,0-1.25-.21.63,1.88,1.46,3.34.21,4.6.21.21.42.21.63.21-.21-.63.63-1.88.63-2.09ZM236.29,52.02q.21-.21.21-.42c0,.21-.21.21-.21.42ZM236.71,35.31s-.21-.21-.21,0,0,.21.21,0ZM236.91,31.76c.84,1.04,1.25-.21.84-1.46-.42.42-.42.84,0,1.46.21-.42,0,0,0,0-.42-.21-.63-.21-.84,0ZM238.17,37.4c-.42-.42-.84-.42-1.25-.21.63,1.04,1.04.84,1.25.21ZM237.33,138.31c.42-.84.42-.63.63-1.46.63,0,.42.42.84.42h.63c-.42-.21-.63-.21-.84-.42-.42-.21.21-1.04.42-.42.21-.63.63-.63,1.25-.63-.63-.63-2.3-.21-2.3-1.04l-.63.63c.21,0,.42-.21.63-.21-.21.63-.63,2.09-1.04,2.3.21.21.42.42.42.84ZM237.96,53.28c-.63-.42-.84-.21-.63.84.42-.21.63-.42.63-.84ZM237.33,24.86c0-.21.21-.42.21-.42q-.21,0-.21.42ZM237.33,133.71q0,.21.21-.21-.21-.21-.21.21ZM237.33,142.9v.21c.42,0,.21-.21,0-.21ZM240.67,144.78c-.21-.21-.42-.42-.42-.63-.83.84-1.88-.63-2.92-1.04.63.63,1.46,1.04,1.88,1.46.83.63,0,.84,1.46.21ZM237.33,145.41v.42h.63c0-.42-.21-.42-.63-.42ZM238.17,51.6c-1.25,1.25-.63,1.46,0,1.25v-1.25ZM237.75,142.28c.42-.21.42-.42.21-.84-.42.21-.63.42-.21.84ZM237.54,24.44c.21,0,.21-.21.21-.21-.21,0-.21.21-.21.21ZM237.54,28q.21.42.42.21-.21-.21-.42-.21ZM237.54,43.46h.42q-.21.21-.42,0ZM237.54,139.77s.21.21.21.63c.42-.21.21-.42-.21-.63ZM237.96,144.78q-.21-.42-.42-.21.21.42.42.21ZM242.35,132.88s0,.21-.21.21c0-.21,0-.42.21-.84-.21.42-.42.63-.42,1.04-.42.42-.84,1.04-.84,1.04-.21-.84-.21-.63-.42-1.46-.21.63-.63.63-1.25.21,1.04-.84-.21-.84-.42-1.46-.42-.42.84-.63-.21-.84-1.46-.42-1.67,1.46-.42,1.46.21,0,0,.21-.21.42.42.42.42,1.25,0,1.67.63-.42,2.3-1.04,2.72-1.04,0,.63.42,2.51,1.04,2.3-.42-1.04-.84-1.46.42-1.04-.21-.42-.21-.84-.21-1.25.21,0,.42-.21.21-.42ZM237.75,27.16l.63-.63c-.42-.63-.84,0-.63.63ZM237.75,24.44s.21,0,.21-.21c0,.21-.21.21-.21.21ZM238.38,139.77c-.21-.21-.42-.21-.63-.21.21,0,.63.21.63.21ZM239.21,46.8c-1.88-.63-.63.84-.84,1.25.21-.42.42-.84.84-1.25ZM238.38,36.98c.21-.42.21-1.04.21-1.46-.21.63-.21,1.25-.21,1.46ZM239,48.68c-.21-.21-.42-.21-.63,0,.21.21.42.21.63,0ZM238.38,52.02v.63c.21-.21.21-.42,0-.63ZM238.58,40.53c-.21,0-.21.21,0,.42q.21-.21,0-.42ZM238.58,31.97c.42-.21,2.3-1.46.63-1.67.42,0,.21-.42-.21-.21.63.63,0,0,0,.63v1.04c-.42,0-.63,0-.42.21ZM238.58,34.47s.21.21.42.21.21-.21.21-.42c.42-.84-1.04-.21-.63.21ZM239.84,37.19c0-.21-.42-1.46-1.04-1.46,0,0-.21.83-.21,1.46.21.21.63.21,1.25,0ZM241.3,42.2c-.21-.42-1.88,0-2.09.21-.42.21,0,1.46.42,1.88q-.42-.21-1.04-.21c0,.21,1.88.42,1.67.42.63-.63-.21-.42-.42-1.25.21-.21.63-.21,1.04-.21v.42c.21-.42.84-.63.42-1.25ZM238.79,50.98c0-.42-.21-.42-.21-.21,0,.42.21.42.21.21ZM238.58,142.49c0,.21.21.21.21.21.21,0,0-.21-.21-.21ZM239.21,38.02q-.42,0-.21.21c.42,0,.42-.21.21-.21ZM239.42,142.9h-.42.42ZM239.21,45.96c0-.21.21-.42.21-.42-.21,0-.42,0-.21.42ZM239.63,141.44c.21,0,.42,0,.63-.42-.21,0-.42,0-.63.21,0,0,.21-.21.21-.42q-.21.21-.21.42c-.42.21-.63.63-.42.63,0-.21.21-.42.42-.42ZM239.84,33.43s.21-.21.21-.63c-.21,0-.21-.21-.42-.42-.21.42-.42.42.21,1.04ZM239.42,45.34c.21,0,.21-.21.21-.42-.21.21-.21.42-.21.42ZM239.63,40.95q-.21.21,0,.42c.21,0,.21-.21,0-.42ZM239.63,139.35c.21-.21.21-.42,0-.63-.21.21-.21.42,0,.63ZM239.63,129.74l.21-.21c0-.21-.42-.21-.21.21ZM239.84,45.13c0,.21-.21.21-.21.21,0,0,.21,0,.21-.21ZM241.09,136.64c0-.21,0-.42-.21-.63-.63,0-1.04.63-1.25,1.04.63-.21,1.25-.42,1.46-.42ZM240.26,137.47s-.21,0-.63-.21c0,.84.42,1.46.63.21ZM239.84,32.17c.21.21.21.42.42,0q0-.21-.42,0ZM239.84,35.31s.21.21.42.21q0-.21-.42-.21ZM240.05,129.32v-.42q-.21.21,0,.42ZM240.05,129.32s.21,0,.21-.21q-.21,0-.21.21ZM240.88,35.31h-.63.63ZM240.46,37.82c.21,0,.21-.21,0-.42v.42ZM240.46,131.41c.21.21.42.21.42.21-.21,0,0-.21,0-.42-.21,0-.42.21-.42.21ZM241.3,137.89c-.42.21-.42.42-.84.63.21.42.42.63.63.84,0-.42.63-.84.21-1.46ZM240.88,45.55c-.42.63-.63.63,0,1.67v-1.67ZM241.51,142.07q-.42.42-.42.63c0-.21-.21-.21-.21-.42,0,.21-.84,1.88,0,1.25.21-.21.42-.83.63-1.46ZM240.88,128.49c.42-.42.21-.63.21-1.04v-.21c-.63.42-.42,1.67-.21,1.25ZM241.51,38.86c.21-.42.21-.84-.21-.84-.42.42-.21.63.21.84ZM241.51,140.4c-.42.21-.63.42-.21.84.42,0,.42-.21.21-.84ZM241.51,139.35h-.42.42ZM241.51,132.25h-.21.21ZM242.55,126.82c.21,0,.42.21.63.21-.42-.21-.63-.21-.63-.21v-1.04c-.42.42-.84.63-1.04,1.04h.84s-.21.21-.42.63c.21,0,.42.21.63.21v-.84ZM241.72,136.64c0-.21,0-.42-.21-.42,0,.21.21.21.21.42ZM242.55,129.12c-.63-.42-1.04,0-.63.63l.63-.63ZM242.35,137.26c0-.21-.21-.21-.21-.21q.21,0,.21.21ZM242.35,137.26q-.21,0-.21-.21,0,.21.21.21ZM242.35,125.56v-.84c-.21.42,0,.63,0,.84ZM242.55,125.56v.63c0,.21.21-.84,0-.63ZM243.39,121.8c-.42,0-.63.42-.21.84.42-.21.42-.42.21-.84Z"/>
    </g>
  </g>
</svg>