<?xml version="1.0" encoding="UTF-8"?>
<svg id="Layer_2" data-name="Layer 2" xmlns="http://www.w3.org/2000/svg" viewBox="0 0 256.24 66.47">
  <defs>
    <style>
      .cls-1 {
        fill: #171717;
        stroke-width: 0px;
      }
    </style>
  </defs>
  <g id="chapter_4_production" data-name="chapter 4 production">
    <g>
      <path class="cls-1" d="M64.04,33.75l-.27.09h-.18c-.27.09-.64,0-.82,0-.37,0-.64,0-1.01.09h-.37c-.18,0-.28,0-.46.09-.18.09-.37.18-.64.28-.28.09-.46.37-.64.37-.27,0-.55.27-.82.37-.37.09-.92,1.19-.83,1.56.18.73-.55,1.1-.46,1.65.09.64.09,1.19.09,1.83v1.83c-.09.64.18,1.47-.37,2.02v1.1c.55.37.18.82.37,1.28.18.55-.64.73-.37,1.1.18.27.37.55.37,1.01-.09.18,0,.37,0,.46v2.56q0,.92-.55,2.02c-.09.09-.27.18-.27.37,0,.37,0,.64-.18.82-.55.46-.73,1.01-.82,1.65,0,.18-.09.27-.18.37-.09.09-.27.27-.46.46-.55.46-.92,1.1-1.19,1.65-.09.37-.28.73-.46.73-.64.18-1.01.64-1.38,1.01-.27.37-.64.46-1.01.73-.18.18-.46.09-.64.18-.28.18-.46.46-.73.73-.37.37-1.01.92-1.56,1.19-.64.28-1.01.46-1.65.64l-.28.27c-.64.09-.82.09-1.19.28-.09.18-.55,0-.92.09-.09,0-.18.18-.37.18-.55.18-1.01.73-1.56.55-.28,0-.73-.09-.73.09-.37.55-.92.09-1.28.46-.09.09-.18.18-.28.18-.55.09-1.1.09-1.65,0-.55-.09-.73.46-1.28.37-.46-.18-.92.18-1.28-.28-.09-.09-.37,0-.55,0-.09.09-.18.28-.46.28h-5.68c-.46-.09-.73-.46-1.1-.37-.46.09-.92.09-1.19-.27,0,0-.18-.09-.27-.09-.46,0-.82.09-1.19,0-.27,0-.46-.37-.92-.37-.46-.09-.92-.37-1.47-.46-.46,0-.92-.27-1.47-.37-.37,0-.73-.18-1.01-.37-.09-.09-.18-.09-.37-.18l-.55-.28c-.18-.09-.27-.18-.37-.18-.28-.18-.64-.37-1.1-.37-.46-.09-.73-.37-1.1-.64-.37-.28-.55-.55-.82-.82-.37.18-.55-.28-.92-.28-.55-.09-.73-.82-1.28-.82-.28-.37-.73-.64-1.19-.73-.18-.18-.46-.55-.73-.82-.37-.37-.83-.73-1.1-1.1-.28-.46-.92-.46-1.19-.82-.27-.46-.73-.73-1.19-1.1-.28-.37-.64-.82-.92-1.01-.64-.55-.83-1.37-1.38-1.83.09-.37-.27-.55-.46-.73-.37-.18-.18-.55-.46-.73-.55-.37-.55-1.19-1.1-1.47-.09-.09-.18-.37-.18-.55,0-.37-.37-1.19-.64-1.37-.18-.18-1.1-2.02-1.1-2.2,0-.46-.55-.64-.46-1.1,0-.28,0-.46-.18-.73-.37-.46-.73-1.19-.46-1.83.18-.55-.55-.64-.46-1.19.09-.27.18-.64-.18-.92-.18-.09-.09-.37-.18-.55-.09-.73.28-1.56-.37-2.11v-8.15c0-.46,0-.92.28-1.19.09-.09.09-.18.09-.28v-.46c.09-.46-.18-.92.28-1.28.37-.46.09-.92.18-1.19,0-.09.09-.18.18-.27q.55-1.1.55-1.83c0-.37,0-.73.27-1.01-.27-.55.55-1.01.37-1.56.37-.46.55-1.1.82-1.56.18-.55.55-1.1.82-1.56.09-.27.18-.55.37-.82.18-.18.46-.28.46-.55.09-.18.09-.55.37-.64.46-.27.27-.82.73-1.1.37-.18.37-.64.55-.92.28-.37.82-.64.92-.92.09-.46.46-.73.64-1.01.18-.37.27-.92.64-1.01.64-.09.82-.55,1.1-.82.92-.46,1.56-1.1,2.2-1.74,1.01-1.1,2.29-2.38,3.76-2.66.37-.18.64-.46,1.01-.55.46-.09.64-.37.83-.64.09,0,.18-.09.18-.09l.46-.18c.09,0,.09-.09.18-.09.46-.18.73-.55,1.37-.46.18,0,.27-.18.46-.27.46-.09.92-.64,1.65-.46.37.09.55-.55,1.1-.37.46.09.73-.28,1.1-.37s.82-.55,1.28-.37c.64.27,1.01-.46,1.65-.37.55.09,1.28.09,1.74,0s.92-.46,1.37-.37c.46.09,1.01,0,1.47,0h2.75c.46,0,.92.09,1.37,0,.64-.09.83.55,1.47.37.55-.09,1.01-.18,1.47.09.46.18.92.18,1.19.46.09,0,.18,0,.27.09h.55c.09.09.18.09.28.09.37,0,.73-.09,1.1.28.18.27.64-.09.92.37.73.09,1.28.37,1.92.73.37.18.92,0,1.19.46.28.46.92.37,1.19.82.09.37.55.18.82.46.18.27.37.46.73.55.09,0,.27.27.46.37.18.18.37.37.55.55l1.19,1.1c.18.18.37.37.55.55.37.27.37.82.64,1.19.37.28.82.55,1.1.92.18.28.37.64.37,1.01.18.37,0,1.01.27,1.56.27.37.09.82.18,1.28.09.46-.18.92.27,1.38.18.18.09.55.09.82.09.55-.28,1.28.37,1.65v.18c0,.55.09,1.01,0,1.47-.18.55.37.82.37,1.28v1.37c0,.27,0,.55.18.73.18.09.18.18,0,.28-.18,0-.37-.09-.37-.09-.09-.46-.64-.83-.55-1.19.09-.46-.46-.73-.37-1.19,0-.37-.55-.73-.37-1.28-.37-.27-.27-.73-.55-1.01-.37-.37.09-.92-.55-1.19.27-.64-.37-1.01-.37-1.47-.09-.55-.27-1.01-.64-1.37-.18-.28.09-.73-.28-1.01-.27-.28-.18-.64-.55-.83.09-.73-.82-.92-.73-1.56-.37-.28-.64-.64-.82-1.19-.09-.27-.64-.37-.55-.92-.37-.37-.73-.73-1.1-1.01-.27-.28-.46-.64-.82-.92-.46-.37-.92-.55-1.28-.92-.37-.37-.82-.83-1.19-1.19h-.09c-.73-.27-1.47-.82-2.11-1.1-.73-.27-1.28-.92-2.2-.82-.28,0-.46-.46-.73-.37-.37.09-.55-.18-.82-.37-.37-.09-.82.09-1.1-.18-.46-.28-.82-.18-1.19-.18-.55-.09-1.19,0-1.65,0-.37-.55-1.01-.27-1.47-.37s-.64.46-1.19.37c-.37-.09-.92,0-1.37,0h-1.28c-.46,0-.82,0-1.28-.09-.46,0-.55.55-.92.46-.55-.18-.73.55-1.37.37-.27-.09-.55.46-1.01.46s-.82.27-1.19.46c-.37.27-.83-.09-1.19.37-.18.28-.73.37-1.01.55-.82.46-2.02.73-2.57,1.74-.37.37-1.1.37-1.37.92-.37.55-1.01.64-1.37,1.01-.27,0-.55.27-.73.46.09.73-.92.82-.83,1.47-.37.37-.73.82-1.19,1.19-.18.09-.18.28-.28.55,0,.18-.37.18-.55.28-.18.18-.46.37-.46.55,0,.46-.55.64-.46,1.1-.27.18-.18.73-.46.82-.37.28-.46.73-.64,1.1-.46.64-.64,1.37-1.28,1.92-.27.28.09.92-.37,1.19-.09.37-.46.73-.55,1.28l-.18.28c-.09.37.09.82-.27,1.19-.37.28.09.82-.46,1.1v.37c-.09.46.09.83-.37,1.1-.28.27.09.73-.28,1.01,0,.09,0,.37-.09.46,0,.46.09.92-.09,1.28-.46.37-.18.83-.28,1.28,0,.46.09.82,0,1.28s-.46.73-.37,1.28c.09.55,0,1.1,0,1.65v3.02c0,.55.09,1.1,0,1.47-.18.73.46,1.1.37,1.65-.09.55,0,1.1,0,1.65.73.37,0,1.28.64,1.74.09.09.09.37,0,.55-.18.64.55,1.28.46,1.92.55.27.18,1.01.55,1.46.27.37.27.92.46,1.47.27.37.55.82.73,1.28.18.46.64.73.46,1.28,0,0,1.1,1.74,1.1,1.92.09.37.64.46.73.92,0,.28.37.55.64.83-.18.37.46.55.37.92v.18c.37.37.82.64,1.01,1.01.18.55.46.83.83,1.19,1.01,1.01,2.11,2.02,3.21,3.21.37.37.83.83,1.28,1.19.64-.09.73.82,1.47.82.09-.09.27.18.37.37.18.09.27.37.37.27.64,0,1.1.46,1.56.55.55.27,1.1.55,1.56.82.37.28,1.01-.09,1.28.55.18-.09.37,0,.55,0l.55.18c.27.18.73,0,.92.37.09.09.37.09.55.09.46-.09.73.27,1.1.37.37.09.82,0,1.28,0,.55.64,1.37.27,2.02.37.09,0,.27-.18.46-.18.27-.18.37-.28.64,0,.18.27.73.37.92.18.37-.27.64-.37.92-.37h2.2c.46,0,.83.18,1.19-.27.09-.18.46-.09.64-.09h.92c.09,0,.18-.09.18-.09l.46-.18c.09,0,.09-.09.18-.09.18-.09.46,0,.55-.09.27-.28.64-.18.82-.37.09-.09.18-.09.28-.18l.64-.28c.09-.09.18-.09.28-.18.55.18.82-.46,1.28-.37h.18c.09-.09.18-.09.27-.18l.46-.28c.09-.09.18-.18.28-.18.09-.09.18-.09.27-.18l.64-.27c.09-.09.18-.09.27-.18.28-.27.64-.46.64-1.1l.18-.09c.46-.64,1.1-.83,1.28-1.56.18-.55.73-.83,1.28-1.28.09-.09.09-.18.09-.18l.18-.55s.09-.09.09-.18c.18-.18.09-.55.18-.82.09-.18.37-.37.28-.64,0-.37.09-.46.37-.73.09,0,.09-.09.09-.18,0-.55,0-1.1.09-1.74.46-.46.18-1.01.27-1.56,0-.37.37-.64.27-1.01-.09-.46,0-.92,0-1.37v-3.57c0-.27-.09-.46-.18-.64-.09-.09-.09-.46-.09-.46.27-.18.27-.55.27-1.01v-4.67c0-.55-.18-1.01-.27-1.47-.18-.28-.37-.64-.55-.82-.27-.55-.37-1.38-1.28-1.47-.37-.37-.73-.64-1.28-.46h-.73s-.09-.09-.09-.18,0-.18.09-.28c.18-.09.27-.37.64-.37h6.96c.28,0,.46.18.64.28.18.09.37.18.46.09.18-.27.46-.37.82-.37h6.14c.09,0,.27.18.37.28ZM2.57,37.24c-.18-.18-.55-.18-.64.09l.28.28c.09-.09.27-.18.37-.18v-.18ZM3.94,23.68c.09,0,.09.09.18,0h.27c0-.18-.73-.82-.92-.92-.09-.09-.18-.09-.37-.09,0,.09-.09.18-.09.18-.09.27-.09.55,0,.82.09.46-.18.83-.64,1.19-.27.18-.18.46-.18.73,0,.18.18.37.37.37.18-.09.37-.09.37-.18.18-.55.46-.92.37-1.65-.09-.37,0-.37.55-.46h.09ZM3.94,42.73l.09-.09c0-.18-.18-.37-.28-.37-.18.09-.18.46,0,.55.09,0,.18,0,.18-.09ZM3.76,20.29c0,.09.09.18.09.18,0,0,.09,0,.09-.09,0,0,0-.09-.18-.09ZM4.03,19.28c0,.18.09.46.18.46.18.09.37,0,.46-.09.09-.09.27-.28.37-.37,0-.09-.09-.18-.18-.27h-.46c-.18,0-.37.09-.37.27ZM4.03,22.49c.09,0,.09.09.18.09l.09-.09h.09c0-.09-.09-.18-.09-.09-.09,0-.18,0-.27.09ZM4.67,39.43c-.09-.18-.46-.09-.55,0v.09c.09.18.55.18.55,0v-.09ZM4.4,18.55h.09l.09.09h.09v-.09l-.09-.09c-.09-.09-.09,0-.18.09ZM5.86,23.22c-.09-.09-.18-.18-.27-.18-.46,0-.64.37-.83.55.09.09.18.09.28.09.46.09.55-.27.82-.46ZM5.5,20.47c.09,0,.18,0,.27-.09,0-.09-.09-.18-.09-.18-.09-.09-.18-.18-.28-.27-.18,0-.27.09-.27.18-.09.27,0,.37.37.37ZM6.14,45.66c0-.18-.37-.46-.46-.55h-.37c-.09.09-.18.28-.18.46,0,.09.09.18.18.18.09.09.18,0,.37,0,0,0,.09.09.18,0,.09,0,.18,0,.28-.09ZM5.68,43.37l-.09.09h-.09c0,.09.09.18.09.18,0,0,.09,0,.09-.09h.09l.09-.09s-.09-.09-.18-.09ZM6.5,16.16l.09.09.09.18h.09c.18-.18.55-.27.55-.64,0-.09-.09-.18-.18-.27h-.09c-.18.27-.55.27-.55.64ZM6.69,14.79l-.09.09q0,.09.18.09h.09l.09-.09s-.09,0-.28-.09ZM7.97,14.15c.09.09.18.18.37.18h.37c.28,0,.37-.09.37-.18.09-.18-.09-.46-.09-.46-.64.09-.55-.37-.64-.73,0,0-.09,0-.18-.09,0,0-.09.09-.09.18-.09.18-.09.37-.09.37v.73ZM8.7,14.79c-.18-.18-.55-.18-.64,0v.18c.09.18.55.18.64,0v-.18ZM9.44,13.05c.18.18.37.18.46.18s.18-.09.27-.18c-.09-.09-.18-.18-.27-.18-.18,0-.28.09-.46.18ZM9.62,54.09l.09-.18-.09-.09q-.09,0-.09.09c0,.09,0,.18.09.18ZM9.89,11.68l.09.09q.09,0,.09-.18v-.09l-.09-.09s0,.09-.09.28ZM12.46,8.65c0,.18.09.18.09.28.09-.09.09-.18.09-.18l-.18-.09ZM12.92,57.3h.09l.09-.09s-.09,0-.27-.09l-.09.09q0,.09.18.09ZM14.11,58.22c-.18,0-.37,0-.46-.09-.18.09-.37.09-.46.09-.18.09-.09.09,0,.18q.46.46.92,0c0-.09.09-.09,0-.18ZM14.02,7.55l-.09.09s0,.09.09.18c.09,0,.09-.09.09-.18l-.09-.09ZM46.54,33.48c.18,0,.37.09.55.18v.09c-.28.18-.83.18-1.01,0,.09-.18.27-.28.46-.28ZM48.28,6.91l.09.09v.09s.09,0,.09-.18v-.09l-.09-.09c0,.09-.09.09-.09.18ZM49.01,7.55l-.09.18.09.09c.09,0,.18,0,.18-.09s-.09-.18-.18-.18ZM50.11,9.2h.09l.09.09v-.18l-.09-.09s-.09,0-.09.18ZM50.39,9.84c.18.37.73.46.73,1.01,0,.09.18.18.18.18.09-.09.28-.18.37-.37q.18-.09,0-.28c-.27-.18-.46-.55-.82-.73-.18-.09-.18,0-.27-.09-.09.09-.18.09-.18.18v.09ZM52.4,56.47c-.09,0-.28-.18-.46-.09-.09,0-.18.28-.09.46q.09.09.09.18c.18-.18.27-.27.37-.37.09,0,.09-.09.09-.18ZM52.31,12.23l.18-.18c0-.18,0-.46-.09-.55s-.37,0-.46,0c0,.28.18.55.37.73ZM51.95,34.67c0,.27.09.37.37.64,0,0,0-.09.09-.09v-.09l.09-.09c0-.37-.18-.46-.55-.37ZM53.23,35.59c.28-.27.46-.37.73-.09.09.09.18.18.27.18.28-.28.55-.55.82-.83v-.18h-2.01s-.09.09-.18.18v.55c.09.18.18.46.37.18ZM53.69,40.35s.18-.09.28-.09c0-.18,0-.37.09-.55.09-.09.37-.18.28-.37h.18c.46,0,.55-.09.55-.46,0-.09-.09-.18-.64.18.09-.09.27-.28.46-.46-.37,0-.55.09-.55.37q0,.09-.09.18l-.18.09c-.27.09-.55.09-.55.09-.18,0-.28.28-.18.37.09.28.18.46.37.64ZM53.5,38.61s-.09,0-.09.18v.09c.09,0,.09.09.09.09v-.37ZM54.69,43.56l.28-.28q.09-.18.09-.27c-.55-.09-.92-.09-1.28-.09-.09,0-.18.18-.18.27,0,.18.09.28.18.46.09-.09.18-.09.18-.18q.18-.18.27,0c.09.09.28.18.28.18q.09-.09.18-.09ZM53.87,55.74s0-.09-.18-.09v.09c-.09,0-.09.09-.09.09,0,0,.09.09.18.09,0,0,.09-.09.09-.18ZM53.87,52.81h-.09c0-.09-.09-.09-.09-.09v.18l.09.09q.09,0,.09-.18ZM55.43,47.31c-.09-.37-.37-.37-.73-.37,0,0,.09-.09,0-.37,0-.18.09-.37,0-.55-.09-.09-.27-.18-.46-.18,0-.09-.18,0-.27.09v.55c0,.37.18.46.55.46h.18v.82c.09.09.28.18.37.18.09.09.28,0,.28-.09.09-.18.09-.37.09-.55ZM54.33,50.24c0-.09-.09-.09-.18,0s-.27.18,0,.18c0,0,.09,0,.18-.18ZM54.33,39.07h.09q-.09.09-.09.18v-.18ZM54.6,44.93v-.09l-.09-.09s-.09.09-.09.18l.09.09v.09s.09,0,.09-.18ZM54.42,50.15l.09-.18c.09,0,.09-.09.09-.09-.09,0-.18.09-.18.27ZM54.42,50.24h.09s0-.09.09-.09v-.09l.09-.09s-.09-.09-.27.27ZM56.43,36.69s.09-.37.09-.46c0,0-.18-.09-.27-.09-.09-.09-.18-.09-.18,0-.27.09-.55.37-.92,0-.09-.18-.46,0-.46.18v.37q0,.82.73.46c.37-.09.55-.46,1.01-.46ZM55.06,41.27c0,.09.09.09.18.09.09.09.09,0,.18-.09h-.09l-.09-.09s-.09,0-.18.09ZM56.43,41.63c-.09-.18-.46-.18-.64,0,0,0,0,.09.09.09.09.18.46.18.55,0v-.09ZM55.98,45.48s.09-.09.09-.18l-.09-.09v-.09c-.09.09-.18.09-.09.09,0,.09,0,.18.09.28ZM56.16,51.8h-.09l-.09-.09h-.09c0,.18.09.18.09.27.09-.09.18-.09.18-.18ZM56.43,39.8l-.09-.09s-.09,0-.18.09c0,0,.09,0,.09.09h.09l.09.09v-.18ZM56.43,42.46q0-.09-.18-.09c0,.09.09.18.09.18q.09,0,.09-.09ZM57.62,34.95c-.09-.18-.18-.27-.27-.27-.37-.09-.46,0-.55.27,0,.28.09.37.37.37.28.09.46-.09.46-.37Z"/>
      <path class="cls-1" d="M119.92,51.34c-.09.18-.18.37-.27.55-.09.27,0,.55,0,.92v.18c-.09.46.18.92-.27,1.28-.18.18-.09.64-.09.82-.18.73.37,1.56-.37,2.11v1.1c-.09.64.18,1.38-.27,2.02-.37.64,0,1.28-.18,2.02-.09.18-.27.37-.27.64,0,.82.09,1.56-.09,2.38h-51.49l-.18-.18.09-.18h1.37c.37-.09,1.01.18,1.37-.09.28-.37.73-.27,1.19-.27.18,0,.27-.09.46-.18.18-.37.46-.73.82-.92.46-.37.55-.73.55-1.28-.09-.37-.18-.73.27-.92.09-.09,0-.37.09-.55,0-.92-.27-1.74.28-2.56.09-.18,0-.46,0-.73v-3.48c0-.37.09-.82-.28-1.1v-1.01c.46-.46.28-1.19.28-1.65v-4.76c0-.55.27-1.28-.28-1.65,0-.46-.18-1.01.18-1.28.09-.09.09-.37.09-.55v-6.32c0-.37-.09-.64-.28-.83-.09-.18-.09-.55,0-.64.37-.64.28-1.19.28-1.83v-5.59c0-.37,0-.73-.28-1.01-.09-.09-.09-.27,0-.37.55-.55.18-1.37.28-2.02v-5.41c0-.46.09-.92-.28-1.28-.18-.09-.09-.64,0-.73.37-.27.28-.73.28-1.1v-4.76c-.09-.82.37-1.74-.28-2.47v-1.65c0-.37-.09-.64-.09-.92-.64-.37,0-1.1-.64-1.37,0-.55-.55-1.01-.92-1.19-.46-.28-.92-.64-1.56-.46-.46.09-.83-.55-1.47-.46-.37.18-.92.09-1.37,0h-.18c.09-.09.09-.27.18-.27h4.03c.18,0,.37.09.37.18.46.27,1.01.09,1.47.09.18-.37.64-.27,1.1-.27h4.86c.64.09,1.47-.18,2.02.27.09.09.46.09.55,0,.37-.27.92-.27,1.28-.27h33.9c.09.09.18.18.18.27.09.28.09.73,0,1.1-.18.64.37,1.19.37,1.83v1.92c.64.82.18,1.74.37,2.66,0,.37-.18.73.37,1.1,0,.55.09,1.19,0,1.74-.18.64.37.92.37,1.47v1.83c0,.09-.09.18-.09.18-.09-.09-.27-.09-.27-.18v-.73c0-.27.09-.64-.09-.64-.55-.37-.18-.92-.46-1.28-.18-.37-.55-.82-.46-1.28,0-.46-.64-.73-.46-1.28.09-.37-.55-.55-.37-.92-.55-.73-.73-1.47-1.19-2.2-.28-.46-.37-.92-.92-1.28-.37-.37-.73-.92-1.28-1.28-.27-.37-.73-.64-1.19-.92-.55-.28-1.01-.83-1.74-.64-.55.18-.92-.37-1.47-.37h-3.02c-.18,0-.37-.18-.46-.28-.37-.18-.92-.18-1.37.09-.18.09-.37.18-.55.18h-6.32c-.37,0-.55-.18-.92-.28-.18-.09-.37-.09-.55-.09h-.55c-.27.46-.64.37-1.01.37h-5.41c-.46,0-.92.09-1.1-.37-.46,0-1.01-.18-1.37.18-.09.09-.18.18-.28.18h-4.03c-.92,0-1.92-.18-2.84.09v.73l-.09,1.37v23c0,.46.46.83.83.83.46-.09,1.1.27,1.56-.18.09-.18.28-.09.46-.09h3.39c.37,0,.64,0,.82.18.09.09.27.09.46,0q.92-.28,1.56,0h.18l.28.09h.09c.64-.09,1.28.27,1.83-.28.09-.09.27,0,.37,0h3.94c.28,0,.46.09.64.18.27.18.37.09.55,0,.37-.37.82-.37,1.1-.18.64.55,1.47.18,2.11.18.27-.37.64-.18,1.01-.18h3.94c.46,0,.92.09,1.1-.37h.27l.64-.09h.27c.28-.46.83-.27,1.1-.73l.55-1.28c-.28-.55.46-1.1.27-1.83v-1.83h.18l.18.09c0,.64-.09,1.19,0,1.65.09,1.01-.37,1.92.37,2.84v4.12c-.55.46-.37,1.01-.37,1.65v1.83c0,.18-.18.27-.18.37-.09-.09-.18-.18-.18-.27v-1.65c0-.55-.18-.92-.46-1.19-.37-.55-.92-.92-1.19-1.37-.28-.18-.83-.18-1.01-.46,0-.09-.18-.09-.28-.09-.64.28-1.1-.37-1.74-.37h-24.19c-.37,0-.46.09-.46.46v34.36c0,.18.55.64.73.64.64-.09,1.47.37,2.02-.28.09-.09.37,0,.55,0,1.1,0,2.29,0,3.48-.09.28,0,.46.09.55.28.09.09.37,0,.55.09.46.09.92-.83,1.28-.09.55,0,1.01.09,1.47.09.18,0,1.74-.28,1.83-.37.46-.27.55.64,1.1.18.18-.37.73-.09,1.19-.09s1.01-.27,1.47.28c.28-.09.55.09.73-.09.27-.28.73-.37.92-.18.64.46,1.47.18,2.11.28h2.2c.82-.64,1.65-.18,2.38-.28.37-.09.73-.09,1.01.18,0,.09.37.09.46,0,.18-.37.64-.28,1.01-.18.18,0,.27.28.55.28.73,0,1.56,0,2.29-.09.46-.46,1.01-.18,1.56-.18.46,0,.73-.27,1.1-.37.37-.18.92,0,1.28-.09s.73-.46,1.1-.73q1.19-.55,2.11-1.65c.18-.18.46-.55.82-.82.27-.28.27-.83.64-1.01.37-.28.37-1.01.92-1.38l.09-.09v-.09c-.09-.37.18-.64.37-1.01l.27-.64c.18-.64.46-1.65.55-2.29l.18-.28c.18-.46-.09-.92.27-1.28.37-.27.09-.64.18-1.01,0-.27.27-.37.37-.55.09-.18.18-.18.18-.09.09.09.09.28.09.37ZM72.74,2.7l.09-.09v-.09c-.18,0-.18.09-.18.18h.09ZM73.66,3.7c.28-.37.55-.18.82-.27.09,0,.18-.09.28-.18-.37-.27-.55-.46-.73-.73-.18-.09-.27-.18-.27,0,0,.46-.37.64-.46.92,0,.09.09.18.09.37.09-.09.18-.09.27-.09ZM73.93,6.36h.46c.09,0,.27,0,.37-.09.18-.27.46-.27.73,0,.18.09.28.18.37.27.18.28.27,0,.37-.09.18,0,.37,0,.55-.09,0,0,.09-.09.09-.18,0,0-.09-.09-.18-.09-.64-.27-.64-.37-.27-.82.09-.18.27-.27.37-.37q.18-.18,0-.18c-.28-.27-.18-.55-.18-.92,0,0,0-.09-.18-.18l-.09-.09c-.28-.09-.46-.09-.46-.28,0-.09.18-.09.27-.09.28,0,.46,0,.73-.09.09,0-.37-.55-.55-.64h-.37c-.18.27-.46.46-.46.82q0,1.1-.37,1.65c-.27,0-.37.09-.37.37-.37,0-.37.27-.46.55,0,.09-.09.37-.18.09l-.09-.09h-.09c-.18,0-.28.09-.28.18,0,.27.09.37.28.37ZM73.66,16.99c0,.09.18.27.18.27h.73l.09-.27c-.37-.18-.18-.55-.46-.73-.37-.46,0-.46.27-.46.18,0,.37-.37.18-.55-.09-.18-.27-.37-.46-.55h-.37c-.09.09-.18.18-.18.27v2.02ZM74.39,42.55c-.09,0-.09-.09-.18-.28,0,.09-.09.09-.27.28h-.09c0,.09-.09.09-.09.09,0,.18.09.28.18.28.27,0,.37-.09.46-.37ZM76.87,29.72l-.09-.09h-.09c0-.09-.09-.09-.09-.09q.18-.46,0-1.01c-.09,0,0-.09,0-.18-.09-.37-.27-.18-.46,0-.09,0-.37-.09-.46-.28q-.18-.09-.09-.27c.18-.28.55-.37.55-.82v-.18h-.27c-.09,0-.09.09-.18.18q-.37.37-.55.27c0-.09-.09-.09-.09-.18l-.18-.27s-.09-.09-.09-.27l-.09-.28c0-.18-.27-.27-.37-.27s-.18.09-.18.18c-.09.37-.09.64-.09,1.01.55.37.64,1.1.92,1.65.09.18.28.46.55.37-.09.18-.18.37-.27.46q-.18.18-.64,0c-.09,0-.18-.09-.37-.09,0,.09-.09.18-.18.18l.18.18s.09.18.18.37c-.28-.09-.37.18-.37.46.09.18.18.27.37.27h.55c.09,0,.18.18.18.28,0,.27-.46.73-.64.73l-.09-.09c-.18-.27-.28-.27-.55-.18-.18.09,0,.55.37.64.09.09.37,0,.64.09.18,0,.27.09.27.37-.46.09-.64.27-.73.64-.37,0-.37.28-.37.55.09.09.18.18.18.28h.18q.18,0,.37.46c.18.46.92.73,1.28.46.09,0,.09-.18.09-.28s0-.18.18-.27c.55,0,.73-.28.64-.64q-.09,0-.55.37c.09-.09.18-.27.37-.55-.18.28-.46.46-.64.64v.18h-.09c-.27-.46-.46-.92-.82-1.28-.09-.09-.09-.37-.09-.55.28.18.46-.73.73-.09.09,0,.18.09.18,0,.28-.18.55-.46.83-.73.18-.27-.09-.27-.28-.37-.18,0-.37-.09-.46-.09-.09-.09-.27-.37-.27-.46q.09-.09.18-.09l.28-.27.09-.09c.46.55.46.27.55-.18.18-.55.28-.55-.09-.73ZM76.96,24.13c-.18,0-.37-.09-.37-.27-.09-.18-.09-.27-.27-.46-.18-.28-.18-.55.09-.73,0-.09.09-.09.09-.09l.18-.28.09-.09c.27-.18,0-.18-.09-.27-.18-.09-.18-.18,0-.28.09-.09.37-.27.09-.37-.09-.09-.28-.09-.37-.09-.37.28-.64.64-.83.83-.27.37-.37,0-.55,0h-.82c-.09,0-.27.73-.18.82.37.27.37.73.28,1.1-.09.46.64.64.46,1.1.27.18.37.55.73.55l-.09.18c-.09.18-.18.27-.28.37.18,0,.28.09.46.18.28,0,.64,0,1.01.64,0,.09-.09.09,0,.18v.09l.09.27v.18q.09-.09.18-.09l.27-.27.09-.09c.09-.09.09-.37,0-.46,0-.09-.55-.55-.64-.55v.09s0-.09.09-.18l.18-.46c0-.09.09-.09.09-.18,0-.28.18-.55.37-.92,0-.18,0-.55-.37-.46ZM74.39,18l.09-.09c.18-.09.28-.09.28-.09,0-.09-.09-.18-.28-.18-.09,0-.09-.09-.18,0-.09,0-.18.09-.28.18.09,0,.18.09.37.18ZM74.3,35.68c-.09.09-.18.09-.18.18-.09.18-.09.37-.09.37v.64l.18.18.09-.09c.18-.37.37-.73.46-1.01,0-.09-.18-.27-.46-.27ZM74.3,39.16l-.09-.09s-.09.09-.18.09q.09.09.18.09s.09,0,.09-.09ZM74.12,11.68c0,.09.09.18.18.09.46-.09.73-.37.82-.73-.09-.09-.18-.18-.18-.27-.18.27-.64.27-.82.46-.09.09,0,.27,0,.46ZM74.21,20.84v.09l-.09.09c0,.09.09.09.18.18.46.09.82,0,1.01-.37.09-.18.09-.37.18-.37.09-.18.18-.28.37-.28.27,0,.55-.09.82.28,0,0,.18-.09.27-.09v-.18c-.18-.27-.27-.55-.37-.82.09,0,.28,0,.28-.09,0-.27-.09-.27-.28-.27.09-.09.09-.18.18-.37.18-.09.18-.18,0-.28-.28-.09-.55,0-.64.37v.28c-.37,0-.27.27-.37.46,0,.18,0,.46-.28.18-.18-.28-.37-.28-.37.09-.09.64-.27.28-.55.09-.09-.09-.37-.09-.37,0-.27.28,0,.28,0,.46.18.18.18.37,0,.55ZM74.3,8.74c-.09-.09-.09-.28-.18,0l.18.18c.09,0,.09-.09,0-.18ZM74.12,13.51c.09.09.18.09.28.09l.18.09c.18,0,.18-.09.18-.28-.09-.09-.09-.27-.09-.46-.18,0-.46.18-.46.37l-.09.18ZM74.12,28.62l.09.09v.09s0-.09.09-.18c-.09,0-.09-.09-.09-.18,0,0-.09.09-.09.18ZM74.39,41.54c-.09.18.09.37.37.27.09,0,.27,0,.27-.09.09-.18.09-.37.09-.37v-.64c0-.09-.09-.18-.18-.27-.09.09-.18.18-.18.27-.18.28-.37.55-.37.83ZM76.77,8.47c.37-.18.09-.55.18-.82l-.27-.09c-.18.18-.37.37-.55.46-.18.28-.27,0-.37-.09h-.28c-.18.27-.55.64-.37,1.1,0,.09-.09.18-.09.18-.09.18-.18.09-.27,0s-.18-.18-.37-.18q0,.46.64.64c.18,0,.46.09.46.18-.18.46.37.55.28.92,0,.46.46.82.46,1.28,0,.18.09.18.27.09.37-.37.64-1.1.37-1.65-.09-.09-.18-.09-.37-.09-.73-.46-.73-.55-.37-1.28-.09-.55.37-.46.64-.64ZM74.48,46.4l.09.18c.18,0,.37-.09.73-.18-.37-.09-.55-.18-.64-.18s-.18.09-.18.18ZM75.12,13.87c-.09-.09-.18-.18-.18-.27-.09,0-.18,0-.18.09.09.09.18.09.37.18ZM74.76,13.69c0,.18.09.27.18.27,0,0,.09,0-.18-.27ZM75.58,7.55c.09-.09.37-.18.09-.37-.09-.09-.18-.09-.27-.09-.18.09-.37.28-.55.46v.09c0,.18.09.18.46.18.09,0,.18-.09.27-.28ZM75.12,15.8c-.09,0,0,.18.64.73,0-.18-.09-.28-.28-.37.09-.09.28.18.28-.18.09-.18.64-.27.09-.64-.09,0,0-.09.09-.27.18-.46.73-.82.64-1.47-.09-.18-.18-.37-.37-.37-.28,0-.37.09-.46.27v.82c0,.55-.37.28-.64.55.64.37.09.64,0,.92ZM75.77,50.43c0-.09-.09-.18-.18-.18-.37,0-.55.09-.46.37,0,.18.09.28.37.28s.37-.18.28-.46ZM75.12,37.97c0,.18,0,.37.28.64h.09v-.55c0-.09-.18-.18-.18-.18-.09,0-.18.09-.18.09ZM75.31,42.92c-.09.18-.18.27-.18.46,0,.09.09.18.28.18v-.09l.09-.09c0-.18-.09-.27-.18-.46ZM75.31,36.78c-.09.09-.28.18,0,.37,0,0,.09-.09.18-.37h-.18ZM75.31,17.26c-.18.09-.18.18,0,.37q.37.37.55,0c.18-.09.55-.28.55-.28.27.18.46.28-.37-.55-.27.09-.55.18-.73.46ZM75.67,36.41c0,.09-.09.09-.18.18v.18c.09-.09.18-.18.18-.37ZM75.77,39.07v-.18c0-.09,0-.27-.09-.27q-.18,0-.18.09c.09.09.18.18.28.37ZM75.49,38.7v.27c0,.09.18.18.18.37.09-.09.09-.18-.18-.64ZM75.58,40.53c-.09.09-.09.18.09.18.09.09.18.09.27.09.28-.27.64-.64.92-.92v-.18q-.09,0-.18-.09h-.18c-.37.27-.64.64-.92.92ZM75.58,36.78h.09c.09-.09.09-.18.09-.27l-.18.27ZM76.96,17.36c0-.73-.27-1.1-.82-1.19-.09-.09-.18,0-.37,0l.09.09v.09c.09,0,.09.09.09.09,0,.09.28.28.18.37.18.09.46.28.82.55ZM76.13,48.6c0-.09-.09-.18-.09-.18l-.09.09h-.09c0,.09-.09.09-.09.09,0,0,.09,0,.18.09,0,0,.09,0,.18-.09ZM76.13,34.67c.18-.09.18-.18.28-.18l-.09.09q-.09.09-.18.09ZM76.96,36.23h-.09l-.18-.09h-.09c-.27-.09-.46.09-.46.37.09.18.18.27.46.27s.37-.18.37-.55ZM76.5,52.9c0-.09-.09-.09-.18-.09l-.09.09.09.09q.09,0,.18-.09ZM76.59,26.33v.18c-.09-.09-.09-.18,0-.18ZM76.77,37.88h-.09c-.18.18-.18.55,0,.64h.09c.27-.18.18-.55,0-.64ZM76.96,45.57c-.09-.18-.09-.27-.18-.37h-.09c-.18.09-.18.46,0,.55.09,0,.18-.09.27-.18ZM76.87,47.5v-.18c.09,0,.09-.09.09-.09h-.09l-.09-.18h-.09c-.18.09-.18.37,0,.55h.09s0-.09.09-.09ZM76.77,33.2s-.09,0-.18.09c0,.09.09.18.09.18,0,0,.09,0,.09-.09h.09l.09-.09s-.09,0-.18-.09ZM112.78,3.25c.09.09.27.18.37.18h.37c.18,0,.27-.18.18-.28-.18-.09-.27-.27-.18-.55,0,0-.09-.09-.18-.09,0,0-.09,0-.18.09-.09.09,0,.18,0,.18l-.09.09v.18c-.09.09-.18.09-.27.18ZM115.8,64.17h.09l.09-.09s-.09-.09-.18-.09l-.09.09h-.09s0,.09.18.09Z"/>
      <path class="cls-1" d="M194.22,65.18c-.18.09-.28.18-.37.18h-18.23c-.09,0-.18-.09-.28-.18.09-.09.18-.18.28-.18.46,0,1.01-.09,1.37,0,.82.09,1.37-.28,2.02-.55q.92-.46,1.19-1.28c.18-.27.18-.46.18-.64v-1.1c.09-.46-.46-.46-.27-.92.09-.46-.28-.64-.37-1.01-.09-.27-.37-.64-.55-1.01-.18-.37-.55-.73-.55-1.01-.09-.46-.28-.82-.37-1.19-.18-.46-.37-.73-.64-1.19-.18-.37-.46-.73-.46-1.1.09-.46-.46-.64-.46-1.1,0-.18.09-.37,0-.55-.18-.28-.64-.46-.64-1.1,0-.46-.37-.82-.64-1.19-.09-.18-.09-.37-.09-.55-.09-.18-.09-.37-.18-.46-.83-.82-1.1-2.01-1.65-2.93-.27-.46-.46-.82-.37-1.28-.37-.27-.37-.92-.73-1.28-.09-.64-.64-.73-1.28-.73h-29.77q-1.01,0-1.28,1.01c0,.09,0,.28-.09.37-.46.37-.64.73-.73,1.28,0,.46-.46.82-.64,1.28-.28.37-.28.92-.64,1.28.09.55-.28.83-.46,1.28-.09.37-.55.64-.37,1.19-.27.28-.37.73-.64,1.19-.18.27-.18.64-.46,1.01-.28.46-.37,1.01-.92,1.28-.28.18-.09.64-.37.92-.18.09-.09.46-.09.73-.09.09,0,.37-.09.46-.55.27-.09,1.01-.55,1.28-.37.18.09.83-.37,1.1-.46.18-.55.64-.64.92,0,.18-.18.28-.18.28.28.64-.46,1.01-.46,1.56.09.37.09.73-.27,1.01-.09,0,0,.37,0,.46.09.09.27.28.27.37,0,.64.18,1.1.83,1.19.82.55,1.65.83,2.66.73.18-.09.46,0,.73,0,0,0,.09.09.09.18s-.09.18-.09.18h-7.05c-.09,0-.27-.18-.46-.27-.18,0-.37-.18-.46-.09-.28.18-.46.37-.73.37h-5.04c-.09,0-.18-.09-.18-.18.09-.09.18-.18.37-.18.09-.09.18,0,.37,0,.46,0,1.01.09,1.37-.09.46,0,.73-.46,1.19-.27.55.18,1.01-.18,1.47-.37.46-.18.92-.46,1.38-.73.09-.09.18-.09.27-.18.64-.55,1.28-1.01,1.56-1.83.09-.28.37-.37.55-.55.18-.18.18-.46.27-.73.09-.18.18-.37.18-.46s.64-1.37.64-1.37c.46-.37.55-.92.83-1.28-.09-.64.46-1.1.64-1.56,0-.18.09-.37.09-.55.09-.27,0-.64.18-.92.27-.37.37-1.01.82-1.47.28-.37.46-.82.73-1.28.27-.37.73-.83.46-1.37.46-.37.46-.73.46-1.19.27-.09.09-.73.55-1.01,0-.64.37-1.1.64-1.74.37-.64.64-1.1.83-1.74.27-.64.73-1.1.82-1.74.46-.18.27-.64.37-.92.09-.18.73-1.65.83-1.65.37-.18.18-.64.46-.92.37-.28-.09-.82.46-1.1.09-1.19.92-1.92,1.19-3.02.46-.46.64-1.28,1.01-1.83-.09-.46.55-.64.46-1.19-.09-.27.09-.55.37-.82.27-.37.37-.73.37-1.19.46-.73.73-1.65,1.19-2.38.28-.46.46-1.1.83-1.47.18-.37,0-.82.27-1.19.28-.28.37-.64.55-1.01s.55-.73.37-1.19c.46-.73.82-1.56,1.19-2.29.27-.55.55-1.1.82-1.56.09-.09.18-.18.18-.27-.18-1.01.46-1.56.73-2.47.09-.28.46-.46.37-.92-.09-.28.18-.37.37-.55.18-.28.46-.46.55-.64.18-.18.18-.46.37-.64.27-.27.09-.73.18-1.01.09-.18.28-.46.37-.73,0-.37.55-.55.37-1.01,0-.09-.09-.18,0-.27.37-.18.37-.64.46-.92.46-.83.92-1.65,1.28-2.57.18-.28.55-.46.46-.92-.18-.46.18-.64.37-.92.09-.46.37-.83.55-1.28.27-.27.18-.82.55-1.19.28-.37.37-.73.46-1.19.18-.46.64-.82.64-1.28,0,0,.18-.09.18,0,.18.09.46.18.46.46.27.92.92,1.65,1.28,2.66.46.28,0,1.01.64,1.28.09.46,1.01,2.56,1.37,2.84-.27.64.37,1.01.46,1.47,0,.46.46.82.55,1.28.09.28.55.46.46.64-.27.64.46.92.37,1.37-.09.46.37.82.46,1.19.18.46.64.55.64,1.01.37.27.28.64.37,1.01.18.46.55.82.64,1.28.18.37.92,2.02,1.19,2.2-.09.46.09.64.37,1.01.18.37.18.73.27,1.01.37.28.28.83.73,1.1,0,.46,0,.82.46,1.1-.09.73.37,1.28.55,1.74.18.37.46.64.46,1.01s.55.46.37.83c-.09.46.28.73.46,1.01.64,1.65,1.56,3.12,2.2,4.67.18.37.27.82.64,1.01-.27.55.28.92.37,1.37.18.27.46.64.37,1.1.27.27.27.73.55,1.01.27.18.27.55.55.92.09.27,0,.64.27.92.37.55.55,1.19.73,1.65.27.55.55,1.01.82,1.56.18.55.64,1.1.82,1.74.28.09.09.55.28.92.09.37.37.73.55.92.18.37.18.73.55,1.01-.09.64.28,1.01.46,1.56.18.46.46.92.64,1.37.37.46.46,1.1.82,1.47.37.37.09.92.46,1.37.37.37.55,1.1.92,1.74.09.27.46.55.37.92-.09.46.46.55.27,1.01.37.09.28.55.55.82.28.27.09.73.46.92.09.55,1.19,3.21,1.74,3.48.37.18.09.64.55.82.28.28.28.73.55,1.01.64.83,1.56,1.28,2.47,1.65.09.09.18.09.28.18h1.28c.28.46.73.37,1.1.37h1.28c.09,0,.18.09.28.18ZM131.01,63.16h-.18c-.09.09-.27.18-.09.37.09,0,.09-.09.27-.37ZM131.01,63.16c.09-.09.09-.18.18-.37l-.18.18v.18ZM131.1,63.16c.09-.09.18-.18.27-.27,0,0-.09,0-.27.27ZM171.68,41.72c0-.18,0-.46-.09-.55-.18-.37-.37-.73-.55-1.1-.18-.37-.27-.92-.55-1.19-.46-.37-.09-.73-.37-1.1-.46-.64-.46-1.37-1.1-1.92-.09-.46-.73-.73-.55-1.19.09-.46-.55-.64-.46-1.19.18-.37-.37-.55-.55-.92-.18-.55-.46-1.01-.73-1.37-.09-.18-.09-.46-.18-.64-.18-.55-.37-.92-.37-1.47-.37-.18-.18-.64-.55-.92-.18-.27-.18-.64-.46-.82.09-.46-.55-.64-.46-1.19.09-.18-.18-.64-.27-.92-.18-.46-.64-.82-.73-1.1-.09-.55-.64-1.01-.37-1.47-.46-.37-.55-1.01-.73-1.47-.27-.37-.55-.92-.73-1.47-.64-.27-.28-.92-.64-1.37-.27-.55-.46-1.1-.82-1.65-.28-.64-.37-1.28-.73-1.92-.18-.37-.46-.64-.37-1.01,0-.18-.09-.37-.18-.46-.28-.27-1.01-1.56-1.19-1.92-.18-.37.09-.92-.46-1.1-.18-.92-.73-1.56-1.1-2.47-.09-.37-.18-.37-.37-.09-.46.64-.73,1.28-1.01,1.92-.37.82-1.01,1.37-.82,2.29,0,.09-.09.18-.18.28,0,.64-.64,2.11-1.1,2.57-.37.37-.46.73-.64,1.01-.09.46-.28.83-.55,1.28-.18.37-.37.64-.46,1.1-.09.37-.37.73-.28,1.1-.46.18-.37.73-.55,1.1-.09.09-.18.28-.18.46.09.18-.09.37-.28.55-.18.27-.09.64-.37.82-.27.18-.46.37-.46.64-.09.27-.46.46-.37.82.09.46-.37.64-.28.92,0,.28-.46.37-.46.55.09,1.01-.64,1.56-.92,2.38-.09.28-.92,2.11-1.1,2.2-.37.37.09,1.1-.55,1.37,0,.28,0,.55-.18.92-.09.09-.82,1.83-.82,2.02-.09.55-.73.64-.83,1.1,0,.46-.37.73-.27,1.19,0,.46-.83.55-.73,1.1-.37.37-.46.73-.46,1.1.09.18,0,.46-.09.55-.27.18-.18.73-.46.92-.27.18.18.82-.37,1.1-.09,0-.09.18-.09.37,0,.46,0,.64.55.64,4.86-.09,9.71-.09,14.66-.09h14.2c.28,0,.64.09.82,0,.18,0,.28-.18.28-.28ZM157.48,6.18c.18.28.37.37.46.55.09,0,.18.09.18,0,0,0,.09-.09-.28-.46.09.09.18.18.37.18,0-.37-.09-.37-.55-.37-.09,0-.18-.09-.18,0,0-.18,0-.37.09-.82.09.09.27.09.46,0,.09,0,.18-.09.18-.09-.18-.18-.27-.27-.64.09,0-.18.09-.37.09-.64,0,.09-.18.18-.18.28v.37c-.18,0-.28.09-.28.37,0,.09,0,.28.28.55ZM157.48,6.09c.09.09.27.18.37.18-.18,0-.27-.09-.37-.18ZM157.94,7.55c-.28-.09-.46,0-.46.37,0,.18.09.27.27.37.28,0,.46-.09.46-.55,0,0-.18-.18-.27-.18ZM157.67,4.25h.37c.18-.09.27-.46.18-.64q-.09-.09-.18-.09c-.09.09-.18.18-.37.37-.18.09-.18.27,0,.37ZM158.67,7c.09,0,.28.09.37.09h.18c.18,0,.28-.09.37-.09,0,0,0-.09-.09-.18q-.28-.37-.64,0c-.09.09-.09.18-.18.18ZM159.04,5.26h.18v-.27c-.09.09-.09.18-.18.27ZM159.5,11.13l-.18.18q.09.09.28.09c0-.09-.09-.18-.09-.27ZM160.6,10.76c.37-.37,1.1-.28,1.28-1.01,0,0,0-.09-.64-.37.09.09.37.09.64.18,0-.18-.37-.37-.55-.27,0,0-.09.09-.18.09,0,0-.09,0-.18-.09.18.09.18,0,.18-.18-.09-.09-.09-.27-.09-.37-.28,0-.37,0-.46.27l-.09.18c.09.09.27.09.37.09,0,0,.09,0,.27.09-.18.27-.64.92-.73,1.1,0,0,.18.18.18.28ZM163.07,12.96l-.82-.82v.27c-.09.09-.37.18-.46.18-.27,0-.55,0-.73-.27q-.09-.09-.18,0c0,.09-.09.27,0,.37,0,.09.09.27.09.27.55,0,.73.37.92.73.27.46.27.37,1.01.37.09,0,.18,0,.37.09.09,0,.18.37.37.09.09-.09.09-.28,0-.37-.37-.18-.18-.64-.55-.92ZM160.97,14.06v.37-.37ZM161.88,11.4c-.09-.18-.18-.37-.37-.09,0,0,.09.09.37.09ZM161.88,16.99c0,.27.09.37.27.37.37.09.55-.09.46-.37,0-.18-.09-.27-.18-.37-.37-.09-.55.09-.55.37ZM161.97,11.58c.18.09.55.28,1.01.46-.28-.18-.37-.37-.37-.73,0-.18-.18-.18-.27-.09-.09.27-.27.18-.37.37ZM161.97,15.71c.09.18.46.18.64,0-.09-.18-.55-.18-.64,0ZM163.9,16.62c-.46.46-.92.82-1.19,1.28-.09.09,0,.37-.09.55,0,.27.09.27.28.37.18.09.37.09.46.18.27.27.46.46.82-.18q-.27,0-.46-.18c.09-.09.18-.18.28-.18.18-.09.37-.09.46-.18v-.55c-.64-.09-.28-.55-.37-.83,0-.09-.09-.18-.18-.27ZM163.71,15.16c0-.09-.18-.28-.18-.37-.46,0-.55.09-.55.37-.09.27.09.37.27.37.27.09.46-.09.46-.37ZM164.08,15.71q.09,0,.18.09.09-.09.09-.18c-.09,0-.18.09-.28.09ZM164.45,17.54c.09,0,.09-.09.18-.09-.09,0-.18,0-.18.09ZM164.63,18.82c-.09.18-.09.37-.09.64h.18c.46.09.82,0,.92-.55,0-.09.18-.27.28-.37,0-.09,0-.28-.09-.37-.09-.18-.18-.18-.28,0-.18.46-.55.64-.92.64ZM164.54,22.49v.64c.09-.09.18-.18.18-.27,0-.18-.09-.18-.18-.37ZM166.19,24.59c-.37,0-.73,0-.64-.46,0-.09-.18-.09-.27-.18,0,.09-.09.27-.09.37-.09.46,0,.37.46.64.18.09.28.27.46.27.09.09.18.09.37,0,.09,0,.09-.18.09-.27.09-.37-.18-.37-.37-.37ZM165.64,20.2c.09,0,.18-.09.28-.09,0-.09-.09-.18-.09-.18-.09.09-.18.09-.18.27ZM166.1,23.4c0,.09.09-.09.18-.18-.09-.18-.09-.27-.09-.37s-.09,0-.18,0c-.18.09-.18.55.09.55ZM166.65,22.3c.09.09.37.18.55.18l.09-.28c-.18-.18-.37-.37-.46-.55-.09.09-.18.09-.18.18,0,.18-.09.37,0,.46ZM167.1,25.42c-.09,0-.09.09-.09.09,0,.18,0,.46.09.55.09.09.37,0,.46,0s.18-.09.18-.09c0-.18-.55-.55-.64-.55ZM167.38,27.89v-.09c-.09-.18-.18-.28-.37-.09,0,0,.09.18.37.18ZM167.2,27.89h.18-.18ZM168.02,27.89h-.64v.82c0,.09.09.18.18.27,0-.09.09-.09.09-.18.18,0,.28-.09.37-.18v.46c.09.18.28.18.37.28v.46c.09.09.37.18.46.18.09.09.18-.09.37-.09l-.28-.28c-.09,0-.09-.09,0-.27.09-.09.18-.09.18-.18,0,0,0-.09-.18.09,0-.09.09-.18.09-.28-.09.09-.18.18-.18.18-.09.09-.09.18,0,.18h-.46c0-.18.09-.37,0-.46,0-.18-.18-.18-.37-.28,0-.18,0-.37.09-.73.18,0,.18-.09.28-.18,0,0-.09-.09-.18.09,0-.09,0-.18.09-.18-.09,0-.18.09-.28.28ZM168.2,27.8l-.09.09s0-.09.09-.09ZM168.57,30.91c-.18,0-.18.46,0,.46s.18-.09.28-.28c-.09,0-.28-.18-.28-.18ZM168.48,25.05c0,.09.09.18.09.28.09,0,.09-.09.18-.09-.09-.09-.09-.18-.28-.18ZM168.84,29.36l.09-.09s0,.09-.09.09ZM169.58,31.37h.55c.09-.09.09-.28.18-.46,0-.09.64-.09.18-.46-.55,0-.73.09-.92.64-.09.09,0,.28,0,.28ZM174.34,39.98c.09,0,.55.18.55.18,0-.09.09-.28,0-.46,0-.09-.18-.27-.18-.37,0-.18.37-.18.18-.55-.18-.18-.27-.46-.46-.64,0-.09-.09-.09-.18-.09v-.46c0-.09-.09-.18-.18-.18,0-.09-.09,0-.18.09,0,.18,0,.46.37.55h-.18c.09.09.18.09.18,0v1.28c0,.09-.28.18-.46.18s-.46-.28-.55-.28c-.18.28-.37.37-.46-.18,0-.09-.09-.18-.09-.28-.28-.27-.28-.46-.09-.73.18-.09.18-.46.27-.55.28-.37.18-.46,0-.73-.18-.18,0-.37.18-.46.37-.18.37-.37.09-.64s-.46-.18-.73.09-.55.18-.73-.09c-.28-.28-.28,0-.37.09-.09,0-.09.09-.28.09q0-.09-.09-.18c0-.09-.18-.09-.18-.28-.28-.27-.18-.64.18-.55.55.09.73-.27.92-.73.09-.28.18-.55.37-.82q.18-.28-.18-.28c-.64.09-1.1-.09-1.56-.64-.09-.18-.18-.28-.37-.46-.18,0-.27.09-.27.09-.09.64.27,1.37-.28,1.83.28.28.28.55,0,.83.37.18.28.82.73,1.1.09.09.27.09.37.09.18,0,.27.09.27,0,0,.46.46.55.46.92,0,0,.09.09.18.09.09-.09.18-.27.27-.27.46,0,.55.09.55.55-.09.18-.27.37-.46.46-.37.27-.18.46.09.64v.27c-.09.55.18.92.37,1.37.09.18.09.37.28.28.46,0,1.19.37,1.65-.18ZM169.76,27.89c0-.09.09-.09.09-.18-.09,0-.18-.09-.18-.09q0,.18.09.28ZM170.58,30.82v.18c0,.18.09.37.09.37h.73c-.18-.18-.37-.37-.64-.55h-.18ZM170.77,31.46c.09.09.27.09.46,0h-.46ZM170.95,35.86h-.18.18ZM172.51,34.67c0,.09.09.18.09.18.18-.18.37-.37.55-.55l-.09-.18c-.18,0-.46,0-.55.09s0,.27,0,.46ZM175.35,45.02c.09,0,.28-.09.37-.18,0-.18,0-.37-.18-1.56-.28-.37-.18-.73-.18-1.01s0-.27-.18-.27c-.28.09-.46,0-.64-.18-.09-.09-.27-.37-.55-.46-.09,0-.37.09-.46.18s.09.27.09.46h.18c.64.18.92.55.82,1.19,0,.37.18.64.37.92.09.09.18.18.27.27,0,.09-.09.18-.18.27v.28c.09,0,.18.09.27.09ZM175.35,46.12c0-.09-.09-.27-.18-.64-.09.37-.18.55-.18.64s.09.28.18.37c0-.09.18-.28.18-.37ZM175.35,42s.09.09.18,0v-.18c-.09,0-.18,0-.18.18ZM177.64,49.88c.09-.09.18-.18.27-.18.37-.09.46-.37.27-.64-.55-.46-1.1-1.01-1.56-1.56-.28-.28,0-.28,0-.46.18-.09.37-.18.46-.46.09-.09.09-.18,0-.37,0,0-.18-.09-.28,0-.82.46-.82.55-1.37,1.28-.09.27,0,.37.09.46.18.09.27.27.46.27.46,0,.55.27.46.55v.55c.09.27.28.55,1.19.55ZM175.72,43.47v.27-.27ZM176.36,42s.09,0,.09-.09c-.09-.09-.18-.18-.27-.09-.09,0,0,.09.18.18ZM176.26,45.02c0,.09-.09.18-.09.27.18,0,.18-.09.27-.18-.09,0-.09-.09-.18-.09ZM176.45,42.09c.09.09.18.27.28.37,0,0,.09-.09,0-.18,0-.09-.09-.18-.09-.18-.09-.09-.18,0-.18,0ZM176.45,42.37c0,.18.18.27.18.37,0,0,.09-.09-.18-.55v.18ZM177,43.28c-.18,0-.37-.09-.37,0-.09.09-.09.28-.18.37,0,.09.18.18.18.18.18-.18.37-.27.55-.46-.09,0-.09-.09-.18-.09ZM180.75,56.66c.18-.09.28-.09.37-.18.09,0,.18-.09.37-.09,0,.09.09.28.09.37s.18.18.18.18c.09-.09.18-.27,0-.55.09,0,.18.09.46.09l-.18-.18c-.18-.09-.37-.09-.46-.09,0-.46-.18-.92.27-1.19,0-.27.18-.64,0-.92-.27-.09-.18-.37-.37-.55-.09-.18-.46-.27-.73-.37,0,0,0-.09.09-.18.18,0,.18-.09.27-.09.09-.28.09-.55-.27,0,0-.09.09-.37.18-.64-.18.18-.18.37-.28.55v.18c-.37,0-.46-.55-.82-.46,0,0-.18-.27-.18-.37,0-.18.18-.27.37-.27h.46c.09,0,.18-.09.18-.09-.09-.09-.18-.28-.18-.28-.46.09-.46-.09-.46-.55,0-.09,0-.37-.09-.46-.28-.09-.37.18-.55.28-.09.09-.18.27-.28.27s-.27-.18-.37-.27-.37-.18-.09-.28c.18-.09.28-.27.09-.37-.18-.09-.27-.27-.64-.27-.09.37-.27.64-.46.82-.37.64.09.37.37.46.18.09.18.18,0,.37-.28.18-.28.46-.18.64.18.55.37,1.1.73,1.47.09.09.18.09.18.09,0-.09.09-.28.09-.37s0-.18-.09-.28c0-.18-.37-.18-.09-.46.09,0,.18-.09.37,0,.18,0,.27.18.27.37v.18c-.09.64.18.64.55.18.18.27.27.46.46.64.09.09-.09.28-.18.46-.18.37,0,.37.28.37.18,0,.27.09.27.27,0,.37.09.64-.18.82-.28.18,0,.28.09.37,0,.09.09.18.09.37ZM178.37,46.76s.09-.09.18-.09c0-.09-.09-.18-.09-.18q-.09.09-.09.27ZM178.56,48.69c.09.18.18.37.46.28.18-.09.27-.18.37-.18,0-.37-.18-.55-.46-.46-.27,0-.37.09-.37.37ZM179.01,54.83h-.18c-.18.09-.27.18-.09.27,0,.09.09,0,.28-.27ZM179.2,54.46c-.09.09-.18.09-.18.18-.09,0-.09.09,0,.18,0-.09.09-.18.18-.37ZM179.11,54.83c.09-.09.18-.18.18-.28l-.18.28ZM180.75,56.66c-.09,0-.37-.09-.46,0-.09,0-.18.18-.18.37-.09,0-.28.09-.28.09-.09.18,0,.27.28.37,0,.09.09.09.18.18,0,0,0-.09-.09-.18h.18c-.27,0-.27-.27-.27-.46h.46c.09-.09.09-.27.18-.37ZM180.02,49.7c0-.09.09-.09.09-.18-.09,0-.18-.09-.28-.09,0,.18.09.18.18.27ZM180.11,57.39l.09.09q-.09,0-.09-.09ZM180.75,52.99c.09,0,.09-.09.09-.09,0,0,0,.09-.09.09ZM183.32,62.25c.18.18.27.37.46.46.09.09.18.09.27,0v-.18c.09-.28-.18-.46-.37-.64s-.37-.37-.27-.73v-.92c0-.37-.28-.37-.55-.37-.09,0-.18-.09-.18-.18.09-.09.18-.18.28-.18h.37c.18.09.27.18.37.27.18.09.37,0,.37-.18.18-.55-.46-1.01-.37-1.65l-.09-.18c-.09,0-.27-.09-.46,0-.27.09,0,.18.09.37.09.18.18.46.09.46-.18.27-.55.46-.82.55-.09.09-.37-.18-.46-.28-.18-.37-.37-.46-.83-.55-.09-.18-.27-.27-.37-.09,0,0,.09.18.18.27h.18s-.09.09,0,.18c.37.27.55.55.09.92-.09.09-.09.27-.09.37s.09.18.28.18c.55-.37.73-.37.73.27,0,.37-.09.73.37,1.1.09,0,0,.37-.09.46-.18.18-.28.46-.28.64-.09.09-.37.09-.55.18-.18.09-.09.18,0,.28.18.09.18.18.09.46-.18.27-.18.37.09.37.09,0,.18,0,.37.09,0,.18.09.18.09.27.28.09.55.09.09-.27.09,0,.27.09.55.18,0-.09,0-.18-.09-.18s-.27,0-.46-.09h-.18c.28-.55,1.01-.92.83-1.65,0-.18.18-.18.27,0ZM181.21,58.4q-.09,0-.09.09,0-.09.09-.09ZM181.58,56.29c.09,0,.09.09.18.09-.09,0-.18,0-.18-.09ZM181.76,61.33s.09-.09.09-.18c0,0-.09-.09-.09-.18-.09,0-.18.09-.09.09,0,.09,0,.18.09.27ZM182.22,63.9q.09.09.18.09c-.09,0-.18,0-.18-.09ZM182.59,56.47c.09,0,.18.09.27.09l.09-.09c0-.09-.09-.18-.18-.18s-.09.09-.18.18ZM185.79,63.9c-.09-.09-.18-.18-.27-.37h-.83c-.18,0-.27.18-.64.37h-.46c-.09.09-.09.18-.09.37.18,0,.46.09.64,0,.28,0,.28-.18.28-.37.27,0,.64.09.92,0,0,0,.09-.09.46,0ZM184.05,60.51c-.18.09-.27.18-.37.37-.09.09,0,.28,0,.28.55.27,1.01.64,1.65.55q.09-.18.09-.28c-.28-.37-.73-.64-1.1-1.1,0,0-.18.09-.28.18ZM184.6,62.52l-.09.09c0,.09.09.09.09.18q.09-.09.18-.09c-.09-.09-.09-.18-.18-.18ZM186.98,63.44c0-.18-.27-.18-.37-.28-.18-.09-.27-.18-.46-.27-.27-.18-.55-.09-.64.09-.09.09,0,.27.18.55q.18.18.18.46c.18,0,.46.09.82.27-.09,0,.18,0,.27-.09.09-.27.09-.55,0-.73Z"/>
      <path class="cls-1" d="M256.24,64.99v.37h-8.15c-.46,0-1.1.18-1.47-.37-.09-.09-.37-.09-.37,0-.28.37-.55.37-.92.37-.92,0-1.74-.09-2.57,0-.92.09-1.47-.37-1.74-1.1-.18-.46-.27-1.01-.73-1.19-.37-.18-.27-.73-.55-1.01-.37-.28-.46-.64-.64-1.01-.46-.64-.64-1.28-1.1-1.92-.55-.55-.64-1.28-1.28-1.83-.09-.09,0-.37-.09-.55-.55-.46-.55-1.28-1.1-1.83-.55-.46-.55-1.37-1.19-1.83-.46-.55-.46-1.28-1.01-1.74-.09-.09-.27-.28-.27-.46.09-.46,0-.64-.37-.92-.73-.46-.83-1.28-1.38-1.74.09-.73-.73-.82-.82-1.28-.18-.46-.27-.92-.55-1.28-.18-.27-.27-.64-.64-.82-.27-.18-.18-.64-.37-.73-.27-.28-.27-.83-.55-1.1-.18-.83-1.01-1.47-1.28-2.29-.55-.27-.46-1.01-.92-1.28-.18-.92-1.01-1.56-1.28-2.38-.46-.18-.46-.64-.73-.92-.18-.37-.46-.55-.55-1.1-.09-.37-.64-.55-.64-.92,0-.73-.64-.82-.73-1.28-.18-.55-.46-1.01-.82-1.38-.55-.55-.64-1.28-1.01-1.92-.46-.82-.55-.92-1.47-.46-.37.09-.64.09-.92.09h-8.98c-.09,0-.18.18-.28.28v10.81c0,.46,0,.73.37,1.01.09.09.09.55,0,.64-.46.55-.37,1.1-.37,1.74v5.59c0,.37-.09.82.37,1.19.09,0,.09.18,0,.18-.46.37-.37.92-.37,1.37v5.41c.09.73-.27,1.47.37,2.11,0,.46.09,1.01,0,1.56-.09.92.55,1.56.73,2.2.28.64.92,1.01,1.47,1.28.09,0,.37.09.46,0,.64-.09,1.01.46,1.47.46h1.47c.09,0,.09.18.18.27,0,0-.09.09-.18.09h-2.84c-.46,0-.82,0-1.1-.37-.27.37-.64.37-1.01.37h-6.14c-.37,0-.82,0-1.19-.09-.27,0-.46-.46-.55-.27-.73.64-1.56.27-2.29.37h-2.2c-.09,0-.09-.18-.18-.27.64-.09,1.19-.09,1.56-.09.27-.09.64.18.92-.18.27-.27.64-.09.92-.27.28,0,.46-.18.83-.28.27-.09.46-.46.55-.64.18-.18.28-.28.46-.46.18-.18.37-.37.55-.55-.18-.64.46-1.01.46-1.47-.09-1.1-.09-2.11,0-3.12,0-.46-.18-.92.18-1.19,0-.27.18-.64-.09-.92s-.09-.64-.09-.82c.64-.64.09-1.56.18-2.2-.46-.55-.18-1.1-.18-1.74-.09-1.01-.09-2.2,0-3.21,0-.73-.27-1.47.28-2.11v-1.92c-.64-.73-.28-1.56-.28-2.38-.09-.83,0-1.74-.09-2.47,0-.37.18-.46.27-.64.09-.18,0-.46-.09-.55-.27-.18-.09-.55-.09-.92.37-.27.28-.73.28-1.1s.09-.73-.18-1.01c-.09-.09-.09-.27-.09-.46,0-1.92,0-3.76-.09-5.68,0-.37.27-.55.27-.92,0-.64.37-1.37-.18-2.02-.09-.18,0-.55,0-.64v-5.31c0-.27,0-.55.09-.92.37-.37.28-1.1,0-1.56,0-.18-.18-.37-.18-.64.09-1.28.09-2.66,0-4.03,0-.28.27-.46.27-.73,0-.09-.27-.27-.18-.55,0-.37-.18-.82.18-1.19,0-.64,0-1.1.09-1.74-.64-.64-.18-1.65-.28-2.38-.09-.27,0-.64-.09-.92v-.18c-.28-.18-.28-.28-.37-.55-.09-.28-.46-.37-.37-.83,0-.09-.27-.27-.37-.37-.28-.18-.55-.46-.73-.73-.27-.37-.73-.37-1.1-.64-.18-.28-.55-.28-.92-.18-.46,0-.55-.27-.73-.46,0-.18.09-.27.18-.27.46.18.82.55,1.37.37.37-.09.82,0,1.28,0h5.04c.37,0,.92.18,1.28-.37.09-.09.28,0,.28,0,.27.37.64.37,1.01.37h6.32c.37,0,.73.09.92-.27h1.19c.37.46.83.27,1.19.27h8.52c.46,0,1.1-.18,1.47.27.09.09.37,0,.55,0,.92,0,1.83,0,2.66.09.64,0,1.37-.27,1.92.28.55,0,1.01.09,1.56.09.18,0,.55-.09.55,0,.46.73,1.37,0,1.83.64,0,.09.18.09.27.09.73-.18,1.28.46,1.92.37.37.55,1.19,0,1.38.64h.18c1.28.27,1.83.46,2.93,1.28.28.28.83.28,1.01.64.28.46.82.37,1.19.73.18.37.55.73.82.92.46.37.64.82.92,1.28.37.82.64,1.56,1.1,2.29,0,.46.64.83.46,1.47-.09.37-.18.83.18,1.38.27.27.18.73.18,1.1v1.47c0,.46.09.92,0,1.28-.09.37-.55.64-.37,1.19-.37.28-.46.73-.46,1.28.09.09,0,.27,0,.27l-.46.46c-.28.28-.09.64-.46.82-.18.09-.37.37-.46.46,0,.28-.09.46-.37.64-.27.28-.37.55-.64.83-.28.09-.46.46-.92.55-.37.09-.46.64-.73.64-.46.09-.64.46-1.01.46-.46,0-.55.73-1.1.64-.55.55-1.19.37-1.74.82-.37.09-.73.46-1.28.28-.37.55-.83.37-1.28.37-.37.09-.64.55-1.1.37h-1.28c-.46.09-.92.55-1.47.46-.18,0-.37.28-.55.28-.73,0-1.37-.09-2.02.37h-5.13c-.28-.09-.46.18-.55.37-.18.18-.27.46-.09.64.46.64.55,1.65,1.37,2.11.09.46.28,1.01.64,1.28.37.37.55.92.82,1.37.28.37.37.92.64,1.37-.09.55.82.73.92,1.47,0,.37.46.46.55.92.09.37.64.55.73.83,0,.37.55.64.46,1.1.37.37.46.83.92,1.19.37.37.37.92.73,1.19.18.18.37.55.46.92.18.27.37.46.37.73,0,.09.09.37.18.46.55.46.64,1.19,1.19,1.65.18.73.64,1.19.92,1.83.09.37.27.73.55,1.01.18.18,1.19,1.74,1.19,1.92.55.46.73,1.19,1.19,1.83.18.28.09.64.46.83.27.27.46.55.46.92.64.46.92,1.19,1.19,1.92.18.37.46.92.92,1.28,0,.46.46.73.73,1.01.46.37.37.92.83,1.19.46.27.73.82,1.1,1.19.37.28.83.55,1.1,1.01.18.46.73.37,1.1.73.27.37.55.46.92.64.64.37,1.19.73,2.02.55.37,0,.55.18.73.28.18.18.64.09.92.09.37-.09.55.46.92.37.27-.09.64,0,.92,0h1.1ZM197.24,1.6c.09-.09.09-.18.18-.27h.73s.09.09.09.18-.09.09-.09.09c-.27.09-.55,0-.73,0h-.18ZM204.48,4.44c.18-.18.37-.46.64-.64,0-.09.09-.18,0-.27-.37-.18-.18-.55-.55-.83-.18-.18-.46-.37-.82-.27-.18,0-.37.09-.28.37,0,.64.18,1.19.73,1.65q.09.18.27,0ZM205.12,42.55c.09-.09.09-.18,0-.28s-.18-.18-.27-.27c-.09,0-.18,0-.28-.09,0,.18-.09.37-.09.55.09.09.46.09.64.09ZM204.57,32.93c0,.09.09.18.09.18.09,0,.18,0,.09,0,0-.09,0-.18-.18-.18ZM205.12,59.22c.09-.09,0-.09.09-.37q0,.09-.09.18c.09-.18,0-.27-.09-.18-.09,0-.27,0-.46.09,0,.18.18.46.37.46,0,.09.18.09.18.09v-.27ZM204.85,4.9h-.18c.09.37.18.64.46.82.27.28-.46.37-.09.64.09.09.18.27.18.55-.09,0,.09.09.09.09.09,0,.18-.09.27-.09,0-.37-.18-.73.27-.92,0-.09.09-.18,0-.18-.37-.28-.55-.82-1.01-.92ZM204.85,51.89c.18.27.27.73.37,1.01.18.37.64.09.92.18.09,0,.18.18.27.28.09.09.18.09.18-.09.09-.28.09-.64,0-.83-.37-.37-.18-.46.09-.64v-.28c-.37-.37-.46-.73-.37-1.1,0-.09-.18-.18-.28-.18-.09.09-.27.18-.37.27-.28.28.09.28.18.46,0,.09,0,.18.09.28v.46c0,.18-.18.27-.37.27s-.27-.09-.37-.18c-.09-.18-.09-.37-.18-.55,0-.09-.27.37-.18.64ZM205.03,9.2q.09,0,.09-.18c-.09,0-.18.09-.27.09q.09.09.18.09ZM204.85,13.78c.09.09.18.18.27.18.09.09.27.09.46.28.09,0,.27,0,.37-.09,0-.28,0-.46-.27-.55h-.46c-.18.09-.28.18-.37.18ZM204.85,18.82c0,.09.09.09.27.18l.18-.18c0-.18.37-.18.09-.37-.09-.09-.27-.18-.37-.09s-.18.28-.18.46ZM204.85,45.57c0,.09.18.09.18.18.09-.18.55-.27.55-.73-.09-.09-.18-.18-.18-.28-.27.28-.55.37-.55.82ZM204.85,47.77c0,.09.09.09.18.18.09-.46.46-.73.46-1.01.09-.18-.09-.28-.18-.46-.18.09-.37.18-.46.27v1.01ZM204.85,49.24v1.19s.09,0,.27-.09c.09-.18,0-.37,0-.55s.09-.37,0-.55v-.09c-.09,0-.27.09-.27.09ZM206.95,54.46c.18.09.37,0,.37-.09,0-.18-.18-.27-.37-.27-.37,0-.92.09-1.28-.37-.09-.09-.55,0-.64.09-.18,0-.18.18,0,.27.18.18.09.27-.09.55-.18.18.18.27.18.37.37.37,1.01.64.82,1.47l.18.18c.18-.37.64-.28.82-.55.09,0,0-.09,0-.18,0-.27-.37-.64-.55-.82,0-.18.37-.64.55-.64ZM204.94,27.89c0,.09.09.18.09.18.09,0,.09-.09.09-.09,0-.09,0-.18-.09-.27,0,.09-.09.09-.09.18ZM205.03,48.78q.09-.09.09-.18c0-.09,0-.18-.09-.18l-.09.09c0,.09.09.18.09.28ZM205.12,19.1c.09.09.09.18.18.18.18.18.55.09-.18-.18ZM205.21,23.13c0,.09.09.18.18.28,0-.09.09-.18.18-.28v-.55c-.09-.09-.18-.18-.18-.28-.09.09-.18.28-.27.37,0,.18,0,.37.09.46ZM205.21,58.86c.09-.09.09-.18.18-.37-.09.09-.18.09-.27.18,0,0,0,.09.09.18ZM205.95,64.08c-.18-.09-.37-.09-.46-.18-.09.09-.27.18-.37.18.09.09.18.18.37.18.09.09.18,0,.28,0s.09-.09.18-.18ZM206.22,15.52c-.18-.18-.64,0-.73-.37,0,0-.09,0-.18-.09,0,.09-.09.09-.09.18-.09.27-.09.55.18.92,0,0,.18.09.18.18.09.18.27.18.27,0,.09-.27.09-.55.37-.64.09,0,0-.09,0-.18ZM205.21,35.04c0,.09.09.18.09.28.09-.09.18-.18.27-.18,0-.09,0-.18.09-.46.09-.09.18-.18.18-.28l-.18.28c0-.09.09-.28.09-.37-.09.09-.18.09-.18.18-.09,0,0,.09,0,.18q-.09-.09-.18,0h-.18c0,.09-.09.18,0,.37ZM205.21,58.86c.18-.09.27-.18.27-.27l-.27.27ZM207.05,61.24c-.37-.37-.64-.73-1.01-.92-.18-.09-.55,0-.73,0-.09,0-.09.18-.09.37,0,.09,0,.27.09.27.55,0,1.01.27,1.37.46,0,0,.09,0,.18-.09,0,0,.09,0,.18-.09ZM205.85,19.1c-.18,0-.37-.09-.55-.09.09,0,.27.09.55.09ZM206.59,41.18c-.37.18-.73.27-1.01.46-.09.09-.09.27,0,.37,0,.09.18.18.27.18.37,0,.73-.27.83-.73,0-.09-.09-.18-.09-.27ZM205.85,4.9c.09,0,.09-.09.09-.18-.09,0-.18-.18-.37,0,0,0,.09.09.27.18ZM205.67,34.67q-.09,0-.09.09,0-.09.09-.09ZM205.67,57.48q0,.18.09.28.09-.09.18-.18c-.09,0-.18-.09-.27-.09ZM205.95,4.9c.09.09.18.18.37.18-.09,0-.18-.09-.18-.18h-.18ZM205.95,4.99q.09.18.18.27s.09-.09-.18-.27ZM206.22,22.85s-.09-.09-.09-.18c-.09,0-.18.09-.09.09,0,.09,0,.18.09.28,0-.09.09-.09.09-.18ZM206.04,27.43c0,.09,0,.18.18.18,0-.09-.09-.18-.18-.18ZM206.4,48.32h.18c0-.09.09-.18.09-.37,0-.09-.18-.28-.28-.28-.18.09-.18.46,0,.64ZM206.31,3.89c.09.18.09.27.18.37.09-.09.18-.27.18-.37s-.09-.28-.18-.46c-.09.18-.18.37-.18.46ZM206.59,11.49c-.09,0-.18.09-.27.09,0,.09.09.18.09.18.09-.09.18-.09.18-.28ZM206.59,44.75c-.09,0-.18.09-.27.18.09.09.18.18.27.18s.27-.09.55-.18c-.28-.09-.46-.18-.55-.18ZM206.77,46.49c.09,0,.18-.18.18-.37.09-.27-.18-.37-.37-.37-.18.09-.27.18-.27.37,0,.37.18.46.46.37ZM206.68,48.87c-.09,0-.18-.18-.37,0h.37ZM206.86,17.63c-.18.09-.27.27-.46.37-.09.09-.09.18,0,.27.28.09.28.28.46.46.09,0,.28,0,.37-.09.09-.09.09-.18.18-.37,0-.27-.37-.37-.55-.64ZM206.77,19.1c-.09,0-.09.09-.09.09,0,.09.09.09.18.09,0-.09,0-.18-.09-.18ZM206.68,49.05v.18c0,.09.09.18.18.18.73.09.92,0-.18-.37ZM206.95,6.91c.09.18,0,.37.09.46.09.18.09.09.28,0q.46-.46,0-.92-.18-.09-.28,0c-.09.18-.09.37-.09.46ZM206.95,9.48h.83v-.55c-.09-.09-.09-.18-.18-.28-.09,0-.18,0-.18.09-.18.09-.37.27-.46.37v.37ZM207.14,10.67c.09.09.27,0,.46,0,.09,0,.18-.09.18-.09-.09-.09-.55-.55-.64-.55-.09.09-.18.09-.18.18.09.18.09.37.18.46ZM206.95,15.62c.09.09.18.18.37.18h.27c.09-.09.18-.09.18-.18-.09-.09-.37-.18-.46-.18-.18.09-.28.18-.37.18ZM206.95,41.08v.37c.09.27.18.46.46.37.28,0,.37-.09.37-.37v-.37c0-.18-.18-.37-.46-.28-.28,0-.37.09-.37.28ZM207.78,48.87c0-.09-.09-.28-.18-.46-.09.09-.55.46-.64.46h.83ZM207.32,51.71c-.09,0-.09-.09-.18-.09,0,.09-.09.09-.09.18,0,.18-.09.27-.09.27v.73c.09.18.18.27.46.27.18,0,.28-.09.37-.27.09-.46-.09-.83-.46-1.1ZM207.14,32.75c.18.18.27.37.27.55,0,0,.09.09.18.09s.18-.09.18-.09v-.64c-.09-.09-.18-.18-.28-.18-.18-.09-.27,0-.37,0-.18.09-.18.18,0,.28ZM207.5,59.59c.28-.09.28-.37.18-.64-.28,0-.37.18-.55.28-.09.09-.18.27,0,.37s.27,0,.37,0ZM207.05,20.93v.18c.18.18.55.18.64,0v-.18c-.18-.18-.55-.18-.64,0ZM207.05,50.98c0,.09.09.18.09.28l.18-.18c-.09,0-.09-.09-.28-.09ZM207.78,57.02v-.46c-.09-.09-.18-.09-.28-.18-.18.28-.09.37-.18.37-.28.27-.46.55.09.82,0,.09.09.09.18.09s.18-.09.18-.09v-.55ZM207.78,14.61c-.09-.09-.18-.28-.28-.18-.18,0-.18.46,0,.55.18-.09.18-.18.28-.37ZM207.41,5.54c.09,0,.09.09.18.09v-.37c-.09.09-.09.18-.18.27ZM207.69,34.85c0-.09-.09-.18-.09-.18h-.18c.09.09.09.18.28.18ZM207.6,38.15c-.09.09-.18.18-.18.18.09.09.09.18.18.28v-.46ZM208.05,62.61c-.09-.18-.55-.18-.64,0v.09c.18.18.55.18.64,0v-.09ZM225.37,28.17c.37-.09.82-.09,1.37-.09.73-.18,1.83.37,2.56-.37h2.2c.37,0,.64,0,1.01-.27.18-.18.64-.09.92-.09.18,0,.28-.09.37-.18.18-.27.46-.09.64-.18.27-.09.55-.28.73-.28.55.09.83-.55,1.38-.37.46.09.82-.18,1.28-.46.73-.37,1.47-.64,2.2-1.1.55-.18.92-.82,1.28-1.1.09-.09.18-.27.27-.27.64-.09.92-.64,1.28-1.01-.09-.55.73-.64.73-1.28,0-.28.46-.55.37-.92-.09-.37.46-.55.37-1.01-.09-.27-.09-.73.27-1.1-.18-.55.28-.83.37-1.28.09-.64,0-1.19,0-1.83v-1.56c-.55-.55-.27-1.1-.37-1.65,0-.09,0-.18-.09-.18,0-.09-.09-.09-.09-.18-.18-.64-.64-1.19-.92-1.92,0-.18-.73-1.37-1.1-1.56-.64-.55-1.19-1.1-1.74-1.74-.37-.46-.92-.55-1.28-.82-.55-.37-1.19-.64-1.65-.92-.46-.37-1.01-.64-1.56-.64-.18.09-.46,0-.46-.09-.37-.37-.73-.27-1.01-.18-.46,0-.55-.37-1.01-.37-.37,0-.83-.09-1.19,0-.64.09-.82-.27-1.28-.37-.64-.09-1.19.18-1.65-.37h-1.83c-.18,0-.37-.18-.55-.18-.37-.27-.92-.37-1.47,0-.28.28-.64.28-1.01-.09-.28-.27-.64-.09-.82-.09-.37.46-.92.37-1.38.37h-1.47c-.37,0-.82-.09-1.19,0-.64.09-.92-.37-1.37-.37-1.19-.09-2.47,0-3.76-.09-.18,0-.37.27-.55.37-.46.18-1.01.18-1.37-.09q-.55-.27-1.19,0c-.37.18-.92.28-1.28,0-.37-.27-.55-.18-.92-.18-.55-.09-.64,0-.64.46v11.18c0,.37.09.55.37.73.09.09,0,.37-.09.55-.09.18-.28.37-.28.64v7.33c0,.18.18.37.28.55q.18.27,0,.55c-.18.18-.28.37-.28.64v2.47q0,.92.92.92c1.1,0,2.2.09,3.39,0,.37,0,.64.09,1.01.28.09.18.46.09.73,0,.28-.09.37-.28.64-.28,2.2.09,4.31,0,6.6.09.09,0,.37,0,.37.09.46.37,1.01.09,1.47.18.27-.55.92-.28,1.47-.28ZM222.53,29.91c0-.09-.09-.18-.09-.37l-.18.37c0,.09.09.18.18.37,0-.18,0-.28.09-.37ZM223.99,29.72c-.18-.18-.55-.18-.64,0,0,.09-.09.27,0,.37.27.28.55.55.64.82q.18.09.28-.09c.09,0,.09-.09.09-.09.09-.46-.09-.82-.37-1.01ZM225.83,30.73c0-.18-.09-.46-.18-.46-.09-.09-.27,0-.46.09-.18.09-.27.27-.37.37,0,.09.09.18.09.27h.55c.18,0,.28-.09.37-.27ZM225.28,29.27c-.09,0-.09.09-.18.09.09.09.18.09.28.18q.09-.09.09-.18s-.09-.09-.18-.09ZM225.55,32.47c-.09-.18-.09-.27-.27-.37-.18.18-.18.55,0,.64,0,0,.18-.18.27-.28ZM226.56,34.21c0-.37-.37-.46-.55-.64-.09,0-.18.09-.18.18-.09.09,0,.18,0,.37,0,.09-.09.27,0,.37.09.09.27.18.46.18.18-.09.27-.18.27-.46ZM226.93,31.56c-.09-.09-.27-.18-.46-.18-.09.09-.18.09-.27.18.18.18.27.28.37.28.09.09.18.09.28.18,0-.18.18-.37.09-.46ZM228.12,36.69c.09,0,.18-.09.27-.09-.09-.09-.09-.18-.09-.18-.09.09-.18.09-.18.28ZM229.03,40.81v-.37c0-.37-.18-.46-.37-.46-.18.09-.28.18-.28.46v.37c0,.18.18.37.37.28.18-.09.37-.09.27-.28ZM229.67,39.34h.37c.09-.18.18-.37.18-.46,0-.18-.18-.27-.37-.27-.46,0-.46.37-.73.46,0,.09.09.27.18.27h.37ZM230.68,41.82c.09-.09.09-.18.09-.27-.09,0-.37-.09-.46-.09-.09.18-.27.37-.46.55,0,0,.09.18.18.18.27.18.46-.09.64-.37ZM233.25,44.11c-.18-.09-.46,0-.55,0v.55c0,.37-.18.46-.46.46-.18,0-.27-.18-.27-.37,0-.55,0-1.01-.09-1.74,0,0-.09,0-.18.09-.37.18-.37.55-.46.92-.09.37.46.37.46.64,0,.18-.09.46-.09.64,0-.18-.09-.46-.37-.92h-.73v-.18c-.09-.09-.18-.18-.27-.09,0,0,.09.18.27.27,0,.18.09.27.28.37.27,0,.46,0,.82.64q.09.09.09.18c0,.09.09.09,0-.18.09.18.09.27.18.37.46.09.83,0,1.01-.27.28-.37.46-.73.55-1.1,0-.18,0-.27-.18-.27ZM233.43,48.5c-.18-.18-.55-.18-.64,0,0,.09.18.18.28.28.09-.09.27-.09.37-.28ZM233.89,45.02h.09c.27-.09.18-.55,0-.64h-.09c-.18.18-.18.55,0,.64ZM234.9,50.7c0,.46.18.64.55.55,0,0,0-.09-.46-.55.18.09.37.18.64.37-.28-.18-.46-.37-.73-.55v.09c-.09,0-.09-.09-.18-.09.18,0,.28,0,.18-.09,0-.28,0-.55.18-.64.46,0,.64-.09.18-.46,0,0,.09-.18.09-.28.09,0,.09-.09.18-.09.09-.18.09-.37-.18-.55-.18-.28-.37-.55-.64-.37-.09,0-.09.18-.09.18,0,.18.37.18.18.46-.18.18-.46.37-.64.55-.18.18-.28.27-.37.46.37.18.28.64.55.73.09.09.18.09.55.27ZM233.89,46.86c.09,0,.18-.09.28-.09-.09-.09-.09-.18-.18-.18q-.09.09-.09.28ZM234.8,46.12c0-.09.09-.09.09-.18-.09,0-.18-.09-.27-.09,0,.18.09.18.18.27ZM234.9,50.61l.09.09-.09-.09ZM235.17,51.62c-.18,0-.18.09-.27.28,0,.27.09.37.46.37,0,0,.18-.09.18-.28.09-.18-.09-.37-.37-.37ZM235.9,53.08c.09-.09.09-.18.09-.18-.09-.09-.28-.28-.37-.09,0,.09.09.09.27.27ZM236,47.86c.09,0,.09.09.18.09v-.37c-.09.09-.09.18-.18.28ZM236.18,51.99c-.09,0-.18,0-.18.09.09.09.09.18.18.18l.09-.09c0-.09-.09-.18-.09-.18ZM236.36,53.27c-.09-.09-.18-.09-.18-.18h-.18c.09.09.18.09.37.18ZM236,53.18c0,.09.09.18.18.27,0,0,.09-.09-.18-.27ZM237.19,51.62c.18-.18.28-.27.46-.37.28-.09.09-.28.09-.37.09-.09,0-.28-.09-.37-.55-.09-1.19.18-1.28.83,0,.09.09.18.18.27h.64ZM236.82,50.15c.09,0,.18-.09.09-.09,0-.09,0-.18-.09-.27v.37ZM237.1,51.62h-.28c.09.09.18,0,.28,0ZM237.37,52.9c0-.09-.09-.18-.09-.18-.09.09-.18.09-.27.18h.37ZM237.83,51.25c-.09,0-.09.09,0,.18l.09.09s.09-.09.18-.09c0,0-.09-.09-.27-.18ZM237.83,54.28c.37.18.73.64,1.37.64.28,0,.46-.09.46-.46,0-.18-.18-.46.09-.64,0-.09.28-.28,0-.37-.27-.27-.18-.82-.55-1.01-.18-.09-.18-.18-.27,0q-.09.09-.09.18c.09.18.09.37.18.46.27.28.27.46,0,.73-.18.18-.28.18-.64,0q-.18-.09-.28-.09c-.09.09-.27.09-.27.18-.09.18-.09.37,0,.37ZM238.84,56.38c.27,0,.37-.18.37-.37v-.27c-.18-.18-.37-.37-.55-.55-.09,0-.27.27-.55.37-.27,0-.37.28-.27.55,0,.18.18.27.37.27,0-.09.18-.09.28-.09s.27,0,.37.09ZM238.38,57.67c0-.09-.09-.18-.18-.18,0,.09,0,.18.18.18ZM240.85,57.76c-.28-.18-.64-.46-.55-.92,0,0-.18-.09-.27-.18,0,.37-.18.55-.46.73-.64.28-.92.83-.64,1.28,0,.09.27.18.46.18.18-.09.18-.27.27-.46,0-.37.28-.18.55-.27.37,0,.46.18.46.37s0,.37.09.55q0,.09.18.09c.64-.64.55-.83-.09-1.37ZM240.67,60.05c-.09,0-.18-.09-.37-.18-.09.09-.27.09-.37.28-.09,0-.09.18,0,.27.09.28.18.18.37,0,.09-.09.18-.09.27-.18q0-.09.09-.18ZM240.39,55.47c.09.09.18.18.37.37.18,0,.27-.09.27-.18,0-.37-.18-.55-.55-.46-.09,0-.18.18-.09.27ZM241.03,25.51h-.18c-.09.09-.28.18,0,.37,0,0,.09-.09.18-.37ZM242.23,24.68c.09,0,.09-.09.09-.18-.09.09-.18.09-.18.18-.09,0-.09.09,0,.18-.27,0-.46.09-.37.37h-.46c-.09,0-.18.09-.18.28.09,0,.18.09.37,0,.09-.09.18-.28.27-.28.18,0,.27-.09.46-.37.09-.09.18-.18.18-.28.09,0,0,0-.18.09ZM241.77,60.69h.27c-.18-.18-.37-.37-.82-.46q-.09.37.09.46c.18,0,.27-.09.46,0ZM241.86,57.3c.18,0,.27-.09.27-.09v-.37c-.37-.18-.37-.55-.55-.82q-.18.09-.27.18c0,.46.09.82.55,1.1ZM241.86,58.95c-.28.18-.55.37-.55.73q0,.18.82.92v-.37c-.09-.37.09-.64.64-.73-.18-.27-.92-.55-.92-.55ZM243.6,62.89c-.09-.27-.18-.46-.46-.46-.18.09-.37.09-.64.09-.09.27.27.27.37.46,0,.09,0,.27-.37.55v-.18c-.18-.09-.28-.18-.46-.18-.27,0-.37.18-.27.46,0,.09.09.18.64,0-.18.09-.28.18-.55.27.18-.09.37-.27.55-.37.09.18.09.37.09.55.09.18.46.37.55.18.09-.55.55-.82.55-1.37ZM242.23,24.68q0,.09-.09.18c0-.09.09-.09.09-.18ZM242.5,60.87c-.09-.09-.18-.18-.18-.18q-.09-.09-.18-.09c.09.09.18.18.37.27ZM242.32,60.96s.09,0-.18-.27c0,.18.09.27.18.27ZM242.5,62.34c-.09-.18-.18-.27-.37-.09,0,0,.09.18.37.18v-.09ZM242.32,62.52h.18-.18ZM242.5,63.53l-.09.09c0-.09.09-.09.09-.09ZM242.68,6.09c0-.09.09-.09.09-.18s0-.18-.09-.28v.46ZM243.88,23.95c-.09-.09-.09-.18-.18-.28,0,0-.09-.09-.18-.18q-.09,0-.18-.09c0,.09-.18.18-.18.27,0,.18.09.46.37.46.18-.09.28-.09.37-.18ZM244.24,60.78c-.28-.18-.28-.46-.37-.73,0-.09-.18-.09-.28-.18h-.18c-.09.09-.18.18-.18.28.37.18.18.64.55.92h.37c0-.09.09-.28.09-.28ZM243.97,6.54c.09.09.28.09.37.18.09-.09.18-.18.27-.18-.09-.09-.18-.18-.18-.18h-.37c0,.09-.09.09-.09.18ZM244.88,23.86c-.09-.18-.46-.18-.46,0-.09,0,.09.18.09.27.18-.09.28-.09.37-.18.09,0,.09-.09,0-.09ZM245.16,21.29c-.18.09-.27.28-.46.37,0,.18.09.28.18.28.46.09.64-.18.46-.55l-.18-.09ZM245.34,63.44c-.09-.09-.09-.18-.28-.18,0,.09.09.18.09.28.09,0,.09-.09.18-.09ZM245.34,20.2c.09.09.18.18.18.28.09,0,.18-.09.18-.18.09-.09.09-.18.09-.37v-.18c.55.09.73,0,.64-.73.09,0,.28-.09.28-.09.09-.18-.09-.18-.28-.18,0-.27-.09-.37-.37-.37,0,.28.09.37.37.37v.28c-.55-.09-.73.09-.73.73-.18.09-.27.09-.27.18s-.09.18-.09.27ZM245.8,19.92c-.09,0-.09-.09-.09-.18.09.09.09.18.09.18ZM246.35,22.39c0-.09-.09-.09-.09-.09-.18,0-.37,0-.46.09s0,.37,0,.46.09.18.18.18c0,0,.37-.55.37-.64ZM246.07,18.36v-.18c-.09-.18-.09-.28-.27-.09,0,.09.09.18.27.27ZM245.89,17.17c.09.18.27.37.37.27.18,0,.27-.09.37-.55-.09-.18-.09-.37-.18-.37-.27,0-.46.09-.46.37-.09.09-.18.18-.09.28ZM246.9,19.55c-.18.18-.09.46.18.64.09.09.18.18,0,.28h-.37c-.09,0-.18-.09-.28-.09q-.37-.27-.37.09t.46.73c.28.18.46.37.73.64.09.09.18.18.18,0,.09,0,.09-.09.09-.09,0-.27.09-.55,0-.82,0-.55,0-1.28.64-1.65l-.09-.27h-.55c-.37,0-.46.37-.64.55ZM246.62,16.53v-.73c-.09.18-.18.37-.18.55-.09.18,0,.18.18.18ZM246.9,63.25c0,.09.09.18.18.18,0-.09-.09-.18-.18-.18ZM248.18,16.71c.18-.18,0-.64.46-.55-.09-.18-.09-.37-.18-.37-.37,0-.82-.09-1.01.28-.09.09-.18.18-.18.27-.09,0,.27.28.92.37ZM247.81,12.87c.09,0,.09-.09.09-.18-.09-.09-.27-.18-.27,0l.18.18ZM248.91,18.09c.09,0,0-.09-.09-.09-.09-.09-.28-.09-.37-.09-.27,0-.55,0-.73.09-.09,0-.09.09-.09.18,0,0,0,.18.09.18h1.1c0-.09.09-.18.09-.27ZM247.81,12.96c.09.18.18.18.27.28,0,0,.09-.09-.27-.28ZM247.91,11.58q.09.09.28.09c0-.09-.09-.18-.09-.28-.09.09-.18.09-.18.18ZM248.18,13.05l-.18-.18c0,.09.09.18.18.18ZM248.27,64.08c-.09,0-.18-.09-.28-.09q0,.18.09.27.09-.09.18-.18ZM248.64,16.16c0,.37,0,.46.09.55h.55c-.09-.18-.28-.37-.46-.55,0-.09-.18-.09-.18,0ZM248.82,16.81c.09.09.18.18.37.09,0,0,0-.09-.37-.09Z"/>
    </g>
  </g>
</svg>