<?xml version="1.0" encoding="UTF-8"?>
<svg id="Layer_2" data-name="Layer 2" xmlns="http://www.w3.org/2000/svg" viewBox="0 0 84.68 68.56">
  <defs>
    <style>
      .cls-1 {
        fill: #c9c0bf;
        stroke-width: 0px;
      }
    </style>
  </defs>
  <g id="chapter_4_production" data-name="chapter 4 production">
    <g>
      <path class="cls-1" d="M31.7,51.03l11.12-15.57c1.04-1.45,2.45-2.58,4.1-3.25l29.39-12.1c.64-.26.95-1,.68-1.64-.26-.64-1-.95-1.64-.68l-13.33,5.49c.34-8.09-4.07-12.6-4.27-12.8-.49-.49-1.28-.49-1.77,0-.49.49-.49,1.28,0,1.77.01.01,1.1,1.13,2.06,3.19.23.49.43.98.6,1.49l-24.99,1.68-13.82-13.82c-3.1-3.1-8.15-3.1-11.26,0L1.94,11.42c-2.58,2.58-2.58,6.78,0,9.36.49.49,1.28.49,1.77,0l10.49-10.49,2.02,2.02-8.17,8.17c-1.75,1.75-2.58,4.16-2.27,6.62l1.44,11.56-5.29,11.34c-.93,2-.51,4.4,1.05,5.96l1.8,1.8c.28.28.67.41,1.06.36.39-.05.73-.29.92-.63l8.64-15.55c.66-1.18,1-2.52,1-3.87v-8.51s5.21,5.21,5.21,5.21c.52.52.81,1.22.81,1.96v13.51c0,.33.13.65.37.89l1.72,1.72-4.18,1.79-1.04-9.34c-.08-.69-.7-1.18-1.39-1.11-.69.08-1.18.7-1.11,1.39l1.12,10.1-15.6,6.69c-.64.27-.93,1.01-.66,1.65.06.15.16.28.27.39.35.35.9.47,1.38.27l24.48-10.49c1.57-.67,2.92-1.76,3.9-3.14h0ZM33.72,21.11l12.22-.81c-.56,1.88-2.25,3.3-4.3,3.42l-8.04.47c-.84.05-1.66-.16-2.37-.59l2.49-2.49ZM2.96,17.98c-.79-1.55-.54-3.49.75-4.79l6.64-6.64c1.46-1.46,3.55-1.92,5.41-1.37L2.96,17.98ZM13.89,38.07c0,.92-.24,1.84-.69,2.65l-7.83,14.1-.62-.62c-.82-.82-1.04-2.08-.55-3.13l5.45-11.67c.1-.21.14-.45.11-.69l-1.49-11.92c-.19-1.51.25-3,1.21-4.15l4.42,4.42v11.02ZM24.94,36.73c0-1.41-.55-2.73-1.55-3.73l-12.16-12.16,7.65-7.65c.49-.49.49-1.28,0-1.77l-2.91-2.91,2.02-2.02s.04.04.06.06l13.34,13.34-2.02,2.02-2.91-2.91c-.42-.42-1.06-.49-1.56-.17l-5.79,3.69c-.58.37-.76,1.15-.38,1.73.37.58,1.15.76,1.73.38l4.95-3.15,3.27,3.27c1.34,1.34,3.18,2.04,5.07,1.93l8.04-.47c3.45-.2,6.23-2.79,6.76-6.1l10.73-.72c.28,1.58.33,3.23.15,4.95l-13.46,5.54c-2.08.86-3.88,2.28-5.19,4.12l-11.12,15.57c-.68.95-1.6,1.71-2.66,2.21l-2.06-2.06v-12.99Z"/>
      <path class="cls-1" d="M26.23,2.98c.03.28.16.54.36.73.05.05.12.1.18.15-1.25,2.03-.99,4.73.77,6.49,2.06,2.06,5.41,2.06,7.46,0,.32-.32.59-.68.82-1.06.31.16.68.18,1.01.05.36-.14.64-.44.75-.81.71-2.35.08-4.88-1.63-6.59-2.58-2.58-6.78-2.58-9.36,0-.27.27-.41.66-.36,1.04h0ZM29.31,8.57c-.93-.93-1.06-2.35-.39-3.42l4.75,2.85c-.12.21-.27.4-.44.57-1.08,1.08-2.84,1.08-3.92,0ZM34.18,3.71c.64.64,1.04,1.48,1.15,2.36l-5.5-3.3c1.46-.55,3.18-.23,4.35.94Z"/>
      <path class="cls-1" d="M48.28,38.87l7.26-3.63c.62-.31.87-1.06.56-1.68-.31-.62-1.06-.87-1.68-.56l-7.59,3.79c-.21.11-.39.27-.51.48l-10.02,16.7c-.77,1.28-1.88,2.33-3.2,3.02l-17.58,9.21c-.61.32-.85,1.08-.53,1.69.06.12.14.22.22.31.38.38.97.48,1.47.22l17.58-9.21c1.73-.91,3.18-2.27,4.19-3.95l9.83-16.39Z"/>
      <path class="cls-1" d="M83.98,27.65c.62-.31.87-1.06.56-1.68-.31-.62-1.06-.87-1.68-.56l-25.63,12.82c-1.04.52-1.61,1.69-1.38,2.83l.33,1.65c.13.65-.2,1.3-.81,1.58l-8.49,3.86c-.63.29-.91,1.03-.62,1.66.06.14.15.26.25.37.36.36.92.48,1.41.25l8.49-3.86c1.67-.76,2.59-2.55,2.23-4.36l-.33-1.65s.01-.08.05-.09l25.63-12.82Z"/>
    </g>
  </g>
</svg>