<?xml version="1.0" encoding="UTF-8"?>
<svg id="Layer_2" data-name="Layer 2" xmlns="http://www.w3.org/2000/svg" viewBox="0 0 15.63 9.72">
  <defs>
    <style>
      .cls-1 {
        fill: #8b8484;
        stroke-width: 0px;
      }
    </style>
  </defs>
  <g id="chapter_II_production" data-name="chapter II production">
    <g>
      <path class="cls-1" d="M13.65,7.78l.05-5.77-2.88-.02c-.54,0-.96-.43-.95-.97,0-.54.43-.96.97-.95l3.85.04c.54,0,.96.43.95.97l-.07,7.69c0,.54-.43.96-.97.95l-3.84-.03c-.54,0-.96-.43-.95-.97,0-.54.43-.96.97-.95l2.88.02Z"/>
      <path class="cls-1" d="M0,8.64L.07.95C.07.41.5,0,1.04,0l3.84.03c.54,0,.96.43.95.97,0,.54-.43.96-.97.95l-2.88-.03-.05,5.77,2.88.02c.54,0,.96.43.95.97,0,.54-.43.96-.97.95l-3.85-.03C.41,9.61,0,9.18,0,8.64Z"/>
    </g>
  </g>
</svg>