<?xml version="1.0" encoding="UTF-8"?>
<svg id="Layer_2" data-name="Layer 2" xmlns="http://www.w3.org/2000/svg" viewBox="0 0 124.23 72.86">
  <defs>
    <style>
      .cls-1 {
        fill: #171717;
        stroke-width: 0px;
      }
    </style>
  </defs>
  <g id="chapter_II_production" data-name="chapter II production">
    <path class="cls-1" d="M124.23,37.01c-.09,9.75-3.98,18.86-11,25.64-8.57,8.33-20.69,11.86-32.41,9.5l-56.29-11.43C10.19,57.78-.13,45.03,0,30.39.15,13.48,14.03-.15,30.94,0l9.79.03c1.09.01,1.93.87,1.93,1.96-.01,1.09-.87,1.93-1.96,1.93l-9.79-.04c-14.77-.13-26.89,11.78-27.02,26.54-.12,12.79,8.93,23.95,21.44,26.49l56.29,11.43c10.45,2.12,21.24-1.06,28.92-8.48,6.24-6.05,9.72-14.15,9.79-22.89.17-17.8-14.19-32.41-31.99-32.57l-19.83-.13c-1.09,0-1.93-.87-1.93-1.95.01-1.09.87-1.93,1.96-1.93l19.83.13c19.94.18,36.02,16.54,35.84,36.49Z"/>
  </g>
</svg>