<?xml version="1.0" encoding="UTF-8"?>
<svg id="Layer_2" data-name="Layer 2" xmlns="http://www.w3.org/2000/svg" viewBox="0 0 1280.19 169.94">
  <defs>
    <style>
      .cls-1 {
        fill: #171717;
        stroke-width: 0px;
      }

      .cls-2 {
        opacity: .98;
      }
    </style>
  </defs>
  <g id="C5_production" data-name="C5 production">
    <g class="cls-2">
      <path class="cls-1" d="M138.19,131.14c-.24.47-.47.95-.71,1.42-.24.71,0,1.42,0,2.37v.47c-.24,1.18.47,2.37-.71,3.31-.47.47-.24,1.66-.24,2.13-.47,1.89.95,4.02-.95,5.44v2.84c-.24,1.66.47,3.55-.71,5.21-.95,1.66,0,3.31-.47,5.2-.24.47-.71.95-.71,1.66,0,2.13.24,4.02-.24,6.15H.47s-.24-.24-.47-.47l.24-.47h3.55c.95-.24,2.6.47,3.55-.24.71-.95,1.89-.71,3.08-.71.47,0,.71-.24,1.18-.47.47-.95,1.18-1.89,2.13-2.37,1.18-.95,1.42-1.89,1.42-3.31-.24-.95-.47-1.89.71-2.37.24-.24,0-.95.24-1.42,0-2.37-.71-4.5.71-6.63.24-.47,0-1.18,0-1.89v-8.99c0-.95.24-2.13-.71-2.84v-2.6c1.18-1.18.71-3.08.71-4.26v-12.3c0-1.42.71-3.31-.71-4.26,0-1.18-.47-2.6.47-3.31.24-.24.24-.95.24-1.42v-16.33c0-.95-.24-1.66-.71-2.13-.24-.47-.24-1.42,0-1.66.95-1.66.71-3.08.71-4.73v-14.43c0-.95,0-1.89-.71-2.6-.24-.24-.24-.71,0-.95,1.42-1.42.47-3.55.71-5.21v-13.96c0-1.18.24-2.37-.71-3.31-.47-.24-.24-1.66,0-1.89.95-.71.71-1.89.71-2.84v-12.3c-.24-2.13.95-4.5-.71-6.39v-4.26c0-.95-.24-1.66-.24-2.37-1.66-.95,0-2.84-1.66-3.55,0-1.42-1.42-2.6-2.37-3.08-1.18-.71-2.37-1.66-4.02-1.18-1.18.24-2.13-1.42-3.79-1.18-.95.47-2.37.24-3.55,0h-.47c.24-.24.24-.71.47-.71h10.41c.47,0,.95.24.95.47,1.18.71,2.6.24,3.79.24.47-.95,1.66-.71,2.84-.71h12.54c1.66.24,3.79-.47,5.21.71.24.24,1.18.24,1.42,0,.95-.71,2.37-.71,3.31-.71h87.55c.24.24.47.47.47.71.24.71.24,1.89,0,2.84-.47,1.66.95,3.08.95,4.73v4.97c1.66,2.13.47,4.5.95,6.86,0,.95-.47,1.89.95,2.84,0,1.42.24,3.08,0,4.5-.47,1.66.95,2.37.95,3.79v4.73c0,.24-.24.47-.24.47-.24-.24-.71-.24-.71-.47v-1.89c0-.71.24-1.66-.24-1.66-1.42-.95-.47-2.37-1.18-3.31-.47-.95-1.42-2.13-1.18-3.31,0-1.18-1.66-1.89-1.18-3.31.24-.95-1.42-1.42-.95-2.37-1.42-1.89-1.89-3.79-3.08-5.68-.71-1.18-.95-2.37-2.37-3.31-.95-.95-1.89-2.37-3.31-3.31-.71-.95-1.89-1.66-3.08-2.37-1.42-.71-2.6-2.13-4.5-1.66-1.42.47-2.37-.95-3.79-.95h-7.81c-.47,0-.95-.47-1.18-.71-.95-.47-2.37-.47-3.55.24-.47.24-.95.47-1.42.47h-16.33c-.95,0-1.42-.47-2.37-.71-.47-.24-.95-.24-1.42-.24h-1.42c-.71,1.18-1.66.95-2.6.95h-13.96c-1.18,0-2.37.24-2.84-.95-1.18,0-2.6-.47-3.55.47-.24.24-.47.47-.71.47h-10.41c-2.37,0-4.97-.47-7.34.24v1.89l-.24,3.55v59.39c0,1.18,1.18,2.13,2.13,2.13,1.18-.24,2.84.71,4.02-.47.24-.47.71-.24,1.18-.24h8.76c.95,0,1.66,0,2.13.47.24.24.71.24,1.18,0q2.37-.71,4.02,0h.47l.71.24h.24c1.66-.24,3.31.71,4.73-.71.24-.24.71,0,.95,0h10.17c.71,0,1.18.24,1.66.47.71.47.95.24,1.42,0,.95-.95,2.13-.95,2.84-.47,1.66,1.42,3.79.47,5.44.47.71-.95,1.66-.47,2.6-.47h10.17c1.18,0,2.37.24,2.84-.95h.71l1.66-.24h.71c.71-1.18,2.13-.71,2.84-1.89l1.42-3.31c-.71-1.42,1.18-2.84.71-4.73v-4.73h.47l.47.24c0,1.66-.24,3.08,0,4.26.24,2.6-.95,4.97.95,7.34v10.65c-1.42,1.18-.95,2.6-.95,4.26v4.73c0,.47-.47.71-.47.95-.24-.24-.47-.47-.47-.71v-4.26c0-1.42-.47-2.37-1.18-3.08-.95-1.42-2.37-2.37-3.08-3.55-.71-.47-2.13-.47-2.6-1.18,0-.24-.47-.24-.71-.24-1.66.71-2.84-.95-4.5-.95H31c-.95,0-1.18.24-1.18,1.18v88.73c0,.47,1.42,1.66,1.89,1.66,1.66-.24,3.79.95,5.21-.71.24-.24.95,0,1.42,0,2.84,0,5.92,0,8.99-.24.71,0,1.18.24,1.42.71.24.24.95,0,1.42.24,1.18.24,2.37-2.13,3.31-.24,1.42,0,2.6.24,3.79.24.47,0,4.5-.71,4.73-.95,1.18-.71,1.42,1.66,2.84.47.47-.95,1.89-.24,3.08-.24s2.6-.71,3.79.71c.71-.24,1.42.24,1.89-.24.71-.71,1.89-.95,2.37-.47,1.66,1.18,3.79.47,5.44.71h5.68c2.13-1.66,4.26-.47,6.15-.71.95-.24,1.89-.24,2.6.47,0,.24.95.24,1.18,0,.47-.95,1.66-.71,2.6-.47.47,0,.71.71,1.42.71,1.89,0,4.02,0,5.92-.24,1.18-1.18,2.6-.47,4.02-.47,1.18,0,1.89-.71,2.84-.95.95-.47,2.37,0,3.31-.24s1.89-1.18,2.84-1.89q3.08-1.42,5.44-4.26c.47-.47,1.18-1.42,2.13-2.13.71-.71.71-2.13,1.66-2.6.95-.71.95-2.6,2.37-3.55l.24-.24v-.24c-.24-.95.47-1.66.95-2.6l.71-1.66c.47-1.66,1.18-4.26,1.42-5.92l.47-.71c.47-1.18-.24-2.37.71-3.31.95-.71.24-1.66.47-2.6,0-.71.71-.95.95-1.42s.47-.47.47-.24c.24.24.24.71.24.95ZM16.33,5.49l.24-.24v-.24c-.47,0-.47.24-.47.47h.24ZM18.69,8.09c.71-.95,1.42-.47,2.13-.71.24,0,.47-.24.71-.47-.95-.71-1.42-1.18-1.89-1.89-.47-.24-.71-.47-.71,0,0,1.18-.95,1.66-1.18,2.37,0,.24.24.47.24.95.24-.24.47-.24.71-.24ZM19.4,14.95h1.18c.24,0,.71,0,.95-.24.47-.71,1.18-.71,1.89,0,.47.24.71.47.95.71.47.71.71,0,.95-.24.47,0,.95,0,1.42-.24,0,0,.24-.24.24-.47,0,0-.24-.24-.47-.24-1.66-.71-1.66-.95-.71-2.13.24-.47.71-.71.95-.95q.47-.47,0-.47c-.71-.71-.47-1.42-.47-2.37,0,0,0-.24-.47-.47l-.24-.24c-.71-.24-1.18-.24-1.18-.71,0-.24.47-.24.71-.24.71,0,1.18,0,1.89-.24.24,0-.95-1.42-1.42-1.66h-.95c-.47.71-1.18,1.18-1.18,2.13q0,2.84-.95,4.26c-.71,0-.95.24-.95.95-.95,0-.95.71-1.18,1.42,0,.24-.24.95-.47.24l-.24-.24h-.24c-.47,0-.71.24-.71.47,0,.71.24.95.71.95ZM18.69,42.4c0,.24.47.71.47.71h1.89l.24-.71c-.95-.47-.47-1.42-1.18-1.89-.95-1.18,0-1.18.71-1.18.47,0,.95-.95.47-1.42-.24-.47-.71-.95-1.18-1.42h-.95c-.24.24-.47.47-.47.71v5.21ZM20.59,108.42c-.24,0-.24-.24-.47-.71,0,.24-.24.24-.71.71h-.24c0,.24-.24.24-.24.24,0,.47.24.71.47.71.71,0,.95-.24,1.18-.95ZM26.98,75.29l-.24-.24h-.24c0-.24-.24-.24-.24-.24q.47-1.18,0-2.6c-.24,0,0-.24,0-.47-.24-.95-.71-.47-1.18,0-.24,0-.95-.24-1.18-.71q-.47-.24-.24-.71c.47-.71,1.42-.95,1.42-2.13v-.47h-.71c-.24,0-.24.24-.47.47q-.95.95-1.42.71c0-.24-.24-.24-.24-.47l-.47-.71s-.24-.24-.24-.71l-.24-.71c0-.47-.71-.71-.95-.71s-.47.24-.47.47c-.24.95-.24,1.66-.24,2.6,1.42.95,1.66,2.84,2.37,4.26.24.47.71,1.18,1.42.95-.24.47-.47.95-.71,1.18q-.47.47-1.66,0c-.24,0-.47-.24-.95-.24,0,.24-.24.47-.47.47l.47.47s.24.47.47.95c-.71-.24-.95.47-.95,1.18.24.47.47.71.95.71h1.42c.24,0,.47.47.47.71,0,.71-1.18,1.89-1.66,1.89l-.24-.24c-.47-.71-.71-.71-1.42-.47-.47.24,0,1.42.95,1.66.24.24.95,0,1.66.24.47,0,.71.24.71.95-1.18.24-1.66.71-1.89,1.66-.95,0-.95.71-.95,1.42.24.24.47.47.47.71h.47q.47,0,.95,1.18c.47,1.18,2.37,1.89,3.31,1.18.24,0,.24-.47.24-.71s0-.47.47-.71c1.42,0,1.89-.71,1.66-1.66q-.24,0-1.42.95c.24-.24.47-.71.95-1.42-.47.71-1.18,1.18-1.66,1.66v.47h-.24c-.71-1.18-1.18-2.37-2.13-3.31-.24-.24-.24-.95-.24-1.42.71.47,1.18-1.89,1.89-.24.24,0,.47.24.47,0,.71-.47,1.42-1.18,2.13-1.89.47-.71-.24-.71-.71-.95-.47,0-.95-.24-1.18-.24-.24-.24-.71-.95-.71-1.18q.24-.24.47-.24l.71-.71.24-.24c1.18,1.42,1.18.71,1.42-.47.47-1.42.71-1.42-.24-1.89ZM27.21,60.86c-.47,0-.95-.24-.95-.71-.24-.47-.24-.71-.71-1.18-.47-.71-.47-1.42.24-1.89,0-.24.24-.24.24-.24l.47-.71.24-.24c.71-.47,0-.47-.24-.71-.47-.24-.47-.47,0-.71.24-.24.95-.71.24-.95-.24-.24-.71-.24-.95-.24-.95.71-1.66,1.66-2.13,2.13-.71.95-.95,0-1.42,0h-2.13c-.24,0-.71,1.89-.47,2.13.95.71.95,1.89.71,2.84-.24,1.18,1.66,1.66,1.18,2.84.71.47.95,1.42,1.89,1.42l-.24.47c-.24.47-.47.71-.71.95.47,0,.71.24,1.18.47.71,0,1.66,0,2.6,1.66,0,.24-.24.24,0,.47v.24l.24.71v.47q.24-.24.47-.24l.71-.71.24-.24c.24-.24.24-.95,0-1.18,0-.24-1.42-1.42-1.66-1.42v.24s0-.24.24-.47l.47-1.18c0-.24.24-.24.24-.47,0-.71.47-1.42.95-2.37,0-.47,0-1.42-.95-1.18ZM20.59,45l.24-.24c.47-.24.71-.24.71-.24,0-.24-.24-.47-.71-.47-.24,0-.24-.24-.47,0-.24,0-.47.24-.71.47.24,0,.47.24.95.47ZM20.35,90.67c-.24.24-.47.24-.47.47-.24.47-.24.95-.24.95v1.66l.47.47.24-.24c.47-.95.95-1.89,1.18-2.6,0-.24-.47-.71-1.18-.71ZM20.35,99.67l-.24-.24s-.24.24-.47.24q.24.24.47.24s.24,0,.24-.24ZM19.88,28.68c0,.24.24.47.47.24,1.18-.24,1.89-.95,2.13-1.89-.24-.24-.47-.47-.47-.71-.47.71-1.66.71-2.13,1.18-.24.24,0,.71,0,1.18ZM20.11,52.34v.24l-.24.24c0,.24.24.24.47.47,1.18.24,2.13,0,2.6-.95.24-.47.24-.95.47-.95.24-.47.47-.71.95-.71.71,0,1.42-.24,2.13.71,0,0,.47-.24.71-.24v-.47c-.47-.71-.71-1.42-.95-2.13.24,0,.71,0,.71-.24,0-.71-.24-.71-.71-.71.24-.24.24-.47.47-.95.47-.24.47-.47,0-.71-.71-.24-1.42,0-1.66.95v.71c-.95,0-.71.71-.95,1.18,0,.47,0,1.18-.71.47-.47-.71-.95-.71-.95.24-.24,1.66-.71.71-1.42.24-.24-.24-.95-.24-.95,0-.71.71,0,.71,0,1.18.47.47.47.95,0,1.42ZM20.35,21.11c-.24-.24-.24-.71-.47,0,0,0,.24.24.47.47.24,0,.24-.24,0-.47ZM19.88,33.41c.24.24.47.24.71.24l.47.24c.47,0,.47-.24.47-.71-.24-.24-.24-.71-.24-1.18-.47,0-1.18.47-1.18.95l-.24.47ZM19.88,72.45l.24.24v.24s0-.24.24-.47c-.24,0-.24-.24-.24-.47,0,0-.24.24-.24.47ZM20.59,105.82c-.24.47.24.95.95.71.24,0,.71,0,.71-.24.24-.47.24-.95.24-.95v-1.66c0-.24-.24-.47-.47-.71-.24.24-.47.47-.47.71-.47.71-.95,1.42-.95,2.13ZM26.74,20.4c.95-.47.24-1.42.47-2.13l-.71-.24c-.47.47-.95.95-1.42,1.18-.47.71-.71,0-.95-.24h-.71c-.47.71-1.42,1.66-.95,2.84,0,.24-.24.47-.24.47-.24.47-.47.24-.71,0-.24-.24-.47-.47-.95-.47q0,1.18,1.66,1.66c.47,0,1.18.24,1.18.47-.47,1.18.95,1.42.71,2.37,0,1.18,1.18,2.13,1.18,3.31,0,.47.24.47.71.24.95-.95,1.66-2.84.95-4.26-.24-.24-.47-.24-.95-.24-1.89-1.18-1.89-1.42-.95-3.31-.24-1.42.95-1.18,1.66-1.66ZM20.82,118.36l.24.47c.47,0,.95-.24,1.89-.47-.95-.24-1.42-.47-1.66-.47s-.47.24-.47.47ZM22.48,34.36c-.24-.24-.47-.47-.47-.71-.24,0-.47,0-.47.24.24.24.47.24.95.47ZM21.53,33.88c0,.47.24.71.47.71,0,0,.24,0-.47-.71ZM23.66,18.03c.24-.24.95-.47.24-.95-.24-.24-.47-.24-.71-.24-.47.24-.95.71-1.42,1.18v.24c0,.47.24.47,1.18.47.24,0,.47-.24.71-.71ZM22.48,39.33c-.24,0,0,.47,1.66,1.89,0-.47-.24-.71-.71-.95.24-.24.71.47.71-.47.24-.47,1.66-.71.24-1.66-.24,0,0-.24.24-.71.47-1.18,1.89-2.13,1.66-3.79-.24-.47-.47-.95-.95-.95-.71,0-.95.24-1.18.71v2.13c0,1.42-.95.71-1.66,1.42,1.66.95.24,1.66,0,2.37ZM24.14,128.77c0-.24-.24-.47-.47-.47-.95,0-1.42.24-1.18.95,0,.47.24.71.95.71s.95-.47.71-1.18ZM22.48,96.59c0,.47,0,.95.71,1.66h.24v-1.42c0-.24-.47-.47-.47-.47-.24,0-.47.24-.47.24ZM22.95,109.37c-.24.47-.47.71-.47,1.18,0,.24.24.47.71.47v-.24l.24-.24c0-.47-.24-.71-.47-1.18ZM22.95,93.51c-.24.24-.71.47,0,.95,0,0,.24-.24.47-.95h-.47ZM22.95,43.11c-.47.24-.47.47,0,.95q.95.95,1.42,0c.47-.24,1.42-.71,1.42-.71.71.47,1.18.71-.95-1.42-.71.24-1.42.47-1.89,1.18ZM23.9,92.57c0,.24-.24.24-.47.47v.47c.24-.24.47-.47.47-.95ZM24.14,99.43v-.47c0-.24,0-.71-.24-.71q-.47,0-.47.24c.24.24.47.47.71.95ZM23.43,98.48v.71c0,.24.47.47.47.95.24-.24.24-.47-.47-1.66ZM23.66,103.22c-.24.24-.24.47.24.47.24.24.47.24.71.24.71-.71,1.66-1.66,2.37-2.37v-.47q-.24,0-.47-.24h-.47c-.95.71-1.66,1.66-2.37,2.37ZM23.66,93.51h.24c.24-.24.24-.47.24-.71l-.47.71ZM27.21,43.35c0-1.89-.71-2.84-2.13-3.08-.24-.24-.47,0-.95,0l.24.24v.24c.24,0,.24.24.24.24,0,.24.71.71.47.95.47.24,1.18.71,2.13,1.42ZM25.08,124.04c0-.24-.24-.47-.24-.47l-.24.24h-.24c0,.24-.24.24-.24.24,0,0,.24,0,.47.24,0,0,.24,0,.47-.24ZM25.08,88.07c.47-.24.47-.47.71-.47l-.24.24q-.24.24-.47.24ZM27.21,92.09h-.24l-.47-.24h-.24c-.71-.24-1.18.24-1.18.95.24.47.47.71,1.18.71s.95-.47.95-1.42ZM26.03,135.16c0-.24-.24-.24-.47-.24l-.24.24.24.24q.24,0,.47-.24ZM26.27,66.54v.47c-.24-.24-.24-.47,0-.47ZM26.74,96.35h-.24c-.47.47-.47,1.42,0,1.66h.24c.71-.47.47-1.42,0-1.66ZM27.21,116.23c-.24-.47-.24-.71-.47-.95h-.24c-.47.24-.47,1.18,0,1.42.24,0,.47-.24.71-.47ZM26.98,121.2v-.47c.24,0,.24-.24.24-.24h-.24l-.24-.47h-.24c-.47.24-.47.95,0,1.42h.24s0-.24.24-.24ZM26.74,84.29s-.24,0-.47.24c0,.24.24.47.24.47,0,0,.24,0,.24-.24h.24l.24-.24s-.24,0-.47-.24ZM119.73,6.91c.24.24.71.47.95.47h.95c.47,0,.71-.47.47-.71-.47-.24-.71-.71-.47-1.42,0,0-.24-.24-.47-.24,0,0-.24,0-.47.24-.24.24,0,.47,0,.47l-.24.24v.47c-.24.24-.47.24-.71.47ZM127.54,164.26h.24l.24-.24s-.24-.24-.47-.24l-.24.24h-.24s0,.24.47.24Z"/>
      <path class="cls-1" d="M280.16,146.52c-.24.24,0,.71,0,.95-.24,1.89.47,4.02-.95,5.68-.24.71,0,1.89,0,2.84,0,1.18-1.18,1.89-.95,3.31.47,1.18.24,2.13.24,3.31v3.55c0,.95-.24,1.18-1.18,1.18h-8.99c-.95,0-1.66.24-2.37-.71h-3.08c-1.18,1.42-2.84.47-4.02.71-.47,0-1.18-.95-1.89-.95s-1.42.71-2.13.95h-10.65c-.47,0-.95,0-1.18-.47-.95-.95-2.13-.47-3.08-.47-.95.24-1.66,1.18-2.84.95-1.18-.24-2.37.47-2.84-.71-.47.24-.95.71-1.66.71h-11.12c-.95,0-1.42-1.18-2.6-.95h-2.13c-1.18.47-2.13,1.18-3.31.95-1.18-.24-2.37,0-3.31,0h-10.88c-1.18,0-2.6.47-3.79-.95-.24-.24-1.42-.24-1.66,0-.71.95-1.66.95-2.6.95h-15.38c-.95,0-1.89.24-2.37-.71-.95,0-2.37-.47-3.31,0-.71.24-.95.71-1.89.71h-17.04l-.71-.47c.24-.24.47-.47.71-.47.95-.24,1.89.47,2.6-.24.71-.95,1.42-.71,2.13-.71.95,0,1.89-.24,2.84,0,.47,0,.71-.24,1.18-.47,1.18-1.42,2.13-2.6,3.55-3.79.71-.47,1.89-3.31,1.89-4.26-.47-1.89,1.18-3.08.71-4.73-.24-1.66,0-3.08,0-4.73V14.24c.24-.95-1.18-1.42-.71-2.37,0-.95-.47-1.42-.95-1.89.47-1.18-.95-1.66-1.18-2.6-.47-1.42-2.13-2.37-3.31-3.55-1.42.71-2.37-1.18-3.79-1.18-2.13.24-4.26,0-6.63,0,.24-.47.47-.47.71-.47l1.18-.24h9.46c.95,0,2.13.47,2.84-.95h2.84c1.42,1.66,3.08.95,4.73.95,3.55.24,7.1.24,10.65,0,1.42,0,3.31.71,4.26-.95h3.08s.47.71.24.95c0,.24-.47.71-.47.71-1.89-.24-2.6,1.18-3.55,1.89-1.18.47-2.37.71-2.6,2.13,0,.47-.71.95-1.18,1.42-.24.71-1.66,1.18-1.42,2.37.24,1.42-1.42,2.37-1.18,4.26.47,1.66.24,3.55.24,5.44-.24.71.24,1.18.47,1.66.71.71.47,1.42,0,2.37-.71,1.66-.95,1.66,0,2.84.47.95.71,1.89.24,2.6s-.71,1.42-.71,1.89v10.88c0,.47,0,.95.24,1.18.95.71.47,1.89.71,2.6.24,1.18-.47,1.42-.95,1.89-.24.47,0,.95,0,1.42-.24,1.18,1.66,1.42.71,2.37-.47.71-.95,1.18-.71,2.13v11.59c0,.95,0,1.66.71,2.13.24.24.47,1.42.24,1.66-1.42,1.66-.95,3.08-.95,4.97v15.14c0,1.18-.24,2.13.71,2.6.24,0,0,.71-.24,1.18,0,.47-.47.47-.47,1.18v17.75c0,.71.95.95.95,1.42,0,1.18.47,2.6-.71,3.55-.71.47-.71,1.66.24,2.6.71.71.71,1.42.47,1.89-1.42,1.66-.95,3.08-.95,4.97-.24,2.37,0,5.21,0,7.81v1.18c0,.24,0,.47.24.71.95.47.47,1.42.71,2.37s-.71,1.42-.95,2.13c-.24.47-.47,1.42.24,2.13.95.71.95,1.89.47,2.37-.71.71-.71,1.66-.71,2.6v10.18c0,.71-.24,1.18.24,1.89,1.18,1.18.71,1.89-.24,3.08-.47.71,0,1.66.95,1.66h71.46c.95,0,1.89,0,2.84-.24.71,0,1.66.24,2.6-.47.47-.47,1.89,0,2.6-.47.95-.71,2.37-.71,3.08-1.18,1.42-.47,2.6-1.18,3.79-1.42.47-.47.95-1.18,1.66-1.66,1.18-1.66,3.08-2.37,3.55-4.73,1.42-1.18,2.37-2.6,2.84-4.5.24-.95,1.66-1.18,1.66-2.37.24-.95,1.18-1.42,1.18-2.6,0-.47.95-1.42.71-2.37-.24-1.18,1.18-1.66.95-2.6v-3.55l.71-.95v-.47c.47-1.42,1.89-2.37,1.18-3.79,0,0,.24-.24.47-.24s.47.24.47.24c0,1.66.71,3.55-.95,4.97,0,.95.24,2.13,0,3.08-.24,2.37.95,4.97-.95,7.1ZM169.19,158.58c-.24-.24-.71-.47-.71-.47-.47.24-.71.71-.95.95l-.47.47c.24,0,.47.24.71.47,1.18,0,1.66-.71,1.42-1.42ZM170.84,23c-.24,0-.71-.95-.71,0-.24.95-.95,1.66-1.66,2.37q-.47.47,0,.71c.71.95.71,2.37,1.89,2.84.24.24.71.24.95,0,.24-.24.47-.71.47-1.18,0-.24-.24-.47-.47-.71-.24-.24-.47-.47-.47-.95s0-1.18.24-1.42c.47-.71.71.24.95.47l2.6-1.18c.95-.71.95-.95-.24-1.89-.47-.71-.71,0-.71.24-.24.47-.24.95-.47.95-.71,0-1.42.47-2.37-.24ZM168.24,9.51c.24.71.95,1.18,1.18,1.66,0,0,1.42-1.42,1.42-1.66s-.95-1.89-1.42-1.89c-.24-.24-1.66,1.42-1.18,1.89ZM168.71,67.48c-.47.24-.71.95-.47.95.47.95,1.18,1.66.95,2.6-.24.71.24.95.47.95,1.18-.24,1.89.47,3.08.95.24,0,.71-.24.71-.47.24-.71,0-1.42-.71-1.89-1.42-.71-2.84-1.18-3.08-2.84,0,0-.71-.24-.95-.24ZM168.24,5.49s.24.24.47.24v-.24l.24-.24v-.24c-.47,0-.71.24-.71.47ZM169.42,74.58c0,.24.24-.24.47-.47-.24-.47-.24-.71-.47-.95-.47.24-.47,1.42,0,1.42ZM173.92,74.82h-.47c-.71.71-1.18.95-1.66,1.66q-.71,1.18-2.13.47c-.24,0-.47.24-.47.71-.24.95.47,1.18.95,1.66.71.47,1.18.24,1.66-.24,1.42-.71,2.6-.71,3.79,0,.24.24.47.24.71.24-.24-1.89-.95-3.55-2.37-4.5ZM172.74,31.52c-.24-.24-.24-.47-.47-.47-.95,0-1.42-.47-1.89-.95-.24-.24-.95.24-1.18.24.24.24.24.47.24.71.47.24.95.95,1.89.71h.95c.24,0,.47-.24.47-.24ZM169.19,35.3h.71c-.24-.24-.47-.24-.47-.47,0,0-.24.24-.24.47ZM169.19,64.88c0,.24.24.47.24.47l.47-.47h-.71ZM170.61,87.6v-.24c-.24-.47-1.18-.47-1.42,0v.24c.24.47,1.18.47,1.42,0ZM169.42,14.95s.24-.24.47-.24c-.24-.24-.24-.47-.47-.47v.71ZM170.84,47.37c0-.24-.47-.47-.71-.24s-.71.24-.71.71,0,.71.24.71c.95,0,1.42-.47,1.18-1.18ZM171.55,96.12c.24,0,.24-.24.24-.24,0,0-.24,0-.24-.24h-.71q0-.24-.24-.24c0,.24-.71.47-.47.71,0,.24,1.18.24,1.42,0ZM173.45,51.39h1.18c.24,0,0-.71-.95-.71-.71,0-1.18-1.42-2.13-1.18l-.71.71c.71.71,1.42,1.42,3.79,1.66q.24.24.47.47s.24-.24-.24-.47h.71c-.24-.24-.47-.24-.47-.47h-.47c-.24,0-.24.24,0,.47-.24-.24-.71-.24-1.18-.47ZM170.84,60.39h.24l.24.24h.24c0-.47-.24-.71-.47-.71,0,0-.24.24-.24.47ZM174.16,84.99c-.24.24-.71.47-.24.95.24,0,.47-.24.71-.95,1.66,0,.47-1.89,1.89-2.13-.71-.47-1.18-1.18-1.66-1.66s-.71-.95-1.42-.95c-1.18,0-1.66.24-1.66,1.66v1.42h-.47c-.47.47-.47.71-.47.95s.24.47.47.71c.24-.24.47-.24.47-.47v-.71c.24-.24,0-.47,0-.47h1.42q1.18,0,1.42,1.66h-.47ZM172.74,91.15c-.24,0-.71-.24-1.18-.47-.24.24-.47.47-.71.47.24.24.47.47.71.47.47,0,.95-.24,1.18-.47ZM172.74,38.85c-.47-.47-1.42-.47-1.66,0,0,0,.47.47.71.47s.71,0,.95-.24v-.24ZM171.08,45.48l.24.24c.24.47.47.71.71.95.47,0,.71-.24.71-.47.24-.95-.24-1.18-.95-1.18-.24,0-.47,0-.71.47ZM172.74,153.85v-.24c-.47-.47-1.42-.47-1.66,0v.24c.24.47,1.18.47,1.66,0ZM173.68,41.22c-.24-.24-.24-.71-.24-.95-.47.24-.71.47-1.42,1.18v.24c-.24,0-.24.24-.24.24,0,.71.24,1.18.95,1.18.71.24.71-.24.71-.71.24-.24.24-.71.24-1.18ZM171.79,99.67c.47.24.95.47,1.42.47,0,0,.24-.24.24-.47.24-.24.24-.71.24-.95v-.47c-.24-.24-.24-.47-.47-.71h-.24c-.47.47-.95.71-1.18,1.18v.95ZM174.63,118.36c-.24-.24-.47-.47-.71-.47-.47-.24-2.13,1.18-2.13,1.42.24.24.71.71.95.95.24.24.71.24.71.24.24-.71.24-1.66,1.18-2.13ZM173.68,125.69c0-.24,0-.71-.24-.95-.71,0-1.18.47-1.66.95,0,.24.71.71,1.18,1.18h.24c.24-.24.24-.47.47-.71v-.47ZM173.45,159.53c0-.24-.24-.47-.71-.47-.71-.24-.95.24-.95,1.18.24.47.47.71.95.71.71,0,.95-.47.71-1.42ZM172.03,16.61l.24.24q1.18,1.18,2.37.47.24-.24.71-.24c.47.24.47,1.18.95.47.24-.24.24-.71.24-.95,0-.47-.24-.71-.95-.71h-3.08c-.24,0-.47.47-.47.71ZM172.26,115.05v.24l-.24.24s0,.24.24.47c0,0,0-.24.24-.24v-.24l.24-.24s-.24-.24-.47-.24ZM173.68,143.91c-.24-.47-.24-.95-.71-.95h-.47c-.71.47-.47.71-.24,1.18.47.47.47.71.95,1.42.24-.47.24-.71.47-.71v-.95ZM173.45,62.75h1.42c.47,0,.95-.95.71-1.42,0-.24-.24-.24-.24-.24l-.47-.71-.24-.24c-.47-.47-.71-.24-1.18.24,0,.24-.24.47-.71.95-.24.47.24,1.42.71,1.42ZM173.21,7.62l-.24.24s0,.24.24.47c.24,0,.24-.24.24-.47l-.24-.24ZM173.45,64.88l-.24-.24s-.24,0-.24.47h.24q.24,0,.24-.24ZM175.1,108.42l.24-.47h.24c0-1.18-.47-1.42-1.18-1.42-.47.24-.95.47-.95,1.18.24.71.47.95,1.42.71h.24ZM174.39,163.32v-.47c0-.47-.24-.95-.47-.95-.47.24-.47,1.18,0,1.66h.24s0-.24.24-.24ZM175.58,101.79c-.24-.47-.47-.71-.71-.95-.95,0-1.42.47-1.18,1.18,0,.71.24.95.95.95.71-.24,1.18-.47.95-1.18ZM173.68,11.64c0,.24.24.47.24.24.24,0,.47,0,.71-.24,0,0-.24,0-.47-.24-.24,0-.47.24-.47.24ZM174.39,68.67l-.24-.24h-.47l.24.24v.24c.24,0,.24.24.24.24,0,0,.24-.24.24-.47ZM175.34,140.6c-.24-.47-1.42-.47-1.66,0,0,.24.47.24.71.47.47,0,.71-.24.95-.24v-.24ZM175.58,30.57c-.47-.24-.95-.47-1.18-.47s-.47.24-.47.47l.24.47c.47,0,.95-.47,1.42-.47ZM174.87,113.86h.24c.24-.24.24-.47.47-.95-.24-.24-.47-.47-.71-.47-.47,0-.47.95,0,1.42ZM175.81,5.73l-.71.24h-.24c0,.24,0,.47.24.71l.47.47c.24,0,.71.24.71,0,.24-.24.24-.47.24-.47v-.95h-.71ZM177,28.44c-.95-.24-1.18-.24-1.89-.47l-.24.47c0,.24.24.47.47.47.47,0,.71-.24,1.66-.47ZM176.29,105.34l.24-.71v-.24c-.24,0-.47-.47-.71-.24-.47,0-.47.95,0,1.18.24.24.47.24.47.24v-.24ZM176.29,156.46q-.24-.24-.47,0c-.47.24-.47.95,0,1.18q.24.24.47.24c.47-.47.47-1.18,0-1.42ZM176.52,36.96s-.47-.24-.71-.24l-.24.24v2.6c0,.24.47.47.71.47,0,0,.24-.24.24-.47v-2.6ZM176.05,25.6l-.24.24v.24c.47,0,.47-.24.47-.47h-.24ZM175.81,41.69l.24.24v.24l.24-.24c0-.24,0-.47-.24-.71,0,0-.24.24-.24.47ZM175.81,66.06s0,.24.24.24l.24-.24q0-.24-.24-.47c-.24,0-.24.24-.24.47ZM176.52,5.73h.24c0-.24.24-.47.24-.71h-.24c0,.24-.24.24-.24.71ZM176.76,5.73h.24s0-.24.24-.24v-.24l.24-.24s-.24,0-.71.71ZM267.62,164.5l.24-.24c0-.24,0-.47-.47-.47l-.24.47s.24.24.47.24ZM273.78,160.48c-.24-.24-.47-.47-.71-.47-1.18-.24-1.66.95-2.13,1.18,0,.24.24.47.47.47,1.18.24,1.66-.71,2.37-1.18ZM273.54,163.08s0-.24-.47-.24v.24c-.24,0-.24.24-.24.24,0,0,.24.24.47.24,0,0,0-.24.24-.47ZM274.49,158.35l-.24-.24q-.24,0-.47.24c.24.24.24.47.47.47,0,0,.24-.24.24-.47ZM275.43,163.08c-.24-.24-.47-.24-.47-.47v.95q.24-.24.47-.47Z"/>
      <path class="cls-1" d="M430.18,131.14c-.24.47-.47.95-.71,1.42-.24.71,0,1.42,0,2.37v.47c-.24,1.18.47,2.37-.71,3.31-.47.47-.24,1.66-.24,2.13-.47,1.89.95,4.02-.95,5.44v2.84c-.24,1.66.47,3.55-.71,5.21-.95,1.66,0,3.31-.47,5.2-.24.47-.71.95-.71,1.66,0,2.13.24,4.02-.24,6.15h-132.98s-.24-.24-.47-.47l.24-.47h3.55c.95-.24,2.6.47,3.55-.24.71-.95,1.89-.71,3.08-.71.47,0,.71-.24,1.18-.47.47-.95,1.18-1.89,2.13-2.37,1.18-.95,1.42-1.89,1.42-3.31-.24-.95-.47-1.89.71-2.37.24-.24,0-.95.24-1.42,0-2.37-.71-4.5.71-6.63.24-.47,0-1.18,0-1.89v-8.99c0-.95.24-2.13-.71-2.84v-2.6c1.18-1.18.71-3.08.71-4.26v-12.3c0-1.42.71-3.31-.71-4.26,0-1.18-.47-2.6.47-3.31.24-.24.24-.95.24-1.42v-16.33c0-.95-.24-1.66-.71-2.13-.24-.47-.24-1.42,0-1.66.95-1.66.71-3.08.71-4.73v-14.43c0-.95,0-1.89-.71-2.6-.24-.24-.24-.71,0-.95,1.42-1.42.47-3.55.71-5.21v-13.96c0-1.18.24-2.37-.71-3.31-.47-.24-.24-1.66,0-1.89.95-.71.71-1.89.71-2.84v-12.3c-.24-2.13.95-4.5-.71-6.39v-4.26c0-.95-.24-1.66-.24-2.37-1.66-.95,0-2.84-1.66-3.55,0-1.42-1.42-2.6-2.37-3.08-1.18-.71-2.37-1.66-4.02-1.18-1.18.24-2.13-1.42-3.79-1.18-.95.47-2.37.24-3.55,0h-.47c.24-.24.24-.71.47-.71h10.41c.47,0,.95.24.95.47,1.18.71,2.6.24,3.79.24.47-.95,1.66-.71,2.84-.71h12.54c1.66.24,3.79-.47,5.21.71.24.24,1.18.24,1.42,0,.95-.71,2.37-.71,3.31-.71h87.55c.24.24.47.47.47.71.24.71.24,1.89,0,2.84-.47,1.66.95,3.08.95,4.73v4.97c1.66,2.13.47,4.5.95,6.86,0,.95-.47,1.89.95,2.84,0,1.42.24,3.08,0,4.5-.47,1.66.95,2.37.95,3.79v4.73c0,.24-.24.47-.24.47-.24-.24-.71-.24-.71-.47v-1.89c0-.71.24-1.66-.24-1.66-1.42-.95-.47-2.37-1.18-3.31-.47-.95-1.42-2.13-1.18-3.31,0-1.18-1.66-1.89-1.18-3.31.24-.95-1.42-1.42-.95-2.37-1.42-1.89-1.89-3.79-3.08-5.68-.71-1.18-.95-2.37-2.37-3.31-.95-.95-1.89-2.37-3.31-3.31-.71-.95-1.89-1.66-3.08-2.37-1.42-.71-2.6-2.13-4.5-1.66-1.42.47-2.37-.95-3.79-.95h-7.81c-.47,0-.95-.47-1.18-.71-.95-.47-2.37-.47-3.55.24-.47.24-.95.47-1.42.47h-16.33c-.95,0-1.42-.47-2.37-.71-.47-.24-.95-.24-1.42-.24h-1.42c-.71,1.18-1.66.95-2.6.95h-13.96c-1.18,0-2.37.24-2.84-.95-1.18,0-2.6-.47-3.55.47-.24.24-.47.47-.71.47h-10.41c-2.37,0-4.97-.47-7.34.24v1.89l-.24,3.55v59.39c0,1.18,1.18,2.13,2.13,2.13,1.18-.24,2.84.71,4.02-.47.24-.47.71-.24,1.18-.24h8.76c.95,0,1.66,0,2.13.47.24.24.71.24,1.18,0q2.37-.71,4.02,0h.47l.71.24h.24c1.66-.24,3.31.71,4.73-.71.24-.24.71,0,.95,0h10.17c.71,0,1.18.24,1.66.47.71.47.95.24,1.42,0,.95-.95,2.13-.95,2.84-.47,1.66,1.42,3.79.47,5.44.47.71-.95,1.66-.47,2.6-.47h10.17c1.18,0,2.37.24,2.84-.95h.71l1.66-.24h.71c.71-1.18,2.13-.71,2.84-1.89l1.42-3.31c-.71-1.42,1.18-2.84.71-4.73v-4.73h.47l.47.24c0,1.66-.24,3.08,0,4.26.24,2.6-.95,4.97.95,7.34v10.65c-1.42,1.18-.95,2.6-.95,4.26v4.73c0,.47-.47.71-.47.95-.24-.24-.47-.47-.47-.71v-4.26c0-1.42-.47-2.37-1.18-3.08-.95-1.42-2.37-2.37-3.08-3.55-.71-.47-2.13-.47-2.6-1.18,0-.24-.47-.24-.71-.24-1.66.71-2.84-.95-4.5-.95h-62.47c-.95,0-1.18.24-1.18,1.18v88.73c0,.47,1.42,1.66,1.89,1.66,1.66-.24,3.79.95,5.21-.71.24-.24.95,0,1.42,0,2.84,0,5.92,0,8.99-.24.71,0,1.18.24,1.42.71.24.24.95,0,1.42.24,1.18.24,2.37-2.13,3.31-.24,1.42,0,2.6.24,3.79.24.47,0,4.5-.71,4.73-.95,1.18-.71,1.42,1.66,2.84.47.47-.95,1.89-.24,3.08-.24s2.6-.71,3.79.71c.71-.24,1.42.24,1.89-.24.71-.71,1.89-.95,2.37-.47,1.66,1.18,3.79.47,5.44.71h5.68c2.13-1.66,4.26-.47,6.15-.71.95-.24,1.89-.24,2.6.47,0,.24.95.24,1.18,0,.47-.95,1.66-.71,2.6-.47.47,0,.71.71,1.42.71,1.89,0,4.02,0,5.92-.24,1.18-1.18,2.6-.47,4.02-.47,1.18,0,1.89-.71,2.84-.95.95-.47,2.37,0,3.31-.24s1.89-1.18,2.84-1.89q3.08-1.42,5.44-4.26c.47-.47,1.18-1.42,2.13-2.13.71-.71.71-2.13,1.66-2.6.95-.71.95-2.6,2.37-3.55l.24-.24v-.24c-.24-.95.47-1.66.95-2.6l.71-1.66c.47-1.66,1.18-4.26,1.42-5.92l.47-.71c.47-1.18-.24-2.37.71-3.31.95-.71.24-1.66.47-2.6,0-.71.71-.95.95-1.42s.47-.47.47-.24c.24.24.24.71.24.95ZM308.32,5.49l.24-.24v-.24c-.47,0-.47.24-.47.47h.24ZM310.69,8.09c.71-.95,1.42-.47,2.13-.71.24,0,.47-.24.71-.47-.95-.71-1.42-1.18-1.89-1.89-.47-.24-.71-.47-.71,0,0,1.18-.95,1.66-1.18,2.37,0,.24.24.47.24.95.24-.24.47-.24.71-.24ZM311.4,14.95h1.18c.24,0,.71,0,.95-.24.47-.71,1.18-.71,1.89,0,.47.24.71.47.95.71.47.71.71,0,.95-.24.47,0,.95,0,1.42-.24,0,0,.24-.24.24-.47,0,0-.24-.24-.47-.24-1.66-.71-1.66-.95-.71-2.13.24-.47.71-.71.95-.95q.47-.47,0-.47c-.71-.71-.47-1.42-.47-2.37,0,0,0-.24-.47-.47l-.24-.24c-.71-.24-1.18-.24-1.18-.71,0-.24.47-.24.71-.24.71,0,1.18,0,1.89-.24.24,0-.95-1.42-1.42-1.66h-.95c-.47.71-1.18,1.18-1.18,2.13q0,2.84-.95,4.26c-.71,0-.95.24-.95.95-.95,0-.95.71-1.18,1.42,0,.24-.24.95-.47.24l-.24-.24h-.24c-.47,0-.71.24-.71.47,0,.71.24.95.71.95ZM310.69,42.4c0,.24.47.71.47.71h1.89l.24-.71c-.95-.47-.47-1.42-1.18-1.89-.95-1.18,0-1.18.71-1.18.47,0,.95-.95.47-1.42-.24-.47-.71-.95-1.18-1.42h-.95c-.24.24-.47.47-.47.71v5.21ZM312.58,108.42c-.24,0-.24-.24-.47-.71,0,.24-.24.24-.71.71h-.24c0,.24-.24.24-.24.24,0,.47.24.71.47.71.71,0,.95-.24,1.18-.95ZM318.97,75.29l-.24-.24h-.24c0-.24-.24-.24-.24-.24q.47-1.18,0-2.6c-.24,0,0-.24,0-.47-.24-.95-.71-.47-1.18,0-.24,0-.95-.24-1.18-.71q-.47-.24-.24-.71c.47-.71,1.42-.95,1.42-2.13v-.47h-.71c-.24,0-.24.24-.47.47q-.95.95-1.42.71c0-.24-.24-.24-.24-.47l-.47-.71s-.24-.24-.24-.71l-.24-.71c0-.47-.71-.71-.95-.71s-.47.24-.47.47c-.24.95-.24,1.66-.24,2.6,1.42.95,1.66,2.84,2.37,4.26.24.47.71,1.18,1.42.95-.24.47-.47.95-.71,1.18q-.47.47-1.66,0c-.24,0-.47-.24-.95-.24,0,.24-.24.47-.47.47l.47.47s.24.47.47.95c-.71-.24-.95.47-.95,1.18.24.47.47.71.95.71h1.42c.24,0,.47.47.47.71,0,.71-1.18,1.89-1.66,1.89l-.24-.24c-.47-.71-.71-.71-1.42-.47-.47.24,0,1.42.95,1.66.24.24.95,0,1.66.24.47,0,.71.24.71.95-1.18.24-1.66.71-1.89,1.66-.95,0-.95.71-.95,1.42.24.24.47.47.47.71h.47q.47,0,.95,1.18c.47,1.18,2.37,1.89,3.31,1.18.24,0,.24-.47.24-.71s0-.47.47-.71c1.42,0,1.89-.71,1.66-1.66q-.24,0-1.42.95c.24-.24.47-.71.95-1.42-.47.71-1.18,1.18-1.66,1.66v.47h-.24c-.71-1.18-1.18-2.37-2.13-3.31-.24-.24-.24-.95-.24-1.42.71.47,1.18-1.89,1.89-.24.24,0,.47.24.47,0,.71-.47,1.42-1.18,2.13-1.89.47-.71-.24-.71-.71-.95-.47,0-.95-.24-1.18-.24-.24-.24-.71-.95-.71-1.18q.24-.24.47-.24l.71-.71.24-.24c1.18,1.42,1.18.71,1.42-.47.47-1.42.71-1.42-.24-1.89ZM319.21,60.86c-.47,0-.95-.24-.95-.71-.24-.47-.24-.71-.71-1.18-.47-.71-.47-1.42.24-1.89,0-.24.24-.24.24-.24l.47-.71.24-.24c.71-.47,0-.47-.24-.71-.47-.24-.47-.47,0-.71.24-.24.95-.71.24-.95-.24-.24-.71-.24-.95-.24-.95.71-1.66,1.66-2.13,2.13-.71.95-.95,0-1.42,0h-2.13c-.24,0-.71,1.89-.47,2.13.95.71.95,1.89.71,2.84-.24,1.18,1.66,1.66,1.18,2.84.71.47.95,1.42,1.89,1.42l-.24.47c-.24.47-.47.71-.71.95.47,0,.71.24,1.18.47.71,0,1.66,0,2.6,1.66,0,.24-.24.24,0,.47v.24l.24.71v.47q.24-.24.47-.24l.71-.71.24-.24c.24-.24.24-.95,0-1.18,0-.24-1.42-1.42-1.66-1.42v.24s0-.24.24-.47l.47-1.18c0-.24.24-.24.24-.47,0-.71.47-1.42.95-2.37,0-.47,0-1.42-.95-1.18ZM312.58,45l.24-.24c.47-.24.71-.24.71-.24,0-.24-.24-.47-.71-.47-.24,0-.24-.24-.47,0-.24,0-.47.24-.71.47.24,0,.47.24.95.47ZM312.35,90.67c-.24.24-.47.24-.47.47-.24.47-.24.95-.24.95v1.66l.47.47.24-.24c.47-.95.95-1.89,1.18-2.6,0-.24-.47-.71-1.18-.71ZM312.35,99.67l-.24-.24s-.24.24-.47.24q.24.24.47.24s.24,0,.24-.24ZM311.87,28.68c0,.24.24.47.47.24,1.18-.24,1.89-.95,2.13-1.89-.24-.24-.47-.47-.47-.71-.47.71-1.66.71-2.13,1.18-.24.24,0,.71,0,1.18ZM312.11,52.34v.24l-.24.24c0,.24.24.24.47.47,1.18.24,2.13,0,2.6-.95.24-.47.24-.95.47-.95.24-.47.47-.71.95-.71.71,0,1.42-.24,2.13.71,0,0,.47-.24.71-.24v-.47c-.47-.71-.71-1.42-.95-2.13.24,0,.71,0,.71-.24,0-.71-.24-.71-.71-.71.24-.24.24-.47.47-.95.47-.24.47-.47,0-.71-.71-.24-1.42,0-1.66.95v.71c-.95,0-.71.71-.95,1.18,0,.47,0,1.18-.71.47-.47-.71-.95-.71-.95.24-.24,1.66-.71.71-1.42.24-.24-.24-.95-.24-.95,0-.71.71,0,.71,0,1.18.47.47.47.95,0,1.42ZM312.35,21.11c-.24-.24-.24-.71-.47,0,0,0,.24.24.47.47.24,0,.24-.24,0-.47ZM311.87,33.41c.24.24.47.24.71.24l.47.24c.47,0,.47-.24.47-.71-.24-.24-.24-.71-.24-1.18-.47,0-1.18.47-1.18.95l-.24.47ZM311.87,72.45l.24.24v.24s0-.24.24-.47c-.24,0-.24-.24-.24-.47,0,0-.24.24-.24.47ZM312.58,105.82c-.24.47.24.95.95.71.24,0,.71,0,.71-.24.24-.47.24-.95.24-.95v-1.66c0-.24-.24-.47-.47-.71-.24.24-.47.47-.47.71-.47.71-.95,1.42-.95,2.13ZM318.73,20.4c.95-.47.24-1.42.47-2.13l-.71-.24c-.47.47-.95.95-1.42,1.18-.47.71-.71,0-.95-.24h-.71c-.47.71-1.42,1.66-.95,2.84,0,.24-.24.47-.24.47-.24.47-.47.24-.71,0-.24-.24-.47-.47-.95-.47q0,1.18,1.66,1.66c.47,0,1.18.24,1.18.47-.47,1.18.95,1.42.71,2.37,0,1.18,1.18,2.13,1.18,3.31,0,.47.24.47.71.24.95-.95,1.66-2.84.95-4.26-.24-.24-.47-.24-.95-.24-1.89-1.18-1.89-1.42-.95-3.31-.24-1.42.95-1.18,1.66-1.66ZM312.82,118.36l.24.47c.47,0,.95-.24,1.89-.47-.95-.24-1.42-.47-1.66-.47s-.47.24-.47.47ZM314.47,34.36c-.24-.24-.47-.47-.47-.71-.24,0-.47,0-.47.24.24.24.47.24.95.47ZM313.53,33.88c0,.47.24.71.47.71,0,0,.24,0-.47-.71ZM315.66,18.03c.24-.24.95-.47.24-.95-.24-.24-.47-.24-.71-.24-.47.24-.95.71-1.42,1.18v.24c0,.47.24.47,1.18.47.24,0,.47-.24.71-.71ZM314.47,39.33c-.24,0,0,.47,1.66,1.89,0-.47-.24-.71-.71-.95.24-.24.71.47.71-.47.24-.47,1.66-.71.24-1.66-.24,0,0-.24.24-.71.47-1.18,1.89-2.13,1.66-3.79-.24-.47-.47-.95-.95-.95-.71,0-.95.24-1.18.71v2.13c0,1.42-.95.71-1.66,1.42,1.66.95.24,1.66,0,2.37ZM316.13,128.77c0-.24-.24-.47-.47-.47-.95,0-1.42.24-1.18.95,0,.47.24.71.95.71s.95-.47.71-1.18ZM314.47,96.59c0,.47,0,.95.71,1.66h.24v-1.42c0-.24-.47-.47-.47-.47-.24,0-.47.24-.47.24ZM314.95,109.37c-.24.47-.47.71-.47,1.18,0,.24.24.47.71.47v-.24l.24-.24c0-.47-.24-.71-.47-1.18ZM314.95,93.51c-.24.24-.71.47,0,.95,0,0,.24-.24.47-.95h-.47ZM314.95,43.11c-.47.24-.47.47,0,.95q.95.95,1.42,0c.47-.24,1.42-.71,1.42-.71.71.47,1.18.71-.95-1.42-.71.24-1.42.47-1.89,1.18ZM315.89,92.57c0,.24-.24.24-.47.47v.47c.24-.24.47-.47.47-.95ZM316.13,99.43v-.47c0-.24,0-.71-.24-.71q-.47,0-.47.24c.24.24.47.47.71.95ZM315.42,98.48v.71c0,.24.47.47.47.95.24-.24.24-.47-.47-1.66ZM315.66,103.22c-.24.24-.24.47.24.47.24.24.47.24.71.24.71-.71,1.66-1.66,2.37-2.37v-.47q-.24,0-.47-.24h-.47c-.95.71-1.66,1.66-2.37,2.37ZM315.66,93.51h.24c.24-.24.24-.47.24-.71l-.47.71ZM319.21,43.35c0-1.89-.71-2.84-2.13-3.08-.24-.24-.47,0-.95,0l.24.24v.24c.24,0,.24.24.24.24,0,.24.71.71.47.95.47.24,1.18.71,2.13,1.42ZM317.08,124.04c0-.24-.24-.47-.24-.47l-.24.24h-.24c0,.24-.24.24-.24.24,0,0,.24,0,.47.24,0,0,.24,0,.47-.24ZM317.08,88.07c.47-.24.47-.47.71-.47l-.24.24q-.24.24-.47.24ZM319.21,92.09h-.24l-.47-.24h-.24c-.71-.24-1.18.24-1.18.95.24.47.47.71,1.18.71s.95-.47.95-1.42ZM318.02,135.16c0-.24-.24-.24-.47-.24l-.24.24.24.24q.24,0,.47-.24ZM318.26,66.54v.47c-.24-.24-.24-.47,0-.47ZM318.73,96.35h-.24c-.47.47-.47,1.42,0,1.66h.24c.71-.47.47-1.42,0-1.66ZM319.21,116.23c-.24-.47-.24-.71-.47-.95h-.24c-.47.24-.47,1.18,0,1.42.24,0,.47-.24.71-.47ZM318.97,121.2v-.47c.24,0,.24-.24.24-.24h-.24l-.24-.47h-.24c-.47.24-.47.95,0,1.42h.24s0-.24.24-.24ZM318.73,84.29s-.24,0-.47.24c0,.24.24.47.24.47,0,0,.24,0,.24-.24h.24l.24-.24s-.24,0-.47-.24ZM411.73,6.91c.24.24.71.47.95.47h.95c.47,0,.71-.47.47-.71-.47-.24-.71-.71-.47-1.42,0,0-.24-.24-.47-.24,0,0-.24,0-.47.24-.24.24,0,.47,0,.47l-.24.24v.47c-.24.24-.47.24-.71.47ZM419.54,164.26h.24l.24-.24s-.24-.24-.47-.24l-.24.24h-.24s0,.24.47.24Z"/>
      <path class="cls-1" d="M644.8,166.87c-.24.24-.24.47-.47.47h-14.91c-1.18,0-2.6.71-3.79-.95-1.18.24-2.37-.71-3.31.71-.24.24-.95,0-1.42.24-1.42.95-2.37-1.89-3.55-.71-1.42.95-2.6.71-4.02.71h-8.52c-.95,0-1.18-.71-1.89-1.42,0-.24.24-.47.47-.47.71,0,1.66-.24,2.6,0,1.42,0,2.13-1.66,3.79-.95.24.24.47-.24.71-.47s.71-.47.71-.71c-.24-1.89,1.66-2.13,1.89-3.31.24-1.18,1.18-1.89.95-2.84,0-1.18-.47-2.37.71-3.31.47-.24.24-.95.24-1.66V10.69s-.24-.24-.47-.24c-.71.47-1.18.95-1.42,1.66-1.42,3.31-3.55,6.63-4.97,10.17-1.18.71-.24,1.89-.71,2.84-.95.71-.71,1.89-1.89,2.37.47,1.42-.95,1.89-1.18,3.08,0,.71-.95,1.66-1.18,2.6-.24,1.18-.47,2.13-1.18,3.31-.24.47,0,1.18-.47,1.66-1.18,1.66-1.66,4.02-2.84,5.68-.47.95-1.18,1.89-1.89,2.6-.47.95-.24,1.89-.71,2.6-.47.95-.47,2.13-.71,2.84-.47.71-.71,1.66-.95,2.37-.47,1.18-.71,2.13-1.66,3.08-.71.47-1.18.95-1.18,2.13-1.18,1.18-1.42,3.31-2.84,4.73.71,1.66-1.42,2.84-.95,4.26-.95,2.37-2.37,4.97-3.79,7.34,0,.24,0,.47-.24.71-.47.95-1.66,1.42-1.42,2.84,0,.71-.95,1.42-.95,2.37,0,1.42-1.66,2.37-.95,3.79-1.18.71-.95,2.37-1.89,2.84.24.95-.47,1.42-.95,2.13-.71.47-.95,1.18-.95,1.66-.24,1.42-.95,2.37-1.42,3.31-.71.95-1.66,1.66-1.42,3.31.24.95-.71,1.42-.95,1.66,0,.24-3.31,8.75-3.55,8.99-1.42,2.13-2.37,4.26-3.31,6.63-.47.47-.47,1.18-.47,1.89,0,.24-1.42,2.6-1.66,2.6-.95.95-1.42,1.89-1.18,3.55l-1.42,3.08c-.95.95-1.89,1.66-1.66,3.08.24.47-.71.95-.71,1.42-.24,1.18-1.42,1.89-.95,3.31-1.18.95-.71,2.37-1.89,3.08.24.95-.47,1.42-1.18,1.89,0,.47-.71.95-.47.95.47,1.42-.71,2.37-1.18,3.55-.47.71-.71,1.89-1.66,2.6-.47.24-.24.71-.24,1.18.24,1.18-.24,2.37-1.18,3.31-.24.24-.24.71-.47,1.18-1.18,1.66-2.13,3.55-2.84,5.21-.24.95-1.42,1.66-.95,3.08.24.71-1.18,1.18-1.18,2.37,0,1.66-1.42,2.84-2.13,4.73,0,.47-.24.71-.71.95-.47.47-1.42.47-1.66-.24-1.18-2.84-2.13-5.21-3.55-7.34,0-2.13-1.66-3.55-2.13-5.2-.24-1.42-2.13-1.89-1.89-3.31-2.37-4.02-4.26-8.52-6.39-12.78-2.13-4.26-4.26-8.52-6.63-12.78-.71-1.42-1.18-2.6-2.13-3.79-.71-.95-1.18-2.37-1.89-3.31-1.66-3.31-3.08-6.63-4.73-9.94-1.18-.71,0-2.13-1.18-3.08-.71-.47-.71-2.13-1.18-2.84-.95-.95-1.18-2.6-2.37-3.31,0-.24-.47-.95-.47-.95,0-2.37-1.42-4.02-2.6-5.68-1.18-1.89-1.89-3.79-3.08-5.92-.95-1.18-1.66-2.84-2.37-4.5-.47-.71-.71-1.89-1.66-2.6-.95-.47-.71-1.66-1.66-2.6-.24-.24.24-1.18,0-1.89-1.42-2.37-2.84-4.97-4.02-7.57-.71-.47-.47-1.66-.95-1.89-.71-.47-.24-1.42-.47-2.13-.24-.71-.47-1.66-.95-1.89-1.18-1.18-5.68-9.7-6.39-11.6-.24-.71-.71-1.42-1.42-2.13-.24-.24-.95-.47-.71-1.18.47-1.18-.71-1.66-.95-2.84-.24-.95-.95-1.89-1.18-2.6-1.18-1.89-2.13-3.79-3.08-5.92-.24-.24-.24-.71-.47-1.18,0-1.18-2.6-4.97-3.55-5.92-.95-1.42-1.42-3.08-2.37-4.73-.24-.47-.71-.95-.47-1.66,0-.71-.24-.95-.71-1.42-1.66-1.42-1.66-3.55-3.08-5.44.47-1.18-.71-1.89-.95-2.84,0-.24-.24-.47-.47-.71-.47-.24-.47-1.42-.95-.71-.71.24-.95.71-1.18,1.42-.24.47-.24.95-.24,1.18v18.46c0,.95,0,1.66.95,2.37.24,0,.24.71,0,.71-1.42,1.66-.71,3.31-.71,4.97-.24,4.26-.24,8.28-.24,12.54,0,1.18-.24,2.37.95,3.31.47.47.47,1.66,0,1.89-.95.71-.95,1.89-.95,2.84v15.85c0,.95-.24,1.89.95,2.6.24,0,.24.95,0,1.18-.71.71-.95,1.42-.95,2.13v19.17c0,.95.24,1.18.95,1.89.24.24.24.71,0,.95-1.42,1.42-.71,3.08-.71,4.73-.24,4.5-.24,8.75-.24,13.25.24.95-.47,2.6.95,3.79.24,0,.24.71,0,.95-.95.24-.95,1.18-.95,2.37v16.33c0,.95-.24,1.66.95,2.37.24.24.24.95.24,1.42,0,1.66.24,3.08-.24,4.73-.24,1.18.95,1.89.95,3.31-.24,1.42.95,1.89,1.66,2.6,1.89,2.37,3.79,3.31,6.15,3.31,1.42.24,2.13,1.42,3.55,1.18.95-.24,2.13,0,3.31,0l.24.24c0,.24-.24.71-.47.71h-9.46c-.95,0-1.18-.95-1.66-.95-1.66,0-3.31-.71-4.5.71-.24.24-.47.24-.95.24h-16.8c-.24,0-.47-.24-.71-.47.24-.24.47-.47.95-.47,1.42-.24,2.6.47,3.79-.71,1.18-.71,2.37,0,3.55-.24.47-.24.95-.24,1.18-.47,1.18-.95,1.66-1.89,2.6-2.84,1.42-.95,1.42-3.31,2.84-4.5q.24-.24.24-.47c0-.95,0-2.37.24-3.55,1.18-.71.47-2.13.47-3.55v-7.81c0-1.18.47-2.37-.71-3.31.24-1.18-.71-2.37.47-3.55.24-.24.24-.71.24-1.18v-17.04c0-.24.24-.71-.24-.95-1.18-1.18-.24-2.6-.47-3.79,1.18-.47.71-2.13.71-3.31v-13.25c0-.95.24-2.13-.47-2.6v-3.08c.71-.71.47-1.89.47-2.6v-15.62c0-.71,0-1.42-.71-2.37-.24-.24-.24-1.42,0-1.66.95-.95.71-2.13.71-3.55,0-3.79.24-7.81,0-11.6,0-1.66.95-4.02-.71-5.44.24-1.66-.71-3.31.47-4.5.24-.47.24-1.18.24-1.89v-15.38c0-.95,0-1.66-.47-2.6-.71-.71-.71-2.37,0-3.31.95-.95.24-2.13.47-3.08-1.18-1.42-.71-2.84-.71-4.26-.24-.95.24-1.89-.24-2.6-.95-.95-.95-2.6-2.13-3.08-.71-.24-1.18-.95-1.66-1.66-1.42-1.42-3.55-2.13-5.21-2.37h-6.63c3.31-.47,6.15-.47,8.99-.71,1.42,0,3.08.71,4.26-.95h3.31c.95,0,1.66,1.42,3.08,1.18.95-.47,2.37-.24,3.55-.24h7.57c.47,0,.71.47.95.71,1.42,3.31,3.08,6.63,4.5,9.7.24.47.71.95,1.18,1.42.71,1.18,1.66,2.37,1.89,4.02,0,.95.71,1.66,1.18,2.6.71,1.89,1.66,3.31,2.37,5.21.47.95,1.18,1.42.95,2.37,0,.24.24.71.24.95,2.6,2.6,3.55,6.39,5.21,9.46,1.18,1.66,2.13,3.79,3.31,5.68,1.18,1.66,2.37,3.31,2.37,5.44.24.24.24.71.47.95,1.66.95,1.89,3.55,3.08,4.97.71,1.18,1.18,2.6,1.89,3.79.47.71-.24,1.89.71,2.84.71.47.95,1.66,1.42,2.6l1.42,2.84c.47.71.95,1.66,1.18,2.6,1.89,2.37,3.55,5.44,4.73,8.28-.47,1.66.95,2.13,1.66,3.08,1.18,2.37,2.13,4.5,3.08,6.63.71,1.89,2.84,6.63,3.79,8.04.47.24.71.71.95,1.18,1.18,1.66.71,3.55,2.37,4.73,1.42,3.08,3.08,6.39,4.73,9.23,1.18,2.37,2.37,4.97,3.55,7.34,1.18.71,0,1.89.95,2.84.71.71,1.18,1.89,1.42,2.84.24.71.95,1.18,1.18,1.66.95.47.47,1.66.95,2.13.71.47.71.71.71,1.42,0,.47.24.95.47,1.42.47.47,1.18,1.18,1.42,1.89.95,1.66,1.89,3.79,2.84,5.68,1.42,2.6,2.13,5.68,4.73,7.81,0,1.42.95,2.13,1.18,3.08,0,.47.71,1.18.95.95.47-.24.95-.71,1.42-1.18.24,0,.24-.47.24-.71-.47-1.18.71-1.66.95-2.6,0-.71-.24-1.18.24-1.89.95-.71,0-2.13,1.18-3.08.71-.47.71-1.66,1.18-2.6s1.18-1.66,1.66-2.6c.24-1.18,2.13-4.97,2.84-5.92s-.24-2.37,1.18-3.08c.24-1.89,2.13-3.31,1.89-5.44,1.18-1.18,1.89-3.08,2.37-4.73.71-2.13,1.66-4.02,2.84-6.15.95-1.89,1.89-3.79,2.84-5.92.71-1.18.95-2.84,1.66-4.26s1.66-2.6,1.42-4.02c1.42-1.89,2.13-4.26,3.31-6.15.71-1.42.95-3.08,2.37-4.26-.24-1.42.47-2.13.95-3.31.71-1.18,1.18-2.13.71-3.31,1.66-.95.71-3.31,2.6-4.26,1.42-2.84,2.37-5.44,4.26-8.05-.71-1.42.95-2.37.71-3.31,0-1.18,1.18-1.89.95-3.08.95-.71.71-2.13,1.89-2.84-.24-.95.47-1.42,1.18-2.13.24,0,.71-.47.71-.71-.47-1.66.95-2.6,1.18-3.79,1.42-.71,0-2.84,1.66-3.55.24-.24,0-1.18,0-1.89,0-.47,0-1.18.47-1.42,1.42-.95,1.66-3.08,2.84-4.73.47-.95.95-2.13,1.89-2.84,0-.24.24-.71.24-.95-.24-1.18,1.42-2.13,1.18-3.79-.24-.71.95-.71.71-1.42,0-1.18,1.42-1.66,1.18-3.08,0-.47.71-1.66.95-2.6.47-.95,1.66-1.66,1.66-2.6s2.13-5.21,2.84-5.92c0-2.84,2.37-4.97,3.31-7.57.95-.95,0-2.6,1.42-3.55-.24-.71.24-.95.71-1.66.47-.47.47-.71.71-1.42,1.18.47,1.42-1.18,2.37-.95.95.24,1.89-.47,2.84.47.24.47.71.47,1.42.47h16.33c.95,0,1.66,0,2.13-.71.47-.24,1.18-.24,1.66-.24.24,0,.47.47.71.47,0,.24-.24.47-.24.47-.95,0-1.42.47-1.89.71-.71.24-1.66,0-2.37.24-.71,0-1.42-.24-1.66.24-.71.95-1.66.47-2.37,1.18-.95,1.18-1.89,2.37-2.84,3.08-.95.71-.95,1.66-1.42,2.37-.95,1.18.24,3.08-.71,4.5-.71.95-.47,2.6-.47,4.02,0,.24.47.47.47.71.24.24.47.95.47.95-1.18,1.42-.95,3.08-.95,4.5v13.01c0,1.66-.47,3.08.95,4.26v2.84c-1.18.71-.95,2.13-.95,3.31v14.43c0,.95,0,1.89.71,2.6v3.08c-.71.47-.71,1.66-.71,2.6v14.2c0,.95,0,1.66.47,2.37.95,1.18.71,2.84,0,4.26-.24.71-.47,1.18-.47,2.13v14.91c0,1.66,1.66,2.6.95,4.26-.24.95.24,1.89-.71,2.6-.24.24-.24.71-.24.95v17.04c0,.71.24,1.18.71,1.66.24.24.24,1.18,0,1.42-.71.47-.71,1.42-.71,2.37v13.49c0,1.18.71,1.89.95,2.84.24,1.18-.47,2.13.47,3.08.71.71.95,1.89,1.42,2.84.71,1.18,3.55,4.5,4.97,4.5h1.66c1.42-.24,2.6.24,3.55.71.95.71,2.37.24,3.79.71ZM458.58,160.01h-.47c-.47.24-.47,1.18,0,1.42h.47c.47-.24.47-.95,0-1.42ZM462.37,5.96c-.47-.47-.95-.71-.95-1.18-.71.47-1.18.95-1.42,1.42,0,0,.24.47.47.47.24.24.47.47.71.71h.71c.24,0,.71-.24.71-.47s0-.71-.24-.95ZM464.26,5.02c-.24,0-.47,0-.71.24.24,0,.24.24.47.24,0,0,.24-.24.24-.47ZM466.86,7.38c0-.24.24-.47.24-.71h-1.18c-.47,0-.47.71-.47.95s.24.71.47.95c0-.24.24-.24.24-.47.24-.24.47-.47.71-.71ZM467.1,10.93c0-.24-.24-.24-.24-.47-.24,0-.24.24-.47.24.24,0,.24.24.71.24ZM468.99,7.14c0-.24,0-.47-.24-.47,0,0-.24,0-.24.24s.24.24.47.24ZM471.36,9.28s.47-.24.71-.24v-1.42c0-.71-.24-.95-.71-.95s-1.18,0-1.18.24c-.24.47,0,.95.24,1.42.24.24.47.71.95.95ZM473.72,11.64c-.24-.47-.95-.95-1.42-1.18-.24,0-1.18.24-1.18.24-.47,1.66,0,2.6,1.66,2.37,0,0,.24.24.47,0,.24,0,.95-.95.47-1.42ZM476.56,29.39c-.47-.24-.95-.47-1.42-.24-.47,0-.47.95-.24,1.42,0,.24.24.24.47.47.24-.24.47-.71.95-.95,0-.24,0-.47.24-.71ZM478.46,27.5v-.47h-.47c-.47.71-.47.95-.47,1.18s.24.47.47.71c0-.24.47-.24.47-.47v-.95ZM479.4,25.37v.95c-.47,0-.95.24-.95.71.71,0,.95,0,.95-.71.24,0,.71-.24.71-.24.24-.71,0-.71-.71-.71ZM479.4,25.37v-.47c-.24-.24-.47-.71-.71-.24-.24.24.24.47.71.71ZM478.93,25.37h.47-.47ZM482.24,33.65c-.24-.24-.24-.47-.47-.71,0,0-.24.24-.47.24-.24.24-.71.95-.71,1.18.24,0,.47.24.71.24.47.24.95,0,.95-.95ZM483.19,31.04c.24.24.24.47.71.47,0-.24-.24-.47-.24-.47h-.47ZM486.97,42.4c0-.71-1.18-2.13-1.42-2.13s-.47.24-.47.47c.24,1.42-.95,1.89-1.66,2.6,0,0,0,.24.24.47,0,.24.24.24.47,0,.95-.47,1.66-.47,2.6-.95,0-.24,0-.47.24-.47ZM484.14,47.37c-.24,0-.47-.24-.71-.24,0,.24.24.24.71.24ZM485.79,51.39c0,.24-.24,0-.24.24-.47.24-.47,1.18,0,1.42,0,.24.24.24.24,0,.24-.24.24-1.18,0-1.66ZM486.74,48.79c0-.47,0-.71-.24-1.42-.47.71-.47.95-.47,1.42,0,.24.24.47.47.71,0-.24.47-.47.24-.71ZM491.71,51.87c-.95-.47-1.18-1.42-2.13-1.18-.24,0-.47.24-.71.47.71.24.95,1.42,1.89,1.18.24,0,.47-.24.95-.47ZM496.91,62.99c-.95-1.42-1.18-1.42-2.37,0,0,.47.24.71.47.71h1.89c.47-.24.47-.47,0-.71ZM496.44,58.73c.47,0,.71-.24.71-.24q-.24-.24-.47-.47c0,.24-.24.47-.24.71ZM503.54,69.61c-.47-.47-1.89-.47-2.37,0,.47.47.95.47,1.18.71.47-.24.71-.24,1.18-.71ZM503.54,83.58c-.47,0-.47.24-.71.47h.47s.24-.24.24-.47ZM505.67,74.35c-.24-.24-.47-.24-.95-.47-.24.24-.71.24-.95.47-.24.24-.24.71,0,.95.24.47.71.47.95,0,.24-.24.47-.47.95-.95ZM514.19,97.54c-.47,0-.95-.24-1.18-.24-1.66,0-2.13.47-1.89,2.37.24.24.47.24.71.24s.24-.24.47-.24c.24-.47.71-.95,1.18-1.42.24-.24.47-.47.71-.71ZM511.11,93.04c.24,0,.47.24.71.24s.24-.24.24-.24c0-.24-.24-.24-.47-.47-.24,0-.24.24-.47.47ZM515.84,99.19v-.47c-.24-.24-.47-.71-.95,0,0,0,.24,0,.95.47ZM515.84,106.06c-.24,0-.47-.24-.71-.24,0,.47.24.47.47.71,0-.24.24-.24.24-.47ZM516.79,99.67c-.24,0-.24-.24-.47-.47h-.47c.24.24.47.47.95.47ZM515.84,99.43c.24.47.47.47.71.71,0,0,0-.24-.71-.71ZM520.58,119.54c-.24-.24-.24-.47-.47-.71-.24.24-.47.47-.47.71s0,.47.24.95c.47-.24.71-.47.71-.95ZM526.25,124.99v-.47c0-.24-.24-.47-.24-.95-.24.24-.47.24-.71.47-.95.71-1.66,1.42-2.37,2.13s0,.95.24,1.42c.24.24.47.95.95.24.71-.71,1.18-1.18,1.89-1.89.24-.24.24-.71.24-.95ZM523.41,120.02c0,.47.24.47.95.47s.95-.24.95-1.18c-.24-.24-.71-.47-.95-.47-.71-.24-1.18.47-.95,1.18ZM525.07,129.01h-.47c-.47.47-.47,1.42,0,1.66,0,.24.24,0,.47,0,.47-.24.47-1.18,0-1.66ZM526.49,132.79s0,.24-.24.47c.24,0,.24.24.47.24,0-.47,0-.71-.24-.71ZM527.2,118.36c0,.24.24.24.24.47.24-.24.47-.47.47-.71,0,0-.24-.24-.47-.24,0,0-.24.24-.24.47ZM527.91,135.16c-.24,0-.24-.24-.71-.24,0,.24.24.47.24.71q.24-.24.47-.47ZM528.62,123.56c-.24,0-.47.24-.47.24.24.24.24.47.47.71v-.95ZM531.46,138.47c-.24,0-.71.24-.71.47,0,.95-.24,1.89.95,2.6.24.24.47.24.71.24.24-.24.24-.47.24-.71.47-1.18-.47-1.89-1.18-2.6ZM534.54,148.41c0-.24-.24-.47-.24-.71l-.47.47c.24.24.24.47.47.47l.24-.24ZM537.85,151.25c.24,0,.47.24,1.18.24h1.66c.47,0,.71,0,.47-.47-.24-.24-.47-.47-.71-.47-.95,0-1.89.24-2.37-.71,0-.24-.47,0-.47.24s0,.95.24,1.18ZM539.27,158.35h-.95c.24.24.24.47.24.47.24-.24.47-.24.71-.47ZM542.82,151.96c-.24-.24-.71-.47-1.18-.47s-.71,0-.47.24c.47.24,1.18.24,1.66.24ZM541.4,146.52c.24,0,.47-.24.47-.47-.24,0-.47.24-.47.47ZM542.82,161.42q-.24-.24-.47-.24s.24.24.47.24ZM598.9,167.1c-.24,0-.47-.24-.47-.47.47,0,.47.24.47.47ZM621.38,163.08c0-.24-.71-.71-.95-1.18-.47-.24-.47-.47-.47,0-.24.47-.24,1.18-.47,1.42-.71.71-.71-.71-1.42-.71-.95.24-1.18-.71-1.89-.95h-.71c-.24.24-.47.47-.47.47.47,1.18,4.02,2.84,4.97,2.37.47-.24.95-.95,1.42-1.42ZM616.88,132.08c0,.47.24.71.95.71s.95-.24.95-1.42c-.24,0-.71-.47-.95-.47-.71,0-1.18.47-.95,1.18ZM616.88,142.49c.24.47.71.47.95.71.71-.24,1.18-.24,1.66-.24,0-.24.24-.47.24-.95.24-.47-.24-.71-.71-.95-.47,0-2.37,1.18-2.13,1.42ZM617.83,5.73h-.47.47v.95c.24,0,.71-.24.71-.24.24-.47-.24-.71-.71-.71v-.47c-.24-.24-.47-.71-.95,0,0,0,.24.24.95.47ZM616.88,124.75c.47.47.71.71.95.95s.47.24.71.24c0-.24.24-.95.24-1.18-.24,0-.71-.24-1.18-.47-.24.47-.47.47-.71.47ZM617.12,7.38c.24,0,.47-.24.71-.71h-.47c-.24,0-.71.24-.24.71ZM618.77,9.04c-.47.47-1.18.71-.95,1.42,0,.47,1.89,2.13,2.13,2.37.47.71.47-.24.47-.47.24-.47.47-1.18.95-1.66,0,0-1.66-1.42-1.66-1.66-.47-.71-.71-.47-.95,0ZM618.77,136.82c-.24.47-.71.71-.95,1.18-.24.24.47,1.42,1.66,1.42.47-.71,1.18-1.18.95-2.13,0-.47,0-1.18.71-1.89.71-.71.95-.71,1.42.24,0,.71.24.95.71.95s1.66-.95,1.66-1.18.24-.47,0-.47c-.47-.71-.95-1.66-1.66-1.89-.71-.24-1.89.24-2.37.71-.71.71-1.18.71-1.89,1.18-.71.47,0,1.42-.24,1.89ZM618.77,69.61v-2.6c0-.24-.24-.47-.24-.47-.24.24-.71.24-.71.47v2.6c0,.24.24.47.24.47.24-.24.71-.24.71-.47ZM618.3,122.38c-.24.24-.47.24-.24.47,0,.24,0,.47.24.71v-1.18ZM618.54,26.55c-.24,0-.47.24-.47.47.24,0,.47,0,.47-.47ZM619.25,40.27c-.47.24-1.18.95-1.18,1.66.71.24.95.24,2.37,1.18v1.18c0,.24.47.47.47.47.24-.24.71-.47.95-.71.24-.24.95-.71.24-.95-.24,0-.24-.24-.47-.24-.24-.24-.47-.95-1.18-.71,0,0,0,.71-1.18,0h.47c.24-.24.95.47.71-.47,0-.95,0-1.42-1.18-1.42ZM619.48,90.67c.47.24,1.18-.24.95-.95,0-.24-.24-.71-.47-.95-.71,0-1.18.24-1.18.95s.24.95.71.95ZM625.87,157.88c.47-.24.47-.95,0-1.42l-1.42-1.42c-.47-.71-.95-.95-1.89-.95-.47.24-1.42,0-1.66.47-.47.24-.24,1.18-.47,1.66,0,.95-.47.95-1.18.95,0,0-.47.24-.24.47.95.95,1.66,2.13,2.84,3.08.47,0,.71-.24.71-.24-.24-.95,0-1.66-.47-2.37q-.71-1.18.24-2.13c.71-.95.95-.95,1.18,0,0,1.42,1.18,1.89,2.37,1.89ZM619.01,107.95c0,.24.24.47.24.47,0,0,.24,0,.24-.24s-.24-.24-.47-.24ZM621.61,149.59h2.37v-.47c-.71-.47-1.42-.24-1.89-.47-.95-.47-.47-1.42-.71-2.13v-1.42s-.24-.24-.47-.24c-.47.95-.71,1.42-.95,1.89-.95,2.37-.24,3.08,1.66,2.84ZM619.96,17.79h.24c.47-.47.47-1.42,0-1.66h-.24c-.47.24-.47,1.18,0,1.66ZM620.43,93.75c-.24,0-.24-.24-.47-.24,0,.24-.24.47-.24.71,0,.95.24,1.42,1.18,1.18.24,0,.24-.24.47-.24,0-.71-.71-.95-.95-1.42ZM619.96,57.07c0,.24-.47.47,0,.95,0,0,.24-.24.47-.95h-.47ZM622.09,20.87c-.71,0-1.89,1.42-1.66,2.13,0,0,.24.24.47.24.71,0,1.66-1.18,1.66-2.13q-.24-.24-.47-.24ZM621.14,55.42h-.47c0,.24,0,.71-.24,1.18v.47c.24-.47.47-1.18.71-1.66ZM621.38,66.06v-.95c0-.47.24-.71,0-.95,0-.24-.24-.47-.47-.47,0,0-.47.24-.47.47,0,.71.24,1.42.24,1.89,0,.24.24.47.24.47.24,0,.47-.24.47-.47ZM621.38,138.95c-.24-.24-.24-.47-.47-.47,0-.24-.24-.24-.47,0q.24.47.47.71c.24,0,.24-.24.47-.24ZM622.56,51.39c0-.47-.24-.71-.95-.71-.24,0-.95.24-.95.47-.24.24,0,.71.24.95.24.47.47.71.95.95,0,.24.47,0,.71-.24v-1.42ZM620.67,57.07c.47,0,.47-.24.71-.24.24-.71.24-1.42-.71.24ZM622.32,92.57c.47-.24.71-.24.95-.47-.47-.47-1.42-.47-1.66,0,0,0,.47.24.71.47ZM621.61,124.75c.24,0,.24.47.47.47s.47,0,1.42.47c-.24.47-.95.71-.95.95,0,.47.71.71.95,1.18.24,0,.47.24.47,0,.47-.24.71-.71-.47-2.13.47.24.95.47,1.66.95-.47-.47-.95-.95-1.18-1.42-.47-.24-.47,0-.47.47q-.24-.24-.47-.47c.47.24.71,0,.47-.47-.71-.24-.95-.24-1.18-.24s-.47.24-.71.24ZM623.98,61.81c-.71.47-.95.95-1.42,1.42.24.24.47.47.47.47.24.24.47.47.71.71h.71c.24,0,.71-.24.71-.47s0-.71-.24-.95c-.24-.47-.71-.95-.95-1.18ZM624.45,146.99c.47-.24.95-.71.71-1.42,0-.24,0-.47-.24-.47-.71-.24-1.42-.24-1.89-.95-.24.24-.47.47-.47.71.24.47.47,1.42.95,2.13.24.95.47.95.95,0ZM624.22,85.23c0-.47-.24-.71-.47-.95-.47.24-.47,1.42,0,1.66.24,0,.24-.47.47-.71ZM624.93,120.02c-.47-.24-.95-.24-1.18,0s-.24.47-.24.95c0,.24.47.47.47.47.47-.47.71-.95.95-1.42ZM623.98,162.37c0-.24,0-.47-.24-.47,0,.24,0,.47.24.47ZM626.11,142.49c.24-.95-.24-1.42-.95-1.42-.47,0-.95.24-.95.71-.24.95.24,1.42.95,1.18.47,0,.71-.24.95-.47ZM624.93,116.94c-.24,0-.47.24-.71.24,0,.24.24.47.24.47.24,0,.47-.24.47-.71ZM624.45,14.48c0,.24.24.47.24.47q.24,0,.24-.24t-.47-.24ZM625.16,24.18c-.24.24-.71.71-.71.71.24.71,1.18.71,1.66,0-.24-.24-.71-.47-.95-.71ZM624.45,40.98c.24,0,.47-.24.71-.24,0-.24-.24-.24-.24-.47-.24.24-.47.24-.47.71ZM624.69,48.55c0,.24-.24.47-.24.71s.24.24.24.24c.24,0,.24-.24.24-.47s0-.24-.24-.47ZM624.69,138.24v1.18c.24-.24.24-.47.24-.71,0,0,0-.24-.24-.47ZM625.64,10.22h.24c.47-.24.47-1.18,0-1.66h-.24c-.71.24-.71,1.42,0,1.66ZM627.53,160.71c-.47-.47-.95-.95-1.42-1.18,0-.24-.47-.24-.47-.47-.24.24-.24.71-.47.95,0,.95.24,1.42.95,2.13.71.47,1.18.71,1.66.47.47-.47.24-1.18-.24-1.89ZM625.4,18.98c0,.24.24.47.24.71q.24-.24.47-.47-.24-.24-.71-.24ZM627.06,164.03c0-.24-.24-.24-.47-.47,0,.24-.24.47-.24.71q.24.24.24.47c.24-.24.47-.47.47-.71Z"/>
      <path class="cls-1" d="M796.72,131.14c-.24.47-.47.95-.71,1.42-.24.71,0,1.42,0,2.37v.47c-.24,1.18.47,2.37-.71,3.31-.47.47-.24,1.66-.24,2.13-.47,1.89.95,4.02-.95,5.44v2.84c-.24,1.66.47,3.55-.71,5.21-.95,1.66,0,3.31-.47,5.2-.24.47-.71.95-.71,1.66,0,2.13.24,4.02-.24,6.15h-132.98s-.24-.24-.47-.47l.24-.47h3.55c.95-.24,2.6.47,3.55-.24.71-.95,1.89-.71,3.08-.71.47,0,.71-.24,1.18-.47.47-.95,1.18-1.89,2.13-2.37,1.18-.95,1.42-1.89,1.42-3.31-.24-.95-.47-1.89.71-2.37.24-.24,0-.95.24-1.42,0-2.37-.71-4.5.71-6.63.24-.47,0-1.18,0-1.89v-8.99c0-.95.24-2.13-.71-2.84v-2.6c1.18-1.18.71-3.08.71-4.26v-12.3c0-1.42.71-3.31-.71-4.26,0-1.18-.47-2.6.47-3.31.24-.24.24-.95.24-1.42v-16.33c0-.95-.24-1.66-.71-2.13-.24-.47-.24-1.42,0-1.66.95-1.66.71-3.08.71-4.73v-14.43c0-.95,0-1.89-.71-2.6-.24-.24-.24-.71,0-.95,1.42-1.42.47-3.55.71-5.21v-13.96c0-1.18.24-2.37-.71-3.31-.47-.24-.24-1.66,0-1.89.95-.71.71-1.89.71-2.84v-12.3c-.24-2.13.95-4.5-.71-6.39v-4.26c0-.95-.24-1.66-.24-2.37-1.66-.95,0-2.84-1.66-3.55,0-1.42-1.42-2.6-2.37-3.08-1.18-.71-2.37-1.66-4.02-1.18-1.18.24-2.13-1.42-3.79-1.18-.95.47-2.37.24-3.55,0h-.47c.24-.24.24-.71.47-.71h10.41c.47,0,.95.24.95.47,1.18.71,2.6.24,3.79.24.47-.95,1.66-.71,2.84-.71h12.54c1.66.24,3.79-.47,5.21.71.24.24,1.18.24,1.42,0,.95-.71,2.37-.71,3.31-.71h87.55c.24.24.47.47.47.71.24.71.24,1.89,0,2.84-.47,1.66.95,3.08.95,4.73v4.97c1.66,2.13.47,4.5.95,6.86,0,.95-.47,1.89.95,2.84,0,1.42.24,3.08,0,4.5-.47,1.66.95,2.37.95,3.79v4.73c0,.24-.24.47-.24.47-.24-.24-.71-.24-.71-.47v-1.89c0-.71.24-1.66-.24-1.66-1.42-.95-.47-2.37-1.18-3.31-.47-.95-1.42-2.13-1.18-3.31,0-1.18-1.66-1.89-1.18-3.31.24-.95-1.42-1.42-.95-2.37-1.42-1.89-1.89-3.79-3.08-5.68-.71-1.18-.95-2.37-2.37-3.31-.95-.95-1.89-2.37-3.31-3.31-.71-.95-1.89-1.66-3.08-2.37-1.42-.71-2.6-2.13-4.5-1.66-1.42.47-2.37-.95-3.79-.95h-7.81c-.47,0-.95-.47-1.18-.71-.95-.47-2.37-.47-3.55.24-.47.24-.95.47-1.42.47h-16.33c-.95,0-1.42-.47-2.37-.71-.47-.24-.95-.24-1.42-.24h-1.42c-.71,1.18-1.66.95-2.6.95h-13.96c-1.18,0-2.37.24-2.84-.95-1.18,0-2.6-.47-3.55.47-.24.24-.47.47-.71.47h-10.41c-2.37,0-4.97-.47-7.34.24v1.89l-.24,3.55v59.39c0,1.18,1.18,2.13,2.13,2.13,1.18-.24,2.84.71,4.02-.47.24-.47.71-.24,1.18-.24h8.76c.95,0,1.66,0,2.13.47.24.24.71.24,1.18,0q2.37-.71,4.02,0h.47l.71.24h.24c1.66-.24,3.31.71,4.73-.71.24-.24.71,0,.95,0h10.18c.71,0,1.18.24,1.66.47.71.47.95.24,1.42,0,.95-.95,2.13-.95,2.84-.47,1.66,1.42,3.79.47,5.44.47.71-.95,1.66-.47,2.6-.47h10.17c1.18,0,2.37.24,2.84-.95h.71l1.66-.24h.71c.71-1.18,2.13-.71,2.84-1.89l1.42-3.31c-.71-1.42,1.18-2.84.71-4.73v-4.73h.47l.47.24c0,1.66-.24,3.08,0,4.26.24,2.6-.95,4.97.95,7.34v10.65c-1.42,1.18-.95,2.6-.95,4.26v4.73c0,.47-.47.71-.47.95-.24-.24-.47-.47-.47-.71v-4.26c0-1.42-.47-2.37-1.18-3.08-.95-1.42-2.37-2.37-3.08-3.55-.71-.47-2.13-.47-2.6-1.18,0-.24-.47-.24-.71-.24-1.66.71-2.84-.95-4.5-.95h-62.47c-.95,0-1.18.24-1.18,1.18v88.73c0,.47,1.42,1.66,1.89,1.66,1.66-.24,3.79.95,5.2-.71.24-.24.95,0,1.42,0,2.84,0,5.92,0,8.99-.24.71,0,1.18.24,1.42.71.24.24.95,0,1.42.24,1.18.24,2.37-2.13,3.31-.24,1.42,0,2.6.24,3.79.24.47,0,4.5-.71,4.73-.95,1.18-.71,1.42,1.66,2.84.47.47-.95,1.89-.24,3.08-.24s2.6-.71,3.79.71c.71-.24,1.42.24,1.89-.24.71-.71,1.89-.95,2.37-.47,1.66,1.18,3.79.47,5.44.71h5.68c2.13-1.66,4.26-.47,6.15-.71.95-.24,1.89-.24,2.6.47,0,.24.95.24,1.18,0,.47-.95,1.66-.71,2.6-.47.47,0,.71.71,1.42.71,1.89,0,4.02,0,5.92-.24,1.18-1.18,2.6-.47,4.02-.47,1.18,0,1.89-.71,2.84-.95.95-.47,2.37,0,3.31-.24s1.89-1.18,2.84-1.89q3.08-1.42,5.44-4.26c.47-.47,1.18-1.42,2.13-2.13.71-.71.71-2.13,1.66-2.6.95-.71.95-2.6,2.37-3.55l.24-.24v-.24c-.24-.95.47-1.66.95-2.6l.71-1.66c.47-1.66,1.18-4.26,1.42-5.92l.47-.71c.47-1.18-.24-2.37.71-3.31.95-.71.24-1.66.47-2.6,0-.71.71-.95.95-1.42s.47-.47.47-.24c.24.24.24.71.24.95ZM674.86,5.49l.24-.24v-.24c-.47,0-.47.24-.47.47h.24ZM677.22,8.09c.71-.95,1.42-.47,2.13-.71.24,0,.47-.24.71-.47-.95-.71-1.42-1.18-1.89-1.89-.47-.24-.71-.47-.71,0,0,1.18-.95,1.66-1.18,2.37,0,.24.24.47.24.95.24-.24.47-.24.71-.24ZM677.93,14.95h1.18c.24,0,.71,0,.95-.24.47-.71,1.18-.71,1.89,0,.47.24.71.47.95.71.47.71.71,0,.95-.24.47,0,.95,0,1.42-.24,0,0,.24-.24.24-.47,0,0-.24-.24-.47-.24-1.66-.71-1.66-.95-.71-2.13.24-.47.71-.71.95-.95q.47-.47,0-.47c-.71-.71-.47-1.42-.47-2.37,0,0,0-.24-.47-.47l-.24-.24c-.71-.24-1.18-.24-1.18-.71,0-.24.47-.24.71-.24.71,0,1.18,0,1.89-.24.24,0-.95-1.42-1.42-1.66h-.95c-.47.71-1.18,1.18-1.18,2.13q0,2.84-.95,4.26c-.71,0-.95.24-.95.95-.95,0-.95.71-1.18,1.42,0,.24-.24.95-.47.24l-.24-.24h-.24c-.47,0-.71.24-.71.47,0,.71.24.95.71.95ZM677.22,42.4c0,.24.47.71.47.71h1.89l.24-.71c-.95-.47-.47-1.42-1.18-1.89-.95-1.18,0-1.18.71-1.18.47,0,.95-.95.47-1.42-.24-.47-.71-.95-1.18-1.42h-.95c-.24.24-.47.47-.47.71v5.21ZM679.12,108.42c-.24,0-.24-.24-.47-.71,0,.24-.24.24-.71.71h-.24c0,.24-.24.24-.24.24,0,.47.24.71.47.71.71,0,.95-.24,1.18-.95ZM685.5,75.29l-.24-.24h-.24c0-.24-.24-.24-.24-.24q.47-1.18,0-2.6c-.24,0,0-.24,0-.47-.24-.95-.71-.47-1.18,0-.24,0-.95-.24-1.18-.71q-.47-.24-.24-.71c.47-.71,1.42-.95,1.42-2.13v-.47h-.71c-.24,0-.24.24-.47.47q-.95.95-1.42.71c0-.24-.24-.24-.24-.47l-.47-.71s-.24-.24-.24-.71l-.24-.71c0-.47-.71-.71-.95-.71s-.47.24-.47.47c-.24.95-.24,1.66-.24,2.6,1.42.95,1.66,2.84,2.37,4.26.24.47.71,1.18,1.42.95-.24.47-.47.95-.71,1.18q-.47.47-1.66,0c-.24,0-.47-.24-.95-.24,0,.24-.24.47-.47.47q.24.24.47.47s.24.47.47.95c-.71-.24-.95.47-.95,1.18.24.47.47.71.95.71h1.42c.24,0,.47.47.47.71,0,.71-1.18,1.89-1.66,1.89l-.24-.24c-.47-.71-.71-.71-1.42-.47-.47.24,0,1.42.95,1.66.24.24.95,0,1.66.24.47,0,.71.24.71.95-1.18.24-1.66.71-1.89,1.66-.95,0-.95.71-.95,1.42.24.24.47.47.47.71h.47q.47,0,.95,1.18c.47,1.18,2.37,1.89,3.31,1.18.24,0,.24-.47.24-.71s0-.47.47-.71c1.42,0,1.89-.71,1.66-1.66q-.24,0-1.42.95c.24-.24.47-.71.95-1.42-.47.71-1.18,1.18-1.66,1.66v.47h-.24c-.71-1.18-1.18-2.37-2.13-3.31-.24-.24-.24-.95-.24-1.42.71.47,1.18-1.89,1.89-.24.24,0,.47.24.47,0,.71-.47,1.42-1.18,2.13-1.89.47-.71-.24-.71-.71-.95-.47,0-.95-.24-1.18-.24-.24-.24-.71-.95-.71-1.18q.24-.24.47-.24l.71-.71.24-.24c1.18,1.42,1.18.71,1.42-.47.47-1.42.71-1.42-.24-1.89ZM685.74,60.86c-.47,0-.95-.24-.95-.71-.24-.47-.24-.71-.71-1.18-.47-.71-.47-1.42.24-1.89,0-.24.24-.24.24-.24l.47-.71.24-.24c.71-.47,0-.47-.24-.71-.47-.24-.47-.47,0-.71.24-.24.95-.71.24-.95-.24-.24-.71-.24-.95-.24-.95.71-1.66,1.66-2.13,2.13-.71.95-.95,0-1.42,0h-2.13c-.24,0-.71,1.89-.47,2.13.95.71.95,1.89.71,2.84-.24,1.18,1.66,1.66,1.18,2.84.71.47.95,1.42,1.89,1.42l-.24.47c-.24.47-.47.71-.71.95.47,0,.71.24,1.18.47.71,0,1.66,0,2.6,1.66,0,.24-.24.24,0,.47v.24l.24.71v.47q.24-.24.47-.24l.71-.71.24-.24c.24-.24.24-.95,0-1.18,0-.24-1.42-1.42-1.66-1.42v.24s0-.24.24-.47l.47-1.18c0-.24.24-.24.24-.47,0-.71.47-1.42.95-2.37,0-.47,0-1.42-.95-1.18ZM679.12,45l.24-.24c.47-.24.71-.24.71-.24,0-.24-.24-.47-.71-.47-.24,0-.24-.24-.47,0-.24,0-.47.24-.71.47.24,0,.47.24.95.47ZM678.88,90.67c-.24.24-.47.24-.47.47-.24.47-.24.95-.24.95v1.66c.24.24.47.47.47.47l.24-.24c.47-.95.95-1.89,1.18-2.6,0-.24-.47-.71-1.18-.71ZM678.88,99.67l-.24-.24s-.24.24-.47.24q.24.24.47.24s.24,0,.24-.24ZM678.4,28.68c0,.24.24.47.47.24,1.18-.24,1.89-.95,2.13-1.89-.24-.24-.47-.47-.47-.71-.47.71-1.66.71-2.13,1.18-.24.24,0,.71,0,1.18ZM678.64,52.34v.24l-.24.24c0,.24.24.24.47.47,1.18.24,2.13,0,2.6-.95.24-.47.24-.95.47-.95.24-.47.47-.71.95-.71.71,0,1.42-.24,2.13.71,0,0,.47-.24.71-.24v-.47c-.47-.71-.71-1.42-.95-2.13.24,0,.71,0,.71-.24,0-.71-.24-.71-.71-.71.24-.24.24-.47.47-.95.47-.24.47-.47,0-.71-.71-.24-1.42,0-1.66.95v.71c-.95,0-.71.71-.95,1.18,0,.47,0,1.18-.71.47-.47-.71-.95-.71-.95.24-.24,1.66-.71.71-1.42.24-.24-.24-.95-.24-.95,0-.71.71,0,.71,0,1.18.47.47.47.95,0,1.42ZM678.88,21.11c-.24-.24-.24-.71-.47,0,0,0,.24.24.47.47.24,0,.24-.24,0-.47ZM678.4,33.41c.24.24.47.24.71.24l.47.24c.47,0,.47-.24.47-.71-.24-.24-.24-.71-.24-1.18-.47,0-1.18.47-1.18.95l-.24.47ZM678.4,72.45l.24.24v.24s0-.24.24-.47c-.24,0-.24-.24-.24-.47,0,0-.24.24-.24.47ZM679.12,105.82c-.24.47.24.95.95.71.24,0,.71,0,.71-.24.24-.47.24-.95.24-.95v-1.66c0-.24-.24-.47-.47-.71-.24.24-.47.47-.47.71-.47.71-.95,1.42-.95,2.13ZM685.27,20.4c.95-.47.24-1.42.47-2.13l-.71-.24c-.47.47-.95.95-1.42,1.18-.47.71-.71,0-.95-.24h-.71c-.47.71-1.42,1.66-.95,2.84,0,.24-.24.47-.24.47-.24.47-.47.24-.71,0-.24-.24-.47-.47-.95-.47q0,1.18,1.66,1.66c.47,0,1.18.24,1.18.47-.47,1.18.95,1.42.71,2.37,0,1.18,1.18,2.13,1.18,3.31,0,.47.24.47.71.24.95-.95,1.66-2.84.95-4.26-.24-.24-.47-.24-.95-.24-1.89-1.18-1.89-1.42-.95-3.31-.24-1.42.95-1.18,1.66-1.66ZM679.35,118.36l.24.47c.47,0,.95-.24,1.89-.47-.95-.24-1.42-.47-1.66-.47s-.47.24-.47.47ZM681.01,34.36c-.24-.24-.47-.47-.47-.71-.24,0-.47,0-.47.24.24.24.47.24.95.47ZM680.06,33.88c0,.47.24.71.47.71,0,0,.24,0-.47-.71ZM682.19,18.03c.24-.24.95-.47.24-.95-.24-.24-.47-.24-.71-.24-.47.24-.95.71-1.42,1.18v.24c0,.47.24.47,1.18.47.24,0,.47-.24.71-.71ZM681.01,39.33c-.24,0,0,.47,1.66,1.89,0-.47-.24-.71-.71-.95.24-.24.71.47.71-.47.24-.47,1.66-.71.24-1.66-.24,0,0-.24.24-.71.47-1.18,1.89-2.13,1.66-3.79-.24-.47-.47-.95-.95-.95-.71,0-.95.24-1.18.71v2.13c0,1.42-.95.71-1.66,1.42,1.66.95.24,1.66,0,2.37ZM682.67,128.77c0-.24-.24-.47-.47-.47-.95,0-1.42.24-1.18.95,0,.47.24.71.95.71s.95-.47.71-1.18ZM681.01,96.59c0,.47,0,.95.71,1.66h.24v-1.42c0-.24-.47-.47-.47-.47-.24,0-.47.24-.47.24ZM681.48,109.37c-.24.47-.47.71-.47,1.18,0,.24.24.47.71.47v-.24l.24-.24c0-.47-.24-.71-.47-1.18ZM681.48,93.51c-.24.24-.71.47,0,.95,0,0,.24-.24.47-.95h-.47ZM681.48,43.11c-.47.24-.47.47,0,.95q.95.95,1.42,0c.47-.24,1.42-.71,1.42-.71.71.47,1.18.71-.95-1.42-.71.24-1.42.47-1.89,1.18ZM682.43,92.57c0,.24-.24.24-.47.47v.47c.24-.24.47-.47.47-.95ZM682.67,99.43v-.47c0-.24,0-.71-.24-.71q-.47,0-.47.24c.24.24.47.47.71.95ZM681.95,98.48v.71c0,.24.47.47.47.95.24-.24.24-.47-.47-1.66ZM682.19,103.22c-.24.24-.24.47.24.47.24.24.47.24.71.24.71-.71,1.66-1.66,2.37-2.37v-.47q-.24,0-.47-.24h-.47c-.95.71-1.66,1.66-2.37,2.37ZM682.19,93.51h.24c.24-.24.24-.47.24-.71l-.47.71ZM685.74,43.35c0-1.89-.71-2.84-2.13-3.08-.24-.24-.47,0-.95,0l.24.24v.24c.24,0,.24.24.24.24,0,.24.71.71.47.95.47.24,1.18.71,2.13,1.42ZM683.61,124.04c0-.24-.24-.47-.24-.47l-.24.24h-.24c0,.24-.24.24-.24.24,0,0,.24,0,.47.24,0,0,.24,0,.47-.24ZM683.61,88.07c.47-.24.47-.47.71-.47l-.24.24q-.24.24-.47.24ZM685.74,92.09h-.24l-.47-.24h-.24c-.71-.24-1.18.24-1.18.95.24.47.47.71,1.18.71s.95-.47.95-1.42ZM684.56,135.16c0-.24-.24-.24-.47-.24l-.24.24.24.24q.24,0,.47-.24ZM684.79,66.54v.47c-.24-.24-.24-.47,0-.47ZM685.27,96.35h-.24c-.47.47-.47,1.42,0,1.66h.24c.71-.47.47-1.42,0-1.66ZM685.74,116.23c-.24-.47-.24-.71-.47-.95h-.24c-.47.24-.47,1.18,0,1.42.24,0,.47-.24.71-.47ZM685.5,121.2v-.47c.24,0,.24-.24.24-.24h-.24l-.24-.47h-.24c-.47.24-.47.95,0,1.42h.24s0-.24.24-.24ZM685.27,84.29s-.24,0-.47.24c0,.24.24.47.24.47,0,0,.24,0,.24-.24h.24l.24-.24s-.24,0-.47-.24ZM778.26,6.91c.24.24.71.47.95.47h.95c.47,0,.71-.47.47-.71-.47-.24-.71-.71-.47-1.42,0,0-.24-.24-.47-.24,0,0-.24,0-.47.24s0,.47,0,.47l-.24.24v.47c-.24.24-.47.24-.71.47ZM786.07,164.26h.24l.24-.24s-.24-.24-.47-.24l-.24.24h-.24s0,.24.47.24Z"/>
      <path class="cls-1" d="M976.55,1.47c0,.24-.24.47-.47.47-1.18-.24-1.89.47-2.84.71-.95.47-1.89,0-2.84.24-.95.24-1.89.47-2.84,1.18-1.18.95-1.89,2.13-2.84,2.84.24,1.18-.95,1.66-1.18,2.6-.71,1.89-.95,1.66-.95,3.31s.47,3.31-.71,4.73v145.29c0,1.42,0,2.6-.24,4.02,0,.24,0,.47-.24.47s-.71.24-.95,0l-.24-.24-.71-.47c-2.37-2.6-4.97-5.21-7.34-7.34-1.66-1.66-2.13-3.55-3.55-4.73-1.66-1.18-2.84-2.37-4.02-4.02-.47-.71-4.5-6.15-4.73-6.39-1.18-.95-2.13-1.89-2.84-3.08-1.18-2.6-3.55-4.26-5.44-6.15-.71-.71-1.66-1.42-1.89-2.37s-1.18-1.66-1.89-2.6c-.95-.71-1.66-1.18-1.89-2.37,0-.47-.47-.71-.71-1.18-1.89-1.66-3.79-3.08-4.97-4.97s-2.84-3.55-4.5-4.97c-.24-.24-.47-.71-.71-.95l-.95-2.13c-.24-.24-.47-.71-.71-.95-1.42-.71-2.37-1.89-3.55-3.08-.71-.95-.71-1.89-1.42-2.6-.95-.71-1.89-1.42-1.89-2.37-.24-.95-1.42-1.42-1.89-2.13-.71-.95-1.66-1.66-2.37-2.37-.71-.71-.47-1.66-1.18-2.37-1.18-.95-3.31-3.08-4.26-4.26-1.89-1.18-2.6-3.55-4.02-4.97-1.66-1.18-3.08-2.84-4.26-4.26-.95-2.6-4.02-3.79-4.73-6.39-.47-.47-.95-.95-1.66-1.42l-2.84-3.08c-.71-.47-1.18-.95-1.66-1.42-.95-1.18-1.42-2.84-2.84-4.02-1.18-.95-2.6-1.89-2.84-4.02h-.47c-1.18-1.42-2.6-2.84-3.79-4.02-.47-2.13-2.13-3.08-3.31-4.26-1.18-.95-1.42-2.37-2.37-3.31-.95-.71-1.89-1.18-2.13-2.84,0-.47-.71-.95-1.18-1.42-1.89-1.66-3.31-3.79-5.44-5.2-1.18-1.18-1.66-2.84-2.84-3.79-.95-1.18-2.6-1.89-2.6-3.55,0-.24-.47-.47-.71-.71-1.89-2.13-3.79-3.79-5.68-5.68-.71-2.6-3.08-3.79-4.73-5.68-.95-1.18-1.66-3.08-3.08-4.26-1.66-.95-2.6-2.6-4.02-4.02-.95-.47-.71-1.89-1.66-2.37-.24-.24-.71-.47-1.18-.24-.24,0-.47.47-.47.71v136.77c0,1.66-.47,3.31.47,4.5.95,1.18,0,2.84.47,4.02.71.95.95,1.89.71,2.84,1.18.71,1.66,2.6,3.55,2.37.47.95,1.42.71,2.13,1.42.71.95,2.13,0,2.84.95s1.66,0,2.6.71c-.71.71-1.42.71-1.89.71h-13.96c-1.18,0-2.37.24-3.08-.95-.95.24-2.37-.47-3.55.47,0,.24-.47.47-.71.47-2.6,0-5.2,0-8.28-.24,0-.24.24-.71.47-.71h1.42c1.18-.24,2.6.71,3.55-.47.95-.95,2.6.24,3.08-1.18,4.73-1.66,3.79-1.89,5.92-4.97.95-1.42,1.66-2.6,1.66-4.5s-1.18-3.79.47-5.21c0-1.89.24-3.79,0-5.44v-.24l-.24-.24v-.24c-.24-.47-.47-1.18-.24-1.42.95-.71.47-1.66.47-2.84.24-.95.24-1.89-.47-2.6-.24-.24-.24-1.66,0-2.13.47-.71.71-1.42.71-2.13-.24-2.84-.24-5.92-.24-8.75,0-1.18.24-2.13-.47-3.08-.47-.24-.47-1.42,0-1.66,1.18-1.18.47-2.6.71-3.79,0-.71-.47-1.18-.47-1.66-.47-.71-.71-1.66-.24-2.13.47-.71.71-1.66.71-2.6-.24-5.21-.24-10.88-.24-16.33,0-.71.24-1.66-.47-2.37-.24-.47-.47-1.66,0-1.89.95-1.18.47-2.84.47-4.26.24-19.88.24-39.52,0-59.39,0-1.42.71-2.84-.71-3.79.24-1.18-.47-2.37.47-3.55.71-.71.47-1.66,0-2.6,0,0-.47-.47-.47-.95.47-2.6-.71-4.26-1.89-6.39-1.42-2.13-4.97-4.26-7.33-4.97-1.18-.71-2.13-.95-3.08,0h-1.42s-.24-.24-.24-.47c0-.47,0-.95.24-.95h4.97c.71,1.18,1.89.71,2.84.71h14.2c.71,0,1.66,0,2.37-.71.95-.71,2.6,0,3.08,1.18.24.95.95,1.66,1.89,2.37.71.95,1.18,1.66,2.13,2.37-.24,1.66,1.42,1.89,2.13,3.08.71.47,1.66,1.18,2.13,2.13.95,2.6,3.31,4.02,5.21,5.92.95.71.71,2.13,1.66,2.84,1.18.95,2.13,1.89,3.31,3.08.71.95,1.42,1.89,2.37,2.6,1.18.71,1.18,2.37,2.37,3.31.95.95,2.37,1.42,2.37,3.08.95,1.18,1.89,2.13,2.84,3.08,1.66,1.42,3.08,3.08,4.5,4.26-.24,2.37,2.84,2.84,2.84,4.97,1.66,1.66,2.84,2.6,3.79,3.79,1.18,1.18,2.84,2.13,2.84,3.55,1.18,1.42,2.37,2.6,3.79,3.79.95,1.18,2.6,2.13,2.84,3.79l3.31,3.31c1.18,1.18,2.84,2.37,3.55,3.79.71,1.42,1.89,2.6,3.08,4.02,1.18.95,1.66,3.08,3.31,4.26,1.42.71,2.37,2.37,3.55,3.55.95.71,1.18,1.89,2.13,2.84.47.71,1.66,1.18,1.66,2.37,0,.47.47.71.95,1.18l1.18,1.18,2.13,2.37c.47.47.95.71,1.18,1.18.24,1.89,2.84,2.37,3.08,4.73.24.71,1.18.95,1.66,1.66,2.37,2.37,4.5,4.5,6.86,7.1.24.24.47.47.71.47l1.18,1.42c.24,0,.47.24.71.47.95.95.71,2.13,1.66,2.6,1.18.71,1.89,1.66,1.89,3.08,0,.24.24.24.47.47,1.42.95,2.84,2.37,4.02,3.79.24,1.89,2.13,3.08,3.31,4.26,1.18.95,1.42,2.37,2.6,3.55,1.18.95,2.37,1.66,2.84,3.55,0,.71,1.18,1.18,1.89,1.89.47.47.95.95,1.18,1.42l2.84,2.6c.24.47.71.95,1.18,1.42.71,2.37,3.31,3.55,4.5,5.68.47.47.47,1.42,1.42,2.13,1.18.71,1.66,2.37,3.31,2.13.95-.95.24-2.37.24-3.55.24-41.41.24-82.82.24-124.23,0-.95-.24-2.13,0-2.84,0-.95-1.42-1.42-1.18-2.6.47-.95-.24-1.18-.71-1.66.24-1.18-.71-1.66-.95-2.6-.95-1.66-2.84-2.84-4.02-4.5-.24-.24-.95,0-1.42,0h-1.42l-2.37-.24h-1.42c-.24,0-.47,0-.71-.24.24,0,.47-.24.71-.47,1.18,0,2.84.47,3.31-.95,1.42.24,2.6-.47,3.79.71.24.47.71.24,1.18.24h16.8c.47,0,.95.24,1.18-.24,1.18-1.18,2.37-.47,3.55-.71l.24.47ZM827.95,6.67v-.71h-.47c-.47.24-.47,1.18.24,1.42,0,0,.24-.47.24-.71ZM831.97,7.38c.24,0,.71-.24.71-.71.24-.47-.24-.95-.71-.95-.71,0-.95.24-.95.71-.24.47.24.95.95.95ZM831.5,9.28l.24-.24q0-.24-.24-.47c-.24,0-.24.24-.24.47-.24.24,0,.24.24.47v-.24ZM834.81,11.88c-.24-.47-.24-.95-.24-1.18,0,0-.47-.24-.71-.24-1.66.24-2.13,1.42-1.66,2.6.24.71.47,1.18.71,1.66q.24.24.71.24c.71-.95,1.18-1.89,1.18-3.08ZM835.52,7.38h.47l.47-.47h-1.89c.47.24.71.47.95.47ZM837.18,10.69c-.24-.47-1.18-.47-1.42,0,0,0,.24.24.47.47.47,0,.71-.24.95-.24v-.24ZM860.37,45c0-.24-.24-.24-.47,0,.71-1.89,1.89-3.79,2.84-5.68.47,0,.95-.24.95-.71,0-.71,0-1.18-.95-1.18-.24-.95-.71-1.66-1.89-1.89,0,.24,0,.47-.24.47-1.18.95-2.84.47-4.26.24,0,0,0-.95-.24-1.18,0-.24-.24-.24-.71,0-.24,0-.24.71-.95.24-.95-1.18-2.37-1.89-2.84-3.55h2.6c.47,0,.95.47,1.18.71s.47.24.71,0c0,0,0-.24.24-.47.71-.95.95-1.42.47-1.66-.47-.47-.95-.47-1.66.24l-.47.24c-.95-.47-1.42-1.89-2.6-1.89-.95-.95.95-1.42.24-2.37v-1.42c0-.24-.24-.71-.24-.71-.47,0-.95,0-1.42.24,0,0-.24.24-.24.47-.24.24-.95.24-.71.95.24.24.71.24.95.24s.47.24.71.47c-.47.24-.71.47-.95.47l-1.42.47c-.24,0-.47.24-.71.24,0,0-.24-.24-.47-.47,0,0,.24,0,.47-.24,0-.24.47-.47,0-.95-.71-.47-.47-1.66-1.18-2.37-.47-.24.24-.47.71-.71.47,0,.95-.47.71-.95-.24-.47-.47-1.18-.95-1.42-.71-.47-1.18.47-1.42.95-.71.95-1.66.71-2.37.71q-.24,0-.47-.24t.24-.71c.47-.47.71-1.18,1.66-.95.24,0,.47-.47.47-.71,0,0-.24-.24-.47-.24-.47,0-1.18,0-2.13-.71,0-.47-.24-.71-.47-.95,0-.24-.47-.24-.24.47l-.71-.71c-.71,0-.95.24-1.18,0-.71,0-.95.47-1.42.95-.24.24-.95.24-.24.71.47.71,1.18,1.18,1.18.71.71-.95,1.66-.47,2.6-.47h.47c-.24,1.18-.95,1.89-2.37,1.89-.24,0-.47.71-.47,1.18-.24.24.24.71.71.47.71,0,1.18,0,1.66.24.71.24.24.95.47,1.66.47,1.18.71,2.37,1.66,3.31,1.18.95,2.13,2.13,3.08,2.84.24.47.47.47.47.24.95-.95,1.18-.47,1.18.47v.95c0,1.18,0,2.13,1.66,1.89l.47.47c0,.71.24,1.18.71,1.18h1.42c1.18-.24,1.66.24,1.66,1.42,0,0,.47.47.95.47.71.24,1.18,0,1.89-.71.95-.71,1.18-.24,1.66.71.24.24,0,2.13,0,2.37.24,1.18-.24,2.13-.95,2.84-.24.47,0,1.18.95,1.66.24.24.47.47.47.47v-.71ZM839.55,11.88c.24.24.71.24,1.18.24,0,0,0-.24.24-.24,0-.24-.95-1.42-1.18-1.42l-.24.24c0,.24-.24.95,0,1.18ZM840.73,14.24h-.24c-.47.47-.47,1.18,0,1.42.24,0,.47-.47.71-.71-.24,0-.24-.47-.47-.71ZM843.1,19.69c-.47-.71-.71-.95-.71-1.18,0,0,.24,0,.24.24l.47.24v.71ZM843.57,15.19l-.24.24s0,.24.24.47c0,0,0-.24.24-.24v-.24l.24-.24h-.47ZM844.04,18.5l.24.24q.24,0,.24-.47v-.24l-.24-.24s0,.24-.24.71ZM854.45,28.68c.24.47,1.18.47,1.66,0v-.24c-.24-.24-.47-.24-.95-.47-.24.24-.71.47-.71.71ZM856.58,39.33s-.24.24-.24.47c-.24.71.47,2.13,1.42,2.13v-.24l.24-.24c0-1.18-.95-1.42-1.42-2.13ZM858.24,34.36c.47.47.95,1.18,2.13,1.18,0-.95-.47-1.42-.47-2.37,0-.47-1.42-.71-1.66-.24s-.24,1.18,0,1.42ZM860.37,45.24q-.24,0-.47-.24c.24,0,.47.24.47.24ZM875.28,58.02c1.42,0,3.31-.24,3.31-2.13,0,0,0-.24-.24-.47s-.47-.24-.71,0c-.24.71-.95.95-1.42.47h-.24l-.71-.47c-.71-.24-1.42,0-1.42-1.18,0-.71.47-.95,1.18-.95.47,0,1.18-.24.47-.95-.24,0-1.66-1.18-1.66-1.42-.24-.47-1.18,0-.95-.71.24-1.18-.24-1.66-.95-2.13-.47-.47-.95-.71-1.66-.24l-1.66,1.66v-.24l-.24-.24v-1.18c-.24-2.13-.71-2.6-2.84-1.42-.47,0-.71.47-1.18,0,0-.47-.47-.71-.71-1.18-.47-.47-.71,0-1.18.24-.24.47-.95.95-.71,1.66.24.95,1.18.47,1.89.47.47,0,.95-.24,1.18,0s.47.95.47,1.18c0,.71-.47.95-.95.95-.24-.24-.95,0-.47.71s1.66.95,1.66,2.37l.47.24c.71-1.18,1.42-.24,1.89.24.24.47.47.95.47,1.18,0,.95,0,1.66,1.18,1.66.24,0,.24.95.47,1.18.24.24.47.47.71.47l.24-.47v-.24q.47-1.18,1.18-.47c.47.95,1.42,1.89,3.08,1.42ZM864.15,41.22c.24.71.47,1.42.95,2.13.71.95,1.42.95,2.6,0,.24-.24.95-.47.24-1.18-.47-.47-.95-1.18-1.66-1.66-.47-.24-.95-.24-.95-.24h-.95q-.71,0-.24.95ZM873.38,61.57l.24-.24h.24s0-.24-.47-.24l-.47.24s.24.24.47.24ZM880.01,62.75c.24,0,.71.24.71,0,.47-.47.95-.95,1.42-1.42v-.24c-.95-.47-.71-1.42-1.18-1.89,0,0-.24.24-.47.24q-.95.71-2.84.24h-.95c0,.24-.47.47-.95.71-.24.24.24,1.18.95,1.42.47,0,.95.24.95,1.42,0,.24-.24.24,0,.47,0,.24.24.47.47.47l.47-.24v-.24c0-.71.47-1.18,1.42-.95ZM884.98,70.56c-.47-.71-1.18-1.66-2.6-1.42-.71.24-.95-.24-1.18-.71v-.71c-.47-.24-.95-.24-1.18-.24-.24.24-.47.71-.47.95.71.95,1.18,1.42,1.66,2.13-.24,1.42.71,1.42,1.89,1.42h1.42c.47,0,.95-.95.47-1.42ZM882.38,64.88c0,.24.24.47.24.47.24,0,.47-.24.71-.47,0,0-.24,0-.47-.24,0,0-.24,0-.47.24ZM888.05,67.01v-.95c-.24-.24-.47-.47-.95-.47-.71-.24-2.13.95-2.13,1.89,0,.24,1.18,1.66,1.42,1.66,0,0,.24,0,.24-.24h.24l.24-.24c.47-.47,1.18-.95.95-1.66ZM888.05,76c0-.95-.47-1.18-1.18-1.18-.71.24-.95.47-.95.95.24.71.47.95,1.18.95.47-.24.71-.71.95-.71ZM893.26,73.4l-.24-.24v-.24c-.47-1.18-1.66-.95-2.6-.95h-1.89c-.24,0-.47.24-.47.24.24.24.47.71.47.71.71-.24,1.18.71,1.89.95.71.24,1.42,0,2.37,0,0,0,.24,0,.47-.47ZM891.6,80.03s-.24-.24-.47-.24l-.24.24h.71ZM897.05,85.47l-.24-.24s-.24,0-.24.47h.24q.24,0,.24-.24ZM903.91,92.57q-.24-.47-.47-.71h-.24c-.47.24-.47,1.18,0,1.42.24,0,.47-.47.71-.71ZM909.35,99.67s-.24,0-.47-.24q0,.47.24.47l.24-.24ZM909.82,98.01l.24-.24s0-.24-.47-.24c0,.24,0,.47.24.47ZM914.08,107.95c0-.47-.24-.95-.47-1.66-.24.71-.24,1.18-.24,1.66,0,.24,0,.47.24.47,0,0,.47-.24.47-.47ZM916.92,103.45c-.24-.24-.71-.47-1.18-.47-.24,0-.47.24-.47.47l.24.47c.71,0,1.18-.47,1.42-.47ZM921.42,116.47q0-.24-.24-.47c0,.24-.24.47-.24.47l.24.24.24-.24ZM923.31,115.76c0-.24-.24-.47-.47-.71,0,0-.24.24-.24.47l.24.24v.24c.24,0,.47-.24.47-.24ZM927.1,120.49l-.24-.71c-1.42,0-1.42-.71-2.37-1.42l-.47-.24c0-.24-.24-.24-.24-.24-.47,0-.47.95,0,1.66.47.71.47.95.71,1.66.24.24.47.47.71,0,.24-.71.71-.71,1.18,0,.47,0,.71-.24.71-.71ZM926.86,122.85v-.24l-.24-.24s0,.24-.24.71l.24.24q.24,0,.24-.47ZM929.7,120.02c-.24,0-.24.24-.47.47.24,0,.47-.24.47-.47ZM931.83,122.15c-.24-.47-.47-.71-.95-.24,0,0,.24.24.71.95,0,0,0-.24-.24-.47.24,0,.47.24.47,0v-.24ZM932.78,129.48c0-.24-1.42-1.18-1.66-1.18,0,0,0,.24-.24.47,0,.24,0,.71.47.95.24.24.71,0,1.18,0l.24-.24ZM931.83,124.04c-1.18.71-.71,1.18,0,1.89.47.24.71.47.71,0,.24-.47.24-.71-.71-2.37v.47ZM931.12,117.41h.24l.24.24v-.47l-.24-.24s-.24,0-.24.47ZM931.83,123.09v.24c.24.24.71.95,1.18,1.42-.24-.71-.24-1.18-.24-1.89,0-.24-.24-.24-.47-.47q-.47,0-.47.71ZM933.49,131.37l-.47-.24c0,.47.24.47.47.47v-.24ZM935.14,128.06c.24-.47.47-.95.47-1.42s-.24-.95-.47-1.18h-.24c-.47.47-.47,2.13,0,2.6h.24ZM938.22,132.79c0-.24.24-.95,0-1.42,0-.24-.47-.47-.47-.47-.24,0-.71,0-.71.24-.95.71.24,2.37-1.42,3.08q.47.24.71.24l.71.24h.24c.47,0,1.18,0,.95-.95v-.95ZM937.75,129.48v.47c.71,0,1.18-.24,1.89-.47-.71-.24-1.18-.47-1.66-.47-.24,0-.24.24-.24.47ZM940.11,138.71l-.24-.24c-.24,0-.47.24-.47.24l.24.24v.24c.24,0,.24.24.24.24,0,0,0-.24.24-.71ZM941.06,129.95h.24v-.47c-.24-.24-.47-.71-.95-.24,0,.24.24.24.71.71ZM941.77,130.19c-.24-.24-.47-.24-.47-.24l.47.24ZM941.3,130.43s.24,0,.24.24q0-.24-.24-.47v.24ZM943.9,142.49c-.47-.71-1.42-.47-1.66,0v.24c.24.47,1.42.47,1.66,0v-.24ZM943.66,2.65c-.24,0-.47,0-.47-.24l.24-.47c.71.24,1.18.47,1.66.47-.47.24-.95.24-1.42.24ZM944.61,140.13l.24-.24q0-.24-.47-.24h-.24c0,.24-.24.24-.24.24,0,0,.24,0,.71.24ZM945.08,137.05c.47,0,.71.24.71.24.71,0,.95-.24.95-.95,0-.24-.24-.47-.47-.71-.24,0-.24.24-.47.47v.24q-.47.47-.71.71ZM947.68,146.28l-.95-.95c-.24-.47-.71-.47-.95,0v.95c.24.47.95.71,1.66.47,0,0,0-.24.24-.47ZM948.63,140.84c0-.24-.24-.24-.24-.24-.24,0-.47,0-.71.24h.95ZM949.58,147.7c-.71.24-.95.47-.95.95.24.71.47.95,1.18.95.24-.24.47-.47.71-.71,0-.95-.47-1.18-.95-1.18ZM949.81,144.39c0,.24,0,.47.24.47,0,0,.24,0,.24-.24s-.24-.47-.24-.47c-.24,0-.24.24-.24.24ZM954.07,146.75c0-.47.24-.95,0-1.42,0-.24-.24-.47-.47-.47-.47,0-1.18.24-1.18.47v2.84c0,.24.47.47.71.47.47,0,.95-.24.95-.47.24-.24,0-.95,0-1.42ZM954.07,153.62v-.47c.24-.24-.24-.71-.47-.71s-.95.24-1.18.47c0,.24.24.71.24,1.18.24.24.71.71,1.18.95,0,0,.24-.24.24-.47.24-.24,0-.47,0-.95ZM955.73,149.59h-.24c-.47.47-.47,1.42,0,1.66,0,.24.24,0,.24,0,.71-.24.47-1.18,0-1.66ZM957.15,147.23h-.24l-.24-.24h-.24c0,.47.24.47.24.71.24-.24.47-.24.47-.47ZM961.64,6.91l-.24-.24h-.24c0,.47.24.47.24.71q.24-.24.24-.47ZM962.59,5.25c-.24-.24-.47-.24-.47-.24l-.24.24h.71Z"/>
      <path class="cls-1" d="M1134.62,38.14v6.39c0,.24-.47.24-.47.24-.47-1.18-.47-1.89-.47-3.08,0-.71,0-1.42-.24-2.37-1.42-.24,0-2.37-1.42-3.08v-.71c.24-1.18-1.42-2.13-.95-3.31.24-1.18-.47-1.89-.95-2.84-.71-1.18-.95-2.6-1.89-3.55,0-2.84-3.79-8.75-5.68-10.41-.95-.47-.71-2.13-1.89-2.84-.95-.71-1.42-1.89-2.84-2.13-1.42-.24-1.66-1.89-2.6-2.37-2.13-.95-3.79-2.6-6.15-2.37-1.42.24-1.89-1.42-3.31-.95-1.42.24-2.37,0-3.79,0h-6.86c-.95,0-2.13-.24-3.08,0-.95.24-1.18-1.18-2.37-1.18h-2.13l-4.5.24h-2.13c-1.42,0-2.13,1.18-3.79.95-1.66-.24-3.08,0-4.73,0h-4.26c-.47,0-1.18.95-.71,1.42.71.47.95,1.18.95,2.37,0,4.26-.24,8.75,0,13.01,0,1.18-.47,1.42-.95,2.37-.47.71-.24,1.66-.24,2.37.24,1.42-.24,3.08,1.18,4.5v.71c-.47.71-1.18,1.66-.95,2.37.24,1.18.95,1.66.95,2.84-.24.95,0,2.13,0,2.84,0,1.18.24,2.37-.95,3.08,0,.71-.47,1.66.47,2.37.24.24.47,1.18.24,1.42-1.18.95-.95,2.13-.71,3.31,0,.95-.47,1.89.71,2.84.24.24.24.95.24,1.42v9.7c0,.71-.24,1.42-.95,2.13-.47.47-.24,1.18.47,1.66s.71,1.66.24,1.89c-1.42,2.37-.47,4.5-.95,6.63,1.89,1.42.95,3.31,1.18,4.73,0,1.89-.24,3.55,0,5.21,0,.95-.95,1.18-.95,1.66,0,.95-.47,2.37.47,3.55.47.24.47,1.42.24,1.89-1.42,1.89-.71,3.79-.71,5.92v.24l.71.47c.24,4.26.24,8.05.24,12.07,0,.24-.47.47-.71.71-.47.24-.71.95,0,1.42.95.71.71,1.89.47,2.6q-1.18,3.55,0,6.15c0,.71.24,1.42.24,1.89v12.54c0,.95.24,1.89-.95,2.6v4.97c1.42.71.71,1.89.95,2.84v8.99c1.18.71.95,2.13.95,3.31,0,.47.24.95.71,1.18.95.95,1.89,1.89,2.84,3.08.71.71,2.13.47,2.6,1.42,1.18-.24,1.89.47,3.08.71.71.47,1.66.24,2.6.24h2.6c.24.24.47.24.47.47,0,0-.24.24-.47.24-.47.24-1.42.24-2.13.24h-43.07c-.24,0-.47-.47-.95-.47.47-.24.95-.47.95-.47h2.6c.95-.24,1.89.47,3.08-.71.71-.71,2.13,0,2.84-.47.71,0,1.18-.95,2.13-.71,1.42-1.42,3.08-2.6,3.55-4.5.24-.24.71-.47.71-.71v-3.79c1.42-.95.95-2.37.95-3.31V5.49c0-.47-.24-.71-.95-.71h-5.21c-.95,0-1.89-.24-2.6,0-1.42.24-1.66-1.18-2.6-.95-2.84,0-5.44-.24-8.52,0-.95,0-1.89,1.18-3.31.95-.95-.24-2.13,0-3.31,0h-3.55c-1.66-.24-3.08.24-4.5-.95-.24-.47-1.42-.24-1.66,0-.71.95-1.89.47-2.37.95-1.18.95-2.13.71-3.31.95-1.18.24-2.13.71-2.84,1.18-.95.71-1.66,1.89-3.31,1.66-.24-.24-.47.24-.95.71-1.89,1.66-3.55,3.79-5.68,5.68-1.18.71-1.42,2.13-2.13,3.08,0,1.66-1.89,2.6-2.6,4.26-.71,1.42-1.42,3.08-2.13,4.73-.71.71-1.66,2.13-1.18,3.55.24.95-1.42,1.66-.95,2.84.24.95,0,1.89-.95,2.37v.95c0,1.18.24,2.37-.71,2.84,0,.95.24,2.37-.24,2.84-.71.95-.95,1.89-1.18,3.31-.24,0-.71-.24-.71-.47v-4.26c1.89-2.37.47-5.44.95-7.81.24-1.66,1.42-2.6,1.18-4.5-.24-1.42-.24-2.6,0-4.02,0-1.42.95-2.37.71-4.02v-3.55c.24-1.42,1.18-2.37.95-3.79-.24-1.42,0-2.6,0-3.79v-4.26c-.24-1.42,1.66-2.37.95-3.79,0,0,.47-.47.71-.47h.95c1.18.47,2.37,1.18,3.79.95h15.38c1.18,0,2.13.24,3.08-.95.24-.24,1.42-.24,1.66,0,.95,1.42,2.13.95,3.55.95h13.49c1.18,0,2.6.47,3.79-.95.47-.24,1.42-.24,1.66.24.95.71,1.66.71,2.6.71h16.33c.95,0,1.66.24,2.6-.71.24-.47,1.42-.47,1.66-.24,1.42,1.42,3.31.95,4.73.95h14.2c.95,0,1.89.24,2.84-.95.24-.24,1.42-.24,1.89,0,.71,1.18,1.89.95,3.31.95h13.01c1.42,0,3.08.71,4.26-.95h2.84c.95,1.42,2.13.95,3.31.95h11.59c2.13.24,4.02-.47,5.92.47.24,1.66.47,3.79,0,5.44-.24,1.89,1.18,2.84,1.18,4.26-.24,1.42,0,2.84,0,4.26,1.18.95.71,2.37.71,3.31,0,1.42-.24,2.6,0,3.79.24,2.37-.71,4.97.95,7.33.24,0,0,.24,0,.71.47,2.13-.71,4.5.95,6.63ZM994.3,6.91l-.24-.24s-.24,0-.47.24c.24.24.24.47.24.24.24,0,.47,0,.47-.24ZM996.43,8.33v-.24c-.24-.47-.47-.71-.95-.24,0,0,.24.24.95.47ZM997.37,9.04c-.24-.24-.47-.47-.47-.71-.24,0-.47,0-.47.24.24,0,.47.24.95.47ZM996.43,8.57c.24.47.24.71.47.71,0,0,.24,0-.47-.71ZM1005.66,5.96c-.47-.47-1.42-.47-1.66,0v.47c.47.24,1.42.24,1.66,0v-.47ZM1054.87,163.55v.24l-.24.24s0,.24.24.47v-.95ZM1058.19,75.77c.24,1.42.71.47.95.24.47-.24.95-.24,1.66-.24-.24-.24-.71-.47-.95-.95-.71,0-.95-.47-.95-.71-.47-.47-.95-1.18-1.89-1.89-.24,1.42.71,2.6,1.18,3.55ZM1064.1,84.05h-4.26c-.24,0-.71.24-.95.47-.24.71-.71.24-1.18-.24,0,0-.47,0-.47.24-.24.24-.24.71-.24.95l3.08,1.66c.95-.24,2.13.24,2.84-.71.47-.71,1.18-.47,1.66.24.47.47.71.47.71,0,.24-.24.24-.71.24-.95,0-1.42,0-1.66-1.42-1.66ZM1057,105.11c0,.24,0,.71.24.95,0,.24.24.24.47.47.24,0,.47-.24.47-.47,0-.71,0-1.18-.24-1.89h-.24c0-.24-.24-.24-.24-.24,0,0-.24.24-.24.47-.24,0-.24.47-.24.71ZM1059.61,112.21c.71.24,1.18-.24,1.18-.95,0-.47-.24-.71-.71-.95h-.95c-.24,0-.47,0-.71-.24q-1.42-.24-1.42.71c0,.24,0,.71.24.95,0,.24.24.24.47.47.71-1.42,1.18,0,1.89,0ZM1060.32,92.33c.24,0,.24-.24.24-.47-.47,0-1.18-.24-1.18,0-.47.24-.47.95-.47,1.42-.47.71-1.18,1.18-1.66,1.66-.24.24-.24.95,0,.95.24.24.71.24,1.18.24.24,0,.47,0,.47-.24.47-.71.71,0,.95.24h.47c.47-.24.47-.47.71-.47-.24-.47-.47-.95-.71-1.18-.71-.71-.71-1.42,0-2.13ZM1058.9,73.64v-.24c0-.47-1.18-.71-.24-1.42.24-.24.24-.47,0-.71,0,0-.24,0-.47-.24-.71,0-.95.47-.95.71-.24,0-.24.24,1.66,1.89ZM1057.24,17.32c0,.47.95.71,1.42.47q.24-.24.24-.47c0-.47-.95-1.18-1.42-1.18-.24.24-.47.71-.24,1.18ZM1057.24,65.36c0,1.18.71,1.66,1.66,2.13,0,0,.71-.24.95-.71.24,0,0-.47,0-.95,0-1.18,0-1.42-.95-1.42-.47,0-.95,0-1.42.24-.24,0-.47.47-.24.71ZM1057.48,58.97l.71-.71v-.24h-.47c-.47.24-.71.47-.24.95ZM1057.71,79.55c-.47.24-.71.47-.24.71,0,0,.24-.24.47-.71h-.24ZM1057.71,27.02s.24-.24.24-.47c-.47,0-.71.24-.71.47h.47ZM1058.9,100.14c-.71,0-.95.71-1.66,1.18.24.24.24.47.47.47.24.24.71,0,.95,0,.95,0,1.18-.24,1.18-1.18,0-.47-.47-.47-.95-.47ZM1058.19,79.08q-.24.24-.24.47c0-.24.24-.24.24-.47ZM1058.42,57.78c.47-.47.47-.95,1.18-1.66-.47.24-.71.47-.71.71-.71.47-.95.71-.47.95ZM1058.66,22.29l.24-.24q0-.24-.24-.47l-.24.24v.24c-.24,0-.24.24-.24.24h.47ZM1058.9,38.38h-.24l-.24.47h-.24c.71.47.71,1.42,1.89,1.18h.24l.24-.24h.24c-.71-.47-.95-1.66-1.89-1.42ZM1058.66,77.66c-.47.71-.47.95-.47,1.42.24-.47.24-.71.47-1.42ZM1058.19,79.55q.24,0,.71-.24c0-.71,0-1.42-.71.24ZM1059.13,122.38h.71c.71.24.95-.24.95-.71.24-.71-.24-1.18-.95-1.18h-1.18c-.24,0-.47.47-.47.71,0,.95.24,1.18.95,1.18ZM1060.08,56.13c0-.24-.24,0-1.42,1.66.47.47,2.6,1.89,2.84,1.89.24.24.71,0,1.18,0,.24-.24.24-.71,0-.95-.71-.95-1.66-1.89-2.6-2.6ZM1061.03,138.24c-.24-.24-.71-.71-.95-.71l-.24.24-.71.71q0,.24-.24.47c1.18.24,1.89.24,2.6.47.47-.95-.24-.95-.47-1.18ZM1060.32,75.06c.24.24.47.47.95.71h1.89q.47,0,.47-.47s-.24,0-.47-.24c-.24-.71-.71-1.66-1.89-.24,0,.24-.47.24-.95.24ZM1060.79,10.69s.24,0,.47.24c0,0,.24,0,.47-.24h-.95ZM1063.63,99.67c0-.47-1.66-1.66-2.13-1.42-.47,0-.71.47-.71.95.24.24.24.71.47.71.71.24,1.42.24,1.89.24.24-.24.47-.47.47-.47ZM1063.63,108.89c-.47-.47-.71-.47-.71-.71-.24-.24-.71-.47-.95-.47-.24-.24-.24,0-.47,0l-.47.24v.24c-.24,0-.24.24-.24.24,0,.47.24.71.71.95h1.42c0-.24.24-.24.71-.47ZM1061.74,114.57q-.24-.24-.47-.24c-.24-.24-.24,0-.47.24h.24l.24.24q.24,0,.47-.24ZM1061.26,49.5l.47-.47s-.24-.24-.47-.24l-.24.24q0,.24.24.47ZM1061.97,24.42c-.24.24,0,.71.24.71.47.24.71.24.71.24h.47c.47-.24.71-.24.95-.47,0,0,0-.47-.24-.47-.24-.47-.71-.95-.95-1.18h-.71c-.24.47-.47.95-.47,1.18ZM1064.81,33.65c-.95.47-1.89.71-2.6,1.18-.24,0-.24.24-.24.47h.24c.71.24,1.18.24,1.66.95h.24c.24,0,.47-.24.47-.24,0-.71,0-1.18.71-1.42.24-.24.47-.47,0-.71-.24,0-.47-.24-.47-.24ZM1063.39,47.37v-.24h-.24l-.24-.24c-.47,0-.95.47-.95.47.24.47.95.47,1.42,0ZM1062.45,77.66q.24,0-.47-.71c0,.24.24.47.47.71ZM1063.39,106.29v-.24l-.24-.24h-.24c-.47,0-.95.24-.95.47.24.47.95.47,1.42,0ZM1062.68,151.49c.24.24.47.47.71.47l-.47-.47v-.47c-.24-.24-.71-.71-.95-.24q0,.24.71.71ZM1064.58,76.71c0-.24-.24-.71-.47-.95-.47-.24-.47,0-.47.24-.47.47-.71.47-1.18.71.24.24.47.47.71.95.24,0,.71,0,.95-.24.24,0,.47-.47.47-.71ZM1062.68,151.72q.24.47.47.71s.24-.24-.47-.71ZM1064.58,39.33c0-.47-.24-.71-.71-.95-.71,0-.95.24-.95.95v.95c-.24.47,0,.71.47.95.71,0,1.18-.24,1.18-.95v-.95ZM1063.87,5.49c-.24,0,0,0,.24.24v-.24l.24-.24v-.24c-.47,0-.47.24-.47.47ZM1064.1,94.22l.24-.24v-.24c-.47,0-.47.24-.47.47-.24,0,0,0,.24.24v-.24ZM1064.1,19.45q.24-.24.47-.24c-.24-.24-.47-.24-.71-.24,0,.24.24.47.24.47ZM1064.34,53.76l-.24-.24h-.24c0,.47.24.47.24.71q.24-.24.24-.47ZM1064.1,79.55c-.24.24-.24.47-.24.71.24,0,.24-.24.24-.71ZM1065.28,102.27l-.24-.24s-.24,0-.47.24c0,0,.24,0,.24.24h.24l.24.24v-.47ZM1120.66,6.67s0-.24-.24-.24v-.24l-.24-.24c0-.24-.24-.24-.24,0-.24.24-.24,1.18,0,1.18.24.24.47-.24.71-.47ZM1123.97,6.91c-.71-.24-1.18-.24-1.66-.24-.24,0-.47,0-.71.24.24.24.47.47.71.47.47,0,.95-.24,1.66-.47ZM1125.39,5.73c-.71,0-.95.24-1.18.71,0,.47.24.95,1.42.95,0,0,.47-.47.71-.71.24-.47-.24-.95-.95-.95ZM1127.04,10.93s0-.24-.24-.47c-.24,0-.47.24-.24.24,0,0,0,.24.47.24ZM1129.88,18.27q-.24-.24-.47-.24l-.24.24s0,.24.24.47c.24,0,.24-.24.47-.47Z"/>
      <path class="cls-1" d="M1279.43,132.08v2.84c0,.24-.71.71-.95.95,0,.95-.71,1.18-.95,1.89-.47,1.42.24,3.08-1.42,4.26-.71.71-1.18,2.37-2.13,3.08,0,0-2.37,3.79-2.37,4.02,0,.47-.71.95-1.42,1.66-.47.47-1.18.95-1.66,1.66-.71.95-2.13.71-2.84,1.89-.95,1.42-2.13,2.13-3.55,2.84-1.18.71-2.84,1.18-3.55,2.37-.95,1.18-2.13,1.66-4.26,2.13-.71,0-1.18.71-1.66.95-1.42,0-2.13,1.66-3.79.95-1.18-.47-1.66,1.66-2.84,1.18-.47.47-1.18.71-1.89.71-1.66-.24-3.08,1.42-4.73.95-.71,1.42-1.89.95-3.08.95-.95,0-1.42,1.42-2.84.95-.71-.24-1.89,0-2.6,0-1.89.47-4.02-.95-5.21.95h-4.26c-1.66.24-3.08-.71-4.26.71h-2.84c-.95-1.18-2.37-.47-3.55-.71-1.66,0-3.55.47-4.97-.95-.47-.24-1.66,0-2.6,0-.95-.24-2.37.47-3.31-.47s-2.13.24-2.84-.95c-.24-.47-.95-.47-1.42-.47-.95,0-1.89.24-2.6-.24-.95-.71-1.89-.95-2.84-.71-.47-.95-1.89-.47-2.37-1.18-.95-1.18-2.13,0-2.84-1.18-.71-.95-1.89,0-2.6-.71-.71-.47-1.66-1.18-2.6-1.42-1.18,0-1.66-.95-2.37-1.18-.71,0-1.18-.71-1.89-.95-.95-.24-1.42-1.18-2.37-.95s-1.42-.71-2.13-.71c-1.89-.95-3.79-2.13-5.68-2.84-1.18-.47-1.66-1.42-2.6-1.89-.95-.24-1.66-.47-2.37-.95-.95-.71-1.66-1.42-2.6-2.37-.47-.71-1.66-.24-2.37-1.42-.71-.95-1.66-1.66-2.37-2.37-.24-.47-.95-.24-1.18-.47-1.66-1.18-2.84-2.37-2.37-4.5,0-.71-.24-1.66,0-2.37.24-1.42-1.18-2.6-.95-4.26v-4.26c-1.89-1.42-.95-3.55-.95-4.97,0-1.66-1.42-2.6-1.18-4.02s0-2.84,0-4.02c-1.18-1.18-.71-3.08-.95-4.26,0-.71.47-.95.95-.95s.95.24.95.47c.24.71.24,1.18.95,1.66-.24,1.66,1.18,2.6,1.18,3.79v.95c1.42.71,0,2.6,1.42,3.55.47.47.47,1.18.71,1.66,1.42,1.18,1.89,2.6,2.37,4.26.47.71.71,1.66,1.66,2.6.24.24.24.95.71,1.66.24.47.95.71,1.18,1.18s.24,1.18.71,1.66c.95,1.18,2.13,2.13,2.84,3.31.47,1.42,1.66,2.37,2.84,3.08,1.42,1.18,1.66,3.08,2.84,4.02.95.71,1.89,1.66,2.84,2.6,1.18-.24,1.66,1.18,2.37,1.66,1.18.71,1.89,1.89,2.6,2.6.47.47,1.42.47,1.66.95,1.18,1.18,3.08,1.18,4.02,2.84.95,1.42,2.6,1.42,3.55,2.6.24.24.47.47.71.47,1.66-.24,1.66,1.66,2.84,2.13.47,0,.95.24,1.18.24,1.18.95,2.37,0,3.31,1.42.47.47,1.89-.47,2.37.71.47.71,1.66,0,2.37,1.18.95.24,2.13-.24,2.6.24.95.47,1.89.71,2.84.47,1.18,0,2.13,1.66,3.79,1.18.95-.24,2.37,0,3.55,0,1.89,1.66,4.26.71,6.15.95,2.37,0,4.5.24,6.63,0,1.18-.24,2.6-1.18,4.26-.95,1.42,0,3.08-.24,4.5,0,1.42,0,2.13-1.18,3.55-1.18.95.24,2.13.24,3.31.24.71-1.42,2.37-.24,3.08-1.18.95-1.18,2.13-.24,2.84-1.18.71-.71,1.89-1.18,2.84-1.42.71-.24,1.66,0,2.37-.71.95,0,1.42-.47,2.13-.95.24-.24.71,0,.95-.47.95-1.42,2.84-1.66,3.55-2.6,2.37-2.37,4.5-4.26,6.86-6.63,1.18-1.18.95-1.66,1.89-4.26.71-1.42.95-3.08,1.18-4.97,0-.95,1.18-1.89.71-3.31,1.18-.71.95-1.66,1.18-2.84,0-1.66-.71-3.31.71-4.73,0-.95.24-1.89-.24-2.6-.47-.71-.71-1.18-.47-2.13,0-.71,0-1.18-.24-1.66,0-.71-.71-1.42-.95-2.13,0-.71.24-1.42-.24-1.66-.71-.47-.47-1.42-.95-2.13-.47-.47-.95-.95-.71-1.42-1.66-1.42-2.13-3.79-4.02-4.97-.47-.24-5.44-5.68-5.68-5.92-.95-1.18-2.6-1.18-3.31-2.37-.47-.71-1.89-.47-2.37-1.42-.47-.71-1.18-.95-1.89-.95-.47-.71-1.66-.71-2.37-1.18-.71-.95-1.66,0-2.37-.71-.47-.71-1.66-.47-1.89-.95-.95-1.18-1.89-.47-2.6-.95-.95-.71-1.89-.95-2.84-.95-.24,0-.71.24-.95,0-.71-1.42-2.6-.24-3.55-1.42-.47-.71-1.89-1.18-2.84-1.18s-1.42-1.18-2.37-.95c-1.18.24-2.13-.47-2.84-.95-1.18-.47-2.13-1.18-3.55-.95-.71-1.42-2.13-.71-3.31-.95-.95,0-1.18-1.18-2.37-.95-.95,0-1.89,0-2.6-.71,0-.24-.95,0-1.66,0-.95-.24-1.89,0-2.37-.71-.71-.95-2.13.24-2.6-.71-1.18-1.42-3.08.24-3.79-1.66h-.95c-.47,0-1.42.24-1.66,0-.71-1.42-2.84-.24-3.55-1.42-1.18,0-1.89-1.66-3.31-1.42-.95.24-1.66-1.18-2.84-.95-.71.24-1.42-.47-1.89-.95-.95-.24-1.89-.47-2.84-1.18-.95-.47-1.66-1.42-2.6-1.42-1.18,0-6.15-2.13-6.63-3.08-.47-.71-1.42-.47-1.66-.71-.47-.95-1.66-.71-2.37-1.42-1.18-1.42-3.31-1.89-4.5-3.55-1.66-1.89-3.55-3.55-5.21-5.21-.47-.47-1.42-.95-1.42-1.42.24-1.66-1.42-2.13-1.89-3.31-.71-1.89-1.42-3.55-2.84-4.97v-.47c-.24-1.18.47-2.13-.47-3.08s-.24-2.13-.24-3.08-.95-1.42-.95-1.89c0-1.18-.71-2.37.47-3.55.24-.24.47-.95.47-1.42,0-1.42-.24-3.31,0-5.21,0-.95-.71-2.37.24-3.55.95-.71,0-1.89.47-2.84.71-1.66,1.42-2.84,2.13-4.26.71-1.18.71-2.37,1.89-2.84,1.66-.95,1.42-2.84,2.84-3.79.95-.95,2.13-2.13,3.31-3.08.47-.47-.24-1.89,1.18-1.89.47.24.71-.47,1.18-.95.24,0,.95.24.95,0,1.66-1.89,10.65-7.33,13.01-7.33.95,0,1.42-.71,2.13-.95.95-.24,2.13,0,3.08-.24.47,0,.71-.24.95-.47,1.66-.71,3.31-1.66,5.21-1.18,1.42.47,1.66-1.42,2.84-.95.95.24,1.89,0,2.84,0s2.13.24,3.31,0c1.18-.24,1.89-1.18,3.31-.95,1.18.24,2.37,0,3.79,0h10.65c1.42-.24,2.6.47,4.02.95,1.18.47,3.08-.71,4.26.47,1.18,1.18,3.31-.47,4.02,1.18.24.24.71,0,.95,0,1.42.24,2.84.24,4.26.24.71,1.66,2.84,0,3.31,1.89,1.42-.47,2.37.71,3.55.95,1.42,0,2.6.71,3.55,1.18,1.18,1.18,2.37,2.13,3.79,2.37,1.18.47,1.66,2.37,3.31,1.89.95.95,1.66,1.66,2.84,2.37,1.18.24,1.89,1.42,2.84,2.37,1.18,1.18,2.37,2.6,3.55,3.55.47.71.95,1.18,1.42,1.89-.71,1.42,1.18,2.13.95,3.31-.24,1.42.71,2.37.95,3.31.47,1.18-.24,2.6,1.18,3.31,0,.71-.24,1.66,0,2.37,0,1.18.95,1.89.71,3.31-.24,1.42,0,2.37,0,3.79-.24,1.42,1.42,1.89.95,3.31-.24,1.18-.24,2.6,0,3.79.24.71,1.18,1.42.95,2.6-.24.95-.24,1.66.95,2.37v2.6c.24.47.47.95.71,1.66.24,0,0,.47-.24.71,0,.24-.47.24-.71.24-.71-.47-1.66-.95-1.66-2.13-.24-.71-1.42-1.18-1.18-2.13-.71-.71-.47-1.66-.71-2.37,0-.47-.24-.71-.47-.95-1.42-.71-1.18-2.37-2.37-3.08.24-1.42-1.42-2.13-.95-3.55-.47-1.42-1.18-2.84-2.13-4.26-.71-1.18-1.42-2.84-1.89-4.26-.71-1.18-1.89-2.37-1.66-4.26-.95-.24-.47-1.42-1.42-2.13-1.89-1.42-2.6-3.79-3.79-5.92-.47-.47-.71-1.42-1.18-2.13-3.08-2.6-5.92-5.68-8.75-8.52-.24-.47-.71-.95-.95-.95-1.66,0-1.89-1.66-2.84-1.89-.95-.24-1.42-.95-2.13-.95-1.66-.71-3.08-1.89-4.73-2.13-.47,0-.95-.71-.95-.71-1.42.47-2.13-1.18-3.55-.95-.71.24-1.18-.71-1.89-.95-.71-.47-1.66.24-2.13-.47-.47-.71-.95-.71-1.66-.71h-5.21c-.71.24-1.42,0-1.89-.47,0-.24-.71-.24-.95-.24-2.37,1.66-4.97.71-7.33.71-2.84.24-5.21,0-7.81,0q-1.18,0-3.31,1.18c-.95.47-1.89,1.42-3.31.95-1.18-.47-1.66,1.42-2.84.95-.47.95-1.42.95-2.6.95-.47,0-1.18,0-1.89.71-.47.71-1.66.71-2.13,1.42-.71.71-1.66.47-2.37,1.18-.47.71-1.42.24-2.13.95-.24.71-1.18,1.18-1.66,2.13-.71.71-1.66.95-2.37,1.42s-1.42,1.42-2.37,2.13c-.95.47-.47,1.89-1.42,2.37-.71.47-.71,1.66-1.42,2.37-.71.95-.47,1.66-.71,2.13,0,.71-.95,1.42-.71,2.13,0,.95-.95,1.42-1.18,2.13v3.08c0,.24,0,.47-.24.71-1.18.71,0,2.37-1.18,3.31-.71.47-.47,1.66,0,2.37.47.71.71,1.18.71,1.89s.24,2.13,0,3.08c-.24,1.18.95,1.66.71,2.84-.24,1.18.71,1.66.95,2.37.47.95.71,2.13,1.42,2.84.24.71.47,1.18.71,1.42.71,1.89.71,2.13,2.13,3.55.47.24.95.71,1.42,1.18.95.95,1.66,1.89,2.6,2.84.71.71,1.66,1.42,2.84,1.89.95.24,1.42,1.42,2.6,1.89,1.18.24,1.42,1.42,2.84,1.66.95.24,1.42,1.42,2.37,1.66.47.24.95.95,1.66,1.42.24,0,.71.47,1.18.47,1.89-.24,3.31.95,4.97,1.66.47.47,1.42,1.18,2.13,1.18.95.24,1.89,0,2.37.71.24.24.71.24.95.24,1.42-.24,2.37.47,3.31.95,1.18.47,2.13,1.42,3.55.95.47,1.42,1.66.95,2.84.95s1.89,1.42,3.31.95c.71,0,1.18,1.18,2.13.95.47-.24.95-.24,1.42.47.24.24.47.47.95.47.95,0,2.13-.47,3.08,0,.95.47,1.66.95,2.6.95.71,0,1.18,1.18,2.37.95.71,0,1.66-.24,2.13.47.71.71,1.66.24,2.6.24.71,0,1.18.71,1.42.95,1.42.47,2.84,1.42,4.26,1.18,1.18-.24,1.66,1.42,3.08.95.71-.24,1.18,1.18,2.37.71.71,1.18,2.13.95,2.84,1.89,1.18-.24,2.13.95,3.08.95.95.24,1.66.71,2.84,1.18.95.24,1.89.24,2.6.95.95,1.18,2.13.47,3.08,1.18,2.13,1.66,4.97,1.89,6.86,4.26,1.18-.47,1.42.95,2.37.95s1.42.71,1.89,1.18c.71.71,1.18,1.42,1.89,2.13.95.71,2.6.71,2.84,1.89.47,1.66,1.89,2.13,2.37,3.55.71.95,1.66,1.66,2.13,2.84.71,1.66,1.66,3.55,2.6,5.44.24,0,.24.24.47.47.24,1.42-.71,2.84.24,3.55.95,1.18.47,2.13.71,3.31.24.71.95,1.42.71,2.84-.24,1.18,0,2.37,0,3.79,0,.95-.24,2.13,0,3.08.24,1.18-.95,1.42-.71,2.6ZM1152.13,131.85h.47c.47-.24.47-.47.24-.95-.47-.47-.47-1.18-.71-1.66,0-.24-.24-.24-.47-.24-.24.47-.24.95-.47,1.18v.95c.24.47.47.95.95.71ZM1160.88,144.86c-.95-.95.47-.71.71-1.18,0-.24.24-.71,0-.95-.95-1.18-2.13-2.13-3.31-3.31,0,0-.47.24-.71.47,0,.24-.71.47-.95.47-.47-.47-.95-.95-1.42-1.42,0,0,.24-.47.24-.71.24-.24.47-.47.71-.71.47-.24.95-.71.24-.95l-1.89-1.89s-.24,0-.47.47c-.24.71.24,1.18.71,1.66-.24.24-.47.47-.71.47s-.47,0-.71-.24c-.71-.24-1.18-.24-.95,0,0,1.42-.71,2.84.71,3.55-1.18.95-.71,1.42.47,1.66.24,0,.24.24.47.24,1.18,1.18,2.13,2.84,4.02,2.37.71.71,1.66.95,1.66,2.13,0,.24.24.47.47.71.24-.24.47-.47.71-.71.95-.95.95-1.18,0-2.13ZM1157.1,41.69c-.24-.47-.47-.71-1.18-.47-.47,0-.71.24-.95.71-.24.71.71.95.71,1.42.24.47-.95.95-.71,1.89l.71.71c.24,0,.47,0,1.42-4.26ZM1157.57,33.41c-.24.47-1.18.95-1.42,1.66-.24.47,0,1.42,0,2.13.24.24.95.24,1.18.24h.95c0-.24.24-.71.24-.71-.95-.71-.95-1.42-.24-2.13.71-.71,0-1.66.47-2.37.47-.71,1.18-1.18,1.66-1.42.24-.71.24-1.42.24-1.89-.24-.95-1.18-1.42-1.18-2.37,0-.47-.47-.47-.71,0,0,.47-1.89,3.79-2.13,4.26-1.18,1.18,0,.71.71.95.24.24.71,1.18.24,1.66ZM1157.33,44.77c-.24-.24-.24-.47-.47-.71,0,.47-.24,1.18-.24,1.89h.47q.47-.24.24-1.18ZM1157.1,41.22c.24-.47.24-1.18.47-1.89-.47.47-.47.95-.71,1.42,0,.24,0,.47.24.47ZM1157.1,43.35c.24,0,.47,0,.71-.24.47,0,.71-.24.95-.47-.24-.24-.71-.47-.71-.47-.47.24-.47,0-.71,0,0,.24,0,.95-.24,1.18ZM1165.38,63.23v-.47c0-.24,0-.71-.24-.71-.47-.47-.95-.95,0-1.42.47-.47.24-.95.71-1.66.47,0,.95-.24,1.18-.47-.24-.24-.47-.24-1.18,0,.24,0,.24-.24.47-.47h-.47c0,.24-.47.24-.47.47v.47c-.95,0-1.18-.71-.95-1.18.47-.95,1.42-1.42,1.66-2.13.24-.24-.24-.71-.24-1.18,0,0-.24.24-.47.24-.47.71-.71.47-.95,0-.24,0-.71-.24-.71-.24-.47.47-1.18,1.18-1.18,0-.24-.95-.71-1.18-1.42-1.18,0,0-.24-.47-.24-.71l.95-.95c.47-.24.47.47.95.47s.95.24,1.18,0c.95-.47-.24-.71-.24-.71-.47-.95-.47-1.89,0-2.6.24-.47.71-.71.24-1.18-.71-.24-1.18-.95-1.66-1.42-.95-1.18-.95-1.66-.24-3.08.47-.95.71-1.18,0-1.66-.24-.47-.47-.95-.24-2.13.24,0,.47-.24.47-.24,0-.47,0-1.18-.24-.71,0-.47.24-.71.24-1.18,0-1.42.24-1.89,0-2.84,0-.47-.47-.71-.71-.71-.24.24-.71.24-.71.47-.24.95-.47,1.18-1.18,1.89-.24.24,0,1.42.71,1.42,1.18,0,1.42.47,1.18,1.42v.47h-.95c-.47,0-.95,0-.95.71v.95c-.24.71.71.95.71,1.66.24.24-.71.71-.71,1.18,0,1.18.71,3.79,1.89,4.26-.95.47-.71,1.66-1.42,2.37-.47.95-.95,2.13-1.89,2.84-.71.71-.71,1.42,0,2.13.47.24.71.95.95,1.66.47.71,1.18,1.18,1.42,1.89.95,1.89,2.84,3.08,4.26,4.73l.47-.47ZM1157.8,48.08c.24.24.47.47.71.47.47,0,.71-.24,1.66-.47-.95-.24-1.18-.47-1.66-.47-.24,0-.47.24-.71.47ZM1163.25,25.84c-.24.24-.47.47-.71.47-.71,0-.95.47-.95.95l.71.71c1.18-.24,2.13-.95,2.13-2.13,0-.95-.71-2.13-1.89-2.37-.24-.24-.71,0-.71.47-.24.24,0,.95,0,1.18s.71,0,.95.24c.24,0,.24.24.47.47ZM1161.59,39.33c.24-.47.24-.95.47-.95-.24.47-.24.71-.47.95ZM1164.43,149.36c-.24-.24.24-.47-.47-.71-.71-.24-1.18-1.18-2.13-.95v.47c.47.71,1.42,1.42,2.13,2.13q.24-.24.47-.95ZM1164.43,148.88c.24-.47.47-1.18.47-2.13-.47.71-.47,1.18-.47,1.42-.24.47,0,.71,0,.71ZM1164.43,21.11l.47.24c.95-.71,1.66-1.42,1.18-2.37,0-.71,0-1.18-.24-1.89-.47,1.42-1.89,2.13-1.42,4.02ZM1164.67,148.65q.24,0,.47-.24c.24-.47.24-1.18-.47.24ZM1174.13,63.7c.71-.47,0-.71-.24-1.18q-.24-.47-1.42,0c-.95.47-1.66.24-1.66-1.18v-.71c.95.24,1.18-.47.95-.95-.71-1.66-1.89-1.89-3.08-.95-.47.47-.95.95-1.42.95-.71.24-1.18.24-1.18,1.18v2.37c.24.95-.95,1.42-.71,2.37,0,.24.24.47.47.71.71-.95,1.42-.95,2.37-.95-.47.95,1.66,1.42.24,2.37.47.71,1.42.47,1.89,1.42h.95c.24,0,.47-.47.47-.47-.24-.47-.71-.71-.71-.71.47-.71.95-1.66.71-2.84.47-.47.71-.71,1.18-.71.71,0,.95-.71,1.18-.71ZM1165.38,58.97c.24-.24.47-.24.47-.47v.47q-.24.24-.47,0ZM1165.61,52.58c0,.24.24.47.24.71,0-.47,0-.71-.24-.71ZM1169.16,150.54c-.24-1.18-.95-1.42-1.89-1.66-.24-.24-.71.24-1.18.24v1.18c0,.24.24.95.47.95.71.24,1.42,0,2.13,0,.24,0,.47-.47.47-.71ZM1169.87,152.67c-.47,0-.47.24-.71.47h.47s.24-.24.24-.47ZM1172,154.09c0,.24,0,0,.71.24,0,0-.24,0-.47-.24.47.24.71,0,.47-.47,0-.24,0-.47-.24-.95-.24,0-.47,0-.47.24-.24.24-.47.24-.71.47-.24,0-.24.47-.24.47.24.24.47.24.95.24ZM1172.71,154.33c.24.47.47.71.71.71,0,0,.24,0-.71-.71ZM1173.66,154.8c0-.24-.24-.47-.71-.47,0,.24.47.24.71.47ZM1174.13,67.48c-.24,0-.24.24-.24.24,0,0,0,.47.71,0-.24-.24-.24-.47-.47-.24ZM1174.6,67.72c-.24.24-.71.47-.71.71v1.89c0,.47,0,.71.47.71.71.24,1.18-.24,1.18-.95,0-.95-.24-1.89-.95-2.37ZM1175.79,64.41c-.95,0-1.18.24-1.18,1.18,0,.24-.24.71,0,.95,0,.24-.47.71.24.95.24-.47.95-.95,1.66-1.66,0-.71,0-1.42-.71-1.42ZM1175.08,67.48c.95,0,1.42-.24,1.42-1.18q0-.24-1.42,1.18ZM1181.7,69.14c-.47,0-1.18-.71-1.42.47-.24.71-.95.47-1.66.47-.24.47-.71.95-1.18,1.66v.71c.24,0,.47.24.47.24q1.18-.24,1.42.71c0,.47.24,1.18.24,1.42.95,0,1.66,0,2.37-.24.24,0,0-.47,0-.71-.24,0-.47-.47-.47-.71.71-.47.47-1.42.95-2.13.95-1.42.71-1.89-.71-1.89ZM1178.15,65.36c.24,0,.24-.24,0-.24,0-.47-.24-.95-.47-.24,0,0,.24.47.47.47ZM1178.15,65.36h-.24s.24.24.24,0ZM1178.39,65.36c0,.47-.24.95,0,1.42,0,.24.47.47.95.71,0,.24-.24.71,0,.95,0,.24.24.47-.24,1.18.24-.24.71-.24,1.18-.47v-1.18c-.24-.24-.71-.24-.95-.47.24-.47.24-.95.47-1.18.71-.47.24-.71-.24-.71-.24-.24-.71-.24-1.18-.24ZM1185.02,73.87v-.47c-.24-.24-.47-.71-.95,0,0,0,.24.24.95.47ZM1185.02,75.77h-.47c-.24,0-.71.47-.24.71.24,0,.47-.24.71-.71ZM1184.54,73.87h.47-.47ZM1188.57,74.82c-.71-1.18-1.42-1.89-2.37-2.84,0,.71-.47,1.89-1.18,1.89v1.89h3.08c.24,0,.71-.95.47-.95ZM1185.02,75.77v.24-.24ZM1194.24,77.9s-.24-.24-.47-.24h-2.84c-.24,0-.47.47-.47.71-.24.71.24,1.18.95,1.18.95.24,1.89,0,2.37-.95.24-.24.24-.47.47-.71ZM1193.3,73.87c0-.47.24-.95,0-1.42,0-.24-.24-.24-.71-.24-.24.47-.24.95.71,1.66ZM1194.24,74.35s-.24-.24-.47-.47h-.47c.24.24.71.47.95.47ZM1194.01,74.82s.24-.24-.71-.71c.24.47.47.47.71.71ZM1208.21,80.74q-.24-.24-.47-.47c-.24.24-.47.47-.47.71,0,1.18.47,1.66,1.42,1.42l.47-.47c0-.71-.71-.71-.95-1.18ZM1210.1,79.32c0-.24-.24-.47-.24-.71-.24,0-.47.24-.47.24,0,.24.24.47.71.47ZM1210.57,82.39v.95-.95ZM1226.66,88.07q-.24,0-.24.47c.24,0,.24-.24.24-.47ZM1229.74,86.18c.47-.24.71-.47.95-.71-.47-.71-1.42-.71-1.66,0,0,0,.47.47.71.71ZM1231.39,89.96c-.47-.47-1.18-.47-1.42.24,0,0,.47.47.71.71.24-.24.47-.47.71-.47v-.47ZM1235.18,86.41l-.24-.24s-.24.24-.47.24c.24.24.24.47.47.47,0,0,.24-.24.24-.47ZM1247.48,12.11c.24,1.18,1.66,1.66,1.89,2.6,0,.95.47,1.18,1.66,1.18h2.13c-.24.24-.24.47-.47.71-.71,1.42-.71,1.66.24,2.13,2.37,1.18,2.37,1.42,2.84,4.02.24.24.71.71,1.18.47,1.18-.24,2.13-.95,3.31-.71,0,0,.24-.71.24-.95s0-.71-.24-.71c-.71-.24-.95-.24-1.66-.24-.47-.24-.95-.47-.71-.95.24-.24.71-.24.71-.47.24-.24-.24-.47-.71-.47-.24-.95-.95-1.66-1.66-1.89-1.18,0-1.66-1.66-3.08-.95-.24-1.18-1.66-1.66-2.13-2.6-1.42,0-2.13-1.42-3.55-1.18v-.47c-.24-.24-.47-.71-.71,0,0,0,.24.24.71.47ZM1260.5,23.71c-.24-.47-.47-.47-.71,0-.71.71-1.18,1.66-.95,2.84,0,.47,0,.71.24,1.18,0,0,.24.24.47.24,1.66-.24,2.37-1.18,1.66-2.6-.47-.47-.47-1.18-.71-1.66ZM1262.87,30.81c.24,0,.47-.24.47-.24,0-.24,0-.47-.24-.47q-.24.24-.24.71ZM1263.58,32.94c0,.24,0,.47.47.47,0-.24-.24-.47-.47-.47ZM1264.29,37.67c0,.24.24.47.47.71.24-.24.47-.47.47-.71,0-.47-.24-.95-.47-1.66-.24.71-.47,1.18-.47,1.66ZM1268.31,144.86c-.71.71-1.42,1.42-.95,2.84,0,.24-.24.24,0,.47v.95c.71.47.95-.24,1.18-.47.71-.71.47-1.89,1.42-2.37,0-1.42-.24-1.42-1.66-1.42ZM1269.49,142.97s.24-.24.47-.71c0-.24-.24-.24-.47-.24-.24.24-.71.47,0,.95ZM1269.96,142.02c.24-.24.47-.47.71-.95-.24.24-.47.24-.71.47v.47ZM1270.2,142.02q.47-.24.71-.47c0-.24-.24-.24-.71.47ZM1273.75,138c-.24-.47-.47-.47-.95-.24-.47.47-1.18.47-1.42.71-.24,0-.24.24-.47.24.24.24.24.47.47.47,0,0,.24,0,.47.24h1.18c.71-.24.71-.71.71-1.42ZM1271.15,111.97l.24.24c.24,0,1.18-1.42,1.18-1.66-.24,0-.24-.24-.47-.24s-.71,0-.95.47c-.24.24,0,.71,0,1.18ZM1271.38,132.79s-.24,0-.24.24.24.47.24.47v-.71ZM1271.62,125.22c0,.71.47.95.95.95.71.24,1.18-.24,1.18-.95,0-.47-.47-.47-.47-.71-1.18-.24-1.42.24-1.66.71ZM1273.75,130.43v-.47c-.24-.24-.24-.47-.47-.95,0,.24-.47.24-.47.47-.47.24-.71.47-.95.95-.24.24-.24.71,0,.95s.71.47,1.18.47c.24,0,.47-.24.71-.47v-.95ZM1274.7,126.17c0,.71.47,1.18,1.18.95.24-.24.47-.47.47-.95.24-.71-.47-1.18-.95-.95-.47,0-.71.24-.71.95ZM1277.3,128.53c-.24-.24-.47-.24-1.42,2.37,0-.71.24-1.66.71-2.84-.24.24-.95.24-.95.47v3.31c-.24.24-.71.24-.71.47-.24.24,0,.47.71.47,0,.47.24.71.47.71l-.24-.47s.24,0,.47.24c-.24-.24-.24-.47-.47-.47s-.24-.24-.24-.95c.71-.95,1.42-1.66,1.66-2.6.24-.24.24-.47,0-.71ZM1275.88,130.9c-.24.47-.24.71-.24.95,0-.24,0-.71.24-.95Z"/>
    </g>
  </g>
</svg>