<?xml version="1.0" encoding="UTF-8"?>
<svg id="Layer_2" data-name="Layer 2" xmlns="http://www.w3.org/2000/svg" viewBox="0 0 34.41 62.23">
  <defs>
    <style>
      .cls-1 {
        fill: #171717;
        stroke-width: 0px;
      }

      .cls-2 {
        opacity: .99;
      }
    </style>
  </defs>
  <g id="chapter_II_production" data-name="chapter II production">
    <g class="cls-2">
      <path class="cls-1" d="M17.2,14.03s-.02.04-.04.04h-1.26c-.1,0-.22.06-.32-.08-.1.02-.2-.06-.28.06-.02.02-.08,0-.12.02-.12.08-.2-.16-.3-.06-.12.08-.22.06-.34.06h-.72c-.08,0-.1-.06-.16-.12,0-.02.02-.04.04-.04.06,0,.14-.02.22,0,.12,0,.18-.14.32-.08.02.02.04-.02.06-.04.02-.02.06-.04.06-.06-.02-.16.14-.18.16-.28.02-.1.1-.16.08-.24,0-.1-.04-.2.06-.28.04-.02.02-.08.02-.14V.82s-.02-.02-.04-.02c-.06.04-.1.08-.12.14-.12.28-.3.56-.42.86-.1.06-.02.16-.06.24-.08.06-.06.16-.16.2.04.12-.08.16-.1.26,0,.06-.08.14-.1.22-.02.1-.04.18-.1.28-.02.04,0,.1-.04.14-.1.14-.14.34-.24.48-.04.08-.1.16-.16.22-.04.08-.02.16-.06.22-.04.08-.04.18-.06.24-.04.06-.06.14-.08.2-.04.1-.06.18-.14.26-.06.04-.1.08-.1.18-.1.1-.12.28-.24.4.06.14-.12.24-.08.36-.08.2-.2.42-.32.62,0,.02,0,.04-.02.06-.04.08-.14.12-.12.24,0,.06-.08.12-.08.2,0,.12-.14.2-.08.32-.1.06-.08.2-.16.24.02.08-.04.12-.08.18-.06.04-.08.1-.08.14-.02.12-.08.2-.12.28-.06.08-.14.14-.12.28.02.08-.06.12-.08.14,0,.02-.28.74-.3.76-.12.18-.2.36-.28.56-.04.04-.04.1-.04.16,0,.02-.12.22-.14.22-.08.08-.12.16-.1.3l-.12.26c-.08.08-.16.14-.14.26.02.04-.06.08-.06.12-.02.1-.12.16-.08.28-.1.08-.06.2-.16.26.02.08-.04.12-.1.16,0,.04-.06.08-.04.08.04.12-.06.2-.1.3-.04.06-.06.16-.14.22-.04.02-.02.06-.02.1.02.1-.02.2-.1.28-.02.02-.02.06-.04.1-.1.14-.18.3-.24.44-.02.08-.12.14-.08.26.02.06-.1.1-.1.2,0,.14-.12.24-.18.4,0,.04-.02.06-.06.08-.04.04-.12.04-.14-.02-.1-.24-.18-.44-.3-.62,0-.18-.14-.3-.18-.44-.02-.12-.18-.16-.16-.28-.2-.34-.36-.72-.54-1.08-.18-.36-.36-.72-.56-1.08-.06-.12-.1-.22-.18-.32-.06-.08-.1-.2-.16-.28-.14-.28-.26-.56-.4-.84-.1-.06,0-.18-.1-.26-.06-.04-.06-.18-.1-.24-.08-.08-.1-.22-.2-.28,0-.02-.04-.08-.04-.08,0-.2-.12-.34-.22-.48-.1-.16-.16-.32-.26-.5-.08-.1-.14-.24-.2-.38-.04-.06-.06-.16-.14-.22-.08-.04-.06-.14-.14-.22-.02-.02.02-.1,0-.16-.12-.2-.24-.42-.34-.64-.06-.04-.04-.14-.08-.16-.06-.04-.02-.12-.04-.18-.02-.06-.04-.14-.08-.16-.1-.1-.48-.82-.54-.98-.02-.06-.06-.12-.12-.18-.02-.02-.08-.04-.06-.1.04-.1-.06-.14-.08-.24-.02-.08-.08-.16-.1-.22-.1-.16-.18-.32-.26-.5-.02-.02-.02-.06-.04-.1,0-.1-.22-.42-.3-.5-.08-.12-.12-.26-.2-.4-.02-.04-.06-.08-.04-.14,0-.06-.02-.08-.06-.12-.14-.12-.14-.3-.26-.46.04-.1-.06-.16-.08-.24,0-.02-.02-.04-.04-.06-.04-.02-.04-.12-.08-.06-.06.02-.08.06-.1.12-.02.04-.02.08-.02.1v1.56c0,.08,0,.14.08.2.02,0,.02.06,0,.06-.12.14-.06.28-.06.42-.02.36-.02.7-.02,1.06,0,.1-.02.2.08.28.04.04.04.14,0,.16-.08.06-.08.16-.08.24v1.34c0,.08-.02.16.08.22.02,0,.02.08,0,.1-.06.06-.08.12-.08.18v1.62c0,.08.02.1.08.16.02.02.02.06,0,.08-.12.12-.06.26-.06.4-.02.38-.02.74-.02,1.12.02.08-.04.22.08.32.02,0,.02.06,0,.08-.08.02-.08.1-.08.2v1.38c0,.08-.02.14.08.2.02.02.02.08.02.12,0,.14.02.26-.02.4-.02.1.08.16.08.28-.02.12.08.16.14.22.16.2.32.28.52.28.12.02.18.12.3.1.08-.02.18,0,.28,0l.02.02s-.02.06-.04.06h-.8c-.08,0-.1-.08-.14-.08-.14,0-.28-.06-.38.06-.02.02-.04.02-.08.02H.12s-.04-.02-.06-.04c.02-.02.04-.04.08-.04.12-.02.22.04.32-.06.1-.06.2,0,.3-.02.04-.02.08-.02.1-.04.1-.08.14-.16.22-.24.12-.08.12-.28.24-.38t.02-.04c0-.08,0-.2.02-.3.1-.06.04-.18.04-.3v-.66c0-.1.04-.2-.06-.28.02-.1-.06-.2.04-.3.02-.02.02-.06.02-.1v-1.44s.02-.06-.02-.08c-.1-.1-.02-.22-.04-.32.1-.04.06-.18.06-.28v-1.12c0-.08.02-.18-.04-.22v-.26c.06-.06.04-.16.04-.22v-1.32c0-.06,0-.12-.06-.2-.02-.02-.02-.12,0-.14.08-.08.06-.18.06-.3,0-.32.02-.66,0-.98,0-.14.08-.34-.06-.46.02-.14-.06-.28.04-.38.02-.04.02-.1.02-.16v-1.3c0-.08,0-.14-.04-.22-.06-.06-.06-.2,0-.28.08-.08.02-.18.04-.26-.1-.12-.06-.24-.06-.36-.02-.08.02-.16-.02-.22-.08-.08-.08-.22-.18-.26-.06-.02-.1-.08-.14-.14-.12-.12-.3-.18-.44-.2h-.56c.28-.04.52-.04.76-.06.12,0,.26.06.36-.08h.28c.08,0,.14.12.26.1.08-.04.2-.02.3-.02h.64s.06.04.08.06c.12.28.26.56.38.82.02.04.06.08.1.12.06.1.14.2.16.34,0,.08.06.14.1.22.06.16.14.28.2.44.04.08.1.12.08.2,0,.02.02.06.02.08.22.22.3.54.44.8.1.14.18.32.28.48.1.14.2.28.2.46.02.02.02.06.04.08.14.08.16.3.26.42.06.1.1.22.16.32.04.06-.02.16.06.24.06.04.08.14.12.22l.12.24c.04.06.08.14.1.22.16.2.3.46.4.7-.04.14.08.18.14.26.1.2.18.38.26.56.06.16.24.56.32.68.04.02.06.06.08.1.1.14.06.3.2.4.12.26.26.54.4.78.1.2.2.42.3.62.1.06,0,.16.08.24.06.06.1.16.12.24.02.06.08.1.1.14.08.04.04.14.08.18.06.04.06.06.06.12,0,.04.02.08.04.12.04.04.1.1.12.16.08.14.16.32.24.48.12.22.18.48.4.66,0,.12.08.18.1.26,0,.04.06.1.08.08.04-.02.08-.06.12-.1.02,0,.02-.04.02-.06-.04-.1.06-.14.08-.22,0-.06-.02-.1.02-.16.08-.06,0-.18.1-.26.06-.04.06-.14.1-.22s.1-.14.14-.22c.02-.1.18-.42.24-.5.06-.08-.02-.2.1-.26.02-.16.18-.28.16-.46.1-.1.16-.26.2-.4.06-.18.14-.34.24-.52.08-.16.16-.32.24-.5.06-.1.08-.24.14-.36.06-.12.14-.22.12-.34.12-.16.18-.36.28-.52.06-.12.08-.26.2-.36-.02-.12.04-.18.08-.28.06-.1.1-.18.06-.28.14-.08.06-.28.22-.36.12-.24.2-.46.36-.68-.06-.12.08-.2.06-.28,0-.1.1-.16.08-.26.08-.06.06-.18.16-.24-.02-.08.04-.12.1-.18.02,0,.06-.04.06-.06-.04-.14.08-.22.1-.32.12-.06,0-.24.14-.3.02-.02,0-.1,0-.16,0-.04,0-.1.04-.12.12-.08.14-.26.24-.4.04-.08.08-.18.16-.24,0-.02.02-.06.02-.08-.02-.1.12-.18.1-.32-.02-.06.08-.06.06-.12,0-.1.12-.14.1-.26,0-.04.06-.14.08-.22.04-.08.14-.14.14-.22s.18-.44.24-.5c0-.24.2-.42.28-.64.08-.08,0-.22.12-.3-.02-.06.02-.08.06-.14.04-.04.04-.06.06-.12.1.04.12-.1.2-.08.08.02.16-.04.24.04.02.04.06.04.12.04h1.38c.08,0,.14,0,.18-.06.04-.02.1-.02.14-.02.02,0,.04.04.06.04,0,.02-.02.04-.02.04-.08,0-.12.04-.16.06-.06.02-.14,0-.2.02-.06,0-.12-.02-.14.02-.06.08-.14.04-.2.1-.08.1-.16.2-.24.26-.08.06-.08.14-.12.2-.08.1.02.26-.06.38-.06.08-.04.22-.04.34,0,.02.04.04.04.06.02.02.04.08.04.08-.1.12-.08.26-.08.38v1.1c0,.14-.04.26.08.36v.24c-.1.06-.08.18-.08.28v1.22c0,.08,0,.16.06.22v.26c-.06.04-.06.14-.06.22v1.2c0,.08,0,.14.04.2.08.1.06.24,0,.36-.02.06-.04.1-.04.18v1.26c0,.14.14.22.08.36-.02.08.02.16-.06.22-.02.02-.02.06-.02.08v1.44c0,.06.02.1.06.14.02.02.02.1,0,.12-.06.04-.06.12-.06.2v1.14c0,.1.06.16.08.24.02.1-.04.18.04.26.06.06.08.16.12.24.06.1.3.38.42.38h.14c.12-.02.22.02.3.06.08.06.2.02.32.06ZM1.46,13.45h-.04s-.04.1,0,.12h.04s.04-.08,0-.12ZM1.78.42s-.08-.06-.08-.1c-.06.04-.1.08-.12.12,0,0,.02.04.04.04l.06.06h.06s.06-.02.06-.04c0-.02,0-.06-.02-.08ZM1.94.34s-.04,0-.06.02c.02,0,.02.02.04.02,0,0,.02-.02.02-.04ZM2.16.54s.02-.04.02-.06h-.1s-.04.06-.04.08c0,.02.02.06.04.08,0-.02.02-.02.02-.04l.06-.06ZM2.18.84s-.02-.02-.02-.04c-.02,0-.02.02-.04.02.02,0,.02.02.06.02ZM2.34.52s0-.04-.02-.04c0,0-.02,0-.02.02s.02.02.04.02ZM2.54.7s.04-.02.06-.02v-.12c0-.06-.02-.08-.06-.08s-.1,0-.1.02c-.02.04,0,.08.02.12.02.02.04.06.08.08ZM2.74.9s-.08-.08-.12-.1c-.02,0-.1.02-.1.02-.04.14,0,.22.14.2,0,0,.02.02.04,0,.02,0,.08-.08.04-.12ZM2.98,2.4s-.08-.04-.12-.02c-.04,0-.04.08-.02.12,0,.02.02.02.04.04.02-.02.04-.06.08-.08,0-.02,0-.04.02-.06ZM3.14,2.24v-.04h-.04c-.04.06-.04.08-.04.1,0,.02.02.04.04.06,0-.02.04-.02.04-.04v-.08ZM3.22,2.06v.08s-.08.02-.08.06c.06,0,.08,0,.08-.06.02,0,.06-.02.06-.02.02-.06,0-.06-.06-.06ZM3.22,2.06v-.04s-.04-.06-.06-.02c-.02.02.02.04.06.06ZM3.18,2.06h.04-.04ZM3.46,2.76s-.02-.04-.04-.06c0,0-.02.02-.04.02-.02.02-.06.08-.06.1.02,0,.04.02.06.02.04.02.08,0,.08-.08ZM3.54,2.54s.02.04.06.04c0-.02-.02-.04-.02-.04h-.04ZM3.86,3.5c0-.06-.1-.18-.12-.18-.02,0-.04.02-.04.04.02.12-.08.16-.14.22,0,0,0,.02.02.04,0,.02.02.02.04,0,.08-.04.14-.04.22-.08,0-.02,0-.04.02-.04ZM3.62,3.92s-.04-.02-.06-.02c0,.02.02.02.06.02ZM3.76,4.26s-.02,0-.02.02c-.04.02-.04.1,0,.12,0,.02.02.02.02,0,.02-.02.02-.1,0-.14ZM3.84,4.04s0-.06-.02-.12c-.04.06-.04.08-.04.12,0,.02.02.04.04.06,0-.02.04-.04.02-.06ZM4.26,4.3c-.08-.04-.1-.12-.18-.1-.02,0-.04.02-.06.04.06.02.08.12.16.1.02,0,.04-.02.08-.04ZM4.7,5.24c-.08-.12-.1-.12-.2,0,0,.04.02.06.04.06h.16s.04-.04,0-.06ZM4.66,4.88s.06-.02.06-.02l-.04-.04s-.02.04-.02.06ZM5.26,5.8s-.16-.04-.2,0c.04.04.08.04.1.06.04-.02.06-.02.1-.06ZM5.26,6.98s-.04.02-.06.04h.04s.02-.02.02-.04ZM5.44,6.2s-.04-.02-.08-.04c-.02.02-.06.02-.08.04-.02.02-.02.06,0,.08.02.04.06.04.08,0,.02-.02.04-.04.08-.08ZM6.16,8.16s-.08-.02-.1-.02c-.14,0-.18.04-.16.2.02.02.04.02.06.02.02,0,.02-.02.04-.02.02-.04.06-.08.1-.12.02-.02.04-.04.06-.06ZM5.9,7.78s.04.02.06.02c.02,0,.02-.02.02-.02,0-.02-.02-.02-.04-.04-.02,0-.02.02-.04.04ZM6.3,8.3v-.04s-.04-.06-.08,0c0,0,.02,0,.08.04ZM6.3,8.89s-.04-.02-.06-.02c0,.04.02.04.04.06,0-.02.02-.02.02-.04ZM6.38,8.34s-.02-.02-.04-.04h-.04s.04.04.08.04ZM6.3,8.32s.04.04.06.06c0,0,0-.02-.06-.06ZM6.7,10.02s-.02-.04-.04-.06c-.02.02-.04.04-.04.06,0,.02,0,.04.02.08.04-.02.06-.04.06-.08ZM7.18,10.48v-.04s-.02-.04-.02-.08c-.02.02-.04.02-.06.04-.08.06-.14.12-.2.18s0,.08.02.12c.02.02.04.08.08.02.06-.06.1-.1.16-.16.02-.02.02-.06.02-.08ZM6.94,10.06s.02.04.08.04.08-.02.08-.1c-.02-.02-.06-.04-.08-.04-.06-.02-.1.04-.08.1ZM7.08,10.83h-.04s-.04.12,0,.14c0,.02.02,0,.04,0,.04-.02.04-.1,0-.14ZM7.2,11.15s0,.02-.02.04c.02,0,.02.02.04.02,0-.04,0-.06-.02-.06ZM7.26,9.93s.02.02.02.04c.02-.02.04-.04.04-.06,0,0-.02-.02-.04-.02,0,0-.02.02-.02.04ZM7.32,11.35s-.02-.02-.06-.02c0,.02.02.04.02.06t.04-.04ZM7.38,10.36s-.04.02-.04.02c.02.02.02.04.04.06v-.08ZM7.62,11.63s-.06.02-.06.04c0,.08-.02.16.08.22.02.02.04.02.06.02.02-.02.02-.04.02-.06.04-.1-.04-.16-.1-.22ZM7.88,12.47s-.02-.04-.02-.06l-.04.04s.02.04.04.04l.02-.02ZM8.16,12.71s.04.02.1.02h.14s.06,0,.04-.04c-.02-.02-.04-.04-.06-.04-.08,0-.16.02-.2-.06,0-.02-.04,0-.04.02s0,.08.02.1ZM8.28,13.31h-.08s.02.04.02.04c.02-.02.04-.02.06-.04ZM8.58,12.77s-.06-.04-.1-.04-.06,0-.04.02c.04.02.1.02.14.02ZM8.46,12.31s.04-.02.04-.04c-.02,0-.04.02-.04.04ZM8.58,13.57s-.02-.02-.04-.02c0,0,.02.02.04.02ZM13.32,14.05s-.04-.02-.04-.04c.04,0,.04.02.04.04ZM15.22,13.71s-.06-.06-.08-.1c-.04-.02-.04-.04-.04,0-.02.04-.02.1-.04.12-.06.06-.06-.06-.12-.06-.08.02-.1-.06-.16-.08h-.06l-.04.04c.04.1.34.24.42.2.04-.02.08-.08.12-.12ZM14.84,11.09s.02.06.08.06.08-.02.08-.12c-.02,0-.06-.04-.08-.04-.06,0-.1.04-.08.1ZM14.84,11.97s.06.04.08.06c.06-.02.1-.02.14-.02,0-.02.02-.04.02-.08.02-.04-.02-.06-.06-.08-.04,0-.2.1-.18.12ZM14.92.4h-.04.04v.08s.06-.02.06-.02c.02-.04-.02-.06-.06-.06v-.04s-.04-.06-.08,0c0,0,.02.02.08.04ZM14.84,10.47s.06.06.08.08c.02.02.04.02.06.02,0-.02.02-.08.02-.1-.02,0-.06-.02-.1-.04-.02.04-.04.04-.06.04ZM14.86.54s.04-.02.06-.06h-.04s-.06.02-.02.06ZM15,.68s-.1.06-.08.12c0,.04.16.18.18.2.04.06.04-.02.04-.04.02-.04.04-.1.08-.14,0,0-.14-.12-.14-.14-.04-.06-.06-.04-.08,0ZM15,11.49s-.06.06-.08.1c-.02.02.04.12.14.12.04-.06.1-.1.08-.18,0-.04,0-.1.06-.16s.08-.06.12.02c0,.06.02.08.06.08s.14-.08.14-.1c0-.02.02-.04,0-.04-.04-.06-.08-.14-.14-.16-.06-.02-.16.02-.2.06-.06.06-.1.06-.16.1-.06.04,0,.12-.02.16ZM15,5.8v-.22s-.02-.04-.02-.04c-.02.02-.06.02-.06.04v.22s.02.04.02.04c.02-.02.06-.02.06-.04ZM14.96,10.27s-.04.02-.02.04c0,.02,0,.04.02.06v-.1ZM14.98,2.16s-.04.02-.04.04c.02,0,.04,0,.04-.04ZM15.04,3.32s-.1.08-.1.14c.06.02.08.02.2.1v.1s.04.04.04.04c.02-.02.06-.04.08-.06.02-.02.08-.06.02-.08-.02,0-.02-.02-.04-.02-.02-.02-.04-.08-.1-.06,0,0,0,.06-.1,0h.04s.08.04.06-.04c0-.08,0-.12-.1-.12ZM15.06,7.58s.1-.02.08-.08c0-.02-.02-.06-.04-.08-.06,0-.1.02-.1.08s.02.08.06.08ZM15.6,13.27s.04-.08,0-.12l-.12-.12c-.04-.06-.08-.08-.16-.08-.04.02-.12,0-.14.04-.04.02-.02.1-.04.14,0,.08-.04.08-.1.08,0,0-.04.02-.02.04.08.08.14.18.24.26.04,0,.06-.02.06-.02-.02-.08,0-.14-.04-.2q-.06-.1.02-.18c.06-.08.08-.08.1,0,0,.12.1.16.2.16ZM15.02,9.04s.02.04.02.04c0,0,.02,0,.02-.02,0-.02-.02-.02-.04-.02ZM15.24,12.57h.2v-.04c-.06-.04-.12-.02-.16-.04-.08-.04-.04-.12-.06-.18v-.12s-.02-.02-.04-.02c-.04.08-.06.12-.08.16-.08.2-.02.26.14.24ZM15.1,1.42h.02s.04-.12,0-.14h-.02s-.04.1,0,.14ZM15.14,7.84s-.02-.02-.04-.02c0,.02-.02.04-.02.06,0,.08.02.12.1.1.02,0,.02-.02.04-.02,0-.06-.06-.08-.08-.12ZM15.1,4.74s-.04.04,0,.08c0,0,.02-.02.04-.08h-.04ZM15.28,1.68c-.06,0-.16.12-.14.18,0,0,.02.02.04.02.06,0,.14-.1.14-.18t-.04-.02ZM15.2,4.6h-.04s0,.06-.02.1v.04s.04-.1.06-.14ZM15.22,5.5v-.08s.02-.06,0-.08c0-.02-.02-.04-.04-.04,0,0-.04.02-.04.04,0,.06.02.12.02.16,0,.02.02.04.02.04.02,0,.04-.02.04-.04ZM15.22,11.67s-.02-.04-.04-.04c0-.02-.02-.02-.04,0t.04.06s.02-.02.04-.02ZM15.32,4.26s-.02-.06-.08-.06c-.02,0-.08.02-.08.04-.02.02,0,.06.02.08.02.04.04.06.08.08,0,.02.04,0,.06-.02v-.12ZM15.16,4.74s.04-.02.06-.02c.02-.06.02-.12-.06.02ZM15.3,7.74s.06-.02.08-.04c-.04-.04-.12-.04-.14,0,0,0,.04.02.06.04ZM15.24,10.47s.02.04.04.04c.02,0,.04,0,.12.04-.02.04-.08.06-.08.08,0,.04.06.06.08.1.02,0,.04.02.04,0,.04-.02.06-.06-.04-.18.04.02.08.04.14.08-.04-.04-.08-.08-.1-.12-.04-.02-.04,0-.04.04t-.04-.04s.06,0,.04-.04c-.06-.02-.08-.02-.1-.02-.02,0-.04.02-.06.02ZM15.44,5.14c-.06.04-.08.08-.12.12.02.02.04.04.04.04.02.02.04.04.06.06h.06s.06-.02.06-.04,0-.06-.02-.08c-.02-.04-.06-.08-.08-.1ZM15.48,12.35s.08-.06.06-.12c0-.02,0-.04-.02-.04-.06-.02-.12-.02-.16-.08-.02.02-.04.04-.04.06.02.04.04.12.08.18.02.08.04.08.08,0ZM15.46,7.12s-.02-.06-.04-.08c-.04.02-.04.12,0,.14.02,0,.02-.04.04-.06ZM15.52,10.06s-.08-.02-.1,0c-.02.02-.02.04-.02.08,0,.02.04.04.04.04.04-.04.06-.08.08-.12ZM15.44,13.65s0-.04-.02-.04c0,.02,0,.04.02.04ZM15.62,11.97c.02-.08-.02-.12-.08-.12-.04,0-.08.02-.08.06-.02.08.02.12.08.1.04,0,.06-.02.08-.04ZM15.52,9.81s-.04.02-.06.02c0,.02.02.04.02.04.02,0,.04-.02.04-.06ZM15.48,1.14s.02.04.02.04t.02-.02s0-.02-.04-.02ZM15.54,1.96l-.06.06c.02.06.1.06.14,0-.02-.02-.06-.04-.08-.06ZM15.48,3.38s.04-.02.06-.02c0-.02-.02-.02-.02-.04-.02.02-.04.02-.04.06ZM15.5,4.02s-.02.04-.02.06c0,.02.02.02.02.02.02,0,.02-.02.02-.04t-.02-.04ZM15.5,11.61v.1s.02-.04.02-.06c0,0,0-.02-.02-.04ZM15.58.78h.02s.04-.1,0-.14h-.02c-.06.02-.06.12,0,.14ZM15.74,13.51s-.08-.08-.12-.1c0-.02-.04-.02-.04-.04-.02.02-.02.06-.04.08,0,.08.02.12.08.18.06.04.1.06.14.04.04-.04.02-.1-.02-.16ZM15.56,1.52s.02.04.02.06l.04-.04s-.02-.02-.06-.02ZM15.7,13.79s-.02-.02-.04-.04c0,.02-.02.04-.02.06t.02.04s.04-.04.04-.06Z"/>
      <path class="cls-1" d="M34.4,31.78c0,.12-.06.2-.08.28-.02.08,0,.18,0,.28-.18.08,0,.28-.16.38-.02.02,0,.06-.02.1,0,.12.04.26,0,.36-.04.12-.1.26-.1.38-.02.12-.16.2-.12.32.02.04-.04.06-.06.1-.04.04-.1.08-.12.14,0,.08-.08.12-.06.22-.08.12-.04.32-.22.42-.02.02-.02.04-.02.06-.06.12-.1.26-.22.34-.1.06-.08.18-.18.26-.06.06-.16.1-.16.24-.08.12-.18.18-.26.32-.06.14-.2.2-.28.32-.12.1-.22.2-.34.3-.02.06-.12.04-.18.12-.06.06-.1.14-.2.14-.08.02-.12.1-.2.1-.08.02-.1.14-.18.16-.12,0-.14.18-.28.14-.08.1-.22.1-.3.2-.04.08-.12.08-.2.12-.06.02-.14-.02-.18.04-.04.06-.14.02-.16.1-.02.02-.06.04-.08.02-.1-.04-.14.1-.24.08-.14-.02-.24.06-.36.08-.04.02-.06.1-.14.08-.14-.06-.24.12-.38.08-.08.1-.2.08-.3.08h-.36c-.14.02-.34-.08-.46.08-.2,0-.38.02-.56,0-.04,0-.08.02-.14.04-.02.02-.08.04-.1.02-.06-.06-.14-.06-.2-.06-.12.02-.22,0-.32,0-.1.02-.2-.02-.3-.06-.06-.06-.2.02-.28-.08,0-.02-.06-.02-.08-.02h-.38c-.1-.12-.24-.06-.36-.08-.1-.02-.18-.1-.3-.08-.06-.12-.24-.02-.32-.16-.14.04-.22-.08-.34-.12-.1-.04-.2-.08-.3-.14-.16-.06-.32-.16-.48-.26-.18-.08-.34-.14-.48-.3-.06-.06-.16-.06-.24-.16-.06-.08-.12-.18-.24-.2-.08-.02-.14-.1-.2-.16-.08-.08-.14-.16-.22-.24-.06-.04-.12-.12-.2-.18-.08-.06-.06-.16-.14-.22-.08-.06-.08-.16-.14-.22-.06-.06-.16-.12-.18-.2-.02-.1-.12-.14-.16-.2-.04-.1-.1-.18-.14-.26-.06-.08-.08-.18-.14-.26-.06-.1-.1-.18-.14-.26-.02-.08-.08-.22-.12-.26-.04-.06-.06-.14-.12-.2.06-.12-.08-.18-.08-.28.02-.1-.06-.14-.08-.2,0-.08.02-.16,0-.26,0-.08-.1-.16-.06-.28-.1-.06-.1-.14-.08-.22.02-.12-.12-.16-.1-.26.02-.08.02-.18.02-.28-.14-.16-.08-.38-.1-.56v-1.42c0-.08-.02-.16.08-.24.02-.02.02-.1,0-.16,0-.06.12-.54.16-.56.06-.04-.02-.16.08-.22.04-.04,0-.14,0-.22s.1-.12.08-.2c0-.06-.02-.14.04-.2.06-.04.06-.12.12-.18.06-.1.1-.24.1-.34.12-.08,0-.24.14-.3.12-.06.12-.2.18-.28.02-.04.02-.08.04-.1.14-.1.2-.24.26-.38.02-.04.04-.08.06-.1.16-.1.18-.3.34-.42-.02-.06.02-.1.06-.14.1-.1.2-.2.3-.28.02-.02.08,0,.1-.04.08-.08.16-.18.24-.26.1-.02.2-.08.26-.16.06-.06.12-.1.16-.18.06-.06.16-.04.24-.12.02-.06.08-.14.18-.12.04-.08,1.04-.54,1.12-.56.02,0,.02-.04.06-.04.08-.06.22.04.3-.1.1,0,.2-.12.32-.1.08-.1.22,0,.3-.1.02-.04.08-.04.12-.04.14-.02.34.08.46-.08.04-.02.1,0,.14,0,.16-.02.36.06.5-.08.04-.02.12,0,.16,0h.86c.12,0,.24-.04.32.06v.02c.16.02.3-.06.44.04.12.1.26.04.42.04.12,0,.18.06.28.08.08.02.18,0,.26,0,.06.08.16.08.26.08.06.14.26.02.34.16.12-.04.22.08.34.14.1.02.22.06.32.14.08.06.14,0,.2.06.06.04.14.06.18.1.06.06.12.04.18.08.04.04.12.04.18.1.04.08.1.16.24.18.08.02.1.14.2.14.06.02.1.08.16.14.26.26.52.54.82.8.06.08.1.2.18.28.06.06.16.1.16.24,0,.02.04.04.06.06.06.08.18.12.2.24,0,.1.16.12.14.24.08.06.06.2.16.26.04.16.14.28.2.42,0,.04.04.08.04.1-.04.12.1.16.08.24-.02.12.02.22.08.3-.04.1.06.18.08.28,0,.06.08.1.08.16-.02.08-.04.18,0,.24.06.06.08.12.08.2.1.12.06.24.08.36,0,.12-.04.22.08.3-.02.14.04.28-.08.4-.02,0-.02.06,0,.08.12.08.08.22.08.36,0,.28-.02.54,0,.82ZM20.26,30.08s.02.04.02.06c.02,0,.04,0,.04-.02.02-.02.06-.06.08-.08.02-.02.02-.06,0-.06-.02-.02-.06-.04-.08-.04-.02,0-.06.02-.06.04-.02,0,0,.02,0,.06v.04ZM20.32,31.5c.06,0,.08,0,.18-.1.02.02.04.04.06,0t-.04-.04s.04-.04.06-.06c0-.06,0-.1-.02-.16,0-.02-.04-.04-.06-.04s-.06.02-.08.02c0,.08-.02.16-.02.24h.04s-.02,0-.04.02c0-.02-.02-.02-.04-.02-.02.02-.1.08-.1.12.02,0,.06.02.06.02ZM20.28,30.42s.02.04.02.06c0-.02,0-.06-.02-.06ZM20.54,32.23s.04,0,.04-.04c-.02-.02,0-.04,0-.04-.02-.04-.02-.06-.04-.08-.02-.02-.04-.04-.04-.08-.02-.08.04-.08.1-.08v-.18c-.06.02-.12.02-.18.04,0,.1-.1.16-.1.28,0,.04.04.08.06.12.04.04.1.06.16.06ZM20.5,32.54s-.04-.06-.06-.1c0,.04-.02.08-.04.12,0,0,.04.04.04.06.02-.02.04-.04.06-.08ZM20.46,30.78s.04.02.08.02c0,0,.02-.02.04,0,.04,0,.08-.04.08-.08,0-.02-.02-.06-.04-.08-.04,0-.08.02-.12.04-.02,0-.06.02-.08.06,0,0,.02.04.04.04ZM20.5,31.38s-.04-.02-.06-.02c.04,0,.06,0,.06.02ZM20.48,30.08c.02.06.06.1.1.12.06.06.08.12.08.2s0,.08.1,0c.06-.02.12-.02.18-.02.02-.08-.08-.12-.12-.16-.08-.08-.12-.16-.1-.24,0-.04,0-.08-.02-.1,0-.02-.04-.04-.06-.04-.1.04-.16.14-.16.24ZM20.54,30.88s-.04.02-.06.04h.1l-.04-.04ZM20.62,32.24s0-.02-.04-.02c-.02,0-.02.02,0,.04,0,0,.02.02.04.04v-.06ZM20.66,31.82s-.02-.04-.02.06c.02-.02.02-.04.02-.06ZM20.66,29.4s.04.04.04.06c.04-.02.06-.02.08-.04.02,0,.02-.02,0-.02-.02-.04-.12-.04-.12,0ZM20.68,32.7s.02-.08.04-.1c-.02-.02-.02-.04-.04-.06-.02.02-.02.04-.02.06s0,.06.02.1ZM21.04,32.89s0-.04-.04-.04h-.1c-.14.02-.16.14-.24.2l.02.04s.02.04.04.06c.02.06.04.1.08.14s.08.06.08,0c0-.02.02-.06,0-.08-.06-.06-.1-.1,0-.14-.02-.14.08-.12.12-.14.02,0,.02-.02.04-.04ZM20.72,28.46s.02.02.02.04h.08s.06.02.08,0c.04,0,.08-.02.08-.08-.02,0,0-.02-.02-.04-.02-.04-.04-.04-.08,0-.04.02-.08.04-.16.08ZM20.8,28.74h-.04s-.06.04,0,.08c0,0,.02-.04.04-.08ZM20.74,33.77s0,0,0,0c.02.04.1.04.14,0-.04-.06-.12-.04-.14,0ZM20.82,32.16s-.02.06-.02.08c-.02.06-.12.08-.02.16s.1-.02.16-.02.1-.02.1-.1c0-.04,0-.08-.02-.12-.02-.04-.18-.04-.2,0ZM20.98,28.74h-.1s0-.06-.02-.06c-.04-.02-.06,0-.06.06h.08s.02.06.04.06c.04.02.04,0,.06-.06.02-.02.04-.04.04-.06l-.02.02v-.04s-.02.02-.02.04c-.02,0-.02.02,0,.04ZM20.8,28.78v-.04.04ZM20.86,29.76c.08.02.12-.02.1-.08,0-.04-.02-.04-.04-.06-.08-.02-.12.02-.12.06,0,.06.02.08.06.08ZM20.92,31.18s.04-.02.04-.02c-.02-.02-.02-.04-.04-.06,0,.02-.02.02-.02.04,0,.02.02.04.02.04ZM21.26,28.96s.04-.02,0-.04c-.02,0-.02-.02-.04-.02-.08.04-.16.06-.22.08-.02,0-.02.02-.04.04.04,0,.04.02.06.04h.06c.08.04.12-.06.18-.1ZM21,30.06s.02-.02.04-.02c-.02-.02-.02-.04-.04-.02,0,0-.02,0-.04.02.02,0,.02.02.04.02ZM21.02,27.96v.04s-.04.08-.04.08c.06.04.04.12.08.18.08-.06.16-.12.22-.2-.04,0-.16-.08-.16-.12v-.18s-.06-.04-.06-.02c-.04.02-.06.06-.08.12-.04.04.02.08.04.1ZM20.98,28.74s.02-.02.02-.04c0,.02,0,.04-.02.04ZM21.04,32.85s.06-.02.06-.04c0,0,0-.02-.06,0-.02.02-.02.04,0,.04ZM21.12,33.47v-.08s-.04-.04-.06-.04c0,0-.02,0-.02.02,0,.04-.02.06.08.1ZM21.12,33.48s-.02.02,0,.04l.08.08s.04.02.06.02.02-.02.02-.04c0-.02,0-.04-.16-.1ZM21.2,34.4s-.02-.04-.02-.04c-.02.02-.04.02-.04.06.02,0,.04-.02.06-.02ZM21.28,33.47s-.02-.04-.04-.04-.04.04-.08.04c.04.02.08.04.12.04v-.04ZM33.04,32.81v-.32c0-.1.12-.18.08-.32-.02-.16,0-.36,0-.54,0-.06-.02-.14.02-.16.12-.1.06-.26.06-.42.02-.08,0-.2,0-.3-.12-.06-.06-.18-.08-.28-.02-.22.08-.48-.08-.68v-.32c.04-.14-.1-.18-.06-.32,0-.08.04-.18-.04-.22-.08-.06-.02-.16-.06-.22-.02-.06-.1-.1-.08-.16.04-.1-.1-.12-.08-.22.04-.1-.08-.16-.06-.28,0-.08-.1-.16-.14-.26-.04-.12-.14-.2-.1-.34,0-.06-.02-.1-.06-.14-.06-.06-.12-.1-.1-.18-.1-.08-.1-.22-.22-.28-.04-.04-.02-.16-.1-.2s-.08-.12-.1-.18c-.06-.12-.12-.2-.2-.28-.14-.12-.28-.26-.4-.38-.12-.14-.24-.26-.36-.36-.2-.04-.26-.26-.42-.34-.04-.04-.06-.08-.14-.08-.06-.08-.18-.08-.28-.18-.06-.06-.16-.08-.24-.16-.04-.06-.14-.1-.2-.14-.1-.04-.18-.1-.3-.06-.04-.08-.12-.08-.2-.08s-.12-.12-.2-.1c-.04-.06-.1-.08-.18-.06-.14,0-.24-.02-.38-.02-.1-.14-.3.02-.38-.12-.08,0-.18-.02-.28-.02-.08,0-.14-.12-.24-.08-.08.02-.16,0-.24,0s-.14.1-.24.1c-.16,0-.36-.08-.52.04-.1,0-.22.04-.3,0-.14-.02-.22.12-.32.1-.24-.04-.4.06-.58.16-.08.04-.14.1-.24.08-.02,0-.06,0-.08.02-.1.12-.24.16-.38.24-.1.08-.24.08-.36.18-.08.12-.26.14-.36.26-.02.04-.28.24-.3.24-.1,0-.12.08-.18.1-.06.06-.12.12-.16.18,0,.14-.12.16-.18.24-.08.08-.08.22-.2.28-.08.06-.12.16-.22.22-.1.08-.1.2-.2.28-.06.04-.04.14-.1.18-.06.06-.06.18-.14.24.06.12-.06.22-.1.3-.04.1-.06.22-.18.28-.02.02-.04.06-.02.08.02.12-.12.16-.1.28-.04.04-.08.1-.06.16.02.08-.1.1-.08.16.06.18-.12.3-.08.5,0,.02,0,.06-.02.06-.14.08.02.3-.14.36v.08c-.02.16.04.3-.08.42v.3c0,.1.02.2,0,.28-.04.1-.1.18-.08.28.02.1,0,.2,0,.3v.46c.14.16.06.34.08.52.02.12-.06.26.08.38v.4c.12.06.06.18.08.26,0,.08.12.14.08.24-.02.06-.02.16,0,.18.02.06.06.12.1.18.02.06.08.1.06.16,0,.08,0,.16.04.22.06.06-.02.18.1.24.02.14.48.96.56,1.04,0,.16.18.2.22.3.04.14.44.58.56.7.08.1.16.16.24.24.04.06.12.12.18.2.06.1.18.08.24.16.16.18.4.26.54.44.02.02.08.04.08.04.1.06.18.14.28.16.08.02.18.04.28.08.06.02.1.12.18.08.1-.04.14.1.22.08.1-.04.16.12.28.08.14-.04.2.08.32.08.06,0,.12.06.16.08h.44c.12.14.26.06.4.08.12,0,.2-.02.32,0s.2-.06.28-.08c.08-.02.16,0,.24,0s.18-.02.28,0c.1.02.1-.1.2-.08.22.02.4,0,.58-.14.02-.02.06,0,.1-.02.06-.02.12-.06.18-.08.08,0,.14,0,.2-.08.08.04.12-.06.2-.06.06,0,.1-.12.2-.1.04-.08.14-.06.18-.12.06-.06.14-.04.2-.1.04-.02.1,0,.12-.04.1-.1.2-.24.3-.28.14-.04.2-.18.32-.28.02,0,.02-.02.04-.02.16-.04.26-.16.34-.32.02-.08.08-.12.14-.16.08-.08.12-.16.16-.24.04-.04.1-.1.16-.16s.12-.14.2-.2c-.02-.08.08-.14.08-.24,0-.08.14-.12.16-.2.04-.1.08-.2.1-.28.02-.08.14-.14.16-.26,0-.04.04-.06.06-.08,0-.1.06-.28.14-.34.06-.06.08-.16.08-.24-.02-.12.06-.24.1-.36.04-.06.08-.08.08-.16-.02-.06-.02-.12,0-.16.02-.06.06-.1.08-.16,0-.08,0-.16.06-.22ZM21.2,27.46q0,.12.16.2t.18-.02l.06-.06s-.06-.02-.08-.02q-.2-.02-.24-.26s0-.04-.02-.04c-.06.06-.06.12-.06.12v.08ZM21.32,27.88s-.02.04-.02.04t.06-.02s-.02-.02-.04-.02ZM21.36,34.31s-.02-.02-.04-.04v.1s.02-.04.04-.06ZM21.52,34.21s-.04-.06-.04-.1c-.02.04-.04.08-.04.1s.02.04.04.06c0-.02.04-.04.04-.06ZM21.66,34.63s-.1-.06-.12,0c-.02,0-.02.02-.02.02.04.04.12.04.14,0,.02,0,0-.02,0-.02ZM21.58,27.16s0-.02.02-.04c-.02,0-.04-.02-.06-.02,0,.04.02.04.04.06ZM21.74,26.9s.02.06.04.08c.02.02.06,0,.1,0,.02,0,.04-.02.04-.02-.02-.02-.12-.1-.14-.1-.02.02-.04.02-.04.04ZM22,35.65c-.04-.1-.08-.18-.12-.26h-.06c-.06,0-.08.04-.08.1.08.06.14.14.22.22,0-.02.02-.02.04-.06ZM21.76,35.05s.08.02.1.02c.02,0,.02-.02.04-.02,0-.02-.08-.14-.12-.14l-.02.02s-.02.1,0,.12ZM22,26.56c0,.1.02.12.12.12,0-.02.02-.02.02-.04s-.1-.1-.12-.1l-.02.02ZM22.1,26.38s.04.02.06.04c.04.04.06.02.06-.04.02-.08-.02-.1-.14-.1-.02,0-.06.02-.06.04-.02.08.04.04.08.06ZM22.14,26.16l.04.04h.04s.04-.04.04-.06c.02-.02.02-.04.04-.06-.04,0-.08-.04-.12-.02-.02.02-.02.06-.04.1ZM22.54,36.05v-.04s-.02-.04-.02-.06c-.02,0-.04.02-.06.02l-.08.08c.02.06.08.08.12.12,0,0,.04-.02.04-.04v-.08ZM22.52,36.27s-.04.02-.04.04c.02,0,.04-.02.04-.04ZM22.66,25.8s.04,0,.04-.02c.04-.04.1-.08.06-.16,0-.02-.04-.04-.04-.04-.02.04-.06.08-.1.12,0,.02.02.08.04.1ZM22.72,36.35s0,.04-.02.06c0,.08.06.1.1.14.04,0,.06-.02.06-.02.02-.06-.08-.18-.14-.18ZM22.94,25.46s.06.04.06.04c.04-.06.08-.06.14-.08.02-.02.02-.06.04-.08,0,0,0-.02-.02-.04,0,0-.02-.02-.04-.02-.04.08-.14.04-.18.1-.02.02,0,.06,0,.08ZM23.18,36.77h-.1s.04.02.06.04t.04-.04ZM23.48,36.99s-.02-.08-.04-.12c-.02.04-.02.08-.02.12,0,.02,0,.04.02.06.02-.02.04-.04.04-.06ZM23.44,25.12s.02-.04.04-.06l-.04-.04v.1ZM30.78,25s0,.02.02.02c0,0,.02-.02.02-.04s-.02-.02-.02-.04c-.02.02-.02.04-.02.06ZM30.98,25.16s.02.02.04.02.04-.02.04-.02c0-.02-.02-.04-.02-.04-.02.02-.04.02-.06.04ZM31.38,25.6s.02.08.08.02c.04-.04.08-.06.14-.04,0,0,.02-.02.02-.04,0-.02-.02-.02-.04-.02-.08,0-.18,0-.24-.1,0,.02-.02.02-.02.04-.02.06,0,.1.06.14ZM31.78,25.86s.04.02.06.02c.02.02.04,0,.1.08,0,.04,0,.1.02.12,0,.04.04.04.06.06.02,0,.06-.02.06-.04.02-.04.02-.08.02-.12,0-.08-.04-.1-.12-.1-.08.02-.02.06-.08,0,.04.02.06,0,.04-.02-.04-.02-.06-.04-.08-.04s-.06.02-.08.04ZM32.22,26.38s.02-.04.02-.06t-.02-.04v.1ZM32.66,26.86v-.04s-.04-.06-.08-.02c0,0,.04.04.08.06ZM32.62,26.86h.04-.04ZM32.66,26.86s.04.08.14.18c0,.1.06.16.14.12,0,0,.02-.02-.06-.1.02.02.06.04.1.06-.04-.04-.08-.08-.14-.12h-.04s.04-.06.08-.1c0-.02-.02-.04-.04-.04-.06-.02-.12,0-.18,0ZM32.76,27.38s.12-.08.12-.12c-.06-.02-.1-.02-.12-.02-.02.02-.02.08-.04.12,0,0,.02.02.04.02ZM32.8,27.48s-.04.02-.08.04c.02,0,.02.02.04.02q.06.06.04.26c0,.06.08.1.12.08.04-.02.06-.06.1-.08.02.08.12.06.18.12.02,0,0,.06-.02.08,0,.02-.04.02-.08.02-.04.02-.06.04-.06.08,0,.06.02.08.14.1.02-.02.06-.04.1-.04-.02-.08.06-.12.08-.18.02-.02-.06-.06-.06-.08,0-.08-.06-.1-.12-.12-.08-.02-.12-.08-.14-.18-.02-.08-.12-.14-.24-.12ZM32.8,27s.06.04.08.06c-.04-.02-.06-.02-.08-.06ZM32.9,34.44h-.04s-.06.02-.02.04c0,.02.02,0,.06-.04ZM32.94,34.36s-.04.02-.04.04c-.02,0,0,.02,0,.04.02-.02.02-.04.04-.08ZM32.98,34.23s-.04-.02-.06-.02t.02.06l.04-.04ZM32.92,34.44s.04-.04.04-.06l-.04.06ZM33.12,28.56c0-.12,0-.14-.08-.14-.02,0-.04.02-.06.04.04.06.06.1.14.24,0,.12.02.12.14.12h.04s.08-.04.08-.04c-.02-.08.04-.12.04-.18,0,0-.04-.06-.08-.08-.04-.02-.08,0-.12.02q-.1.06-.14.06s.04,0,.04-.04ZM33.28,33.52s.02-.04,0-.04c0-.04,0-.06-.02-.06s-.06,0-.06.02c.02.1-.08.14-.12.2-.02.04-.02.06-.04.1.16-.02.24-.1.24-.22ZM33.1,33.97s.02-.04.02-.04c-.02-.02-.04-.06-.08-.02,0,.02.02.02.06.06ZM33.2,34.01s-.02-.04-.04-.04c0-.02-.02-.02-.04,0,.02.02.04.02.08.04ZM33.12,33.98s.04.04.06.04c0,.02,0,0-.06-.04ZM33.44,29.18c-.08-.04-.14-.04-.2-.04l-.02.02s.02.06.04.06c.02,0,.04,0,.12.02,0,0-.02-.02-.04-.02h.06s.06,0,.04-.04ZM33.34,32.94s-.04.02-.04.04c-.02.04-.02.08-.02.1,0,.04,0,.08.02.12,0,.02.04.04.06.04s.06-.02.08-.04c.02-.08-.04-.22-.1-.26ZM33.38,27.86s.04-.02.06-.02c-.02-.02-.02-.04-.04-.02t-.02.04ZM33.62,31.98s.04-.02.06-.04c-.02-.02-.04-.04-.04-.06-.08-.08-.16-.08-.26-.04v.12c.06.02.1.02.12.02h.12ZM33.44,29.22v.04h.08s-.04-.02-.04-.04h-.04ZM33.48,29.3s.02-.02-.04-.04c.02.02.04.02.04.04ZM33.44,31.48s.02.02.04.02c0-.02.02-.04.02-.06-.04,0-.04.02-.06.04ZM33.5,32.65s-.04.02-.04.02t.02.04s.02-.04.02-.06ZM33.52,31.28s.02.04.06.06c.04-.06.14-.1.1-.2,0,0,.02-.02,0-.04,0-.02-.02-.04-.02-.06-.02,0-.06.02-.06.02.04.1-.08.14-.08.22ZM33.74,32.58s.02-.04.04-.22c-.02.02-.02.06-.02.12,0-.06,0-.1-.02-.14,0-.04-.06-.06-.06-.12h-.08s-.1.02-.06.04c.06.06.08.12.06.18,0,.08.08.1.14.14ZM33.58,28.1s.02-.02.02-.04c-.02,0-.04-.02-.06-.02,0,.04.02.04.04.06ZM33.64,29.56s-.04.08-.04.08c.04.04.1.08.14.12,0,.02.04,0,.06,0l.04-.04c-.08-.04-.06-.12-.12-.18,0,0-.06,0-.08.02ZM33.68,33.43s-.02,0-.04-.02c0,.02-.04.04-.04.06,0,.08.04.12.12.1,0,0,0-.02.02-.04,0-.06-.04-.06-.06-.1ZM33.68,32.23h.04s.06-.08.08-.12c0-.04,0-.06.02-.1h-.04s-.12.06-.1.18c.02,0,0,.02,0,.04ZM34,32.82s-.04-.06-.1-.06h-.04c-.1,0-.12.02-.06.1t0,.06s-.04.06-.04.1c-.02,0,0,.02,0,.04.02.02.04.02.06.02l.18-.18v-.08ZM33.84,33.36s-.02-.02-.04-.02-.04.02-.04.02c0,.02.02.04.02.04.02-.02.04-.02.06-.04ZM33.82,32.06h.02s0-.02-.02,0ZM33.9,32.3s.02-.02.02-.04c-.02-.02-.04-.06-.08,0,0,0,.02,0,.06.04ZM33.92,31.24s.04,0,.06.02c0-.02.02-.04.02-.08v-.08s-.02-.04-.02-.06c-.02,0-.04.02-.06.02-.1.08-.1.1,0,.18ZM33.86,30.22s0,.02.02.02c0-.02.02-.04.02-.04,0-.02-.02-.02-.02-.04-.02.02-.02.04-.02.06ZM33.92,30.6s.02.02.02.04c.02-.02.04-.02.04-.06-.02,0-.04.02-.06.02ZM34,32.34s-.02-.02-.04-.04h-.04s.04.04.08.04ZM33.92,32.32s.04.04.04.06c.02,0,.02-.02-.04-.06Z"/>
      <path class="cls-1" d="M27.2,62.03s-.02.04-.04.04h-1.26c-.1,0-.22.06-.32-.08-.1.02-.2-.06-.28.06-.02.02-.08,0-.12.02-.12.08-.2-.16-.3-.06-.12.08-.22.06-.34.06h-.72c-.08,0-.1-.06-.16-.12,0-.02.02-.04.04-.04.06,0,.14-.02.22,0,.12,0,.18-.14.32-.08.02.02.04-.02.06-.04.02-.02.06-.04.06-.06-.02-.16.14-.18.16-.28.02-.1.1-.16.08-.24,0-.1-.04-.2.06-.28.04-.02.02-.08.02-.14v-11.96s-.02-.02-.04-.02c-.06.04-.1.08-.12.14-.12.28-.3.56-.42.86-.1.06-.02.16-.06.24-.08.06-.06.16-.16.2.04.12-.08.16-.1.26,0,.06-.08.14-.1.22-.02.1-.04.18-.1.28-.02.04,0,.1-.04.14-.1.14-.14.34-.24.48-.04.08-.1.16-.16.22-.04.08-.02.16-.06.22-.04.08-.04.18-.06.24-.04.06-.06.14-.08.2-.04.1-.06.18-.14.26-.06.04-.1.08-.1.18-.1.1-.12.28-.24.4.06.14-.12.24-.08.36-.08.2-.2.42-.32.62,0,.02,0,.04-.02.06-.04.08-.14.12-.12.24,0,.06-.08.12-.08.2,0,.12-.14.2-.08.32-.1.06-.08.2-.16.24.02.08-.04.12-.08.18-.06.04-.08.1-.08.14-.02.12-.08.2-.12.28-.06.08-.14.14-.12.28.02.08-.06.12-.08.14,0,.02-.28.74-.3.76-.12.18-.2.36-.28.56-.04.04-.04.1-.04.16,0,.02-.12.22-.14.22-.08.08-.12.16-.1.3l-.12.26c-.08.08-.16.14-.14.26.02.04-.06.08-.06.12-.02.1-.12.16-.08.28-.1.08-.06.2-.16.26.02.08-.04.12-.1.16,0,.04-.06.08-.04.08.04.12-.06.2-.1.3-.04.06-.06.16-.14.22-.04.02-.02.06-.02.1.02.1-.02.2-.1.28-.02.02-.02.06-.04.1-.1.14-.18.3-.24.44-.02.08-.12.14-.08.26.02.06-.1.1-.1.2,0,.14-.12.24-.18.4,0,.04-.02.06-.06.08-.04.04-.12.04-.14-.02-.1-.24-.18-.44-.3-.62,0-.18-.14-.3-.18-.44-.02-.12-.18-.16-.16-.28-.2-.34-.36-.72-.54-1.08-.18-.36-.36-.72-.56-1.08-.06-.12-.1-.22-.18-.32-.06-.08-.1-.2-.16-.28-.14-.28-.26-.56-.4-.84-.1-.06,0-.18-.1-.26-.06-.04-.06-.18-.1-.24-.08-.08-.1-.22-.2-.28,0-.02-.04-.08-.04-.08,0-.2-.12-.34-.22-.48-.1-.16-.16-.32-.26-.5-.08-.1-.14-.24-.2-.38-.04-.06-.06-.16-.14-.22-.08-.04-.06-.14-.14-.22-.02-.02.02-.1,0-.16-.12-.2-.24-.42-.34-.64-.06-.04-.04-.14-.08-.16-.06-.04-.02-.12-.04-.18-.02-.06-.04-.14-.08-.16-.1-.1-.48-.82-.54-.98-.02-.06-.06-.12-.12-.18-.02-.02-.08-.04-.06-.1.04-.1-.06-.14-.08-.24-.02-.08-.08-.16-.1-.22-.1-.16-.18-.32-.26-.5-.02-.02-.02-.06-.04-.1,0-.1-.22-.42-.3-.5-.08-.12-.12-.26-.2-.4-.02-.04-.06-.08-.04-.14,0-.06-.02-.08-.06-.12-.14-.12-.14-.3-.26-.46.04-.1-.06-.16-.08-.24,0-.02-.02-.04-.04-.06-.04-.02-.04-.12-.08-.06-.06.02-.08.06-.1.12-.02.04-.02.08-.02.1v1.56c0,.08,0,.14.08.2.02,0,.02.06,0,.06-.12.14-.06.28-.06.42-.02.36-.02.7-.02,1.06,0,.1-.02.2.08.28.04.04.04.14,0,.16-.08.06-.08.16-.08.24v1.34c0,.08-.02.16.08.22.02,0,.02.08,0,.1-.06.06-.08.12-.08.18v1.62c0,.08.02.1.08.16.02.02.02.06,0,.08-.12.12-.06.26-.06.4-.02.38-.02.74-.02,1.12.02.08-.04.22.08.32.02,0,.02.06,0,.08-.08.02-.08.1-.08.2v1.38c0,.08-.02.14.08.2.02.02.02.08.02.12,0,.14.02.26-.02.4-.02.1.08.16.08.28-.02.12.08.16.14.22.16.2.32.28.52.28.12.02.18.12.3.1.08-.02.18,0,.28,0l.02.02s-.02.06-.04.06h-.8c-.08,0-.1-.08-.14-.08-.14,0-.28-.06-.38.06-.02.02-.04.02-.08.02h-1.42s-.04-.02-.06-.04c.02-.02.04-.04.08-.04.12-.02.22.04.32-.06.1-.06.2,0,.3-.02.04-.02.08-.02.1-.04.1-.08.14-.16.22-.24.12-.08.12-.28.24-.38t.02-.04c0-.08,0-.2.02-.3.1-.06.04-.18.04-.3v-.66c0-.1.04-.2-.06-.28.02-.1-.06-.2.04-.3.02-.02.02-.06.02-.1v-1.44s.02-.06-.02-.08c-.1-.1-.02-.22-.04-.32.1-.04.06-.18.06-.28v-1.12c0-.08.02-.18-.04-.22v-.26c.06-.06.04-.16.04-.22v-1.32c0-.06,0-.12-.06-.2-.02-.02-.02-.12,0-.14.08-.08.06-.18.06-.3,0-.32.02-.66,0-.98,0-.14.08-.34-.06-.46.02-.14-.06-.28.04-.38.02-.04.02-.1.02-.16v-1.3c0-.08,0-.14-.04-.22-.06-.06-.06-.2,0-.28.08-.08.02-.18.04-.26-.1-.12-.06-.24-.06-.36-.02-.08.02-.16-.02-.22-.08-.08-.08-.22-.18-.26-.06-.02-.1-.08-.14-.14-.12-.12-.3-.18-.44-.2h-.56c.28-.04.52-.04.76-.06.12,0,.26.06.36-.08h.28c.08,0,.14.12.26.1.08-.04.2-.02.3-.02h.64s.06.04.08.06c.12.28.26.56.38.82.02.04.06.08.1.12.06.1.14.2.16.34,0,.08.06.14.1.22.06.16.14.28.2.44.04.08.1.12.08.2,0,.02.02.06.02.08.22.22.3.54.44.8.1.14.18.32.28.48.1.14.2.28.2.46.02.02.02.06.04.08.14.08.16.3.26.42.06.1.1.22.16.32.04.06-.02.16.06.24.06.04.08.14.12.22l.12.24c.04.06.08.14.1.22.16.2.3.46.4.7-.04.14.08.18.14.26.1.2.18.38.26.56.06.16.24.56.32.68.04.02.06.06.08.1.1.14.06.3.2.4.12.26.26.54.4.78.1.2.2.42.3.62.1.06,0,.16.08.24.06.06.1.16.12.24.02.06.08.1.1.14.08.04.04.14.08.18.06.04.06.06.06.12,0,.04.02.08.04.12.04.04.1.1.12.16.08.14.16.32.24.48.12.22.18.48.4.66,0,.12.08.18.1.26,0,.04.06.1.08.08.04-.02.08-.06.12-.1.02,0,.02-.04.02-.06-.04-.1.06-.14.08-.22,0-.06-.02-.1.02-.16.08-.06,0-.18.1-.26.06-.04.06-.14.1-.22s.1-.14.14-.22c.02-.1.18-.42.24-.5.06-.08-.02-.2.1-.26.02-.16.18-.28.16-.46.1-.1.16-.26.2-.4.06-.18.14-.34.24-.52.08-.16.16-.32.24-.5.06-.1.08-.24.14-.36.06-.12.14-.22.12-.34.12-.16.18-.36.28-.52.06-.12.08-.26.2-.36-.02-.12.04-.18.08-.28.06-.1.1-.18.06-.28.14-.08.06-.28.22-.36.12-.24.2-.46.36-.68-.06-.12.08-.2.06-.28,0-.1.1-.16.08-.26.08-.06.06-.18.16-.24-.02-.08.04-.12.1-.18.02,0,.06-.04.06-.06-.04-.14.08-.22.1-.32.12-.06,0-.24.14-.3.02-.02,0-.1,0-.16,0-.04,0-.1.04-.12.12-.08.14-.26.24-.4.04-.08.08-.18.16-.24,0-.02.02-.06.02-.08-.02-.1.12-.18.1-.32-.02-.06.08-.06.06-.12,0-.1.12-.14.1-.26,0-.04.06-.14.08-.22.04-.08.14-.14.14-.22s.18-.44.24-.5c0-.24.2-.42.28-.64.08-.08,0-.22.12-.3-.02-.06.02-.08.06-.14.04-.04.04-.06.06-.12.1.04.12-.1.2-.08.08.02.16-.04.24.04.02.04.06.04.12.04h1.38c.08,0,.14,0,.18-.06.04-.02.1-.02.14-.02.02,0,.04.04.06.04,0,.02-.02.04-.02.04-.08,0-.12.04-.16.06-.06.02-.14,0-.2.02-.06,0-.12-.02-.14.02-.06.08-.14.04-.2.1-.08.1-.16.2-.24.26-.08.06-.08.14-.12.2-.08.1.02.26-.06.38-.06.08-.04.22-.04.34,0,.02.04.04.04.06.02.02.04.08.04.08-.1.12-.08.26-.08.38v1.1c0,.14-.04.26.08.36v.24c-.1.06-.08.18-.08.28v1.22c0,.08,0,.16.06.22v.26c-.06.04-.06.14-.06.22v1.2c0,.08,0,.14.04.2.08.1.06.24,0,.36-.02.06-.04.1-.04.18v1.26c0,.14.14.22.08.36-.02.08.02.16-.06.22-.02.02-.02.06-.02.08v1.44c0,.06.02.1.06.14.02.02.02.1,0,.12-.06.04-.06.12-.06.2v1.14c0,.1.06.16.08.24.02.1-.04.18.04.26.06.06.08.16.12.24.06.1.3.38.42.38h.14c.12-.02.22.02.3.06.08.06.2.02.32.06ZM11.46,61.45h-.04s-.04.1,0,.12h.04s.04-.08,0-.12ZM11.78,48.42s-.08-.06-.08-.1c-.06.04-.1.08-.12.12,0,0,.02.04.04.04l.06.06h.06s.06-.02.06-.04c0-.02,0-.06-.02-.08ZM11.94,48.34s-.04,0-.06.02c.02,0,.02.02.04.02,0,0,.02-.02.02-.04ZM12.16,48.54s.02-.04.02-.06h-.1s-.04.06-.04.08c0,.02.02.06.04.08,0-.02.02-.02.02-.04l.06-.06ZM12.18,48.84s-.02-.02-.02-.04c-.02,0-.02.02-.04.02.02,0,.02.02.06.02ZM12.34,48.52s0-.04-.02-.04c0,0-.02,0-.02.02s.02.02.04.02ZM12.54,48.7s.04-.02.06-.02v-.12c0-.06-.02-.08-.06-.08s-.1,0-.1.02c-.02.04,0,.08.02.12.02.02.04.06.08.08ZM12.74,48.9s-.08-.08-.12-.1c-.02,0-.1.02-.1.02-.04.14,0,.22.14.2,0,0,.02.02.04,0,.02,0,.08-.08.04-.12ZM12.98,50.4s-.08-.04-.12-.02c-.04,0-.04.08-.02.12,0,.02.02.02.04.04.02-.02.04-.06.08-.08,0-.02,0-.04.02-.06ZM13.14,50.24v-.04h-.04c-.04.06-.04.08-.04.1,0,.02.02.04.04.06,0-.02.04-.02.04-.04v-.08ZM13.22,50.06v.08s-.08.02-.08.06c.06,0,.08,0,.08-.06.02,0,.06-.02.06-.02.02-.06,0-.06-.06-.06ZM13.22,50.06v-.04s-.04-.06-.06-.02c-.02.02.02.04.06.06ZM13.18,50.06h.04-.04ZM13.46,50.76s-.02-.04-.04-.06c0,0-.02.02-.04.02-.02.02-.06.08-.06.1.02,0,.04.02.06.02.04.02.08,0,.08-.08ZM13.54,50.54s.02.04.06.04c0-.02-.02-.04-.02-.04h-.04ZM13.86,51.5c0-.06-.1-.18-.12-.18-.02,0-.04.02-.04.04.02.12-.08.16-.14.22,0,0,0,.02.02.04,0,.02.02.02.04,0,.08-.04.14-.04.22-.08,0-.02,0-.04.02-.04ZM13.62,51.92s-.04-.02-.06-.02c0,.02.02.02.06.02ZM13.76,52.26s-.02,0-.02.02c-.04.02-.04.1,0,.12,0,.02.02.02.02,0,.02-.02.02-.1,0-.14ZM13.84,52.04s0-.06-.02-.12c-.04.06-.04.08-.04.12,0,.02.02.04.04.06,0-.02.04-.04.02-.06ZM14.26,52.3c-.08-.04-.1-.12-.18-.1-.02,0-.04.02-.06.04.06.02.08.12.16.1.02,0,.04-.02.08-.04ZM14.7,53.24c-.08-.12-.1-.12-.2,0,0,.04.02.06.04.06h.16s.04-.04,0-.06ZM14.66,52.88s.06-.02.06-.02l-.04-.04s-.02.04-.02.06ZM15.26,53.8s-.16-.04-.2,0c.04.04.08.04.1.06.04-.02.06-.02.1-.06ZM15.26,54.98s-.04.02-.06.04h.04s.02-.02.02-.04ZM15.44,54.2s-.04-.02-.08-.04c-.02.02-.06.02-.08.04-.02.02-.02.06,0,.08.02.04.06.04.08,0,.02-.02.04-.04.08-.08ZM16.16,56.16s-.08-.02-.1-.02c-.14,0-.18.04-.16.2.02.02.04.02.06.02.02,0,.02-.02.04-.02.02-.04.06-.08.1-.12.02-.02.04-.04.06-.06ZM15.9,55.78s.04.02.06.02c.02,0,.02-.02.02-.02,0-.02-.02-.02-.04-.04-.02,0-.02.02-.04.04ZM16.3,56.3v-.04s-.04-.06-.08,0c0,0,.02,0,.08.04ZM16.3,56.89s-.04-.02-.06-.02c0,.04.02.04.04.06,0-.02.02-.02.02-.04ZM16.38,56.34s-.02-.02-.04-.04h-.04s.04.04.08.04ZM16.3,56.32s.04.04.06.06c0,0,0-.02-.06-.06ZM16.7,58.02s-.02-.04-.04-.06c-.02.02-.04.04-.04.06,0,.02,0,.04.02.08.04-.02.06-.04.06-.08ZM17.18,58.48v-.04s-.02-.04-.02-.08c-.02.02-.04.02-.06.04-.08.06-.14.12-.2.18s0,.08.02.12c.02.02.04.08.08.02.06-.06.1-.1.16-.16.02-.02.02-.06.02-.08ZM16.94,58.06s.02.04.08.04.08-.02.08-.1c-.02-.02-.06-.04-.08-.04-.06-.02-.1.04-.08.1ZM17.08,58.83h-.04s-.04.12,0,.14c0,.02.02,0,.04,0,.04-.02.04-.1,0-.14ZM17.2,59.15s0,.02-.02.04c.02,0,.02.02.04.02,0-.04,0-.06-.02-.06ZM17.26,57.93s.02.02.02.04c.02-.02.04-.04.04-.06,0,0-.02-.02-.04-.02,0,0-.02.02-.02.04ZM17.32,59.35s-.02-.02-.06-.02c0,.02.02.04.02.06t.04-.04ZM17.38,58.36s-.04.02-.04.02c.02.02.02.04.04.06v-.08ZM17.62,59.63s-.06.02-.06.04c0,.08-.02.16.08.22.02.02.04.02.06.02.02-.02.02-.04.02-.06.04-.1-.04-.16-.1-.22ZM17.88,60.47s-.02-.04-.02-.06l-.04.04s.02.04.04.04l.02-.02ZM18.16,60.71s.04.02.1.02h.14s.06,0,.04-.04c-.02-.02-.04-.04-.06-.04-.08,0-.16.02-.2-.06,0-.02-.04,0-.04.02s0,.08.02.1ZM18.28,61.31h-.08s.02.04.02.04c.02-.02.04-.02.06-.04ZM18.58,60.77s-.06-.04-.1-.04-.06,0-.04.02c.04.02.1.02.14.02ZM18.46,60.31s.04-.02.04-.04c-.02,0-.04.02-.04.04ZM18.58,61.57s-.02-.02-.04-.02c0,0,.02.02.04.02ZM23.32,62.05s-.04-.02-.04-.04c.04,0,.04.02.04.04ZM25.22,61.71s-.06-.06-.08-.1c-.04-.02-.04-.04-.04,0-.02.04-.02.1-.04.12-.06.06-.06-.06-.12-.06-.08.02-.1-.06-.16-.08h-.06l-.04.04c.04.1.34.24.42.2.04-.02.08-.08.12-.12ZM24.84,59.09s.02.06.08.06.08-.02.08-.12c-.02,0-.06-.04-.08-.04-.06,0-.1.04-.08.1ZM24.84,59.97s.06.04.08.06c.06-.02.1-.02.14-.02,0-.02.02-.04.02-.08.02-.04-.02-.06-.06-.08-.04,0-.2.1-.18.12ZM24.92,48.4h-.04.04v.08s.06-.02.06-.02c.02-.04-.02-.06-.06-.06v-.04s-.04-.06-.08,0c0,0,.02.02.08.04ZM24.84,58.47s.06.06.08.08c.02.02.04.02.06.02,0-.02.02-.08.02-.1-.02,0-.06-.02-.1-.04-.02.04-.04.04-.06.04ZM24.86,48.54s.04-.02.06-.06h-.04s-.06.02-.02.06ZM25,48.68s-.1.06-.08.12c0,.04.16.18.18.2.04.06.04-.02.04-.04.02-.04.04-.1.08-.14,0,0-.14-.12-.14-.14-.04-.06-.06-.04-.08,0ZM25,59.49s-.06.06-.08.1c-.02.02.04.12.14.12.04-.06.1-.1.08-.18,0-.04,0-.1.06-.16s.08-.06.12.02c0,.06.02.08.06.08s.14-.08.14-.1c0-.02.02-.04,0-.04-.04-.06-.08-.14-.14-.16-.06-.02-.16.02-.2.06-.06.06-.1.06-.16.1-.06.04,0,.12-.02.16ZM25,53.8v-.22s-.02-.04-.02-.04c-.02.02-.06.02-.06.04v.22s.02.04.02.04c.02-.02.06-.02.06-.04ZM24.96,58.27s-.04.02-.02.04c0,.02,0,.04.02.06v-.1ZM24.98,50.16s-.04.02-.04.04c.02,0,.04,0,.04-.04ZM25.04,51.32s-.1.08-.1.14c.06.02.08.02.2.1v.1s.04.04.04.04c.02-.02.06-.04.08-.06.02-.02.08-.06.02-.08-.02,0-.02-.02-.04-.02-.02-.02-.04-.08-.1-.06,0,0,0,.06-.1,0h.04s.08.04.06-.04c0-.08,0-.12-.1-.12ZM25.06,55.58s.1-.02.08-.08c0-.02-.02-.06-.04-.08-.06,0-.1.02-.1.08s.02.08.06.08ZM25.6,61.27s.04-.08,0-.12l-.12-.12c-.04-.06-.08-.08-.16-.08-.04.02-.12,0-.14.04-.04.02-.02.1-.04.14,0,.08-.04.08-.1.08,0,0-.04.02-.02.04.08.08.14.18.24.26.04,0,.06-.02.06-.02-.02-.08,0-.14-.04-.2q-.06-.1.02-.18c.06-.08.08-.08.1,0,0,.12.1.16.2.16ZM25.02,57.04s.02.04.02.04c0,0,.02,0,.02-.02,0-.02-.02-.02-.04-.02ZM25.24,60.57h.2v-.04c-.06-.04-.12-.02-.16-.04-.08-.04-.04-.12-.06-.18v-.12s-.02-.02-.04-.02c-.04.08-.06.12-.08.16-.08.2-.02.26.14.24ZM25.1,49.42h.02s.04-.12,0-.14h-.02s-.04.1,0,.14ZM25.14,55.84s-.02-.02-.04-.02c0,.02-.02.04-.02.06,0,.08.02.12.1.1.02,0,.02-.02.04-.02,0-.06-.06-.08-.08-.12ZM25.1,52.74s-.04.04,0,.08c0,0,.02-.02.04-.08h-.04ZM25.28,49.68c-.06,0-.16.12-.14.18,0,0,.02.02.04.02.06,0,.14-.1.14-.18t-.04-.02ZM25.2,52.6h-.04s0,.06-.02.1v.04s.04-.1.06-.14ZM25.22,53.5v-.08s.02-.06,0-.08c0-.02-.02-.04-.04-.04,0,0-.04.02-.04.04,0,.06.02.12.02.16,0,.02.02.04.02.04.02,0,.04-.02.04-.04ZM25.22,59.67s-.02-.04-.04-.04c0-.02-.02-.02-.04,0t.04.06s.02-.02.04-.02ZM25.32,52.26s-.02-.06-.08-.06c-.02,0-.08.02-.08.04-.02.02,0,.06.02.08.02.04.04.06.08.08,0,.02.04,0,.06-.02v-.12ZM25.16,52.74s.04-.02.06-.02c.02-.06.02-.12-.06.02ZM25.3,55.74s.06-.02.08-.04c-.04-.04-.12-.04-.14,0,0,0,.04.02.06.04ZM25.24,58.47s.02.04.04.04c.02,0,.04,0,.12.04-.02.04-.08.06-.08.08,0,.04.06.06.08.1.02,0,.04.02.04,0,.04-.02.06-.06-.04-.18.04.02.08.04.14.08-.04-.04-.08-.08-.1-.12-.04-.02-.04,0-.04.04t-.04-.04s.06,0,.04-.04c-.06-.02-.08-.02-.1-.02-.02,0-.04.02-.06.02ZM25.44,53.14c-.06.04-.08.08-.12.12.02.02.04.04.04.04.02.02.04.04.06.06h.06s.06-.02.06-.04,0-.06-.02-.08c-.02-.04-.06-.08-.08-.1ZM25.48,60.35s.08-.06.06-.12c0-.02,0-.04-.02-.04-.06-.02-.12-.02-.16-.08-.02.02-.04.04-.04.06.02.04.04.12.08.18.02.08.04.08.08,0ZM25.46,55.12s-.02-.06-.04-.08c-.04.02-.04.12,0,.14.02,0,.02-.04.04-.06ZM25.52,58.06s-.08-.02-.1,0c-.02.02-.02.04-.02.08,0,.02.04.04.04.04.04-.04.06-.08.08-.12ZM25.44,61.65s0-.04-.02-.04c0,.02,0,.04.02.04ZM25.62,59.97c.02-.08-.02-.12-.08-.12-.04,0-.08.02-.08.06-.02.08.02.12.08.1.04,0,.06-.02.08-.04ZM25.52,57.81s-.04.02-.06.02c0,.02.02.04.02.04.02,0,.04-.02.04-.06ZM25.48,49.14s.02.04.02.04t.02-.02s0-.02-.04-.02ZM25.54,49.96l-.06.06c.02.06.1.06.14,0-.02-.02-.06-.04-.08-.06ZM25.48,51.38s.04-.02.06-.02c0-.02-.02-.02-.02-.04-.02.02-.04.02-.04.06ZM25.5,52.02s-.02.04-.02.06c0,.02.02.02.02.02.02,0,.02-.02.02-.04t-.02-.04ZM25.5,59.61v.1s.02-.04.02-.06c0,0,0-.02-.02-.04ZM25.58,48.78h.02s.04-.1,0-.14h-.02c-.06.02-.06.12,0,.14ZM25.74,61.51s-.08-.08-.12-.1c0-.02-.04-.02-.04-.04-.02.02-.02.06-.04.08,0,.08.02.12.08.18.06.04.1.06.14.04.04-.04.02-.1-.02-.16ZM25.56,49.52s.02.04.02.06l.04-.04s-.02-.02-.06-.02ZM25.7,61.79s-.02-.02-.04-.04c0,.02-.02.04-.02.06t.02.04s.04-.04.04-.06Z"/>
    </g>
  </g>
</svg>