<?xml version="1.0" encoding="UTF-8"?>
<svg id="Layer_2" data-name="Layer 2" xmlns="http://www.w3.org/2000/svg" viewBox="0 0 854.26 148.4">
  <defs>
    <style>
      .cls-1 {
        fill: #171717;
        stroke-width: 0px;
      }
    </style>
  </defs>
  <g id="chapter_III_production" data-name="chapter III production">
    <g>
      <path class="cls-1" d="M118.25,115.27v2.48c0,.21-.63.62-.84.83,0,.83-.63,1.03-.84,1.65-.42,1.24.21,2.68-1.25,3.72-.63.62-1.04,2.06-1.88,2.68,0,0-2.09,3.3-2.09,3.51,0,.41-.63.83-1.25,1.45-.42.41-1.04.83-1.46,1.45-.63.83-1.88.62-2.51,1.65-.84,1.24-1.88,1.86-3.13,2.48-1.04.62-2.51,1.03-3.13,2.06-.84,1.03-1.88,1.45-3.76,1.86-.63,0-1.04.62-1.46.83-1.25,0-1.88,1.45-3.34.83-1.04-.41-1.46,1.45-2.51,1.03-.42.41-1.04.62-1.67.62-1.46-.21-2.72,1.24-4.18.83-.63,1.24-1.67.83-2.72.83-.84,0-1.25,1.24-2.51.83-.63-.21-1.67,0-2.3,0-1.67.41-3.55-.83-4.6.83h-3.76c-1.46.21-2.72-.62-3.76.62h-2.51c-.84-1.03-2.09-.41-3.13-.62-1.46,0-3.13.41-4.39-.83-.42-.21-1.46,0-2.3,0-.84-.21-2.09.41-2.92-.41s-1.88.21-2.51-.83c-.21-.41-.84-.41-1.25-.41-.84,0-1.67.21-2.3-.21-.84-.62-1.67-.83-2.51-.62-.42-.83-1.67-.41-2.09-1.03-.84-1.03-1.88,0-2.51-1.03-.63-.83-1.67,0-2.3-.62-.63-.41-1.46-1.03-2.3-1.24-1.04,0-1.46-.83-2.09-1.03-.63,0-1.04-.62-1.67-.83-.84-.21-1.25-1.03-2.09-.83-.84.21-1.25-.62-1.88-.62-1.67-.83-3.34-1.86-5.01-2.48-1.04-.41-1.46-1.24-2.3-1.65-.84-.21-1.46-.41-2.09-.83-.84-.62-1.46-1.24-2.3-2.07-.42-.62-1.46-.21-2.09-1.24-.63-.83-1.46-1.45-2.09-2.06-.21-.41-.84-.21-1.04-.41-1.46-1.03-2.51-2.07-2.09-3.92,0-.62-.21-1.45,0-2.06.21-1.24-1.04-2.27-.84-3.72v-3.72c-1.67-1.24-.84-3.1-.84-4.34,0-1.45-1.25-2.27-1.04-3.51.21-1.24,0-2.48,0-3.51-1.04-1.03-.63-2.68-.84-3.72,0-.62.42-.83.84-.83s.84.21.84.41c.21.62.21,1.03.84,1.45-.21,1.45,1.04,2.27,1.04,3.3v.83c1.25.62,0,2.27,1.25,3.1.42.41.42,1.03.63,1.45,1.25,1.03,1.67,2.27,2.09,3.72.42.62.63,1.45,1.46,2.27.21.21.21.83.63,1.45.21.41.84.62,1.04,1.03.21.41.21,1.03.63,1.45.84,1.03,1.88,1.86,2.51,2.89.42,1.24,1.46,2.06,2.51,2.68,1.25,1.03,1.46,2.68,2.51,3.51.84.62,1.67,1.45,2.51,2.27,1.04-.21,1.46,1.03,2.09,1.45,1.04.62,1.67,1.65,2.3,2.27.42.41,1.25.41,1.46.83,1.04,1.03,2.72,1.03,3.55,2.48.84,1.24,2.3,1.24,3.13,2.27.21.21.42.41.63.41,1.46-.21,1.46,1.45,2.51,1.86.42,0,.84.21,1.04.21,1.04.83,2.09,0,2.92,1.24.42.41,1.67-.41,2.09.62.42.62,1.46,0,2.09,1.03.84.21,1.88-.21,2.3.21.84.41,1.67.62,2.51.41,1.04,0,1.88,1.45,3.34,1.03.84-.21,2.09,0,3.13,0,1.67,1.45,3.76.62,5.43.83,2.09,0,3.97.21,5.85,0,1.04-.21,2.3-1.03,3.76-.83,1.25,0,2.72-.21,3.97,0,1.25,0,1.88-1.03,3.13-1.03.84.21,1.88.21,2.92.21.63-1.24,2.09-.21,2.72-1.03.84-1.03,1.88-.21,2.51-1.03.63-.62,1.67-1.03,2.51-1.24.63-.21,1.46,0,2.09-.62.84,0,1.25-.41,1.88-.83.21-.21.63,0,.84-.41.84-1.24,2.51-1.45,3.13-2.27,2.09-2.06,3.97-3.72,6.06-5.78,1.04-1.03.84-1.45,1.67-3.72.63-1.24.84-2.68,1.04-4.34,0-.83,1.04-1.65.63-2.89,1.04-.62.84-1.45,1.04-2.48,0-1.45-.63-2.89.63-4.13,0-.83.21-1.65-.21-2.27s-.63-1.03-.42-1.86c0-.62,0-1.03-.21-1.45,0-.62-.63-1.24-.84-1.86,0-.62.21-1.24-.21-1.45-.63-.41-.42-1.24-.84-1.86-.42-.41-.84-.83-.63-1.24-1.46-1.24-1.88-3.3-3.55-4.34-.42-.21-4.81-4.96-5.01-5.16-.84-1.03-2.3-1.03-2.92-2.07-.42-.62-1.67-.41-2.09-1.24-.42-.62-1.04-.83-1.67-.83-.42-.62-1.46-.62-2.09-1.03-.63-.83-1.46,0-2.09-.62-.42-.62-1.46-.41-1.67-.83-.84-1.03-1.67-.41-2.3-.83-.84-.62-1.67-.83-2.51-.83-.21,0-.63.21-.84,0-.63-1.24-2.3-.21-3.13-1.24-.42-.62-1.67-1.03-2.51-1.03s-1.25-1.03-2.09-.83c-1.04.21-1.88-.41-2.51-.83-1.04-.41-1.88-1.03-3.13-.83-.63-1.24-1.88-.62-2.92-.83-.84,0-1.04-1.03-2.09-.83-.84,0-1.67,0-2.3-.62,0-.21-.84,0-1.46,0-.84-.21-1.67,0-2.09-.62-.63-.83-1.88.21-2.3-.62-1.04-1.24-2.72.21-3.34-1.45h-.84c-.42,0-1.25.21-1.46,0-.63-1.24-2.51-.21-3.13-1.24-1.04,0-1.67-1.45-2.92-1.24-.84.21-1.46-1.03-2.51-.83-.63.21-1.25-.41-1.67-.83-.84-.21-1.67-.41-2.51-1.03-.84-.41-1.46-1.24-2.3-1.24-1.04,0-5.43-1.86-5.85-2.68-.42-.62-1.25-.41-1.46-.62-.42-.83-1.46-.62-2.09-1.24-1.04-1.24-2.92-1.65-3.97-3.1-1.46-1.65-3.13-3.1-4.6-4.54-.42-.41-1.25-.83-1.25-1.24.21-1.45-1.25-1.86-1.67-2.89-.63-1.65-1.25-3.1-2.51-4.34v-.41c-.21-1.03.42-1.86-.42-2.68-.84-.83-.21-1.86-.21-2.68s-.84-1.24-.84-1.65c0-1.03-.63-2.07.42-3.1.21-.21.42-.83.42-1.24,0-1.24-.21-2.89,0-4.54,0-.83-.63-2.06.21-3.1.84-.62,0-1.65.42-2.48.63-1.45,1.25-2.48,1.88-3.72.63-1.03.63-2.07,1.67-2.48,1.46-.83,1.25-2.48,2.51-3.3.84-.83,1.88-1.86,2.92-2.68.42-.41-.21-1.65,1.04-1.65.42.21.63-.41,1.04-.83.21,0,.84.21.84,0,1.46-1.65,9.4-6.4,11.49-6.4.84,0,1.25-.62,1.88-.83.84-.21,1.88,0,2.72-.21.42,0,.63-.21.84-.41,1.46-.62,2.92-1.45,4.6-1.03,1.25.41,1.46-1.24,2.51-.83.84.21,1.67,0,2.51,0s1.88.21,2.92,0c1.04-.21,1.67-1.03,2.93-.83,1.04.21,2.09,0,3.34,0h9.4c1.25-.21,2.3.41,3.55.83,1.04.41,2.72-.62,3.76.41,1.04,1.03,2.92-.41,3.55,1.03.21.21.63,0,.84,0,1.25.21,2.51.21,3.76.21.63,1.45,2.51,0,2.92,1.65,1.25-.41,2.09.62,3.13.83,1.25,0,2.3.62,3.13,1.03,1.04,1.03,2.09,1.86,3.34,2.06,1.04.41,1.46,2.07,2.93,1.65.84.83,1.46,1.45,2.51,2.06,1.04.21,1.67,1.24,2.51,2.07,1.04,1.03,2.09,2.27,3.13,3.1.42.62.84,1.03,1.25,1.65-.63,1.24,1.04,1.86.84,2.89-.21,1.24.63,2.06.84,2.89.42,1.03-.21,2.27,1.04,2.89,0,.62-.21,1.45,0,2.07,0,1.03.84,1.65.63,2.89-.21,1.24,0,2.07,0,3.3-.21,1.24,1.25,1.65.84,2.89-.21,1.03-.21,2.27,0,3.3.21.62,1.04,1.24.84,2.27-.21.83-.21,1.45.84,2.07v2.27c.21.41.42.83.63,1.45.21,0,0,.41-.21.62,0,.21-.42.21-.63.21-.63-.41-1.46-.83-1.46-1.86-.21-.62-1.25-1.03-1.04-1.86-.63-.62-.42-1.45-.63-2.07,0-.41-.21-.62-.42-.83-1.25-.62-1.04-2.06-2.09-2.68.21-1.24-1.25-1.86-.84-3.1-.42-1.24-1.04-2.48-1.88-3.72-.63-1.03-1.25-2.48-1.67-3.72-.63-1.03-1.67-2.06-1.46-3.72-.84-.21-.42-1.24-1.25-1.86-1.67-1.24-2.3-3.3-3.34-5.16-.42-.41-.63-1.24-1.04-1.86-2.72-2.27-5.22-4.96-7.73-7.43-.21-.41-.63-.83-.84-.83-1.46,0-1.67-1.45-2.51-1.65-.84-.21-1.25-.83-1.88-.83-1.46-.62-2.72-1.65-4.18-1.86-.42,0-.84-.62-.84-.62-1.25.41-1.88-1.03-3.13-.83-.63.21-1.04-.62-1.67-.83-.63-.41-1.46.21-1.88-.41-.42-.62-.84-.62-1.46-.62h-4.6c-.63.21-1.25,0-1.67-.41,0-.21-.63-.21-.84-.21-2.09,1.45-4.39.62-6.48.62-2.51.21-4.6,0-6.89,0q-1.04,0-2.92,1.03c-.84.41-1.67,1.24-2.93.83-1.04-.41-1.46,1.24-2.51.83-.42.83-1.25.83-2.3.83-.42,0-1.04,0-1.67.62-.42.62-1.46.62-1.88,1.24-.63.62-1.46.41-2.09,1.03-.42.62-1.25.21-1.88.83-.21.62-1.04,1.03-1.46,1.86-.63.62-1.46.83-2.09,1.24-.63.41-1.25,1.24-2.09,1.86-.84.41-.42,1.65-1.25,2.07-.63.41-.63,1.45-1.25,2.06-.63.83-.42,1.45-.63,1.86,0,.62-.84,1.24-.63,1.86,0,.83-.84,1.24-1.04,1.86v2.68c0,.21,0,.41-.21.62-1.04.62,0,2.06-1.04,2.89-.63.41-.42,1.45,0,2.07.42.62.63,1.03.63,1.65s.21,1.86,0,2.68c-.21,1.03.84,1.45.63,2.48-.21,1.03.63,1.45.84,2.06.42.83.63,1.86,1.25,2.48.21.62.42,1.03.63,1.24.63,1.65.63,1.86,1.88,3.1.42.21.84.62,1.25,1.03.84.83,1.46,1.65,2.3,2.48.63.62,1.46,1.24,2.51,1.65.84.21,1.25,1.24,2.3,1.65,1.04.21,1.25,1.24,2.51,1.45.84.21,1.25,1.24,2.09,1.45.42.21.84.83,1.46,1.24.21,0,.63.41,1.04.41,1.67-.21,2.92.83,4.39,1.45.42.41,1.25,1.03,1.88,1.03.84.21,1.67,0,2.09.62.21.21.63.21.84.21,1.25-.21,2.09.41,2.93.83,1.04.41,1.88,1.24,3.13.83.42,1.24,1.46.83,2.51.83s1.67,1.24,2.92.83c.63,0,1.04,1.03,1.88.83.42-.21.84-.21,1.25.41.21.21.42.41.84.41.84,0,1.88-.41,2.72,0,.84.41,1.46.83,2.3.83.63,0,1.04,1.03,2.09.83.63,0,1.46-.21,1.88.41.63.62,1.46.21,2.3.21.63,0,1.04.62,1.25.83,1.25.41,2.51,1.24,3.76,1.03,1.04-.21,1.46,1.24,2.72.83.63-.21,1.04,1.03,2.09.62.63,1.03,1.88.83,2.51,1.65,1.04-.21,1.88.83,2.72.83.84.21,1.46.62,2.51,1.03.84.21,1.67.21,2.3.83.84,1.03,1.88.41,2.72,1.03,1.88,1.45,4.39,1.65,6.06,3.72,1.04-.41,1.25.83,2.09.83s1.25.62,1.67,1.03c.63.62,1.04,1.24,1.67,1.86.84.62,2.3.62,2.51,1.65.42,1.45,1.67,1.86,2.09,3.1.63.83,1.46,1.45,1.88,2.48.63,1.45,1.46,3.1,2.3,4.75.21,0,.21.21.42.41.21,1.24-.63,2.48.21,3.1.84,1.03.42,1.86.63,2.89.21.62.84,1.24.63,2.48-.21,1.03,0,2.07,0,3.3,0,.83-.21,1.86,0,2.68.21,1.03-.84,1.24-.63,2.27ZM5.85,115.06h.42c.42-.21.42-.41.21-.83-.42-.41-.42-1.03-.63-1.45,0-.21-.21-.21-.42-.21-.21.41-.21.83-.42,1.03v.83c.21.41.42.83.84.62ZM13.58,126.42c-.84-.83.42-.62.63-1.03,0-.21.21-.62,0-.83-.84-1.03-1.88-1.86-2.92-2.89,0,0-.42.21-.63.41,0,.21-.63.41-.84.41-.42-.41-.84-.83-1.25-1.24,0,0,.21-.41.21-.62.21-.21.42-.41.63-.62.42-.21.84-.62.21-.83-.63-.62-1.04-1.03-1.67-1.65,0,0-.21,0-.42.41-.21.62.21,1.03.63,1.45-.21.21-.42.41-.63.41s-.42,0-.63-.21c-.63-.21-1.04-.21-.84,0,0,1.24-.63,2.48.63,3.1-1.04.83-.63,1.24.42,1.45.21,0,.21.21.42.21,1.04,1.03,1.88,2.48,3.55,2.07.63.62,1.46.83,1.46,1.86,0,.21.21.41.42.62.21-.21.42-.41.63-.62.84-.83.84-1.03,0-1.86ZM10.24,36.38c-.21-.41-.42-.62-1.04-.41-.42,0-.63.21-.84.62-.21.62.63.83.63,1.24.21.41-.84.83-.63,1.65.21.21.42.41.63.62.21,0,.42,0,1.25-3.72ZM10.65,29.16c-.21.41-1.04.83-1.25,1.45-.21.41,0,1.24,0,1.86.21.21.84.21,1.04.21h.84c0-.21.21-.62.21-.62-.84-.62-.84-1.24-.21-1.86.63-.62,0-1.45.42-2.07.42-.62,1.04-1.03,1.46-1.24.21-.62.21-1.24.21-1.65-.21-.83-1.04-1.24-1.04-2.07,0-.41-.42-.41-.63,0,0,.41-1.67,3.3-1.88,3.72-1.04,1.03,0,.62.63.83.21.21.63,1.03.21,1.45ZM10.45,39.07c-.21-.21-.21-.41-.42-.62,0,.41-.21,1.03-.21,1.65h.42q.42-.21.21-1.03ZM10.24,35.97c.21-.41.21-1.03.42-1.65-.42.41-.42.83-.63,1.24,0,.21,0,.41.21.41ZM10.24,37.83c.21,0,.42,0,.63-.21.42,0,.63-.21.84-.41-.21-.21-.63-.41-.63-.41-.42.21-.42,0-.63,0,0,.21,0,.83-.21,1.03ZM17.55,55.18v-.41c0-.21,0-.62-.21-.62-.42-.41-.84-.83,0-1.24.42-.41.21-.83.63-1.45.42,0,.84-.21,1.04-.41-.21-.21-.42-.21-1.04,0,.21,0,.21-.21.42-.41h-.42c0,.21-.42.21-.42.41v.41c-.84,0-1.04-.62-.84-1.03.42-.83,1.25-1.24,1.46-1.86.21-.21-.21-.62-.21-1.03,0,0-.21.21-.42.21-.42.62-.63.41-.84,0-.21,0-.63-.21-.63-.21-.42.41-1.04,1.03-1.04,0-.21-.83-.63-1.03-1.25-1.03,0,0-.21-.41-.21-.62.21-.21.63-.62.84-.83.42-.21.42.41.84.41s.84.21,1.04,0c.84-.41-.21-.62-.21-.62-.42-.83-.42-1.65,0-2.27.21-.41.63-.62.21-1.03-.63-.21-1.04-.83-1.46-1.24-.84-1.03-.84-1.45-.21-2.68.42-.83.63-1.03,0-1.45-.21-.41-.42-.83-.21-1.86.21,0,.42-.21.42-.21,0-.41,0-1.03-.21-.62,0-.41.21-.62.21-1.03,0-1.24.21-1.65,0-2.48,0-.41-.42-.62-.63-.62-.21.21-.63.21-.63.41-.21.83-.42,1.03-1.04,1.65-.21.21,0,1.24.63,1.24,1.04,0,1.25.41,1.04,1.24v.41h-.84c-.42,0-.84,0-.84.62v.83c-.21.62.63.83.63,1.45.21.21-.63.62-.63,1.03,0,1.03.63,3.3,1.67,3.72-.84.41-.63,1.45-1.25,2.06-.42.83-.84,1.86-1.67,2.48-.63.62-.63,1.24,0,1.86.42.21.63.83.84,1.45.42.62,1.04,1.03,1.25,1.65.84,1.65,2.51,2.68,3.76,4.13q.21-.21.42-.41ZM10.86,41.96c.21.21.42.41.63.41.42,0,.63-.21,1.46-.41-.84-.21-1.04-.41-1.46-.41-.21,0-.42.21-.63.41ZM15.67,22.55c-.21.21-.42.41-.63.41-.63,0-.84.41-.84.83.21.21.42.41.63.62,1.04-.21,1.88-.83,1.88-1.86,0-.83-.63-1.86-1.67-2.06-.21-.21-.63,0-.63.41-.21.21,0,.83,0,1.03s.63,0,.84.21c.21,0,.21.21.42.41ZM14.21,34.32c.21-.41.21-.83.42-.83-.21.41-.21.62-.42.83ZM16.71,130.34c-.21-.21.21-.41-.42-.62-.63-.21-1.04-1.03-1.88-.83v.41c.42.62,1.25,1.24,1.88,1.86q.21-.21.42-.83ZM16.71,129.93c.21-.41.42-1.03.42-1.86-.42.62-.42,1.03-.42,1.24-.21.41,0,.62,0,.62ZM16.71,18.42l.42.21c.84-.62,1.46-1.24,1.04-2.06,0-.62,0-1.03-.21-1.65-.42,1.24-1.67,1.86-1.25,3.51ZM16.92,129.72q.21,0,.42-.21c.21-.41.21-1.03-.42.21ZM25.28,55.59c.63-.41,0-.62-.21-1.03s-.21-.41-1.25,0c-.84.41-1.46.21-1.46-1.03v-.62c.84.21,1.04-.41.84-.83-.63-1.45-1.67-1.65-2.72-.83-.42.41-.84.83-1.25.83-.63.21-1.04.21-1.04,1.03v2.07c.21.83-.84,1.24-.63,2.06,0,.21.21.41.42.62.63-.83,1.25-.83,2.09-.83-.42.83,1.46,1.24.21,2.06.42.62,1.25.41,1.67,1.24h.84c.21,0,.42-.41.42-.41-.21-.41-.63-.62-.63-.62.42-.62.84-1.45.63-2.48.42-.41.63-.62,1.04-.62.63,0,.84-.62,1.04-.62ZM17.55,51.46c.21-.21.42-.21.42-.41v.41q-.21.21-.42,0ZM17.76,45.88c0,.21.21.41.21.62,0-.41,0-.62-.21-.62ZM20.89,131.37c-.21-1.03-.84-1.24-1.67-1.45-.21-.21-.63.21-1.04.21v1.03c0,.21.21.83.42.83.63.21,1.25,0,1.88,0,.21,0,.42-.41.42-.62ZM21.52,133.23c-.42,0-.42.21-.63.41h.42s.21-.21.21-.41ZM23.4,134.47c0,.21,0,0,.63.21,0,0-.21,0-.42-.21.42.21.63,0,.42-.41,0-.21,0-.41-.21-.83-.21,0-.42,0-.42.21-.21.21-.42.21-.63.41-.21,0-.21.41-.21.41.21.21.42.21.84.21ZM24.03,134.68c.21.41.42.62.63.62,0,0,.21,0-.63-.62ZM24.86,135.09c0-.21-.21-.41-.63-.41,0,.21.42.21.63.41ZM25.28,58.89c-.21,0-.21.21-.21.21,0,0,0,.41.63,0-.21-.21-.21-.41-.42-.21ZM25.7,59.1c-.21.21-.63.41-.63.62v1.65c0,.41,0,.62.42.62.63.21,1.04-.21,1.04-.83,0-.83-.21-1.65-.84-2.07ZM26.74,56.21c-.84,0-1.04.21-1.04,1.03,0,.21-.21.62,0,.83,0,.21-.42.62.21.83.21-.41.84-.83,1.46-1.45,0-.62,0-1.24-.63-1.24ZM26.12,58.89c.84,0,1.25-.21,1.25-1.03q0-.21-1.25,1.03ZM31.97,60.34c-.42,0-1.04-.62-1.25.41-.21.62-.84.41-1.46.41-.21.41-.63.83-1.04,1.45v.62c.21,0,.42.21.42.21q1.04-.21,1.25.62c0,.41.21,1.03.21,1.24.84,0,1.46,0,2.09-.21.21,0,0-.41,0-.62-.21,0-.42-.41-.42-.62.63-.41.42-1.24.84-1.86.84-1.24.63-1.65-.63-1.65ZM28.83,57.03c.21,0,.21-.21,0-.21,0-.41-.21-.83-.42-.21,0,0,.21.41.42.41ZM28.83,57.03h-.21s.21.21.21,0ZM29.04,57.03c0,.41-.21.83,0,1.24,0,.21.42.41.84.62,0,.21-.21.62,0,.83,0,.21.21.41-.21,1.03.21-.21.63-.21,1.04-.41v-1.03c-.21-.21-.63-.21-.84-.41.21-.41.21-.83.42-1.03.63-.41.21-.62-.21-.62-.21-.21-.63-.21-1.04-.21ZM34.89,64.47v-.41c-.21-.21-.42-.62-.84,0,0,0,.21.21.84.41ZM34.89,66.12h-.42c-.21,0-.63.41-.21.62.21,0,.42-.21.63-.62ZM34.47,64.47h.42-.42ZM38.02,65.29c-.63-1.03-1.25-1.65-2.09-2.48,0,.62-.42,1.65-1.04,1.65v1.65h2.72c.21,0,.63-.83.42-.83ZM34.89,66.12v.21-.21ZM43.04,67.98s-.21-.21-.42-.21h-2.51c-.21,0-.42.41-.42.62-.21.62.21,1.03.84,1.03.84.21,1.67,0,2.09-.83.21-.21.21-.41.42-.62ZM42.2,64.47c0-.41.21-.83,0-1.24,0-.21-.21-.21-.63-.21-.21.41-.21.83.63,1.45ZM43.04,64.88s-.21-.21-.42-.41h-.42c.21.21.63.41.84.41ZM42.83,65.29s.21-.21-.63-.62c.21.41.42.41.63.62ZM55.36,70.46q-.21-.21-.42-.41c-.21.21-.42.41-.42.62,0,1.03.42,1.45,1.25,1.24q.21-.21.42-.41c0-.62-.63-.62-.84-1.03ZM57.04,69.22c0-.21-.21-.41-.21-.62-.21,0-.42.21-.42.21,0,.21.21.41.63.41ZM57.45,71.9v.83-.83ZM71.66,76.86q-.21,0-.21.41c.21,0,.21-.21.21-.41ZM74.38,75.21c.42-.21.63-.41.84-.62-.42-.62-1.25-.62-1.46,0,0,0,.42.41.63.62ZM75.84,78.51c-.42-.41-1.04-.41-1.25.21,0,0,.42.41.63.62.21-.21.42-.41.63-.41v-.41ZM79.18,75.41l-.21-.21s-.21.21-.42.21c.21.21.21.41.42.41,0,0,.21-.21.21-.41ZM90.05,10.57c.21,1.03,1.46,1.45,1.67,2.27,0,.83.42,1.03,1.46,1.03h1.88c-.21.21-.21.41-.42.62-.63,1.24-.63,1.45.21,1.86,2.09,1.03,2.09,1.24,2.51,3.51.21.21.63.62,1.04.41,1.04-.21,1.88-.83,2.92-.62,0,0,.21-.62.21-.83s0-.62-.21-.62c-.63-.21-.84-.21-1.46-.21-.42-.21-.84-.41-.63-.83.21-.21.63-.21.63-.41.21-.21-.21-.41-.63-.41-.21-.83-.84-1.45-1.46-1.65-1.04,0-1.46-1.45-2.72-.83-.21-1.03-1.46-1.45-1.88-2.27-1.25,0-1.88-1.24-3.13-1.03v-.41c-.21-.21-.42-.62-.63,0,0,0,.21.21.63.41ZM101.54,20.69c-.21-.41-.42-.41-.63,0-.63.62-1.04,1.45-.84,2.48,0,.41,0,.62.21,1.03,0,0,.21.21.42.21,1.46-.21,2.09-1.03,1.46-2.27-.42-.41-.42-1.03-.63-1.45ZM103.63,26.89c.21,0,.42-.21.42-.21,0-.21,0-.41-.21-.41q-.21.21-.21.62ZM104.25,28.74c0,.21,0,.41.42.41,0-.21-.21-.41-.42-.41ZM104.88,32.87c0,.21.21.41.42.62.21-.21.42-.41.42-.62,0-.41-.21-.83-.42-1.45-.21.62-.42,1.03-.42,1.45ZM108.43,126.42c-.63.62-1.25,1.24-.84,2.48,0,.21-.21.21,0,.41v.83c.63.41.84-.21,1.04-.41.63-.62.42-1.65,1.25-2.06,0-1.24-.21-1.24-1.46-1.24ZM109.48,124.76s.21-.21.42-.62c0-.21-.21-.21-.42-.21-.21.21-.63.41,0,.83ZM109.89,123.94c.21-.21.42-.41.63-.83-.21.21-.42.21-.63.41v.41ZM110.1,123.94q.42-.21.63-.41c0-.21-.21-.21-.63.41ZM113.24,120.43c-.21-.41-.42-.41-.84-.21-.42.41-1.04.41-1.25.62-.21,0-.21.21-.42.21.21.21.21.41.42.41,0,0,.21,0,.42.21h1.04c.63-.21.63-.62.63-1.24ZM110.94,97.71l.21.21c.21,0,1.04-1.24,1.04-1.45-.21,0-.21-.21-.42-.21s-.63,0-.84.41c-.21.21,0,.62,0,1.03ZM111.15,115.89s-.21,0-.21.21.21.41.21.41v-.62ZM111.36,109.28c0,.62.42.83.84.83.63.21,1.04-.21,1.04-.83,0-.41-.42-.41-.42-.62-1.04-.21-1.25.21-1.46.62ZM113.24,113.82v-.41c-.21-.21-.21-.41-.42-.83,0,.21-.42.21-.42.41-.42.21-.63.41-.84.83-.21.21-.21.62,0,.83.21.21.63.41,1.04.41.21,0,.42-.21.63-.41v-.83ZM114.07,110.1c0,.62.42,1.03,1.04.83.21-.21.42-.41.42-.83.21-.62-.42-1.03-.84-.83-.42,0-.63.21-.63.83ZM116.37,112.17c-.21-.21-.42-.21-1.25,2.06,0-.62.21-1.45.63-2.48-.21.21-.84.21-.84.41v2.89c-.21.21-.63.21-.63.41-.21.21,0,.41.63.41,0,.41.21.62.42.62l-.21-.41s.21,0,.42.21c-.21-.21-.21-.41-.42-.41s-.21-.21-.21-.83c.63-.83,1.25-1.45,1.46-2.27.21-.21.21-.41,0-.62ZM115.12,114.23c-.21.41-.21.62-.21.83,0-.21,0-.62.21-.83Z"/>
      <path class="cls-1" d="M279.74,2.11c-.21.21-.42.21-.63.21-.63.21-1.04,0-1.46,0h-3.76c-.84,1.03-2.09.83-2.92,1.03-.42,0-.84.21-1.04.41-.84.83-1.46,1.65-2.3,2.06-.84.62-1.04,1.65-.84,2.89,0,.21,0,.62-.21.62-1.25.62-.21,2.07-1.04,2.89-.63.41-.63.83-.63,1.45v13.42c0,.62.21,1.24.84,1.86.21.21.42,1.24,0,1.45-1.04,1.03-.84,2.48-.84,3.92v13.42c0,.83-.21,1.86.84,2.48.21,0,.21.62,0,.83-1.04.83-.84,1.86-.84,2.89v10.94c.21,1.45-.42,3.1.84,4.34v2.27c-1.04.62-.84,1.65-.84,2.48,0,4.54.21,9.09,0,13.42,0,2.48.84,4.96-.84,7.23-.21,0,0,.62,0,1.03-.21,1.24.42,2.48-.63,3.51-.21.21,0,1.03,0,1.65v2.68c0,1.03.42,2.06-.84,2.89v2.89c-.21.41-.42.62-.63,1.03-.63.62-1.46,1.03-1.25,2.06-.63.41-.63,1.24-.63,2.07-.21.83-1.04,1.24-.84,2.06,0,.62-.84,1.03-.84,1.65,0,1.03,0,1.65-.84,2.06.42,1.65-.63,2.48-1.46,3.1-.84.62-.84,1.86-1.67,2.68-1.04.62-1.88,1.24-2.3,2.27-.63,1.03-1.46,1.86-1.88,2.48-.63,1.45-2.3,3.72-3.76,3.92-.42,0-.63.62-1.04,1.03-1.04.83-1.67,1.65-2.92,2.48-1.46,1.45-3.34,2.27-5.43,3.1-1.04.62-1.88,1.03-2.72,1.45-.84.41-1.25,1.24-2.3.83-.84-.21-1.67.62-2.51.62-.84.21-1.25,1.24-2.09,1.03-.84-.41-1.25.83-2.09.83s-1.25-.21-1.88.62c-1.67.21-2.92.21-4.39.21-1.04,1.24-2.51.83-3.76.83-3.55.21-7.1,0-10.86,0-.63,0-1.25.21-1.88.62,0,0-.42.21-.42,0-1.67-1.24-3.34-.62-5.22-.41-1.25,0-1.46-1.24-2.51-1.03-.84.21-1.67.41-2.3-.62-.21,0-.42-.21-.63-.21-1.04,0-2.09-.21-2.93,0-1.04.41-1.46-1.45-2.51-.83-1.04.41-1.25-1.03-2.09-.83-1.25.41-1.67-1.03-2.72-.83-.84.41-1.25-.41-2.09-.83-2.09-1.03-4.6-2.07-6.89-3.1-1.04-.62-1.67-1.86-2.72-2.07-1.04-.21-1.25-1.45-2.51-1.24-.63-.83-1.46-1.45-1.88-2.27-.84-1.03-2.3-1.03-3.34-2.07-.63-1.03-1.67-1.86-2.51-2.68-.84-.83-1.88-1.45-2.3-2.48-.42-.83-1.04-1.65-1.67-2.48.21-1.45-2.3-1.65-1.88-3.3-1.04-.83-1.04-2.48-1.67-3.3-1.04-1.03,0-2.48-1.67-3.1.21-1.03.21-2.06-.84-2.48.42-1.03-.84-1.45-.84-2.48,0-.41-.84-.83-.63-1.24.21-1.24,0-2.27-.84-3.1.21-.83-.84-1.65-.84-2.48-.21-1.03-.21-1.86,0-2.89,0-1.24-1.25-1.86-.84-3.3v-6.81c-.21-1.03-1.04-1.86-.84-2.89.21-1.03,0-2.06,0-3.1v-5.99c.21-1.65-.84-3.51.84-4.96-.21-1.24.42-2.68-.63-3.72-.42-.62-.42-1.65.21-2.48.42-.41.42-.62.21-1.24-.42-.41-.63-.83-.63-1.45v-9.29c.21-1.03,1.04-1.86.84-2.89v-2.89c0-.41,0-.62-.21-.62-.84-.41-.21-.83,0-1.24s.21-1.24.21-1.65c-1.04-1.03-.84-2.68-.84-4.13v-5.99c0-1.03-.42-2.27.84-3.1,0-1.45-.21-2.89-.21-4.34-.84-.62-.63-1.24-.63-2.07v-15.07c0-.83,0-1.45-.42-1.86-1.04-1.45-1.46-3.1-2.72-4.34-.63-.62-1.46-.21-2.09-1.03-.21-.41-1.04-.21-1.46-.21-1.46-.21-2.93.21-3.76-1.03h-4.18c.63-.62,1.04-.62,1.67-.62h9.61c.63,0,1.25,0,2.09-.62.21-.41,1.25-.41,1.67-.21.84,1.24,2.09.83,3.34.83h12.74c1.04,0,2.09.41,2.92-.83.21-.21.84,0,1.25,0,.84.21,1.46,1.03,2.51.83h2.51c.21,0,.42.21.63.41-.21.21-.42.21-.42.21-1.88,0-3.55.21-5.01,0-2.51,0-5.01,2.48-6.48,4.34-.63.62-.63,1.45-1.25,2.07-.42.62.42,1.86-.42,2.68-.84.62-.42,1.45-.42,2.06v10.33c0,.83.42,1.86-.63,2.68-.21,0,.63.62.63,1.03v11.56c0,.62-.42.83-.84,1.24v.83c1.25,1.03.84,2.68.84,4.13v10.94c0,1.45.63,2.89-.84,3.72,0,1.03-.21,2.27.42,3.1.84.83.63,2.27,0,3.1-.42.41-.63,1.45-.42,1.65,1.04,1.45.84,2.89.84,4.34v6.4c0,.62-.21,1.03-.42,1.65-.63.83-.42,2.07,0,3.3.63,1.03.42,1.86-.21,3.3-.21.21-.21.83-.21.83.84.62.84,1.45.84,2.27,0,1.45-.21,3.1,0,4.54.21,1.24,1.04,2.27.84,3.72-.21,1.03-.21,2.48,0,3.51.21,1.24.84,2.27,1.04,3.51.21.21.84.62.63,1.24-.21,1.24.63,2.07.63,2.89,0,1.03.84,1.65,1.04,2.68.21.62.84,1.45,1.25,2.27s.42,1.65.84,2.48c.63,1.45,1.25,2.68,2.09,3.92.63,1.45,1.25,2.48,2.09,3.72.84.83,1.04,2.07,1.67,2.89.63,1.03,1.67,1.45,2.09,2.48,1.04,1.86,2.72,3.1,3.97,4.34.63.83,1.88.62,2.3,1.65.21.21,4.39,3.1,4.81,3.3.84.21,1.46,1.45,2.72,1.65.42,1.03,1.88,0,2.92,1.03.42.62,1.46.83,2.3,1.03.42.21.84,0,1.25.21.63.41,1.25,1.24,2.09,1.24,1.04.21,2.09,0,2.93.21,1.04.21,1.88,1.24,2.92.83.63,1.03,1.67.83,2.72.83h7.94c1.88-.21,3.55.83,5.22-.83h5.43c.21-.21.84-.83,1.25-.83,1.46.21,2.51-1.24,4.18-.83.63.21,1.04-.62,1.46-.62.84,0,1.04-1.24,1.88-1.03,1.25.21,2.09-1.03,2.92-.83h.84c.84-.41,1.25-1.24,1.88-1.45.63-.41,1.46,0,2.3-.83.42-.41,1.25-.41,1.46-.83.63-.83,1.25-1.03,1.88-1.65,1.04.41,1.46-.83,2.09-1.03.63,0,1.04-.83,1.67-1.24-.21-.83.63-1.24,1.25-1.86.21-.41.63-.83,1.46-1.03.63,0,1.04-.83,1.46-1.24,0-.21,0-.62.21-.83.63-.62,1.04-1.65,1.67-2.68.84-.83,1.88-1.86,2.72-2.89,0-1.24,1.46-1.65,2.3-2.68.21-.41.63-.83.42-1.03-.42-1.03,1.04-1.65.84-2.89-.21-1.03,1.04-1.45.84-2.48-.21-1.03,1.25-1.86.84-2.89,0-.21.42-.41.42-.62.63-.83.63-1.65,1.25-2.07.21-.41-.21-1.45.21-1.86.84-.62.42-1.65.42-2.27,0-1.03,1.46-1.65,1.04-3.1-.42-.83,0-2.07-.21-3.1,0-1.24,1.46-2.27,1.04-3.92-.21-1.03,0-2.27,0-3.51,1.25-1.24.63-3.1.84-4.54v-4.96c0-.83-1.25-1.24-.84-2.48.21-.83,0-1.65,0-2.27,0-1.03.21-2.06-.21-3.1-.42-1.24,1.04-2.06,1.04-3.3v-7.85c0-.41,0-1.24-.63-1.65-.42-1.45-.63-2.68.42-4.13.21-.21.21-1.03,0-1.03-1.04-.62-.84-1.86-.63-2.68.21-1.03,1.04-1.86.84-3.3-.21-1.24,0-2.27,0-3.72v-3.51c0-.62.21-1.24,0-1.24-1.67-1.24-.63-3.1-.84-4.54-.21-1.65,0-3.3,0-4.96,0-.83,1.04-1.03.84-2.06-.21-.62,0-1.45,0-2.07v-2.48c-.21-1.65.42-3.72-.84-5.37-.21-.21,0-1.03,0-1.65,0-2.07-.21-4.34,0-6.4,0-1.86-1.67-2.89-1.04-4.75.21,0-.21-.41-.42-.62-1.04-1.24-2.92-1.65-3.97-3.1-1.25.41-2.09-1.03-3.34-1.03h-4.39c0-.21.21-.62.21-.62h14.83c.84,0,1.04-.21,1.67-.62.21-.21.84-.21,1.04,0,.42.83,1.25.62,2.09.62h9.82c.21,0,.42.41.63.41ZM146.87,5.2c-.42-.41-1.25-.41-1.46,0v.41c.42.21,1.25.21,1.46,0v-.41ZM147.29,34.32h.21c.63-.41.42-1.24,0-1.45h-.21c-.42.21-.42,1.24,0,1.45ZM153.97,61.99c.63-.41.63-.83.21-1.45-.63-.62-1.25-1.45-1.88-1.86s.21-.62.21-.83,0-.21.21-.83c-.63,0-1.25.21-1.67-.41-.63-.83-1.88.21-2.09-.62-.63-.62-1.04-.41-1.25,0-.42.41-.63.83-.63,1.03-.21.83,0,1.86,0,2.48s.21.83,1.04.83h3.55c.84,0,1.25.41,1.04,1.65-.21.62-.42,1.03-.63,1.65-.42-.21-.84-.41-1.04-.62-.21-.21-.42-.21-.63,0-.42.62-1.04.83-1.04-.21,0-1.45-1.67-.62-2.09-1.45,0,.21-.21.41-.21.62,0,.41.21.62.42.83.42.21.42.41.21.62-.42.21-.63.62-.63,1.03-.21.83.42.62,1.04.83.84.41,1.46,1.03,1.25,2.48h-1.46c-.21,0-.42-.21-.42,0-.21.21-.42.41-.21.62.84.62.42,1.03-.21,1.45.42.41,1.04.83.84,1.65-.21.62,0,1.45,0,1.86-.21,0-.63.21-.84.21,0,.62.42.62.84.62-.21.62.21,1.03-.21,1.65q-.63.62,0,1.03.84.83,1.88,0c.63-.21,1.04-.21,1.46,0,.42.41.84.83,1.04,1.65.21,1.03.42.41.84,0l.21-.21q1.46-.62.84-1.65c-.63-.62-.42-1.24.21-1.65.21-.21.21-.41,0-.62-1.04-.83-.42-1.65-.63-2.48.21-.21.63-.21.63-.41.21-1.24.21-2.27.21-3.51,0-.41-.21-1.03-.42-1.03-.21-.21-1.04,0-1.04.21-.63,1.24-2.09,1.24-2.93,2.06-.42.41-.63-.21-.63-.62v-.83c.63,0,.84-.21.84-.62,0-1.03.42-1.03,1.25-1.03h.84c.21,0,.63-.21.21-.62-.63-.62-.42-1.24-.42-1.86.21.21.42.41.84.62.21,0,.63.21,1.04.21s.63-.83.21-1.45c-.21-.41-.84-.41-.21-1.03ZM150,80.57c-1.25,1.86-.21,3.1,2.09,4.13,0,.41-.21.83,0,1.24,0,.21.21.62.42.62s.63-.21.84-.41c.21,0,.21-.41.21-.62-.21-.41-.42-.83-.84-1.03-.21-.21-.42-.41-.63-.62,0,.41,0,.62-.84,0,0-.21.84.62.84-.21,0-.41.63-.83,1.04-1.24.42-.41.63-.83.21-1.45,0-.21-.63-.21-.84-.21q-1.25-.21-1.25-1.03c-.21-.41,0-1.24-.63-1.45-.42-.21-1.25-.21-1.67,0-.42.41-.84,1.03-1.67,1.03,0,0-.42.62-.21,1.03,0,0,.63.41.84.21.63,0,1.04-.21,1.25-.41.21-.21.63,0,.84,0,.42.21.21.21,0,.41ZM147.08,27.71c0,.62.21,1.03,1.25.83,0-.21.42-.41.42-.83,0-.62-.42-.83-1.04-.62-.42,0-.84,0-.63.62ZM147.29,84.5c.21.21.63.21,1.04.21l.21-.41c-.63-.41-.63-1.03-1.04-1.86-.21,0-.42.21-.42.41v.83c0,.21-.21.62.21.83ZM151.05,43.61s-.42-.21-.63-.41h-1.25c-1.46.21-2.3,1.03-2.09,2.48,0,.41.21.62.21.83q.21-.21.42-.21c.21-.41.63-.62.84-1.03.42-.41.63-.21,1.04.21.63.21,1.46,0,2.09,0l.21-.21c-.21-.41-1.04-.83-.84-1.65ZM153.55,35.35c-.63-.41-1.04-.41-1.25,0-.21.21-.21.62-.21,1.03.21.21.42.41.63.83-.21.41-.42.62-.84.83-.63.41-.63-.21-1.04-.21-.42-.41-.84-1.24-.84-1.86-.21.21-.42.21-.63.41-1.04,1.03-1.04,2.89-2.3,3.92,0,.41.42.62.84.62.42-.21.84-.62,1.04-.62s.63.41,1.04.62c.84,0,1.25-.21,1.25-1.03,0-.21,0-.83.63-.41q1.25.62,2.09-.41c.63-.41.21-.62,0-.83-.63-.41-.42-1.03.21-1.65.42-.21.42-.41,0-.62-.21,0-.42-.41-.63-.62ZM150.63,91.31c1.04,0,.42-.41.42-.62.21-.21.21-.41,0-.41-.84-.62-.63-1.03,0-1.86-.42-.62-1.04-1.03-1.46-1.86-.63,0-1.25-.21-1.88.41-.63.41-.63.62,0,1.24,0,.21.21.41.21.41.63.41,1.46,1.86,1.46,2.27.63.21,1.04.41,1.25.41ZM152.09,53.94v-1.24q-.21-1.03-1.88-1.24c0-.62-.21-.83-.84-2.89v-1.45c0-.21-.21-.41-.42-.62q0,.21-.21.41c0,.41,0,1.03-.42,1.45-.84.21-.42,1.03-.42,1.65,0,.41.42.83.84.62.21-.21.63.21.63-.21,0,.83.21,1.03.84,1.03,0,.21,0,.62-.21.62q-.42.62,0,1.03c.42.83,1.25.83,2.09.83-.21.83.42.83.84.83s.63-.41.63-.83c0-.21,0-.41.21-.83.42-.21.42-.41.63-.62,0,0-.21-.21-.63.21q.21-.21.21-.41s-.21.21-.42.41c-.42.41-.63.62-1.04.83,0,.21-.21.21-.42.41ZM147.91,17.8c0,.21.21.83.42,1.03.21,0,.63-.21.84-.21.42-.21.63-.62,1.04-1.03,0,0-.21-.41-.42-.41-.21-.21-.63,0-.84,0h-.21c-.63-.21-.84.21-.84.62ZM148.33,52.28s-.21.21-.42.21c0,.21.21.41.21.41.21-.21.42-.21.63-.41,0,0-.21-.21-.42-.21ZM149.38,98.13h-.21c-.21,0-.84-.21-1.04,0-.21,0-.21.62-.21,1.03,0,0,.21,0,.21.21.21,0,1.25-.83,1.25-1.24ZM152.93,30.19c-.42.21-.63.21-.84.41-.63.41-1.25,1.45-2.3,1.45-.21-.21-.21,0-.42.21.21.21.42.41.63.41,1.04,0,1.25.41,1.25,1.24-.21.21,0,.41,0,.41h-2.09c-.21,0-.42.21-.42.83,0-.21-.21-.21-.42,0-.21.21-.63.41,0,.62,0,0,.21-.21.42-.62.42,0,1.04,0,1.88-.21q.21,0,.63-.62c.42,0,.63-.21.63-.21,0-.62,0-1.03.21-1.65.42-.83.42-1.65.84-2.27ZM149.38,20.07c-.21-.21-.42-.62-.63,0h.63ZM148.96,5.82s.21-.21.42-.83h-.42c0,.21-.42.41,0,.83ZM148.96,15.53q0,.21.21.62c0-.21,0-.41-.21-.62ZM149.38,5c.21-.21.42-.41.63-.83-.21.21-.42.21-.63.41v.41ZM150.21,20.9c0-.21-.21-.41-.42-.62-.42,0-.42.21-.42.21.21.21.42.62.84.83,0-.21.21-.21,0-.41ZM149.38,21.1c0,.41.42.62.63.83,0-.21.21-.41-.63-1.24v.41ZM149.38,50.43v-.41.41ZM152.09,27.71c-.21,0-.63,0-.63-.21-.84-.83-1.04-.21-1.67.21-.63.62,0,.83.42,1.03.21.41.84.62.42.41,1.46.41,1.88.41,2.09-.41,0-.41,0-1.03-.63-1.03ZM149.58,5c.42-.21.42-.41.63-.62,0,0-.21,0-.63.62ZM150.84,97.92l.42-.41h-1.04c.21.21.42.21.63.41ZM151.26,88.22c0-.21-.21-.83,0-.83,0-.62-.42-.83-.84-.83-.21,0-.42,0,.84,1.65ZM150.42,14.5c.42,0,.84.21,1.25.21.21-.21.21-.62.42-1.03-.21-.21-.42-.41-.42-.62-.21,0-.21.21-.42.21-.21.21-.42.41-.63.62,0,.21,0,.41-.21.62ZM152.93,93.58s0-.41.21-.41c0-.21.21-.41-.63-1.86h-.84q-.63,0-.42.41c0,.21.21.21.21.41.21.21.84.41.21.83-.42.21-.63.62-.84.83-.21.21-.42.62-.42.62.63.41,1.25,1.03,1.88,1.65,0,0,.21,0,.42-.21.84-.62,1.46-1.24.21-2.27ZM153.55,106.59c.21-1.03-.21-1.45-1.04-1.45h-.42c-.63,0-1.04.62-.84,1.03v.41c1.04.62.42,1.03,0,1.65-.21,0-.21.41,0,.62,1.25-.21,2.09-.83,2.3-2.27ZM152.09,99.16c-.21-.21-.42-.21-.84-.21-.21.41-.21.83.84,1.24v-1.03ZM151.26,5.62c.21.21,1.25.21,1.25,0,0-.41,0-.62-.63-.62-.21.21-.63.41-.63.62ZM151.26,34.32c.21-.62.63-1.24.84-1.86-.21.83-.63,1.45-.84,1.86ZM152.3,101.02c.42.41,1.04.21-.42-.41,0,0,.21,0,.42.41ZM152.3,49.6c.21,0,.21-.21.21-.62-.21.21-.63.41-.21.62ZM152.51,31.43c.21-.21.42-.41.84-.83,0-.21-.21-.21-.84.83ZM153.55,100.81c-.63-.21-1.04-.41-1.04-.41,0,.21.42.21,1.04.41ZM153.97,90.49s.21-.21.42-.21c.21-1.03-.42-1.45-.84-1.86-.21,0-.42-.21-.63-.21,0,.41-.42.83-.21,1.03.21.62.84.83,1.25,1.24ZM153.55,48.15c-.42,0-.84.21-.84.83.42,0,.63-.21,1.04-.83,0,.21.21.21.21,0,.21,0,.21-.21.42-.41,0,0-.21-.21-.42.21v-.41s-.21.21-.42.62ZM152.72,49.19v-.21.21ZM153.14,55.59c-.21.41-.42.83-.42,1.03v.41c0-.21.21-.83.42-1.45ZM152.72,57.03c0,.21.21.21.42,0,0,0,.21,0,.21-.21.42-.62.21-1.24-.63.21ZM153.97,110.93l.21-.21c.21-.21-.84-1.45-1.04-1.45s-.21.21-.21.21c-.21.41-.21,1.03,0,1.24.21.21.63.21,1.04.21ZM154.39,45.26c0-.21-.42-.41-.42-.41-.42.41-.63.62-1.04,1.03,0,.41.21.41.42.62.84,0,1.25-.41,1.04-1.24ZM153.55,92.14c-.21-.41-.21-.83-.42-.83.21.21.42.41.42.83ZM153.55,52.9l.21-.21q0,.21-.21.21ZM156.06,116.51c-.42,0-.63-.41-1.04-.62h-1.04c-.63.41,0,.62.21.83.42.62,1.46,1.03,1.25,2.06l.63.41c.42,0,.63-.41.84-.62q0-1.45-.84-2.07ZM153.76,48.15s0-.21.21-.21c-.21,0-.21.21-.21.21ZM154.81,104.53c.21-.21.21-.41.42-.62-.21,0-.21-.21-.42-.21v.83ZM156.48,110.93c0-.21.21-.41.42-.62,0-1.03-.84-1.24-1.25-1.65,0,.21-.21.21-.42.41,0,1.03.84,1.24,1.25,1.86ZM156.27,111.96c-.21.41-.21,1.03,0,1.24.21,0,.42-.41.63-.62-.21-.21-.21-.41-.63-.62ZM158.15,120.84c.21-.21.63,0,1.04-.21.21-.21.21-.83.21-1.24h-.42c-.42.41-1.25.41-2.09.83,0,.21.21.41.21.41.21,0,.63,0,1.04.21ZM159.4,123.11h-.42c-.21.21-.63.41,0,.83,0,0,.21-.21.42-.83ZM159.61,122.7q-.21.21,0,.41v-.41ZM159.61,116.51c.21,0,.42-.21.42-.21-.21-.21-.21-.41-.42-.41v.62ZM162.12,123.73c.21.21.42.41.42,0,.21-.41.21-.62.21-.83-.63-.62-1.25-1.24-2.09-2.06l-1.04,2.27c.84,0,1.88-.21,2.51.62ZM160.24,121.46c0-.21.21-.41.21-.62-.21.41-.21.62-.21.62ZM161.91,126.42v-.21c-.21-.41-.42-.62-.84-.21,0,.21.21.41.84.41ZM161.91,126.42h-.42.42ZM165.88,130.96c0-.21-.21-.41-.42-.41,0-.21-.21-.21-.21,0,0-.41-.42-.83-1.04-.83,0-.62.21-1.24-.42-1.86-.63-.41-.63-.83,0-1.45.42-.21.84-.83.42-1.24-.63-.83-.84.21-1.04.41-.42.21-.42.83-1.25.83-.42.62,1.46,1.03.21,1.86l-.21.21c.63.83,1.25,1.65,2.3,1.24,0,.41.21.62.84.83.21.41.42.62.63.62,0,0,.21,0-.21-.41.21,0,.42.21.42.21ZM165.46,130.75s-.21,0-.42-.21l.42.21ZM169.22,132.2c0-.21,0-.62-.21-.62-.63-.41-1.25-.41-1.67-1.03-.21.21-.42.21-.42.41v.41q0,1.65,1.25,1.65h.42c.42,0,.84-.21.63-.83Z"/>
      <path class="cls-1" d="M468.81,145.62c-.21.21-.21.41-.42.41h-13.16c-1.04,0-2.3.62-3.34-.83-1.04.21-2.09-.62-2.92.62-.21.21-.84,0-1.25.21-1.25.83-2.09-1.65-3.13-.62-1.25.83-2.3.62-3.55.62h-7.52c-.84,0-1.04-.62-1.67-1.24,0-.21.21-.41.42-.41.63,0,1.46-.21,2.3,0,1.25,0,1.88-1.45,3.34-.83.21.21.42-.21.63-.41.21-.21.63-.41.63-.62-.21-1.65,1.46-1.86,1.67-2.89s1.04-1.65.84-2.48c0-1.03-.42-2.07.63-2.89.42-.21.21-.83.21-1.45V9.33s-.21-.21-.42-.21c-.63.41-1.04.83-1.25,1.45-1.25,2.89-3.13,5.78-4.39,8.88-1.04.62-.21,1.65-.63,2.48-.84.62-.63,1.65-1.67,2.06.42,1.24-.84,1.65-1.04,2.68,0,.62-.84,1.45-1.04,2.27-.21,1.03-.42,1.86-1.04,2.89-.21.41,0,1.03-.42,1.45-1.04,1.45-1.46,3.51-2.51,4.96-.42.83-1.04,1.65-1.67,2.27-.42.83-.21,1.65-.63,2.27-.42.83-.42,1.86-.63,2.48-.42.62-.63,1.45-.84,2.06-.42,1.03-.63,1.86-1.46,2.68-.63.41-1.04.83-1.04,1.86-1.04,1.03-1.25,2.89-2.51,4.13.63,1.45-1.25,2.48-.84,3.72-.84,2.06-2.09,4.34-3.34,6.4,0,.21,0,.41-.21.62-.42.83-1.46,1.24-1.25,2.48,0,.62-.84,1.24-.84,2.07,0,1.24-1.46,2.07-.84,3.3-1.04.62-.84,2.07-1.67,2.48.21.83-.42,1.24-.84,1.86-.63.41-.84,1.03-.84,1.45-.21,1.24-.84,2.06-1.25,2.89-.63.83-1.46,1.45-1.25,2.89.21.83-.63,1.24-.84,1.45,0,.21-2.92,7.64-3.13,7.85-1.25,1.86-2.09,3.72-2.92,5.78-.42.41-.42,1.03-.42,1.65,0,.21-1.25,2.27-1.46,2.27-.84.83-1.25,1.65-1.04,3.1l-1.25,2.68c-.84.83-1.67,1.45-1.46,2.68.21.41-.63.83-.63,1.24-.21,1.03-1.25,1.65-.84,2.89-1.04.83-.63,2.06-1.67,2.68.21.83-.42,1.24-1.04,1.65,0,.41-.63.83-.42.83.42,1.24-.63,2.07-1.04,3.1-.42.62-.63,1.65-1.46,2.27-.42.21-.21.62-.21,1.03.21,1.03-.21,2.07-1.04,2.89-.21.21-.21.62-.42,1.03-1.04,1.45-1.88,3.1-2.51,4.54-.21.83-1.25,1.45-.84,2.68.21.62-1.04,1.03-1.04,2.06,0,1.45-1.25,2.48-1.88,4.13,0,.41-.21.62-.63.83-.42.41-1.25.41-1.46-.21-1.04-2.48-1.88-4.54-3.13-6.4,0-1.86-1.46-3.1-1.88-4.54-.21-1.24-1.88-1.65-1.67-2.89-2.09-3.51-3.76-7.43-5.64-11.15s-3.76-7.43-5.85-11.15c-.63-1.24-1.04-2.27-1.88-3.3-.63-.83-1.04-2.06-1.67-2.89-1.46-2.89-2.72-5.78-4.18-8.67-1.04-.62,0-1.86-1.04-2.68-.63-.41-.63-1.86-1.04-2.48-.84-.83-1.04-2.27-2.09-2.89,0-.21-.42-.83-.42-.83,0-2.06-1.25-3.51-2.3-4.96-1.04-1.65-1.67-3.3-2.72-5.16-.84-1.03-1.46-2.48-2.09-3.92-.42-.62-.63-1.65-1.46-2.27-.84-.41-.63-1.45-1.46-2.27-.21-.21.21-1.03,0-1.65-1.25-2.07-2.51-4.34-3.55-6.61-.63-.41-.42-1.45-.84-1.65-.63-.41-.21-1.24-.42-1.86-.21-.62-.42-1.45-.84-1.65-1.04-1.03-5.01-8.47-5.64-10.12-.21-.62-.63-1.24-1.25-1.86-.21-.21-.84-.41-.63-1.03.42-1.03-.63-1.45-.84-2.48-.21-.83-.84-1.65-1.04-2.27-1.04-1.65-1.88-3.3-2.72-5.16-.21-.21-.21-.62-.42-1.03,0-1.03-2.3-4.34-3.13-5.16-.84-1.24-1.25-2.68-2.09-4.13-.21-.41-.63-.83-.42-1.45,0-.62-.21-.83-.63-1.24-1.46-1.24-1.46-3.1-2.72-4.75.42-1.03-.63-1.65-.84-2.48,0-.21-.21-.41-.42-.62-.42-.21-.42-1.24-.84-.62-.63.21-.84.62-1.04,1.24-.21.41-.21.83-.21,1.03v16.11c0,.83,0,1.45.84,2.07.21,0,.21.62,0,.62-1.25,1.45-.63,2.89-.63,4.34-.21,3.72-.21,7.23-.21,10.94,0,1.03-.21,2.07.84,2.89.42.41.42,1.45,0,1.65-.84.62-.84,1.65-.84,2.48v13.83c0,.83-.21,1.65.84,2.27.21,0,.21.83,0,1.03-.63.62-.84,1.24-.84,1.86v16.73c0,.83.21,1.03.84,1.65.21.21.21.62,0,.83-1.25,1.24-.63,2.68-.63,4.13-.21,3.92-.21,7.64-.21,11.56.21.83-.42,2.27.84,3.3.21,0,.21.62,0,.83-.84.21-.84,1.03-.84,2.07v14.25c0,.83-.21,1.45.84,2.06.21.21.21.83.21,1.24,0,1.45.21,2.68-.21,4.13-.21,1.03.84,1.65.84,2.89-.21,1.24.84,1.65,1.46,2.27,1.67,2.06,3.34,2.89,5.43,2.89,1.25.21,1.88,1.24,3.13,1.03.84-.21,1.88,0,2.92,0l.21.21c0,.21-.21.62-.42.62h-8.36c-.84,0-1.04-.83-1.46-.83-1.46,0-2.92-.62-3.97.62-.21.21-.42.21-.84.21h-14.83c-.21,0-.42-.21-.63-.41.21-.21.42-.41.84-.41,1.25-.21,2.3.41,3.34-.62,1.04-.62,2.09,0,3.13-.21.42-.21.84-.21,1.04-.41,1.04-.83,1.46-1.65,2.3-2.48,1.25-.83,1.25-2.89,2.51-3.92q.21-.21.21-.41c0-.83,0-2.07.21-3.1,1.04-.62.42-1.86.42-3.1v-6.81c0-1.03.42-2.07-.63-2.89.21-1.03-.63-2.07.42-3.1.21-.21.21-.62.21-1.03v-14.87c0-.21.21-.62-.21-.83-1.04-1.03-.21-2.27-.42-3.3,1.04-.41.63-1.86.63-2.89v-11.56c0-.83.21-1.86-.42-2.27v-2.68c.63-.62.42-1.65.42-2.27v-13.63c0-.62,0-1.24-.63-2.06-.21-.21-.21-1.24,0-1.45.84-.83.63-1.86.63-3.1,0-3.3.21-6.81,0-10.12,0-1.45.84-3.51-.63-4.75.21-1.45-.63-2.89.42-3.92.21-.41.21-1.03.21-1.65v-13.42c0-.83,0-1.45-.42-2.27-.63-.62-.63-2.07,0-2.89.84-.83.21-1.86.42-2.68-1.04-1.24-.63-2.48-.63-3.72-.21-.83.21-1.65-.21-2.27-.84-.83-.84-2.27-1.88-2.68-.63-.21-1.04-.83-1.46-1.45-1.25-1.24-3.13-1.86-4.6-2.06h-5.85c2.92-.41,5.43-.41,7.94-.62,1.25,0,2.72.62,3.76-.83h2.92c.84,0,1.46,1.24,2.72,1.03.84-.41,2.09-.21,3.13-.21h6.69c.42,0,.63.41.84.62,1.25,2.89,2.72,5.78,3.97,8.47.21.41.63.83,1.04,1.24.63,1.03,1.46,2.06,1.67,3.51,0,.83.63,1.45,1.04,2.27.63,1.65,1.46,2.89,2.09,4.54.42.83,1.04,1.24.84,2.06,0,.21.21.62.21.83,2.3,2.27,3.13,5.58,4.6,8.26,1.04,1.45,1.88,3.3,2.92,4.96,1.04,1.45,2.09,2.89,2.09,4.75.21.21.21.62.42.83,1.46.83,1.67,3.1,2.72,4.34.63,1.03,1.04,2.27,1.67,3.3.42.62-.21,1.65.63,2.48.63.41.84,1.45,1.25,2.27.42.83.84,1.65,1.25,2.48.42.62.84,1.45,1.04,2.27,1.67,2.06,3.13,4.75,4.18,7.23-.42,1.45.84,1.86,1.46,2.68,1.04,2.06,1.88,3.92,2.72,5.78.63,1.65,2.51,5.78,3.34,7.02.42.21.63.62.84,1.03,1.04,1.45.63,3.1,2.09,4.13,1.25,2.68,2.72,5.58,4.18,8.05,1.04,2.06,2.09,4.34,3.13,6.4,1.04.62,0,1.65.84,2.48.63.62,1.04,1.65,1.25,2.48.21.62.84,1.03,1.04,1.45.84.41.42,1.45.84,1.86.63.41.63.62.63,1.24,0,.41.21.83.42,1.24.42.41,1.04,1.03,1.25,1.65.84,1.45,1.67,3.3,2.51,4.96,1.25,2.27,1.88,4.96,4.18,6.81,0,1.24.84,1.86,1.04,2.68,0,.41.63,1.03.84.83.42-.21.84-.62,1.25-1.03.21,0,.21-.41.21-.62-.42-1.03.63-1.45.84-2.27,0-.62-.21-1.03.21-1.65.84-.62,0-1.86,1.04-2.68.63-.41.63-1.45,1.04-2.27.42-.83,1.04-1.45,1.46-2.27.21-1.03,1.88-4.34,2.51-5.16s-.21-2.07,1.04-2.68c.21-1.65,1.88-2.89,1.67-4.75,1.04-1.03,1.67-2.68,2.09-4.13.63-1.86,1.46-3.51,2.51-5.37.84-1.65,1.67-3.3,2.51-5.16.63-1.03.84-2.48,1.46-3.72.63-1.24,1.46-2.27,1.25-3.51,1.25-1.65,1.88-3.72,2.92-5.37.63-1.24.84-2.68,2.09-3.72-.21-1.24.42-1.86.84-2.89.63-1.03,1.04-1.86.63-2.89,1.46-.83.63-2.89,2.3-3.72,1.25-2.48,2.09-4.75,3.76-7.02-.63-1.24.84-2.06.63-2.89,0-1.03,1.04-1.65.84-2.68.84-.62.63-1.86,1.67-2.48-.21-.83.42-1.24,1.04-1.86.21,0,.63-.41.63-.62-.42-1.45.84-2.27,1.04-3.3,1.25-.62,0-2.48,1.46-3.1.21-.21,0-1.03,0-1.65,0-.41,0-1.03.42-1.24,1.25-.83,1.46-2.68,2.51-4.13.42-.83.84-1.86,1.67-2.48,0-.21.21-.62.21-.83-.21-1.03,1.25-1.86,1.04-3.3-.21-.62.84-.62.63-1.24,0-1.03,1.25-1.45,1.04-2.68,0-.41.63-1.45.84-2.27.42-.83,1.46-1.45,1.46-2.27s1.88-4.54,2.51-5.16c0-2.48,2.09-4.34,2.93-6.61.84-.83,0-2.27,1.25-3.1-.21-.62.21-.83.63-1.45.42-.41.42-.62.63-1.24,1.04.41,1.25-1.03,2.09-.83.84.21,1.67-.41,2.51.41.21.41.63.41,1.25.41h14.42c.84,0,1.46,0,1.88-.62.42-.21,1.04-.21,1.46-.21.21,0,.42.41.63.41,0,.21-.21.41-.21.41-.84,0-1.25.41-1.67.62-.63.21-1.46,0-2.09.21-.63,0-1.25-.21-1.46.21-.63.83-1.46.41-2.09,1.03-.84,1.03-1.67,2.06-2.51,2.68-.84.62-.84,1.45-1.25,2.06-.84,1.03.21,2.68-.63,3.92-.63.83-.42,2.27-.42,3.51,0,.21.42.41.42.62.21.21.42.83.42.83-1.04,1.24-.84,2.68-.84,3.92v11.36c0,1.45-.42,2.68.84,3.72v2.48c-1.04.62-.84,1.86-.84,2.89v12.6c0,.83,0,1.65.63,2.27v2.68c-.63.41-.63,1.45-.63,2.27v12.39c0,.83,0,1.45.42,2.06.84,1.03.63,2.48,0,3.72-.21.62-.42,1.03-.42,1.86v13.01c0,1.45,1.46,2.27.84,3.72-.21.83.21,1.65-.63,2.27-.21.21-.21.62-.21.83v14.87c0,.62.21,1.03.63,1.45.21.21.21,1.03,0,1.24-.63.41-.63,1.24-.63,2.06v11.77c0,1.03.63,1.65.84,2.48.21,1.03-.42,1.86.42,2.68.63.62.84,1.65,1.25,2.48.63,1.03,3.13,3.92,4.39,3.92h1.46c1.25-.21,2.3.21,3.13.62.84.62,2.09.21,3.34.62ZM304.39,139.63h-.42c-.42.21-.42,1.03,0,1.24h.42c.42-.21.42-.83,0-1.24ZM307.73,5.2c-.42-.41-.84-.62-.84-1.03-.63.41-1.04.83-1.25,1.24,0,0,.21.41.42.41.21.21.42.41.63.62h.63c.21,0,.63-.21.63-.41s0-.62-.21-.83ZM309.4,4.38c-.21,0-.42,0-.63.21.21,0,.21.21.42.21,0,0,.21-.21.21-.41ZM311.7,6.44c0-.21.21-.41.21-.62h-1.04c-.42,0-.42.62-.42.83s.21.62.42.83c0-.21.21-.21.21-.41.21-.21.42-.41.63-.62ZM311.91,9.54c0-.21-.21-.21-.21-.41-.21,0-.21.21-.42.21.21,0,.21.21.63.21ZM313.58,6.24c0-.21,0-.41-.21-.41,0,0-.21,0-.21.21s.21.21.42.21ZM315.67,8.09s.42-.21.63-.21v-1.24c0-.62-.21-.83-.63-.83s-1.04,0-1.04.21c-.21.41,0,.83.21,1.24.21.21.42.62.84.83ZM317.76,10.16c-.21-.41-.84-.83-1.25-1.03-.21,0-1.04.21-1.04.21-.42,1.45,0,2.27,1.46,2.07,0,0,.21.21.42,0,.21,0,.84-.83.42-1.24ZM320.27,25.65c-.42-.21-.84-.41-1.25-.21-.42,0-.42.83-.21,1.24,0,.21.21.21.42.41.21-.21.42-.62.84-.83,0-.21,0-.41.21-.62ZM321.94,23.99v-.41h-.42c-.42.62-.42.83-.42,1.03s.21.41.42.62c0-.21.42-.21.42-.41v-.83ZM322.78,22.14v.83c-.42,0-.84.21-.84.62.63,0,.84,0,.84-.62.21,0,.63-.21.63-.21.21-.62,0-.62-.63-.62ZM322.78,22.14v-.41c-.21-.21-.42-.62-.63-.21-.21.21.21.41.63.62ZM322.36,22.14h.42-.42ZM325.28,29.36c-.21-.21-.21-.41-.42-.62,0,0-.21.21-.42.21-.21.21-.63.83-.63,1.03.21,0,.42.21.63.21.42.21.84,0,.84-.83ZM326.12,27.09c.21.21.21.41.63.41,0-.21-.21-.41-.21-.41h-.42ZM329.46,37c0-.62-1.04-1.86-1.25-1.86s-.42.21-.42.41c.21,1.24-.84,1.65-1.46,2.27,0,0,0,.21.21.41,0,.21.21.21.42,0,.84-.41,1.46-.41,2.3-.83,0-.21,0-.41.21-.41ZM326.95,41.34c-.21,0-.42-.21-.63-.21,0,.21.21.21.63.21ZM328.42,44.85c0,.21-.21,0-.21.21-.42.21-.42,1.03,0,1.24,0,.21.21.21.21,0,.21-.21.21-1.03,0-1.45ZM329.25,42.58c0-.41,0-.62-.21-1.24-.42.62-.42.83-.42,1.24,0,.21.21.41.42.62,0-.21.42-.41.21-.62ZM333.64,45.26c-.84-.41-1.04-1.24-1.88-1.03-.21,0-.42.21-.63.41.63.21.84,1.24,1.67,1.03.21,0,.42-.21.84-.41ZM338.24,54.97c-.84-1.24-1.04-1.24-2.09,0,0,.41.21.62.42.62h1.67c.42-.21.42-.41,0-.62ZM337.82,51.25c.42,0,.63-.21.63-.21q-.21-.21-.42-.41c0,.21-.21.41-.21.62ZM344.09,60.75c-.42-.41-1.67-.41-2.09,0,.42.41.84.41,1.04.62.42-.21.63-.21,1.04-.62ZM344.09,72.93c-.42,0-.42.21-.63.41h.42s.21-.21.21-.41ZM345.97,64.88c-.21-.21-.42-.21-.84-.41-.21.21-.63.21-.84.41-.21.21-.21.62,0,.83.21.41.63.41.84,0,.21-.21.42-.41.84-.83ZM353.49,85.12c-.42,0-.84-.21-1.04-.21-1.46,0-1.88.41-1.67,2.06.21.21.42.21.63.21s.21-.21.42-.21c.21-.41.63-.83,1.04-1.24.21-.21.42-.41.63-.62ZM350.77,81.19c.21,0,.42.21.63.21s.21-.21.21-.21c0-.21-.21-.21-.42-.41-.21,0-.21.21-.42.41ZM354.95,86.56v-.41c-.21-.21-.42-.62-.84,0,0,0,.21,0,.84.41ZM354.95,92.55c-.21,0-.42-.21-.63-.21,0,.41.21.41.42.62,0-.21.21-.21.21-.41ZM355.79,86.98c-.21,0-.21-.21-.42-.41h-.42c.21.21.42.41.84.41ZM354.95,86.77c.21.41.42.41.63.62,0,0,0-.21-.63-.62ZM359.13,104.32c-.21-.21-.21-.41-.42-.62-.21.21-.42.41-.42.62s0,.41.21.83c.42-.21.63-.41.63-.83ZM364.14,109.07v-.41c0-.21-.21-.41-.21-.83-.21.21-.42.21-.63.41-.84.62-1.46,1.24-2.09,1.86-.63.62,0,.83.21,1.24.21.21.42.83.84.21.63-.62,1.04-1.03,1.67-1.65.21-.21.21-.62.21-.83ZM361.63,104.73c0,.41.21.41.84.41s.84-.21.84-1.03c-.21-.21-.63-.41-.84-.41-.63-.21-1.04.41-.84,1.03ZM363.1,112.58h-.42c-.42.41-.42,1.24,0,1.45,0,.21.21,0,.42,0,.42-.21.42-1.03,0-1.45ZM364.35,115.89s0,.21-.21.41c.21,0,.21.21.42.21,0-.41,0-.62-.21-.62ZM364.98,103.29c0,.21.21.21.21.41.21-.21.42-.41.42-.62,0,0-.21-.21-.42-.21,0,0-.21.21-.21.41ZM365.6,117.95c-.21,0-.21-.21-.63-.21,0,.21.21.41.21.62q.21-.21.42-.41ZM366.23,107.83c-.21,0-.42.21-.42.21.21.21.21.41.42.62v-.83ZM368.74,120.84c-.21,0-.63.21-.63.41,0,.83-.21,1.65.84,2.27.21.21.42.21.63.21.21-.21.21-.41.21-.62.42-1.03-.42-1.65-1.04-2.27ZM371.45,129.51c0-.21-.21-.41-.21-.62q-.21.21-.42.41c.21.21.21.41.42.41l.21-.21ZM374.38,131.99c.21,0,.42.21,1.04.21h1.46c.42,0,.63,0,.42-.41-.21-.21-.42-.41-.63-.41-.84,0-1.67.21-2.09-.62,0-.21-.42,0-.42.21s0,.83.21,1.03ZM375.63,138.19h-.84c.21.21.21.41.21.41.21-.21.42-.21.63-.41ZM378.77,132.61c-.21-.21-.63-.41-1.04-.41s-.63,0-.42.21c.42.21,1.04.21,1.46.21ZM377.51,127.86c.21,0,.42-.21.42-.41-.21,0-.42.21-.42.41ZM378.77,140.87q-.21-.21-.42-.21s.21.21.42.21ZM428.28,145.83c-.21,0-.42-.21-.42-.41.42,0,.42.21.42.41ZM448.13,142.32c0-.21-.63-.62-.84-1.03-.42-.21-.42-.41-.42,0-.21.41-.21,1.03-.42,1.24-.63.62-.63-.62-1.25-.62-.84.21-1.04-.62-1.67-.83h-.63c-.21.21-.42.41-.42.41.42,1.03,3.55,2.48,4.39,2.07.42-.21.84-.83,1.25-1.24ZM444.16,115.27c0,.41.21.62.84.62s.84-.21.84-1.24c-.21,0-.63-.41-.84-.41-.63,0-1.04.41-.84,1.03ZM444.16,124.35c.21.41.63.41.84.62.63-.21,1.04-.21,1.46-.21,0-.21.21-.41.21-.83.21-.41-.21-.62-.63-.83-.42,0-2.09,1.03-1.88,1.24ZM445,5h-.42.42v.83c.21,0,.63-.21.63-.21.21-.41-.21-.62-.63-.62v-.41c-.21-.21-.42-.62-.84,0,0,0,.21.21.84.41ZM444.16,108.86c.42.41.63.62.84.83.21.21.42.21.63.21,0-.21.21-.83.21-1.03-.21,0-.63-.21-1.04-.41-.21.41-.42.41-.63.41ZM444.37,6.44c.21,0,.42-.21.63-.62h-.42c-.21,0-.63.21-.21.62ZM445.83,7.89c-.42.41-1.04.62-.84,1.24,0,.41,1.67,1.86,1.88,2.06.42.62.42-.21.42-.41.21-.41.42-1.03.84-1.45,0,0-1.46-1.24-1.46-1.45-.42-.62-.63-.41-.84,0ZM445.83,119.4c-.21.41-.63.62-.84,1.03-.21.21.42,1.24,1.46,1.24.42-.62,1.04-1.03.84-1.86,0-.41,0-1.03.63-1.65.63-.62.84-.62,1.25.21,0,.62.21.83.63.83s1.46-.83,1.46-1.03.21-.41,0-.41c-.42-.62-.84-1.45-1.46-1.65-.63-.21-1.67.21-2.09.62-.63.62-1.04.62-1.67,1.03-.63.41,0,1.24-.21,1.65ZM445.83,60.75v-2.27c0-.21-.21-.41-.21-.41-.21.21-.63.21-.63.41v2.27c0,.21.21.41.21.41.21-.21.63-.21.63-.41ZM445.41,106.8c-.21.21-.42.21-.21.41,0,.21,0,.41.21.62v-1.03ZM445.62,23.17c-.21,0-.42.21-.42.41.21,0,.42,0,.42-.41ZM446.25,35.15c-.42.21-1.04.83-1.04,1.45.63.21.84.21,2.09,1.03v1.03c0,.21.42.41.42.41.21-.21.63-.41.84-.62.21-.21.84-.62.21-.83-.21,0-.21-.21-.42-.21-.21-.21-.42-.83-1.04-.62,0,0,0,.62-1.04,0h.42c.21-.21.84.41.63-.41,0-.83,0-1.24-1.04-1.24ZM446.46,79.13c.42.21,1.04-.21.84-.83,0-.21-.21-.62-.42-.83-.63,0-1.04.21-1.04.83s.21.83.63.83ZM452.1,137.77c.42-.21.42-.83,0-1.24s-.84-.83-1.25-1.24c-.42-.62-.84-.83-1.67-.83-.42.21-1.25,0-1.46.41-.42.21-.21,1.03-.42,1.45,0,.83-.42.83-1.04.83,0,0-.42.21-.21.41.84.83,1.46,1.86,2.51,2.68.42,0,.63-.21.63-.21-.21-.83,0-1.45-.42-2.07q-.63-1.03.21-1.86c.63-.83.84-.83,1.04,0,0,1.24,1.04,1.65,2.09,1.65ZM446.04,94.2c0,.21.21.41.21.41,0,0,.21,0,.21-.21s-.21-.21-.42-.21ZM448.34,130.55h2.09v-.41c-.63-.41-1.25-.21-1.67-.41-.84-.41-.42-1.24-.63-1.86v-1.24s-.21-.21-.42-.21l-.84,1.65c-.84,2.06-.21,2.68,1.46,2.48ZM446.88,15.53h.21c.42-.41.42-1.24,0-1.45h-.21c-.42.21-.42,1.03,0,1.45ZM447.29,81.81c-.21,0-.21-.21-.42-.21,0,.21-.21.41-.21.62,0,.83.21,1.24,1.04,1.03.21,0,.21-.21.42-.21,0-.62-.63-.83-.84-1.24ZM446.88,49.81c0,.21-.42.41,0,.83,0,0,.21-.21.42-.83h-.42ZM448.76,18.21c-.63,0-1.67,1.24-1.46,1.86,0,0,.21.21.42.21.63,0,1.46-1.03,1.46-1.86q-.21-.21-.42-.21ZM447.92,48.36h-.42c0,.21,0,.62-.21,1.03v.41c.21-.41.42-1.03.63-1.45ZM448.13,57.65v-.83c0-.41.21-.62,0-.83,0-.21-.21-.41-.42-.41,0,0-.42.21-.42.41,0,.62.21,1.24.21,1.65,0,.21.21.41.21.41.21,0,.42-.21.42-.41ZM448.13,121.26c-.21-.21-.21-.41-.42-.41,0-.21-.21-.21-.42,0q.21.41.42.62c.21,0,.21-.21.42-.21ZM449.17,44.85c0-.41-.21-.62-.84-.62-.21,0-.84.21-.84.41-.21.21,0,.62.21.83.21.41.42.62.84.83,0,.21.42,0,.63-.21v-1.24ZM447.5,49.81c.42,0,.42-.21.63-.21.21-.62.21-1.24-.63.21ZM448.96,80.78c.42-.21.63-.21.84-.41-.42-.41-1.25-.41-1.46,0,0,0,.42.21.63.41ZM448.34,108.86c.21,0,.21.41.42.41s.42,0,1.25.41c-.21.41-.84.62-.84.83,0,.41.63.62.84,1.03.21,0,.42.21.42,0,.42-.21.63-.62-.42-1.86.42.21.84.41,1.46.83-.42-.41-.84-.83-1.04-1.24-.42-.21-.42,0-.42.41q-.21-.21-.42-.41c.42.21.63,0,.42-.41-.63-.21-.84-.21-1.04-.21s-.42.21-.63.21ZM450.43,53.94c-.63.41-.84.83-1.25,1.24.21.21.42.41.42.41.21.21.42.41.63.62h.63c.21,0,.63-.21.63-.41s0-.62-.21-.83c-.21-.41-.63-.83-.84-1.03ZM450.85,128.28c.42-.21.84-.62.63-1.24,0-.21,0-.41-.21-.41-.63-.21-1.25-.21-1.67-.83-.21.21-.42.41-.42.62.21.41.42,1.24.84,1.86.21.83.42.83.84,0ZM450.64,74.38c0-.41-.21-.62-.42-.83-.42.21-.42,1.24,0,1.45.21,0,.21-.41.42-.62ZM451.26,104.73c-.42-.21-.84-.21-1.04,0-.21.21-.21.41-.21.83,0,.21.42.41.42.41.42-.41.63-.83.84-1.24ZM450.43,141.7c0-.21,0-.41-.21-.41,0,.21,0,.41.21.41ZM452.31,124.35c.21-.83-.21-1.24-.84-1.24-.42,0-.84.21-.84.62-.21.83.21,1.24.84,1.03.42,0,.63-.21.84-.41ZM451.26,102.05c-.21,0-.42.21-.63.21,0,.21.21.41.21.41.21,0,.42-.21.42-.62ZM450.85,12.64c0,.21.21.41.21.41q.21,0,.21-.21t-.42-.21ZM451.47,21.1c-.21.21-.63.62-.63.62.21.62,1.04.62,1.46,0-.21-.21-.63-.41-.84-.62ZM450.85,35.76c.21,0,.42-.21.63-.21,0-.21-.21-.21-.21-.41-.21.21-.42.21-.42.62ZM451.05,42.37c0,.21-.21.41-.21.62s.21.21.21.21c.21,0,.21-.21.21-.41s0-.21-.21-.41ZM451.05,120.63v1.03c.21-.21.21-.41.21-.62,0,0,0-.21-.21-.41ZM451.89,8.92h.21c.42-.21.42-1.03,0-1.45h-.21c-.63.21-.63,1.24,0,1.45ZM453.56,140.25c-.42-.41-.84-.83-1.25-1.03,0-.21-.42-.21-.42-.41-.21.21-.21.62-.42.83,0,.83.21,1.24.84,1.86.63.41,1.04.62,1.46.41.42-.41.21-1.03-.21-1.65ZM451.68,16.56c0,.21.21.41.21.62q.21-.21.42-.41-.21-.21-.63-.21ZM453.14,143.14c0-.21-.21-.21-.42-.41,0,.21-.21.41-.21.62q.21.21.21.41c.21-.21.42-.41.42-.62Z"/>
      <path class="cls-1" d="M660.6,145.62c-.21.21-.21.41-.42.41h-13.16c-1.04,0-2.3.62-3.34-.83-1.04.21-2.09-.62-2.93.62-.21.21-.83,0-1.25.21-1.25.83-2.09-1.65-3.13-.62-1.25.83-2.3.62-3.55.62h-7.52c-.84,0-1.04-.62-1.67-1.24,0-.21.21-.41.42-.41.63,0,1.46-.21,2.3,0,1.25,0,1.88-1.45,3.34-.83.21.21.42-.21.63-.41.21-.21.63-.41.63-.62-.21-1.65,1.46-1.86,1.67-2.89s1.04-1.65.84-2.48c0-1.03-.42-2.07.63-2.89.42-.21.21-.83.21-1.45V9.33s-.21-.21-.42-.21c-.63.41-1.04.83-1.25,1.45-1.25,2.89-3.13,5.78-4.39,8.88-1.04.62-.21,1.65-.63,2.48-.83.62-.63,1.65-1.67,2.06.42,1.24-.84,1.65-1.04,2.68,0,.62-.83,1.45-1.04,2.27-.21,1.03-.42,1.86-1.04,2.89-.21.41,0,1.03-.42,1.45-1.04,1.45-1.46,3.51-2.51,4.96-.42.83-1.04,1.65-1.67,2.27-.42.83-.21,1.65-.63,2.27-.42.83-.42,1.86-.63,2.48-.42.62-.63,1.45-.84,2.06-.42,1.03-.63,1.86-1.46,2.68-.63.41-1.04.83-1.04,1.86-1.04,1.03-1.25,2.89-2.51,4.13.63,1.45-1.25,2.48-.83,3.72-.84,2.06-2.09,4.34-3.34,6.4,0,.21,0,.41-.21.62-.42.83-1.46,1.24-1.25,2.48,0,.62-.84,1.24-.84,2.07,0,1.24-1.46,2.07-.83,3.3-1.04.62-.84,2.07-1.67,2.48.21.83-.42,1.24-.84,1.86-.63.41-.83,1.03-.83,1.45-.21,1.24-.84,2.06-1.25,2.89-.63.83-1.46,1.45-1.25,2.89.21.83-.63,1.24-.83,1.45,0,.21-2.93,7.64-3.13,7.85-1.25,1.86-2.09,3.72-2.92,5.78-.42.41-.42,1.03-.42,1.65,0,.21-1.25,2.27-1.46,2.27-.84.83-1.25,1.65-1.04,3.1l-1.25,2.68c-.84.83-1.67,1.45-1.46,2.68.21.41-.63.83-.63,1.24-.21,1.03-1.25,1.65-.83,2.89-1.04.83-.63,2.06-1.67,2.68.21.83-.42,1.24-1.04,1.65,0,.41-.63.83-.42.83.42,1.24-.63,2.07-1.04,3.1-.42.62-.63,1.65-1.46,2.27-.42.21-.21.62-.21,1.03.21,1.03-.21,2.07-1.04,2.89-.21.21-.21.62-.42,1.03-1.04,1.45-1.88,3.1-2.51,4.54-.21.83-1.25,1.45-.84,2.68.21.62-1.04,1.03-1.04,2.06,0,1.45-1.25,2.48-1.88,4.13,0,.41-.21.62-.63.83-.42.41-1.25.41-1.46-.21-1.04-2.48-1.88-4.54-3.13-6.4,0-1.86-1.46-3.1-1.88-4.54-.21-1.24-1.88-1.65-1.67-2.89-2.09-3.51-3.76-7.43-5.64-11.15s-3.76-7.43-5.85-11.15c-.63-1.24-1.04-2.27-1.88-3.3-.63-.83-1.04-2.06-1.67-2.89-1.46-2.89-2.72-5.78-4.18-8.67-1.04-.62,0-1.86-1.04-2.68-.63-.41-.63-1.86-1.04-2.48-.84-.83-1.04-2.27-2.09-2.89,0-.21-.42-.83-.42-.83,0-2.06-1.25-3.51-2.3-4.96-1.04-1.65-1.67-3.3-2.72-5.16-.84-1.03-1.46-2.48-2.09-3.92-.42-.62-.63-1.65-1.46-2.27-.84-.41-.63-1.45-1.46-2.27-.21-.21.21-1.03,0-1.65-1.25-2.07-2.51-4.34-3.55-6.61-.63-.41-.42-1.45-.84-1.65-.63-.41-.21-1.24-.42-1.86-.21-.62-.42-1.45-.84-1.65-1.04-1.03-5.01-8.47-5.64-10.12-.21-.62-.63-1.24-1.25-1.86-.21-.21-.84-.41-.63-1.03.42-1.03-.63-1.45-.84-2.48-.21-.83-.84-1.65-1.04-2.27-1.04-1.65-1.88-3.3-2.72-5.16-.21-.21-.21-.62-.42-1.03,0-1.03-2.3-4.34-3.13-5.16-.84-1.24-1.25-2.68-2.09-4.13-.21-.41-.63-.83-.42-1.45,0-.62-.21-.83-.63-1.24-1.46-1.24-1.46-3.1-2.72-4.75.42-1.03-.63-1.65-.84-2.48,0-.21-.21-.41-.42-.62-.42-.21-.42-1.24-.84-.62-.63.21-.84.62-1.04,1.24-.21.41-.21.83-.21,1.03v16.11c0,.83,0,1.45.84,2.07.21,0,.21.62,0,.62-1.25,1.45-.63,2.89-.63,4.34-.21,3.72-.21,7.23-.21,10.94,0,1.03-.21,2.07.84,2.89.42.41.42,1.45,0,1.65-.84.62-.84,1.65-.84,2.48v13.83c0,.83-.21,1.65.84,2.27.21,0,.21.83,0,1.03-.63.62-.84,1.24-.84,1.86v16.73c0,.83.21,1.03.84,1.65.21.21.21.62,0,.83-1.25,1.24-.63,2.68-.63,4.13-.21,3.92-.21,7.64-.21,11.56.21.83-.42,2.27.84,3.3.21,0,.21.62,0,.83-.84.21-.84,1.03-.84,2.07v14.25c0,.83-.21,1.45.84,2.06.21.21.21.83.21,1.24,0,1.45.21,2.68-.21,4.13-.21,1.03.84,1.65.84,2.89-.21,1.24.84,1.65,1.46,2.27,1.67,2.06,3.34,2.89,5.43,2.89,1.25.21,1.88,1.24,3.13,1.03.84-.21,1.88,0,2.92,0l.21.21c0,.21-.21.62-.42.62h-8.36c-.84,0-1.04-.83-1.46-.83-1.46,0-2.92-.62-3.97.62-.21.21-.42.21-.84.21h-14.83c-.21,0-.42-.21-.63-.41.21-.21.42-.41.84-.41,1.25-.21,2.3.41,3.34-.62,1.04-.62,2.09,0,3.13-.21.42-.21.84-.21,1.04-.41,1.04-.83,1.46-1.65,2.3-2.48,1.25-.83,1.25-2.89,2.51-3.92q.21-.21.21-.41c0-.83,0-2.07.21-3.1,1.04-.62.42-1.86.42-3.1v-6.81c0-1.03.42-2.07-.63-2.89.21-1.03-.63-2.07.42-3.1.21-.21.21-.62.21-1.03v-14.87c0-.21.21-.62-.21-.83-1.04-1.03-.21-2.27-.42-3.3,1.04-.41.63-1.86.63-2.89v-11.56c0-.83.21-1.86-.42-2.27v-2.68c.63-.62.42-1.65.42-2.27v-13.63c0-.62,0-1.24-.63-2.06-.21-.21-.21-1.24,0-1.45.84-.83.63-1.86.63-3.1,0-3.3.21-6.81,0-10.12,0-1.45.84-3.51-.63-4.75.21-1.45-.63-2.89.42-3.92.21-.41.21-1.03.21-1.65v-13.42c0-.83,0-1.45-.42-2.27-.63-.62-.63-2.07,0-2.89.84-.83.21-1.86.42-2.68-1.04-1.24-.63-2.48-.63-3.72-.21-.83.21-1.65-.21-2.27-.84-.83-.84-2.27-1.88-2.68-.63-.21-1.04-.83-1.46-1.45-1.25-1.24-3.13-1.86-4.6-2.06h-5.85c2.92-.41,5.43-.41,7.94-.62,1.25,0,2.72.62,3.76-.83h2.92c.84,0,1.46,1.24,2.72,1.03.84-.41,2.09-.21,3.13-.21h6.69c.42,0,.63.41.84.62,1.25,2.89,2.72,5.78,3.97,8.47.21.41.63.83,1.04,1.24.63,1.03,1.46,2.06,1.67,3.51,0,.83.63,1.45,1.04,2.27.63,1.65,1.46,2.89,2.09,4.54.42.83,1.04,1.24.84,2.06,0,.21.21.62.21.83,2.3,2.27,3.13,5.58,4.6,8.26,1.04,1.45,1.88,3.3,2.92,4.96,1.04,1.45,2.09,2.89,2.09,4.75.21.21.21.62.42.83,1.46.83,1.67,3.1,2.72,4.34.63,1.03,1.04,2.27,1.67,3.3.42.62-.21,1.65.63,2.48.63.41.84,1.45,1.25,2.27.42.83.84,1.65,1.25,2.48.42.62.84,1.45,1.04,2.27,1.67,2.06,3.13,4.75,4.18,7.23-.42,1.45.84,1.86,1.46,2.68,1.04,2.06,1.88,3.92,2.72,5.78.63,1.65,2.51,5.78,3.34,7.02.42.21.63.62.84,1.03,1.04,1.45.63,3.1,2.09,4.13,1.25,2.68,2.72,5.58,4.18,8.05,1.04,2.06,2.09,4.34,3.13,6.4,1.04.62,0,1.65.84,2.48.63.62,1.04,1.65,1.25,2.48.21.62.84,1.03,1.04,1.45.84.41.42,1.45.84,1.86.63.41.63.62.63,1.24,0,.41.21.83.42,1.24.42.41,1.04,1.03,1.25,1.65.84,1.45,1.67,3.3,2.51,4.96,1.25,2.27,1.88,4.96,4.18,6.81,0,1.24.84,1.86,1.04,2.68,0,.41.63,1.03.84.83.42-.21.84-.62,1.25-1.03.21,0,.21-.41.21-.62-.42-1.03.63-1.45.83-2.27,0-.62-.21-1.03.21-1.65.84-.62,0-1.86,1.04-2.68.63-.41.63-1.45,1.04-2.27s1.04-1.45,1.46-2.27c.21-1.03,1.88-4.34,2.51-5.16.63-.83-.21-2.07,1.04-2.68.21-1.65,1.88-2.89,1.67-4.75,1.04-1.03,1.67-2.68,2.09-4.13.63-1.86,1.46-3.51,2.51-5.37.84-1.65,1.67-3.3,2.51-5.16.63-1.03.83-2.48,1.46-3.72.63-1.24,1.46-2.27,1.25-3.51,1.25-1.65,1.88-3.72,2.92-5.37.63-1.24.84-2.68,2.09-3.72-.21-1.24.42-1.86.84-2.89.63-1.03,1.04-1.86.63-2.89,1.46-.83.63-2.89,2.3-3.72,1.25-2.48,2.09-4.75,3.76-7.02-.63-1.24.84-2.06.63-2.89,0-1.03,1.04-1.65.84-2.68.83-.62.63-1.86,1.67-2.48-.21-.83.42-1.24,1.04-1.86.21,0,.63-.41.63-.62-.42-1.45.83-2.27,1.04-3.3,1.25-.62,0-2.48,1.46-3.1.21-.21,0-1.03,0-1.65,0-.41,0-1.03.42-1.24,1.25-.83,1.46-2.68,2.51-4.13.42-.83.84-1.86,1.67-2.48,0-.21.21-.62.21-.83-.21-1.03,1.25-1.86,1.04-3.3-.21-.62.84-.62.63-1.24,0-1.03,1.25-1.45,1.04-2.68,0-.41.63-1.45.83-2.27.42-.83,1.46-1.45,1.46-2.27s1.88-4.54,2.51-5.16c0-2.48,2.09-4.34,2.92-6.61.84-.83,0-2.27,1.25-3.1-.21-.62.21-.83.63-1.45.42-.41.42-.62.63-1.24,1.04.41,1.25-1.03,2.09-.83.84.21,1.67-.41,2.51.41.21.41.63.41,1.25.41h14.42c.84,0,1.46,0,1.88-.62.42-.21,1.04-.21,1.46-.21.21,0,.42.41.63.41,0,.21-.21.41-.21.41-.83,0-1.25.41-1.67.62-.63.21-1.46,0-2.09.21-.63,0-1.25-.21-1.46.21-.63.83-1.46.41-2.09,1.03-.84,1.03-1.67,2.06-2.51,2.68-.83.62-.83,1.45-1.25,2.06-.84,1.03.21,2.68-.63,3.92-.63.83-.42,2.27-.42,3.51,0,.21.42.41.42.62.21.21.42.83.42.83-1.04,1.24-.84,2.68-.84,3.92v11.36c0,1.45-.42,2.68.84,3.72v2.48c-1.04.62-.84,1.86-.84,2.89v12.6c0,.83,0,1.65.63,2.27v2.68c-.63.41-.63,1.45-.63,2.27v12.39c0,.83,0,1.45.42,2.06.84,1.03.63,2.48,0,3.72-.21.62-.42,1.03-.42,1.86v13.01c0,1.45,1.46,2.27.84,3.72-.21.83.21,1.65-.63,2.27-.21.21-.21.62-.21.83v14.87c0,.62.21,1.03.63,1.45.21.21.21,1.03,0,1.24-.63.41-.63,1.24-.63,2.06v11.77c0,1.03.63,1.65.84,2.48.21,1.03-.42,1.86.42,2.68.63.62.83,1.65,1.25,2.48.63,1.03,3.13,3.92,4.39,3.92h1.46c1.25-.21,2.3.21,3.13.62.83.62,2.09.21,3.34.62ZM496.17,139.63h-.42c-.42.21-.42,1.03,0,1.24h.42c.42-.21.42-.83,0-1.24ZM499.52,5.2c-.42-.41-.84-.62-.84-1.03-.63.41-1.04.83-1.25,1.24,0,0,.21.41.42.41.21.21.42.41.63.62h.63c.21,0,.63-.21.63-.41s0-.62-.21-.83ZM501.19,4.38c-.21,0-.42,0-.63.21.21,0,.21.21.42.21,0,0,.21-.21.21-.41ZM503.49,6.44c0-.21.21-.41.21-.62h-1.04c-.42,0-.42.62-.42.83s.21.62.42.83c0-.21.21-.21.21-.41.21-.21.42-.41.63-.62ZM503.7,9.54c0-.21-.21-.21-.21-.41-.21,0-.21.21-.42.21.21,0,.21.21.63.21ZM505.37,6.24c0-.21,0-.41-.21-.41,0,0-.21,0-.21.21s.21.21.42.21ZM507.46,8.09s.42-.21.63-.21v-1.24c0-.62-.21-.83-.63-.83s-1.04,0-1.04.21c-.21.41,0,.83.21,1.24.21.21.42.62.84.83ZM509.55,10.16c-.21-.41-.84-.83-1.25-1.03-.21,0-1.04.21-1.04.21-.42,1.45,0,2.27,1.46,2.07,0,0,.21.21.42,0,.21,0,.84-.83.42-1.24ZM512.05,25.65c-.42-.21-.84-.41-1.25-.21-.42,0-.42.83-.21,1.24,0,.21.21.21.42.41.21-.21.42-.62.84-.83,0-.21,0-.41.21-.62ZM513.72,23.99v-.41h-.42c-.42.62-.42.83-.42,1.03s.21.41.42.62c0-.21.42-.21.42-.41v-.83ZM514.56,22.14v.83c-.42,0-.84.21-.84.62.63,0,.84,0,.84-.62.21,0,.63-.21.63-.21.21-.62,0-.62-.63-.62ZM514.56,22.14v-.41c-.21-.21-.42-.62-.63-.21-.21.21.21.41.63.62ZM514.14,22.14h.42-.42ZM517.07,29.36c-.21-.21-.21-.41-.42-.62,0,0-.21.21-.42.21-.21.21-.63.83-.63,1.03.21,0,.42.21.63.21.42.21.84,0,.84-.83ZM517.9,27.09c.21.21.21.41.63.41,0-.21-.21-.41-.21-.41h-.42ZM521.25,37c0-.62-1.04-1.86-1.25-1.86s-.42.21-.42.41c.21,1.24-.84,1.65-1.46,2.27,0,0,0,.21.21.41,0,.21.21.21.42,0,.84-.41,1.46-.41,2.3-.83,0-.21,0-.41.21-.41ZM518.74,41.34c-.21,0-.42-.21-.63-.21,0,.21.21.21.63.21ZM520.2,44.85c0,.21-.21,0-.21.21-.42.21-.42,1.03,0,1.24,0,.21.21.21.21,0,.21-.21.21-1.03,0-1.45ZM521.04,42.58c0-.41,0-.62-.21-1.24-.42.62-.42.83-.42,1.24,0,.21.21.41.42.62,0-.21.42-.41.21-.62ZM525.42,45.26c-.84-.41-1.04-1.24-1.88-1.03-.21,0-.42.21-.63.41.63.21.84,1.24,1.67,1.03.21,0,.42-.21.84-.41ZM530.02,54.97c-.84-1.24-1.04-1.24-2.09,0,0,.41.21.62.42.62h1.67c.42-.21.42-.41,0-.62ZM529.6,51.25c.42,0,.63-.21.63-.21q-.21-.21-.42-.41c0,.21-.21.41-.21.62ZM535.87,60.75c-.42-.41-1.67-.41-2.09,0,.42.41.84.41,1.04.62.42-.21.63-.21,1.04-.62ZM535.87,72.93c-.42,0-.42.21-.63.41h.42s.21-.21.21-.41ZM537.75,64.88c-.21-.21-.42-.21-.84-.41-.21.21-.63.21-.84.41-.21.21-.21.62,0,.83.21.41.63.41.84,0,.21-.21.42-.41.84-.83ZM545.27,85.12c-.42,0-.84-.21-1.04-.21-1.46,0-1.88.41-1.67,2.06.21.21.42.21.63.21s.21-.21.42-.21c.21-.41.63-.83,1.04-1.24.21-.21.42-.41.63-.62ZM542.56,81.19c.21,0,.42.21.63.21s.21-.21.21-.21c0-.21-.21-.21-.42-.41-.21,0-.21.21-.42.41ZM546.73,86.56v-.41c-.21-.21-.42-.62-.84,0,0,0,.21,0,.84.41ZM546.73,92.55c-.21,0-.42-.21-.63-.21,0,.41.21.41.42.62,0-.21.21-.21.21-.41ZM547.57,86.98c-.21,0-.21-.21-.42-.41h-.42c.21.21.42.41.84.41ZM546.73,86.77c.21.41.42.41.63.62,0,0,0-.21-.63-.62ZM550.91,104.32c-.21-.21-.21-.41-.42-.62-.21.21-.42.41-.42.62s0,.41.21.83c.42-.21.63-.41.63-.83ZM555.93,109.07v-.41c0-.21-.21-.41-.21-.83-.21.21-.42.21-.63.41-.84.62-1.46,1.24-2.09,1.86-.63.62,0,.83.21,1.24.21.21.42.83.84.21.63-.62,1.04-1.03,1.67-1.65.21-.21.21-.62.21-.83ZM553.42,104.73c0,.41.21.41.84.41s.84-.21.84-1.03c-.21-.21-.63-.41-.84-.41-.63-.21-1.04.41-.84,1.03ZM554.88,112.58h-.42c-.42.41-.42,1.24,0,1.45,0,.21.21,0,.42,0,.42-.21.42-1.03,0-1.45ZM556.14,115.89s0,.21-.21.41c.21,0,.21.21.42.21,0-.41,0-.62-.21-.62ZM556.76,103.29c0,.21.21.21.21.41.21-.21.42-.41.42-.62,0,0-.21-.21-.42-.21,0,0-.21.21-.21.41ZM557.39,117.95c-.21,0-.21-.21-.63-.21,0,.21.21.41.21.62q.21-.21.42-.41ZM558.02,107.83c-.21,0-.42.21-.42.21.21.21.21.41.42.62v-.83ZM560.52,120.84c-.21,0-.63.21-.63.41,0,.83-.21,1.65.84,2.27.21.21.42.21.63.21.21-.21.21-.41.21-.62.42-1.03-.42-1.65-1.04-2.27ZM563.24,129.51c0-.21-.21-.41-.21-.62q-.21.21-.42.41c.21.21.21.41.42.41l.21-.21ZM566.16,131.99c.21,0,.42.21,1.04.21h1.46c.42,0,.63,0,.42-.41-.21-.21-.42-.41-.63-.41-.84,0-1.67.21-2.09-.62,0-.21-.42,0-.42.21s0,.83.21,1.03ZM567.42,138.19h-.84c.21.21.21.41.21.41.21-.21.42-.21.63-.41ZM570.55,132.61c-.21-.21-.63-.41-1.04-.41s-.63,0-.42.21c.42.21,1.04.21,1.46.21ZM569.3,127.86c.21,0,.42-.21.42-.41-.21,0-.42.21-.42.41ZM570.55,140.87q-.21-.21-.42-.21s.21.21.42.21ZM620.07,145.83c-.21,0-.42-.21-.42-.41.42,0,.42.21.42.41ZM639.91,142.32c0-.21-.63-.62-.84-1.03-.42-.21-.42-.41-.42,0-.21.41-.21,1.03-.42,1.24-.63.62-.63-.62-1.25-.62-.84.21-1.04-.62-1.67-.83h-.63c-.21.21-.42.41-.42.41.42,1.03,3.55,2.48,4.39,2.07.42-.21.84-.83,1.25-1.24ZM635.94,115.27c0,.41.21.62.84.62s.83-.21.83-1.24c-.21,0-.63-.41-.83-.41-.63,0-1.04.41-.84,1.03ZM635.94,124.35c.21.41.63.41.84.62.63-.21,1.04-.21,1.46-.21,0-.21.21-.41.21-.83.21-.41-.21-.62-.63-.83-.42,0-2.09,1.03-1.88,1.24ZM636.78,5h-.42.42v.83c.21,0,.63-.21.63-.21.21-.41-.21-.62-.63-.62v-.41c-.21-.21-.42-.62-.84,0,0,0,.21.21.84.41ZM635.94,108.86c.42.41.63.62.84.83.21.21.42.21.63.21,0-.21.21-.83.21-1.03-.21,0-.63-.21-1.04-.41-.21.41-.42.41-.63.41ZM636.15,6.44c.21,0,.42-.21.63-.62h-.42c-.21,0-.63.21-.21.62ZM637.62,7.89c-.42.41-1.04.62-.83,1.24,0,.41,1.67,1.86,1.88,2.06.42.62.42-.21.42-.41.21-.41.42-1.03.84-1.45,0,0-1.46-1.24-1.46-1.45-.42-.62-.63-.41-.84,0ZM637.62,119.4c-.21.41-.63.62-.83,1.03-.21.21.42,1.24,1.46,1.24.42-.62,1.04-1.03.84-1.86,0-.41,0-1.03.63-1.65.63-.62.84-.62,1.25.21,0,.62.21.83.63.83s1.46-.83,1.46-1.03.21-.41,0-.41c-.42-.62-.84-1.45-1.46-1.65-.63-.21-1.67.21-2.09.62-.63.62-1.04.62-1.67,1.03-.63.41,0,1.24-.21,1.65ZM637.62,60.75v-2.27c0-.21-.21-.41-.21-.41-.21.21-.63.21-.63.41v2.27c0,.21.21.41.21.41.21-.21.63-.21.63-.41ZM637.2,106.8c-.21.21-.42.21-.21.41,0,.21,0,.41.21.62v-1.03ZM637.41,23.17c-.21,0-.42.21-.42.41.21,0,.42,0,.42-.41ZM638.03,35.15c-.42.21-1.04.83-1.04,1.45.63.21.83.21,2.09,1.03v1.03c0,.21.42.41.42.41.21-.21.63-.41.84-.62.21-.21.83-.62.21-.83-.21,0-.21-.21-.42-.21-.21-.21-.42-.83-1.04-.62,0,0,0,.62-1.04,0h.42c.21-.21.84.41.63-.41,0-.83,0-1.24-1.04-1.24ZM638.24,79.13c.42.21,1.04-.21.84-.83,0-.21-.21-.62-.42-.83-.63,0-1.04.21-1.04.83s.21.83.63.83ZM643.88,137.77c.42-.21.42-.83,0-1.24l-1.25-1.24c-.42-.62-.84-.83-1.67-.83-.42.21-1.25,0-1.46.41-.42.21-.21,1.03-.42,1.45,0,.83-.42.83-1.04.83,0,0-.42.21-.21.41.84.83,1.46,1.86,2.51,2.68.42,0,.63-.21.63-.21-.21-.83,0-1.45-.42-2.07q-.63-1.03.21-1.86c.63-.83.84-.83,1.04,0,0,1.24,1.04,1.65,2.09,1.65ZM637.82,94.2c0,.21.21.41.21.41,0,0,.21,0,.21-.21s-.21-.21-.42-.21ZM640.12,130.55h2.09v-.41c-.63-.41-1.25-.21-1.67-.41-.84-.41-.42-1.24-.63-1.86v-1.24s-.21-.21-.42-.21l-.84,1.65c-.84,2.06-.21,2.68,1.46,2.48ZM638.66,15.53h.21c.42-.41.42-1.24,0-1.45h-.21c-.42.21-.42,1.03,0,1.45ZM639.08,81.81c-.21,0-.21-.21-.42-.21,0,.21-.21.41-.21.62,0,.83.21,1.24,1.04,1.03.21,0,.21-.21.42-.21,0-.62-.63-.83-.84-1.24ZM638.66,49.81c0,.21-.42.41,0,.83,0,0,.21-.21.42-.83h-.42ZM640.54,18.21c-.63,0-1.67,1.24-1.46,1.86,0,0,.21.21.42.21.63,0,1.46-1.03,1.46-1.86q-.21-.21-.42-.21ZM639.71,48.36h-.42c0,.21,0,.62-.21,1.03v.41c.21-.41.42-1.03.63-1.45ZM639.91,57.65v-.83c0-.41.21-.62,0-.83,0-.21-.21-.41-.42-.41,0,0-.42.21-.42.41,0,.62.21,1.24.21,1.65,0,.21.21.41.21.41.21,0,.42-.21.42-.41ZM639.91,121.26c-.21-.21-.21-.41-.42-.41,0-.21-.21-.21-.42,0q.21.41.42.62c.21,0,.21-.21.42-.21ZM640.96,44.85c0-.41-.21-.62-.83-.62-.21,0-.84.21-.84.41-.21.21,0,.62.21.83.21.41.42.62.84.83,0,.21.42,0,.63-.21v-1.24ZM639.29,49.81c.42,0,.42-.21.63-.21.21-.62.21-1.24-.63.21ZM640.75,80.78c.42-.21.63-.21.84-.41-.42-.41-1.25-.41-1.46,0,0,0,.42.21.63.41ZM640.12,108.86c.21,0,.21.41.42.41s.42,0,1.25.41c-.21.41-.84.62-.84.83,0,.41.63.62.84,1.03.21,0,.42.21.42,0,.42-.21.63-.62-.42-1.86.42.21.84.41,1.46.83-.42-.41-.84-.83-1.04-1.24-.42-.21-.42,0-.42.41q-.21-.21-.42-.41c.42.21.63,0,.42-.41-.63-.21-.84-.21-1.04-.21s-.42.21-.63.21ZM642.21,53.94c-.63.41-.84.83-1.25,1.24.21.21.42.41.42.41.21.21.42.41.63.62h.63c.21,0,.63-.21.63-.41s0-.62-.21-.83c-.21-.41-.63-.83-.84-1.03ZM642.63,128.28c.42-.21.84-.62.63-1.24,0-.21,0-.41-.21-.41-.63-.21-1.25-.21-1.67-.83-.21.21-.42.41-.42.62.21.41.42,1.24.84,1.86.21.83.42.83.84,0ZM642.42,74.38c0-.41-.21-.62-.42-.83-.42.21-.42,1.24,0,1.45.21,0,.21-.41.42-.62ZM643.05,104.73c-.42-.21-.84-.21-1.04,0-.21.21-.21.41-.21.83,0,.21.42.41.42.41.42-.41.63-.83.84-1.24ZM642.21,141.7c0-.21,0-.41-.21-.41,0,.21,0,.41.21.41ZM644.09,124.35c.21-.83-.21-1.24-.84-1.24-.42,0-.84.21-.84.62-.21.83.21,1.24.84,1.03.42,0,.63-.21.84-.41ZM643.05,102.05c-.21,0-.42.21-.63.21,0,.21.21.41.21.41.21,0,.42-.21.42-.62ZM642.63,12.64c0,.21.21.41.21.41q.21,0,.21-.21t-.42-.21ZM643.26,21.1c-.21.21-.63.62-.63.62.21.62,1.04.62,1.46,0-.21-.21-.63-.41-.84-.62ZM642.63,35.76c.21,0,.42-.21.63-.21,0-.21-.21-.21-.21-.41-.21.21-.42.21-.42.62ZM642.84,42.37c0,.21-.21.41-.21.62s.21.21.21.21c.21,0,.21-.21.21-.41s0-.21-.21-.41ZM642.84,120.63v1.03c.21-.21.21-.41.21-.62,0,0,0-.21-.21-.41ZM643.68,8.92h.21c.42-.21.42-1.03,0-1.45h-.21c-.63.21-.63,1.24,0,1.45ZM645.35,140.25c-.42-.41-.84-.83-1.25-1.03,0-.21-.42-.21-.42-.41-.21.21-.21.62-.42.83,0,.83.21,1.24.84,1.86.63.41,1.04.62,1.46.41.42-.41.21-1.03-.21-1.65ZM643.47,16.56c0,.21.21.41.21.62q.21-.21.42-.41-.21-.21-.63-.21ZM644.93,143.14c0-.21-.21-.21-.42-.41,0,.21-.21.41-.21.62q.21.21.21.41c.21-.21.42-.41.42-.62Z"/>
      <path class="cls-1" d="M713.87,145.62c-.21.21-.21.41-.42.41-2.72,0-5.43,0-8.36-.21h-.42v-.21c-.42-.83-1.25-.21-1.88-.41-.83,1.24-1.88.83-2.92.83h-11.7c-1.25,0-2.72.62-3.76-.83-.63,0-1.46-.21-1.88,0-2.3,1.45-4.6.62-6.69.83-1.04,0-2.09,0-3.34-.41l.21-.21c1.04-.62,2.3.41,3.34-.62.63-.83,1.88-.21,3.13-.41.42-.21,1.04,0,1.25-.21.63-.62,1.67-.41,2.3-1.03.21-.21.42-.41.63-.83l1.46-1.24c.21-.41.42-.62.63-.83.63-.83,1.25-1.86,1.25-2.89v-7.64c0-1.03-.42-2.06.42-2.68.21-.21.21-.62.21-.62v-15.28c0-1.03-1.04-1.45-.63-2.27v-2.68c.42-1.24.84-2.68.63-4.13v-8.47c-.21-1.45.63-2.89-.63-4.13.21-1.45-.63-2.68.42-3.92.21-.21.21-.83.21-1.24v-6.4c0-1.03.21-2.48-.63-3.3,0-.83-.42-1.24.21-1.86.63-.62.63-1.45.42-1.86-1.04-1.45-.63-3.1-.63-4.75,0-.83,1.04-1.65.63-2.89-.21-.83,0-2.06,0-3.1v-3.3c0-1.03.21-1.86-.63-2.48-.21-.21-.21-.83,0-.83.63-.62.63-1.45.63-2.07,0-.83,0-1.45-.42-1.86,0-1.45,0-2.89-.21-4.54,1.04-.62.63-2.06.63-3.3v-5.99c0-.62,0-1.24-.42-1.45-.42-.62-.42-1.24,0-1.65.84-.62.42-1.45.42-1.86s-.63-.62-.63-1.45v-4.54c1.46-1.24.42-2.89.63-4.54.21-1.45.21-3.3,0-4.75-.21-.83-.84-1.65-.63-2.48v-2.48c-1.25-1.03-.42-2.89-1.88-3.92-1.04-.41-.63-1.65-1.67-2.06-.84-.41-1.67-1.03-2.51-1.86-.63-.41-1.25-.41-1.88-.21-.83,0-1.25-.21-1.67-.83-.21-.21-.21-.41-.21-.62l.21-.21c.42,0,1.04-.21,1.46,0,1.04,1.24,2.72.83,4.18.83h11.28c1.04,0,2.09.21,2.92-.62.42-.41,1.04-.21,1.88-.21,1.04.21,1.88,1.24,2.93,1.03.83-.41,1.88-.21,2.92-.21h6.27s.21.41.42.62h-.42c-.84,0-1.67.21-2.51,0-1.46-.21-2.3,1.45-3.76,1.03,0,0-.42.21-.63.21-.21.21-.42.41-.42.62l-1.25,1.03c0,.21-.21.41-.42.62-.63.21-.84.83-1.25,1.24.42,1.45-1.25,2.27-.84,3.3.42,1.45-1.04,2.07-.84,2.89v10.74c0,1.03,0,2.27-.21,3.1,0,.83.42,1.24.84,1.86.42.41.42,1.45.21,1.65-1.25.83-.84,1.86-.84,2.89,0,4.34-.21,8.47,0,12.6,0,1.24-.42,2.27.84,3.51.21.21.21,1.24-.21,1.45-.84.83-.63,1.24-.63,2.06v14.46c0,.83-.21,1.65.63,2.27.21,0,.42,1.03.21,1.45-1.25,1.03-.84,2.27-.84,3.72-.21,3.72-.21,7.64,0,11.36,0,1.03-.42,2.27.84,2.89-.21,1.24.42,2.07-.63,3.1-.21.21-.21.83-.21,1.24,0,4.75,0,9.71-.21,14.66,0,.62.42.83.63,1.24.42.62.63,1.65.21,1.86-.63.83-.63,1.45-.63,2.27v15.07c0,.83-.21,1.45.63,2.06.21.21.21,1.03,0,1.24-1.04.62-.63,1.65-.63,2.48-.21,1.03,1.25,1.45.84,2.68-.21.62.21,1.45.84,2.06v1.24c.63,1.24,1.67,2.06,2.51,2.89.63.62,1.46.21,1.67.83,0,0,.42,0,.83.21.84,0,1.67-.21,2.3.41.63.83,1.88.21,2.72.41h2.51c.21,0,.42.21.63.41ZM674.38,2.31v-.21c.21-.41,1.04-.41,1.46,0v.21c-.21.21-1.04.21-1.46,0ZM688.38,5.62c.21,0,.21.21.42.21l.63.41c.63.41,1.04.41,1.04.62.21.62.21,1.24.21,1.65s-.21.41-.42.62c-.63.62-.42,1.24.21,1.65.21.21.21.41,0,.62-.21,0-.63,0-.84.21-.21,0-.21.21-.42.41.84.41,1.25.41,1.46.83.21,0,.21.21.42.21l1.04.21c.21,0,.42,0,.42.21s.21.41.84.41c.63-.21,1.67-1.45,1.25-2.07-.21-.41-.63-1.03-.84-1.03-.63,0-.42.83-.84,1.45h-.42c-.21.21-.42.21-.63.21,0-.21-.21-.62-.21-.62.63-.41.42-1.45.83-1.86.84-.62.21-.83-.21-1.24v-.41l-.21-.62v-.21c-.83-.62-.83-1.24,0-1.86-.21-.62-.63-1.24-1.04-1.45-.21-.21-.63,0-.84.21-.63.41-1.04.62-1.67.62l-.21.62ZM690.68,142.52v-.83c-.21-.62-.63-1.03-1.25-1.24-.21-.21-.63,0-.83,0l-.21.41c.63.41.63,1.03.83,1.86q0,.83,1.25,1.03.84,0,.21-1.24ZM690.47,71.7c.21-.21.21-.41.21-.41l-.42-.62s-.21-.21-.42-.21c0,0-.21,0-.42-.21-.21.41-.42.83-.21,1.24,0,.41.84.41,1.25.21ZM689.63,32.46v-.21l.21-.21h-.42l-.21.21s0,.21.42.21ZM689.21,108.86s.21.21.21.41c.21,0,.21-.21.42-.41h-.63ZM690.05,93.38c.21.62.63.62,1.04.41q.21-.41.21-.62c-.21-.21-.42-.41-.63-.62-.21-.21-.42-.41-.63,0-.21.21-.21.62,0,.83ZM690.26,18.83s0,.21-.21.41c-.21.83-.21,1.65.42,2.27,0-.62,0-1.45-.21-2.68ZM690.05,16.56v.21c0,.21-.21.62,0,.83,0,.21.42.41.42.41.21,0,.42,0,.63-.21.42-.21.42-.41.21-.62-.63-.21-.84-.62-.63-1.24,0,0-.21-.21-.42-.21,0,0-.21.21-.21.41-.21.21,0,.21,0,.41ZM691.72,124.97c-.42-.41-1.04,0-1.04.62q0,.21.42,0c0,.21-.21.41-.42.41,0,.41-.21.62,0,.62.21.41.84.62,1.04.62.83-.83,1.88-.83,2.72-.83.21,0,.21-.83.42-1.24q0-.21-.21-.41h.21c.21,0,.63,0,.63-.21.21-.83.42-1.65-.21-2.07-.21-.21-.42-.41-.21-.62.21-.41,1.04-.62,0-1.03-.84-.41-1.25-.83-2.09-1.03-.84-.21-.63-.41,1.04-1.86-.42,0-1.04.21-1.46.21h.42c.63-.41,1.04-.83,1.04-1.24.21-.21.42-.21.63,0h.21c.21-.21.42-.41.83-.62,0-.62,0-1.03-.63-1.24-.21,0-.63,0-.84.21-.42.62-1.25,1.03-1.88,1.86-.21.21,0,.83,0,1.24-.63,0-1.46.21-1.88-.62,0-.41-.21-.21-.42,0,0,.21-.21.41,0,.41,0,.41.21,1.03.42,1.03.42.21,1.04,0,1.04.62,0,.83-.21,2.07,1.46,1.86.84.83,1.04,1.65-.84,3.3h-.42ZM691.09,82.43c-.21,0-.63,0-.84.21-.21.21-.42.83-.21,1.03.42.62,1.88.62,2.3,0,.21-.21-.21-.83-.21-1.03-.21-.21-.63-.21-1.04-.21ZM690.47,113.41c.63,0,1.04-.21,1.04-1.03l-.42-.21v-.21c-.84-.21-1.04.21-1.04.62-.21.41.21.62.42.83ZM690.68,41.55h.21l.42-.21h.21c0-.83-.21-1.24-.84-1.24-.42-.21-.63.21-.63.62-.21.62.21.83.63.83ZM690.47,22.14c-.42.41-.42.62-.42,1.03,0,.21.21.41.21.41,0,0,.21,0,.42-.21,0-.21,0-.41-.21-1.24ZM690.47,101.22c-.21.21-.42.21-.42.41q.21,0,.42.21v-.62ZM691.09,22.14c.21-.21.42-.62.42-.62-.42-1.03-.84-1.65-1.04-2.48v2.68h.21s0,.62.42.41ZM691.3,135.71q-.21-.21-.42-.21c-.42.41-.42,1.24,0,1.45,0,.21.21,0,.42,0,.42-.21.42-1.03,0-1.24ZM691.3,37.83h-.63c0,.21-.21.62,0,.83,0,.21.42.41.63.41,1.04.21,1.46.62,1.88,1.86h-.42c-.21.21-.63.41,0,.62,0,0,.21-.21.42-.41v.21c0-.21.21-.41,0-.41.63,0,.84-.21.84-.62q.21-1.03,1.04-.41c.21.21.42.62,1.04.83l.21-.21c.21,0,.21-.21.21-.41,0-.83-.84-1.24-.63-2.48h.21l.21-.21c.21-.62.21-1.24-.42,0,0-.41,0-.83.21-1.45-.42.62-.42.83-.42,1.24v.41s0-.21.21-.21v.21h-.21l-1.04-.62c-.63-.41-.63.41-1.04.83q-.84.41-2.3,0ZM691.09,29.16h.21l.21-.21s-.21,0-.42-.21c0,0-.21.21-.42.21,0,.21.21.41.21.41,0,0,.21,0,.21-.21ZM692.35,46.5c0-.62-.21-.83-1.04-.83-.21,0-.42.21-.63.41.42.41.63.62,1.04,1.03h.21c.21-.21.42-.41.42-.62ZM690.68,90.07c0,.21.42.41.42.41,1.04-.41,1.67-2.27,1.04-3.1h-.83c-.21,0-.63,0-.63.21v2.48ZM692.77,133.02c.21-.21.42-.62-.42-1.65.42.21.63.41,1.04.83-.21-.62-.21-1.03-.21-1.45-.21-.21-.63-.21-.84-.21q0-.21-.21-.62c-.21,0-.63-.21-.83,0h-.21l-.21.21s0,.21.21.41c.21,0,.42,0,1.04.41-.21.41-.63.62-.63.83.21.41.83.83,1.25,1.24ZM692.14,124.97c0,.21.21.41.42.41-.63.21-1.04.21-1.46.21l1.04-.62ZM692.14,35.15h-.42c-.42.41-.42,1.24,0,1.45.21.21.21,0,.42,0,.42-.21.42-1.03,0-1.45ZM691.51,110.1c0,.21.21.41.42.62h.21l.21-.21q1.04-.83,0-1.65h-.63s-.21.21-.21.41v.83ZM692.35,130.96q-.21-.21-.42-.41h.42v.41ZM692.35,131.37q0-.21-.21-.41h.21v.41ZM694.02,105.15c.42,0,.63,0,.84-.21-.21-.21-.42-.21-.84-.41h-1.04c-.21,0-.42.21-.63.41.21.21.42.21.63.21h1.04ZM694.02,96.47s-.21,0-.42-.21c-.42,0-.84.21-1.04.41-.21.21,0,.62,0,1.03,0,.21.21.21.21.21.21,0,1.25-1.24,1.25-1.45ZM692.56,68.8c0,.41.21.41.42.41,0-.21-.21-.41-.42-.41ZM692.56,114.03c.21.41,1.04.41,1.46,0,0-.41-.21-.62-.84-.62-.21,0-.63.41-.63.62ZM693.39,125.18c-.21.41-.42.41-.84.21.21,0,.63,0,.84-.21ZM693.18,143.14s-.21,0-.42-.21l-.21.21v.41c.21,0,.42-.21.63-.41ZM697.36,7.27c-.21-.41-.63-.62-.63-1.24l.63-.62c0-.62-.21-1.03-.42-1.24-.21-.21-.63-.21-.84,0-1.04,1.03-2.09,1.65-2.92,2.68v.83l.63.62h.63s.63,0,.84-.21c.63-.83,1.04-.62,1.67,0,.21,0,.21-.21.42-.41v-.41ZM694.85,25.23s0-.21-.21-.21l-.21-.41-.21-.21c-.63,0-1.04.21-1.04,1.03,0,.41.21.62.84.83.42,0,.84-.21.84-1.03ZM693.39,16.15c0,.21.42.41.84.83.21,0,.42-.21.63-.41,0-.62-.21-1.65.63-2.07,0,0,0-.21-1.46-.21-.42.41-1.04,1.03-.63,1.86ZM693.6,23.58q.21,0,.21-.21v-.21l-.21-.21-.21.21c0,.21.21.41.21.41ZM693.81,124.76h.21c0,.21.63,0,.63,0-.42.21-.84.41-1.25.41.21,0,.21-.21.42-.41ZM694.85,140.05c-.42-.21-.84-.41-1.04-.41s-.42.21-.42.41l.21.41c.42-.21.84-.41,1.25-.41ZM696.53,102.46c-.63-.41-1.04-.83-1.46-1.03-.42,0-.84.41-1.25.62.63.83,1.04,1.45,1.46,1.45s.83-.62,1.25-1.03ZM694.65,32.87c-.42,0-.63.21-.63.41,0,0,.21.21.42.21,0-.21.21-.41.21-.62ZM694.85,75c-.21-.41-.42-.62-.42-.83-.21.21-.42.41-.42.62v1.45c0,.21.21.41.42.62,0-.41.21-.83.42-.83v-1.03ZM697.36,134.26c0-.21-.21-.41-.42-.62q-.21-.21-.21-.41l.42-.21c.21-.41,0-.83-.42-.83-1.04-.21-1.88.21-2.51,1.03-.21.21-.21.41,0,.41,1.25,0,1.46.62,1.67,1.45,0,.62.84.41,1.04.41.21-.21.42-.83.42-1.24ZM696.11,112.38c-.83-.21-1.25-.41-1.46-.41s-.42.21-.42.41l.21.21c.42,0,.84-.21,1.67-.21ZM695.27,13.88c-.21,0-.63,0-.84.21.21,0,.63,0,.84-.21ZM695.48,18.01c-.42,0-.84.21-.63.83,0,.62.42,1.03,1.25.83,0-.21.42-.41.42-.83,0-.62-.42-1.03-1.04-.83ZM696.53,79.13c-.21-.21-.42-.62-.63-.62-.42.21-.42,1.03,0,1.45h.42c0-.21.21-.41.21-.83ZM696.11,98.54l.21-.21h.21c0-.21-.21-.21-.21-.21-.21,0-.42,0-.63.21,0,0,.21.21.42.21ZM697.36,29.78c-.42-.41-1.25-.41-1.46,0-.21,0-.21.21,0,.21.21.41,1.04.41,1.25,0,.21,0,.21-.21.21-.21ZM696.11,86.56s0-.21.21-.41c0,0-.21-.21-.42-.21,0,.21,0,.41.21.62ZM696.11,106.8s.21,0,.21-.41l-.21-.21q-.21,0-.21.21c0,.21,0,.41.21.41ZM696.11,139.43l.21-.41-.21-.21q-.21,0-.21.21c0,.21,0,.41.21.41Z"/>
      <path class="cls-1" d="M854.26,33.29v5.58c0,.21-.42.21-.42.21-.42-1.03-.42-1.65-.42-2.68,0-.62,0-1.24-.21-2.06-1.25-.21,0-2.07-1.25-2.68v-.62c.21-1.03-1.25-1.86-.84-2.89.21-1.03-.42-1.65-.84-2.48-.63-1.03-.83-2.27-1.67-3.1,0-2.48-3.34-7.64-5.01-9.09-.83-.41-.63-1.86-1.67-2.48-.84-.62-1.25-1.65-2.51-1.86-1.25-.21-1.46-1.65-2.3-2.07-1.88-.83-3.34-2.27-5.43-2.06-1.25.21-1.67-1.24-2.92-.83-1.25.21-2.09,0-3.34,0h-6.06c-.84,0-1.88-.21-2.72,0-.83.21-1.04-1.03-2.09-1.03h-1.88l-3.97.21h-1.88c-1.25,0-1.88,1.03-3.34.83-1.46-.21-2.72,0-4.18,0h-3.76c-.42,0-1.04.83-.63,1.24.63.41.84,1.03.84,2.07,0,3.72-.21,7.64,0,11.36,0,1.03-.42,1.24-.84,2.06-.42.62-.21,1.45-.21,2.07.21,1.24-.21,2.68,1.04,3.92v.62c-.42.62-1.04,1.45-.84,2.06.21,1.03.84,1.45.84,2.48-.21.83,0,1.86,0,2.48,0,1.03.21,2.07-.84,2.68,0,.62-.42,1.45.42,2.07.21.21.42,1.03.21,1.24-1.04.83-.84,1.86-.63,2.89,0,.83-.42,1.65.63,2.48.21.21.21.83.21,1.24v8.47c0,.62-.21,1.24-.84,1.86-.42.41-.21,1.03.42,1.45s.63,1.45.21,1.65c-1.25,2.07-.42,3.92-.84,5.78,1.67,1.24.84,2.89,1.04,4.13,0,1.65-.21,3.1,0,4.54,0,.83-.84,1.03-.84,1.45,0,.83-.42,2.07.42,3.1.42.21.42,1.24.21,1.65-1.25,1.65-.63,3.3-.63,5.16v.21l.63.41c.21,3.72.21,7.02.21,10.53,0,.21-.42.41-.63.62-.42.21-.63.83,0,1.24.84.62.63,1.65.42,2.27q-1.04,3.1,0,5.37c0,.62.21,1.24.21,1.65v10.94c0,.83.21,1.65-.84,2.27v4.34c1.25.62.63,1.65.84,2.48v7.85c1.04.62.83,1.86.83,2.89,0,.41.21.83.63,1.03.84.83,1.67,1.65,2.51,2.68.63.62,1.88.41,2.3,1.24,1.04-.21,1.67.41,2.72.62.63.41,1.46.21,2.3.21h2.3c.21.21.42.21.42.41,0,0-.21.21-.42.21-.42.21-1.25.21-1.88.21h-38.02c-.21,0-.42-.41-.83-.41.42-.21.83-.41.83-.41h2.3c.84-.21,1.67.41,2.72-.62.63-.62,1.88,0,2.51-.41.63,0,1.04-.83,1.88-.62,1.25-1.24,2.72-2.27,3.13-3.92.21-.21.63-.41.63-.62v-3.3c1.25-.83.83-2.06.83-2.89V4.79c0-.41-.21-.62-.83-.62h-4.6c-.84,0-1.67-.21-2.3,0-1.25.21-1.46-1.03-2.3-.83-2.51,0-4.8-.21-7.52,0-.84,0-1.67,1.03-2.93.83-.83-.21-1.88,0-2.92,0h-3.13c-1.46-.21-2.72.21-3.97-.83-.21-.41-1.25-.21-1.46,0-.63.83-1.67.41-2.09.83-1.04.83-1.88.62-2.92.83-1.04.21-1.88.62-2.51,1.03-.84.62-1.46,1.65-2.92,1.45-.21-.21-.42.21-.84.62-1.67,1.45-3.13,3.3-5.01,4.96-1.04.62-1.25,1.86-1.88,2.68,0,1.45-1.67,2.27-2.3,3.72-.63,1.24-1.25,2.68-1.88,4.13-.63.62-1.46,1.86-1.04,3.1.21.83-1.25,1.45-.84,2.48.21.83,0,1.65-.84,2.06v.83c0,1.03.21,2.06-.63,2.48,0,.83.21,2.07-.21,2.48-.63.83-.84,1.65-1.04,2.89-.21,0-.63-.21-.63-.41v-3.72c1.67-2.07.42-4.75.84-6.81.21-1.45,1.25-2.27,1.04-3.92-.21-1.24-.21-2.27,0-3.51,0-1.24.83-2.07.63-3.51v-3.1c.21-1.24,1.04-2.06.84-3.3s0-2.27,0-3.3v-3.72c-.21-1.24,1.46-2.07.84-3.3,0,0,.42-.41.63-.41h.83c1.04.41,2.09,1.03,3.34.83h13.58c1.04,0,1.88.21,2.72-.83.21-.21,1.25-.21,1.46,0,.84,1.24,1.88.83,3.13.83h11.91c1.04,0,2.3.41,3.34-.83.42-.21,1.25-.21,1.46.21.84.62,1.46.62,2.3.62h14.42c.84,0,1.46.21,2.3-.62.21-.41,1.25-.41,1.46-.21,1.25,1.24,2.92.83,4.18.83h12.54c.84,0,1.67.21,2.51-.83.21-.21,1.25-.21,1.67,0,.63,1.03,1.67.83,2.92.83h11.49c1.25,0,2.72.62,3.76-.83h2.51c.83,1.24,1.88.83,2.92.83h10.24c1.88.21,3.55-.41,5.22.41.21,1.45.42,3.3,0,4.75-.21,1.65,1.04,2.48,1.04,3.72-.21,1.24,0,2.48,0,3.72,1.04.83.63,2.06.63,2.89,0,1.24-.21,2.27,0,3.3.21,2.06-.63,4.34.83,6.4.21,0,0,.21,0,.62.42,1.86-.63,3.92.84,5.78ZM730.37,6.03l-.21-.21s-.21,0-.42.21c.21.21.21.41.21.21.21,0,.42,0,.42-.21ZM732.25,7.27v-.21c-.21-.41-.42-.62-.84-.21,0,0,.21.21.84.41ZM733.08,7.89c-.21-.21-.42-.41-.42-.62-.21,0-.42,0-.42.21.21,0,.42.21.83.41ZM732.25,7.47c.21.41.21.62.42.62,0,0,.21,0-.42-.62ZM740.4,5.2c-.42-.41-1.25-.41-1.46,0v.41c.42.21,1.25.21,1.46,0v-.41ZM783.85,142.73v.21l-.21.21s0,.21.21.41v-.83ZM786.78,66.12c.21,1.24.63.41.84.21.42-.21.84-.21,1.46-.21-.21-.21-.63-.41-.84-.83-.63,0-.84-.41-.84-.62-.42-.41-.84-1.03-1.67-1.65-.21,1.24.63,2.27,1.04,3.1ZM792,73.35h-3.76c-.21,0-.63.21-.84.41-.21.62-.63.21-1.04-.21,0,0-.42,0-.42.21-.21.21-.21.62-.21.83l2.72,1.45c.84-.21,1.88.21,2.51-.62.42-.62,1.04-.41,1.46.21.42.41.63.41.63,0,.21-.21.21-.62.21-.83,0-1.24,0-1.45-1.25-1.45ZM785.73,91.73c0,.21,0,.62.21.83,0,.21.21.21.42.41.21,0,.42-.21.42-.41,0-.62,0-1.03-.21-1.65h-.21c0-.21-.21-.21-.21-.21,0,0-.21.21-.21.41-.21,0-.21.41-.21.62ZM788.03,97.92c.63.21,1.04-.21,1.04-.83,0-.41-.21-.62-.63-.83h-.84c-.21,0-.42,0-.63-.21q-1.25-.21-1.25.62c0,.21,0,.62.21.83,0,.21.21.21.42.41.63-1.24,1.04,0,1.67,0ZM788.66,80.57c.21,0,.21-.21.21-.41-.42,0-1.04-.21-1.04,0-.42.21-.42.83-.42,1.24-.42.62-1.04,1.03-1.46,1.45-.21.21-.21.83,0,.83.21.21.63.21,1.04.21.21,0,.42,0,.42-.21.42-.62.63,0,.84.21h.42c.42-.21.42-.41.63-.41-.21-.41-.42-.83-.63-1.03-.63-.62-.63-1.24,0-1.86ZM787.4,64.26v-.21c0-.41-1.04-.62-.21-1.24.21-.21.21-.41,0-.62,0,0-.21,0-.42-.21-.63,0-.83.41-.83.62-.21,0-.21.21,1.46,1.65ZM785.94,15.12c0,.41.83.62,1.25.41q.21-.21.21-.41c0-.41-.84-1.03-1.25-1.03-.21.21-.42.62-.21,1.03ZM785.94,57.03c0,1.03.63,1.45,1.46,1.86,0,0,.63-.21.84-.62.21,0,0-.41,0-.83,0-1.03,0-1.24-.84-1.24-.42,0-.84,0-1.25.21-.21,0-.42.41-.21.62ZM786.15,51.46s.21-.21.63-.62v-.21h-.42c-.42.21-.63.41-.21.83ZM786.36,69.42c-.42.21-.63.41-.21.62,0,0,.21-.21.42-.62h-.21ZM786.36,23.58s.21-.21.21-.41c-.42,0-.63.21-.63.41h.42ZM787.4,87.39c-.63,0-.84.62-1.46,1.03.21.21.21.41.42.41.21.21.63,0,.84,0,.84,0,1.04-.21,1.04-1.03,0-.41-.42-.41-.84-.41ZM786.78,69.01q-.21.21-.21.41c0-.21.21-.21.21-.41ZM786.99,50.43c.42-.41.42-.83,1.04-1.45-.42.21-.63.41-.63.62-.63.41-.84.62-.42.83ZM787.2,19.45l.21-.21q0-.21-.21-.41l-.21.21v.21c-.21,0-.21.21-.21.21h.42ZM787.4,33.49h-.21l-.21.41h-.21c.63.41.63,1.24,1.67,1.03h.21l.21-.21h.21c-.63-.41-.84-1.45-1.67-1.24ZM787.2,67.77c-.42.62-.42.83-.42,1.24.21-.41.21-.62.42-1.24ZM786.78,69.42q.21,0,.63-.21c0-.62,0-1.24-.63.21ZM787.61,106.8h.63c.63.21.84-.21.84-.62.21-.62-.21-1.03-.84-1.03h-1.04c-.21,0-.42.41-.42.62,0,.83.21,1.03.84,1.03ZM788.45,48.98c0-.21-.21,0-1.25,1.45.42.41,2.3,1.65,2.51,1.65.21.21.63,0,1.04,0,.21-.21.21-.62,0-.83-.63-.83-1.46-1.65-2.3-2.27ZM789.29,120.63c-.21-.21-.63-.62-.84-.62l-.21.21-.63.62q0,.21-.21.41c1.04.21,1.67.21,2.3.41.42-.83-.21-.83-.42-1.03ZM788.66,65.5c.21.21.42.41.83.62h1.67q.42,0,.42-.41s-.21,0-.42-.21c-.21-.62-.63-1.45-1.67-.21,0,.21-.42.21-.83.21ZM789.08,9.33s.21,0,.42.21c0,0,.21,0,.42-.21h-.83ZM791.58,86.98c0-.41-1.46-1.45-1.88-1.24-.42,0-.63.41-.63.83.21.21.21.62.42.62.63.21,1.25.21,1.67.21.21-.21.42-.41.42-.41ZM791.58,95.03c-.42-.41-.63-.41-.63-.62-.21-.21-.63-.41-.84-.41-.21-.21-.21,0-.42,0l-.42.21v.21c-.21,0-.21.21-.21.21,0,.41.21.62.63.83h1.25c0-.21.21-.21.63-.41ZM789.91,99.99q-.21-.21-.42-.21c-.21-.21-.21,0-.42.21h.21l.21.21q.21,0,.42-.21ZM789.49,43.2q.21-.21.42-.41s-.21-.21-.42-.21l-.21.21q0,.21.21.41ZM790.12,21.31c-.21.21,0,.62.21.62.42.21.63.21.63.21h.42c.42-.21.63-.21.84-.41,0,0,0-.41-.21-.41-.21-.41-.63-.83-.84-1.03h-.63c-.21.41-.42.83-.42,1.03ZM792.63,29.36c-.84.41-1.67.62-2.3,1.03-.21,0-.21.21-.21.41h.21c.63.21,1.04.21,1.46.83h.21c.21,0,.42-.21.42-.21,0-.62,0-1.03.63-1.24.21-.21.42-.41,0-.62-.21,0-.42-.21-.42-.21ZM791.37,41.34v-.21h-.21l-.21-.21c-.42,0-.84.41-.84.41.21.41.84.41,1.25,0ZM790.54,67.77q.21,0-.42-.62c0,.21.21.41.42.62ZM791.37,92.76v-.21l-.21-.21h-.21c-.42,0-.84.21-.84.41.21.41.84.41,1.25,0ZM790.75,132.2c.21.21.42.41.63.41,0,0-.21-.21-.42-.41v-.41c-.21-.21-.63-.62-.84-.21q0,.21.63.62ZM792.42,66.95c0-.21-.21-.62-.42-.83-.42-.21-.42,0-.42.21-.42.41-.63.41-1.04.62.21.21.42.41.63.83.21,0,.63,0,.84-.21.21,0,.42-.41.42-.62ZM790.75,132.41q.21.41.42.62s.21-.21-.42-.62ZM792.42,34.32c0-.41-.21-.62-.63-.83-.63,0-.84.21-.84.83v.83c-.21.41,0,.62.42.83.63,0,1.04-.21,1.04-.83v-.83ZM791.79,4.79c-.21,0,0,0,.21.21v-.21l.21-.21v-.21c-.42,0-.42.21-.42.41ZM792,82.23l.21-.21v-.21c-.42,0-.42.21-.42.41-.21,0,0,0,.21.21v-.21ZM792,16.97q.21-.21.42-.21c-.21-.21-.42-.21-.63-.21,0,.21.21.41.21.41ZM792.21,46.92l-.21-.21h-.21c0,.41.21.41.21.62q.21-.21.21-.41ZM792,69.42c-.21.21-.21.41-.21.62.21,0,.21-.21.21-.62ZM793.05,89.25l-.21-.21s-.21,0-.42.21c0,0,.21,0,.21.21h.21l.21.21v-.41ZM841.93,5.82s0-.21-.21-.21v-.21l-.21-.21c0-.21-.21-.21-.21,0-.21.21-.21,1.03,0,1.03.21.21.42-.21.63-.41ZM844.86,6.03c-.63-.21-1.04-.21-1.46-.21-.21,0-.42,0-.63.21.21.21.42.41.63.41.42,0,.84-.21,1.46-.41ZM846.11,5c-.63,0-.84.21-1.04.62,0,.41.21.83,1.25.83,0,0,.42-.41.63-.62.21-.41-.21-.83-.83-.83ZM847.57,9.54s0-.21-.21-.41c-.21,0-.42.21-.21.21,0,0,0,.21.42.21ZM850.08,15.94q-.21-.21-.42-.21l-.21.21s0,.21.21.41c.21,0,.21-.21.42-.41Z"/>
    </g>
  </g>
</svg>